%TF.GenerationSoftware,KiCad,Pcbnew,(7.0.0)*%
%TF.CreationDate,2023-02-25T12:05:11-06:00*%
%TF.ProjectId,Autorelay,4175746f-7265-46c6-9179-2e6b69636164,1*%
%TF.SameCoordinates,Original*%
%TF.FileFunction,Drillmap*%
%TF.FilePolarity,Positive*%
%FSLAX45Y45*%
G04 Gerber Fmt 4.5, Leading zero omitted, Abs format (unit mm)*
G04 Created by KiCad (PCBNEW (7.0.0)) date 2023-02-25 12:05:11*
%MOMM*%
%LPD*%
G01*
G04 APERTURE LIST*
%ADD10C,0.100000*%
%ADD11C,0.200000*%
%ADD12C,0.065000*%
%ADD13C,0.220000*%
G04 APERTURE END LIST*
D10*
X8961000Y-12141500D02*
X21788000Y-12141500D01*
X8961000Y-6871000D02*
X8961000Y-12141500D01*
X21788000Y-12141500D02*
X21788000Y-6871000D01*
X21788000Y-6871000D02*
X8961000Y-6871000D01*
D11*
D12*
X19186620Y-7494820D02*
X19251620Y-7559820D01*
X19251620Y-7494820D02*
X19186620Y-7559820D01*
X19936620Y-7494820D02*
X20001620Y-7559820D01*
X20001620Y-7494820D02*
X19936620Y-7559820D01*
D13*
X13027000Y-11336480D02*
G75*
G03*
X13027000Y-11336480I-110000J0D01*
G01*
X19173800Y-11336480D02*
G75*
G03*
X19173800Y-11336480I-110000J0D01*
G01*
D11*
X9203619Y-12439976D02*
X9203619Y-12239976D01*
X9203619Y-12239976D02*
X9251238Y-12239976D01*
X9251238Y-12239976D02*
X9279810Y-12249500D01*
X9279810Y-12249500D02*
X9298857Y-12268548D01*
X9298857Y-12268548D02*
X9308381Y-12287595D01*
X9308381Y-12287595D02*
X9317905Y-12325690D01*
X9317905Y-12325690D02*
X9317905Y-12354262D01*
X9317905Y-12354262D02*
X9308381Y-12392357D01*
X9308381Y-12392357D02*
X9298857Y-12411405D01*
X9298857Y-12411405D02*
X9279810Y-12430452D01*
X9279810Y-12430452D02*
X9251238Y-12439976D01*
X9251238Y-12439976D02*
X9203619Y-12439976D01*
X9403619Y-12439976D02*
X9403619Y-12306643D01*
X9403619Y-12344738D02*
X9413143Y-12325690D01*
X9413143Y-12325690D02*
X9422667Y-12316167D01*
X9422667Y-12316167D02*
X9441714Y-12306643D01*
X9441714Y-12306643D02*
X9460762Y-12306643D01*
X9527429Y-12439976D02*
X9527429Y-12306643D01*
X9527429Y-12239976D02*
X9517905Y-12249500D01*
X9517905Y-12249500D02*
X9527429Y-12259024D01*
X9527429Y-12259024D02*
X9536952Y-12249500D01*
X9536952Y-12249500D02*
X9527429Y-12239976D01*
X9527429Y-12239976D02*
X9527429Y-12259024D01*
X9651238Y-12439976D02*
X9632190Y-12430452D01*
X9632190Y-12430452D02*
X9622667Y-12411405D01*
X9622667Y-12411405D02*
X9622667Y-12239976D01*
X9756000Y-12439976D02*
X9736952Y-12430452D01*
X9736952Y-12430452D02*
X9727429Y-12411405D01*
X9727429Y-12411405D02*
X9727429Y-12239976D01*
X9952190Y-12439976D02*
X9952190Y-12239976D01*
X9952190Y-12239976D02*
X10018857Y-12382833D01*
X10018857Y-12382833D02*
X10085524Y-12239976D01*
X10085524Y-12239976D02*
X10085524Y-12439976D01*
X10266476Y-12439976D02*
X10266476Y-12335214D01*
X10266476Y-12335214D02*
X10256952Y-12316167D01*
X10256952Y-12316167D02*
X10237905Y-12306643D01*
X10237905Y-12306643D02*
X10199809Y-12306643D01*
X10199809Y-12306643D02*
X10180762Y-12316167D01*
X10266476Y-12430452D02*
X10247429Y-12439976D01*
X10247429Y-12439976D02*
X10199809Y-12439976D01*
X10199809Y-12439976D02*
X10180762Y-12430452D01*
X10180762Y-12430452D02*
X10171238Y-12411405D01*
X10171238Y-12411405D02*
X10171238Y-12392357D01*
X10171238Y-12392357D02*
X10180762Y-12373309D01*
X10180762Y-12373309D02*
X10199809Y-12363786D01*
X10199809Y-12363786D02*
X10247429Y-12363786D01*
X10247429Y-12363786D02*
X10266476Y-12354262D01*
X10361714Y-12306643D02*
X10361714Y-12506643D01*
X10361714Y-12316167D02*
X10380762Y-12306643D01*
X10380762Y-12306643D02*
X10418857Y-12306643D01*
X10418857Y-12306643D02*
X10437905Y-12316167D01*
X10437905Y-12316167D02*
X10447429Y-12325690D01*
X10447429Y-12325690D02*
X10456952Y-12344738D01*
X10456952Y-12344738D02*
X10456952Y-12401881D01*
X10456952Y-12401881D02*
X10447429Y-12420928D01*
X10447429Y-12420928D02*
X10437905Y-12430452D01*
X10437905Y-12430452D02*
X10418857Y-12439976D01*
X10418857Y-12439976D02*
X10380762Y-12439976D01*
X10380762Y-12439976D02*
X10361714Y-12430452D01*
X10542667Y-12420928D02*
X10552190Y-12430452D01*
X10552190Y-12430452D02*
X10542667Y-12439976D01*
X10542667Y-12439976D02*
X10533143Y-12430452D01*
X10533143Y-12430452D02*
X10542667Y-12420928D01*
X10542667Y-12420928D02*
X10542667Y-12439976D01*
X10542667Y-12316167D02*
X10552190Y-12325690D01*
X10552190Y-12325690D02*
X10542667Y-12335214D01*
X10542667Y-12335214D02*
X10533143Y-12325690D01*
X10533143Y-12325690D02*
X10542667Y-12316167D01*
X10542667Y-12316167D02*
X10542667Y-12335214D01*
D12*
X8891000Y-12754000D02*
X8956000Y-12819000D01*
X8956000Y-12754000D02*
X8891000Y-12819000D01*
D11*
X9241714Y-12659976D02*
X9260762Y-12659976D01*
X9260762Y-12659976D02*
X9279810Y-12669500D01*
X9279810Y-12669500D02*
X9289333Y-12679024D01*
X9289333Y-12679024D02*
X9298857Y-12698071D01*
X9298857Y-12698071D02*
X9308381Y-12736167D01*
X9308381Y-12736167D02*
X9308381Y-12783786D01*
X9308381Y-12783786D02*
X9298857Y-12821881D01*
X9298857Y-12821881D02*
X9289333Y-12840928D01*
X9289333Y-12840928D02*
X9279810Y-12850452D01*
X9279810Y-12850452D02*
X9260762Y-12859976D01*
X9260762Y-12859976D02*
X9241714Y-12859976D01*
X9241714Y-12859976D02*
X9222667Y-12850452D01*
X9222667Y-12850452D02*
X9213143Y-12840928D01*
X9213143Y-12840928D02*
X9203619Y-12821881D01*
X9203619Y-12821881D02*
X9194095Y-12783786D01*
X9194095Y-12783786D02*
X9194095Y-12736167D01*
X9194095Y-12736167D02*
X9203619Y-12698071D01*
X9203619Y-12698071D02*
X9213143Y-12679024D01*
X9213143Y-12679024D02*
X9222667Y-12669500D01*
X9222667Y-12669500D02*
X9241714Y-12659976D01*
X9394095Y-12840928D02*
X9403619Y-12850452D01*
X9403619Y-12850452D02*
X9394095Y-12859976D01*
X9394095Y-12859976D02*
X9384571Y-12850452D01*
X9384571Y-12850452D02*
X9394095Y-12840928D01*
X9394095Y-12840928D02*
X9394095Y-12859976D01*
X9575048Y-12659976D02*
X9536952Y-12659976D01*
X9536952Y-12659976D02*
X9517905Y-12669500D01*
X9517905Y-12669500D02*
X9508381Y-12679024D01*
X9508381Y-12679024D02*
X9489333Y-12707595D01*
X9489333Y-12707595D02*
X9479810Y-12745690D01*
X9479810Y-12745690D02*
X9479810Y-12821881D01*
X9479810Y-12821881D02*
X9489333Y-12840928D01*
X9489333Y-12840928D02*
X9498857Y-12850452D01*
X9498857Y-12850452D02*
X9517905Y-12859976D01*
X9517905Y-12859976D02*
X9556000Y-12859976D01*
X9556000Y-12859976D02*
X9575048Y-12850452D01*
X9575048Y-12850452D02*
X9584571Y-12840928D01*
X9584571Y-12840928D02*
X9594095Y-12821881D01*
X9594095Y-12821881D02*
X9594095Y-12774262D01*
X9594095Y-12774262D02*
X9584571Y-12755214D01*
X9584571Y-12755214D02*
X9575048Y-12745690D01*
X9575048Y-12745690D02*
X9556000Y-12736167D01*
X9556000Y-12736167D02*
X9517905Y-12736167D01*
X9517905Y-12736167D02*
X9498857Y-12745690D01*
X9498857Y-12745690D02*
X9489333Y-12755214D01*
X9489333Y-12755214D02*
X9479810Y-12774262D01*
X9775048Y-12659976D02*
X9679810Y-12659976D01*
X9679810Y-12659976D02*
X9670286Y-12755214D01*
X9670286Y-12755214D02*
X9679810Y-12745690D01*
X9679810Y-12745690D02*
X9698857Y-12736167D01*
X9698857Y-12736167D02*
X9746476Y-12736167D01*
X9746476Y-12736167D02*
X9765524Y-12745690D01*
X9765524Y-12745690D02*
X9775048Y-12755214D01*
X9775048Y-12755214D02*
X9784571Y-12774262D01*
X9784571Y-12774262D02*
X9784571Y-12821881D01*
X9784571Y-12821881D02*
X9775048Y-12840928D01*
X9775048Y-12840928D02*
X9765524Y-12850452D01*
X9765524Y-12850452D02*
X9746476Y-12859976D01*
X9746476Y-12859976D02*
X9698857Y-12859976D01*
X9698857Y-12859976D02*
X9679810Y-12850452D01*
X9679810Y-12850452D02*
X9670286Y-12840928D01*
X9908381Y-12659976D02*
X9927429Y-12659976D01*
X9927429Y-12659976D02*
X9946476Y-12669500D01*
X9946476Y-12669500D02*
X9956000Y-12679024D01*
X9956000Y-12679024D02*
X9965524Y-12698071D01*
X9965524Y-12698071D02*
X9975048Y-12736167D01*
X9975048Y-12736167D02*
X9975048Y-12783786D01*
X9975048Y-12783786D02*
X9965524Y-12821881D01*
X9965524Y-12821881D02*
X9956000Y-12840928D01*
X9956000Y-12840928D02*
X9946476Y-12850452D01*
X9946476Y-12850452D02*
X9927429Y-12859976D01*
X9927429Y-12859976D02*
X9908381Y-12859976D01*
X9908381Y-12859976D02*
X9889333Y-12850452D01*
X9889333Y-12850452D02*
X9879810Y-12840928D01*
X9879810Y-12840928D02*
X9870286Y-12821881D01*
X9870286Y-12821881D02*
X9860762Y-12783786D01*
X9860762Y-12783786D02*
X9860762Y-12736167D01*
X9860762Y-12736167D02*
X9870286Y-12698071D01*
X9870286Y-12698071D02*
X9879810Y-12679024D01*
X9879810Y-12679024D02*
X9889333Y-12669500D01*
X9889333Y-12669500D02*
X9908381Y-12659976D01*
X10060762Y-12859976D02*
X10060762Y-12726643D01*
X10060762Y-12745690D02*
X10070286Y-12736167D01*
X10070286Y-12736167D02*
X10089333Y-12726643D01*
X10089333Y-12726643D02*
X10117905Y-12726643D01*
X10117905Y-12726643D02*
X10136952Y-12736167D01*
X10136952Y-12736167D02*
X10146476Y-12755214D01*
X10146476Y-12755214D02*
X10146476Y-12859976D01*
X10146476Y-12755214D02*
X10156000Y-12736167D01*
X10156000Y-12736167D02*
X10175048Y-12726643D01*
X10175048Y-12726643D02*
X10203619Y-12726643D01*
X10203619Y-12726643D02*
X10222667Y-12736167D01*
X10222667Y-12736167D02*
X10232191Y-12755214D01*
X10232191Y-12755214D02*
X10232191Y-12859976D01*
X10327429Y-12859976D02*
X10327429Y-12726643D01*
X10327429Y-12745690D02*
X10336952Y-12736167D01*
X10336952Y-12736167D02*
X10356000Y-12726643D01*
X10356000Y-12726643D02*
X10384572Y-12726643D01*
X10384572Y-12726643D02*
X10403619Y-12736167D01*
X10403619Y-12736167D02*
X10413143Y-12755214D01*
X10413143Y-12755214D02*
X10413143Y-12859976D01*
X10413143Y-12755214D02*
X10422667Y-12736167D01*
X10422667Y-12736167D02*
X10441714Y-12726643D01*
X10441714Y-12726643D02*
X10470286Y-12726643D01*
X10470286Y-12726643D02*
X10489333Y-12736167D01*
X10489333Y-12736167D02*
X10498857Y-12755214D01*
X10498857Y-12755214D02*
X10498857Y-12859976D01*
X10856952Y-12650452D02*
X10685524Y-12907595D01*
X11081714Y-12659976D02*
X11100762Y-12659976D01*
X11100762Y-12659976D02*
X11119810Y-12669500D01*
X11119810Y-12669500D02*
X11129333Y-12679024D01*
X11129333Y-12679024D02*
X11138857Y-12698071D01*
X11138857Y-12698071D02*
X11148381Y-12736167D01*
X11148381Y-12736167D02*
X11148381Y-12783786D01*
X11148381Y-12783786D02*
X11138857Y-12821881D01*
X11138857Y-12821881D02*
X11129333Y-12840928D01*
X11129333Y-12840928D02*
X11119810Y-12850452D01*
X11119810Y-12850452D02*
X11100762Y-12859976D01*
X11100762Y-12859976D02*
X11081714Y-12859976D01*
X11081714Y-12859976D02*
X11062667Y-12850452D01*
X11062667Y-12850452D02*
X11053143Y-12840928D01*
X11053143Y-12840928D02*
X11043619Y-12821881D01*
X11043619Y-12821881D02*
X11034095Y-12783786D01*
X11034095Y-12783786D02*
X11034095Y-12736167D01*
X11034095Y-12736167D02*
X11043619Y-12698071D01*
X11043619Y-12698071D02*
X11053143Y-12679024D01*
X11053143Y-12679024D02*
X11062667Y-12669500D01*
X11062667Y-12669500D02*
X11081714Y-12659976D01*
X11234095Y-12840928D02*
X11243619Y-12850452D01*
X11243619Y-12850452D02*
X11234095Y-12859976D01*
X11234095Y-12859976D02*
X11224571Y-12850452D01*
X11224571Y-12850452D02*
X11234095Y-12840928D01*
X11234095Y-12840928D02*
X11234095Y-12859976D01*
X11367429Y-12659976D02*
X11386476Y-12659976D01*
X11386476Y-12659976D02*
X11405524Y-12669500D01*
X11405524Y-12669500D02*
X11415048Y-12679024D01*
X11415048Y-12679024D02*
X11424571Y-12698071D01*
X11424571Y-12698071D02*
X11434095Y-12736167D01*
X11434095Y-12736167D02*
X11434095Y-12783786D01*
X11434095Y-12783786D02*
X11424571Y-12821881D01*
X11424571Y-12821881D02*
X11415048Y-12840928D01*
X11415048Y-12840928D02*
X11405524Y-12850452D01*
X11405524Y-12850452D02*
X11386476Y-12859976D01*
X11386476Y-12859976D02*
X11367429Y-12859976D01*
X11367429Y-12859976D02*
X11348381Y-12850452D01*
X11348381Y-12850452D02*
X11338857Y-12840928D01*
X11338857Y-12840928D02*
X11329333Y-12821881D01*
X11329333Y-12821881D02*
X11319810Y-12783786D01*
X11319810Y-12783786D02*
X11319810Y-12736167D01*
X11319810Y-12736167D02*
X11329333Y-12698071D01*
X11329333Y-12698071D02*
X11338857Y-12679024D01*
X11338857Y-12679024D02*
X11348381Y-12669500D01*
X11348381Y-12669500D02*
X11367429Y-12659976D01*
X11510286Y-12679024D02*
X11519810Y-12669500D01*
X11519810Y-12669500D02*
X11538857Y-12659976D01*
X11538857Y-12659976D02*
X11586476Y-12659976D01*
X11586476Y-12659976D02*
X11605524Y-12669500D01*
X11605524Y-12669500D02*
X11615048Y-12679024D01*
X11615048Y-12679024D02*
X11624571Y-12698071D01*
X11624571Y-12698071D02*
X11624571Y-12717119D01*
X11624571Y-12717119D02*
X11615048Y-12745690D01*
X11615048Y-12745690D02*
X11500762Y-12859976D01*
X11500762Y-12859976D02*
X11624571Y-12859976D01*
X11805524Y-12659976D02*
X11710286Y-12659976D01*
X11710286Y-12659976D02*
X11700762Y-12755214D01*
X11700762Y-12755214D02*
X11710286Y-12745690D01*
X11710286Y-12745690D02*
X11729333Y-12736167D01*
X11729333Y-12736167D02*
X11776952Y-12736167D01*
X11776952Y-12736167D02*
X11796000Y-12745690D01*
X11796000Y-12745690D02*
X11805524Y-12755214D01*
X11805524Y-12755214D02*
X11815048Y-12774262D01*
X11815048Y-12774262D02*
X11815048Y-12821881D01*
X11815048Y-12821881D02*
X11805524Y-12840928D01*
X11805524Y-12840928D02*
X11796000Y-12850452D01*
X11796000Y-12850452D02*
X11776952Y-12859976D01*
X11776952Y-12859976D02*
X11729333Y-12859976D01*
X11729333Y-12859976D02*
X11710286Y-12850452D01*
X11710286Y-12850452D02*
X11700762Y-12840928D01*
X11986476Y-12659976D02*
X11948381Y-12659976D01*
X11948381Y-12659976D02*
X11929333Y-12669500D01*
X11929333Y-12669500D02*
X11919810Y-12679024D01*
X11919810Y-12679024D02*
X11900762Y-12707595D01*
X11900762Y-12707595D02*
X11891238Y-12745690D01*
X11891238Y-12745690D02*
X11891238Y-12821881D01*
X11891238Y-12821881D02*
X11900762Y-12840928D01*
X11900762Y-12840928D02*
X11910286Y-12850452D01*
X11910286Y-12850452D02*
X11929333Y-12859976D01*
X11929333Y-12859976D02*
X11967429Y-12859976D01*
X11967429Y-12859976D02*
X11986476Y-12850452D01*
X11986476Y-12850452D02*
X11996000Y-12840928D01*
X11996000Y-12840928D02*
X12005524Y-12821881D01*
X12005524Y-12821881D02*
X12005524Y-12774262D01*
X12005524Y-12774262D02*
X11996000Y-12755214D01*
X11996000Y-12755214D02*
X11986476Y-12745690D01*
X11986476Y-12745690D02*
X11967429Y-12736167D01*
X11967429Y-12736167D02*
X11929333Y-12736167D01*
X11929333Y-12736167D02*
X11910286Y-12745690D01*
X11910286Y-12745690D02*
X11900762Y-12755214D01*
X11900762Y-12755214D02*
X11891238Y-12774262D01*
X12081714Y-12659976D02*
X12081714Y-12698071D01*
X12157905Y-12659976D02*
X12157905Y-12698071D01*
X12420762Y-12936167D02*
X12411238Y-12926643D01*
X12411238Y-12926643D02*
X12392191Y-12898071D01*
X12392191Y-12898071D02*
X12382667Y-12879024D01*
X12382667Y-12879024D02*
X12373143Y-12850452D01*
X12373143Y-12850452D02*
X12363619Y-12802833D01*
X12363619Y-12802833D02*
X12363619Y-12764738D01*
X12363619Y-12764738D02*
X12373143Y-12717119D01*
X12373143Y-12717119D02*
X12382667Y-12688548D01*
X12382667Y-12688548D02*
X12392191Y-12669500D01*
X12392191Y-12669500D02*
X12411238Y-12640928D01*
X12411238Y-12640928D02*
X12420762Y-12631405D01*
X12487429Y-12679024D02*
X12496952Y-12669500D01*
X12496952Y-12669500D02*
X12516000Y-12659976D01*
X12516000Y-12659976D02*
X12563619Y-12659976D01*
X12563619Y-12659976D02*
X12582667Y-12669500D01*
X12582667Y-12669500D02*
X12592191Y-12679024D01*
X12592191Y-12679024D02*
X12601714Y-12698071D01*
X12601714Y-12698071D02*
X12601714Y-12717119D01*
X12601714Y-12717119D02*
X12592191Y-12745690D01*
X12592191Y-12745690D02*
X12477905Y-12859976D01*
X12477905Y-12859976D02*
X12601714Y-12859976D01*
X12807429Y-12859976D02*
X12807429Y-12659976D01*
X12893143Y-12859976D02*
X12893143Y-12755214D01*
X12893143Y-12755214D02*
X12883619Y-12736167D01*
X12883619Y-12736167D02*
X12864572Y-12726643D01*
X12864572Y-12726643D02*
X12836000Y-12726643D01*
X12836000Y-12726643D02*
X12816952Y-12736167D01*
X12816952Y-12736167D02*
X12807429Y-12745690D01*
X13016952Y-12859976D02*
X12997905Y-12850452D01*
X12997905Y-12850452D02*
X12988381Y-12840928D01*
X12988381Y-12840928D02*
X12978857Y-12821881D01*
X12978857Y-12821881D02*
X12978857Y-12764738D01*
X12978857Y-12764738D02*
X12988381Y-12745690D01*
X12988381Y-12745690D02*
X12997905Y-12736167D01*
X12997905Y-12736167D02*
X13016952Y-12726643D01*
X13016952Y-12726643D02*
X13045524Y-12726643D01*
X13045524Y-12726643D02*
X13064572Y-12736167D01*
X13064572Y-12736167D02*
X13074095Y-12745690D01*
X13074095Y-12745690D02*
X13083619Y-12764738D01*
X13083619Y-12764738D02*
X13083619Y-12821881D01*
X13083619Y-12821881D02*
X13074095Y-12840928D01*
X13074095Y-12840928D02*
X13064572Y-12850452D01*
X13064572Y-12850452D02*
X13045524Y-12859976D01*
X13045524Y-12859976D02*
X13016952Y-12859976D01*
X13197905Y-12859976D02*
X13178857Y-12850452D01*
X13178857Y-12850452D02*
X13169333Y-12831405D01*
X13169333Y-12831405D02*
X13169333Y-12659976D01*
X13350286Y-12850452D02*
X13331238Y-12859976D01*
X13331238Y-12859976D02*
X13293143Y-12859976D01*
X13293143Y-12859976D02*
X13274095Y-12850452D01*
X13274095Y-12850452D02*
X13264572Y-12831405D01*
X13264572Y-12831405D02*
X13264572Y-12755214D01*
X13264572Y-12755214D02*
X13274095Y-12736167D01*
X13274095Y-12736167D02*
X13293143Y-12726643D01*
X13293143Y-12726643D02*
X13331238Y-12726643D01*
X13331238Y-12726643D02*
X13350286Y-12736167D01*
X13350286Y-12736167D02*
X13359810Y-12755214D01*
X13359810Y-12755214D02*
X13359810Y-12774262D01*
X13359810Y-12774262D02*
X13264572Y-12793309D01*
X13436000Y-12850452D02*
X13455048Y-12859976D01*
X13455048Y-12859976D02*
X13493143Y-12859976D01*
X13493143Y-12859976D02*
X13512191Y-12850452D01*
X13512191Y-12850452D02*
X13521714Y-12831405D01*
X13521714Y-12831405D02*
X13521714Y-12821881D01*
X13521714Y-12821881D02*
X13512191Y-12802833D01*
X13512191Y-12802833D02*
X13493143Y-12793309D01*
X13493143Y-12793309D02*
X13464572Y-12793309D01*
X13464572Y-12793309D02*
X13445524Y-12783786D01*
X13445524Y-12783786D02*
X13436000Y-12764738D01*
X13436000Y-12764738D02*
X13436000Y-12755214D01*
X13436000Y-12755214D02*
X13445524Y-12736167D01*
X13445524Y-12736167D02*
X13464572Y-12726643D01*
X13464572Y-12726643D02*
X13493143Y-12726643D01*
X13493143Y-12726643D02*
X13512191Y-12736167D01*
X13588381Y-12936167D02*
X13597905Y-12926643D01*
X13597905Y-12926643D02*
X13616953Y-12898071D01*
X13616953Y-12898071D02*
X13626476Y-12879024D01*
X13626476Y-12879024D02*
X13636000Y-12850452D01*
X13636000Y-12850452D02*
X13645524Y-12802833D01*
X13645524Y-12802833D02*
X13645524Y-12764738D01*
X13645524Y-12764738D02*
X13636000Y-12717119D01*
X13636000Y-12717119D02*
X13626476Y-12688548D01*
X13626476Y-12688548D02*
X13616953Y-12669500D01*
X13616953Y-12669500D02*
X13597905Y-12640928D01*
X13597905Y-12640928D02*
X13588381Y-12631405D01*
X13917905Y-12936167D02*
X13908381Y-12926643D01*
X13908381Y-12926643D02*
X13889333Y-12898071D01*
X13889333Y-12898071D02*
X13879810Y-12879024D01*
X13879810Y-12879024D02*
X13870286Y-12850452D01*
X13870286Y-12850452D02*
X13860762Y-12802833D01*
X13860762Y-12802833D02*
X13860762Y-12764738D01*
X13860762Y-12764738D02*
X13870286Y-12717119D01*
X13870286Y-12717119D02*
X13879810Y-12688548D01*
X13879810Y-12688548D02*
X13889333Y-12669500D01*
X13889333Y-12669500D02*
X13908381Y-12640928D01*
X13908381Y-12640928D02*
X13917905Y-12631405D01*
X13994095Y-12726643D02*
X13994095Y-12859976D01*
X13994095Y-12745690D02*
X14003619Y-12736167D01*
X14003619Y-12736167D02*
X14022667Y-12726643D01*
X14022667Y-12726643D02*
X14051238Y-12726643D01*
X14051238Y-12726643D02*
X14070286Y-12736167D01*
X14070286Y-12736167D02*
X14079810Y-12755214D01*
X14079810Y-12755214D02*
X14079810Y-12859976D01*
X14203619Y-12859976D02*
X14184572Y-12850452D01*
X14184572Y-12850452D02*
X14175048Y-12840928D01*
X14175048Y-12840928D02*
X14165524Y-12821881D01*
X14165524Y-12821881D02*
X14165524Y-12764738D01*
X14165524Y-12764738D02*
X14175048Y-12745690D01*
X14175048Y-12745690D02*
X14184572Y-12736167D01*
X14184572Y-12736167D02*
X14203619Y-12726643D01*
X14203619Y-12726643D02*
X14232191Y-12726643D01*
X14232191Y-12726643D02*
X14251238Y-12736167D01*
X14251238Y-12736167D02*
X14260762Y-12745690D01*
X14260762Y-12745690D02*
X14270286Y-12764738D01*
X14270286Y-12764738D02*
X14270286Y-12821881D01*
X14270286Y-12821881D02*
X14260762Y-12840928D01*
X14260762Y-12840928D02*
X14251238Y-12850452D01*
X14251238Y-12850452D02*
X14232191Y-12859976D01*
X14232191Y-12859976D02*
X14203619Y-12859976D01*
X14327429Y-12726643D02*
X14403619Y-12726643D01*
X14356000Y-12659976D02*
X14356000Y-12831405D01*
X14356000Y-12831405D02*
X14365524Y-12850452D01*
X14365524Y-12850452D02*
X14384572Y-12859976D01*
X14384572Y-12859976D02*
X14403619Y-12859976D01*
X14590286Y-12726643D02*
X14590286Y-12926643D01*
X14590286Y-12736167D02*
X14609333Y-12726643D01*
X14609333Y-12726643D02*
X14647429Y-12726643D01*
X14647429Y-12726643D02*
X14666476Y-12736167D01*
X14666476Y-12736167D02*
X14676000Y-12745690D01*
X14676000Y-12745690D02*
X14685524Y-12764738D01*
X14685524Y-12764738D02*
X14685524Y-12821881D01*
X14685524Y-12821881D02*
X14676000Y-12840928D01*
X14676000Y-12840928D02*
X14666476Y-12850452D01*
X14666476Y-12850452D02*
X14647429Y-12859976D01*
X14647429Y-12859976D02*
X14609333Y-12859976D01*
X14609333Y-12859976D02*
X14590286Y-12850452D01*
X14799810Y-12859976D02*
X14780762Y-12850452D01*
X14780762Y-12850452D02*
X14771238Y-12831405D01*
X14771238Y-12831405D02*
X14771238Y-12659976D01*
X14961714Y-12859976D02*
X14961714Y-12755214D01*
X14961714Y-12755214D02*
X14952191Y-12736167D01*
X14952191Y-12736167D02*
X14933143Y-12726643D01*
X14933143Y-12726643D02*
X14895048Y-12726643D01*
X14895048Y-12726643D02*
X14876000Y-12736167D01*
X14961714Y-12850452D02*
X14942667Y-12859976D01*
X14942667Y-12859976D02*
X14895048Y-12859976D01*
X14895048Y-12859976D02*
X14876000Y-12850452D01*
X14876000Y-12850452D02*
X14866476Y-12831405D01*
X14866476Y-12831405D02*
X14866476Y-12812357D01*
X14866476Y-12812357D02*
X14876000Y-12793309D01*
X14876000Y-12793309D02*
X14895048Y-12783786D01*
X14895048Y-12783786D02*
X14942667Y-12783786D01*
X14942667Y-12783786D02*
X14961714Y-12774262D01*
X15028381Y-12726643D02*
X15104572Y-12726643D01*
X15056953Y-12659976D02*
X15056953Y-12831405D01*
X15056953Y-12831405D02*
X15066476Y-12850452D01*
X15066476Y-12850452D02*
X15085524Y-12859976D01*
X15085524Y-12859976D02*
X15104572Y-12859976D01*
X15247429Y-12850452D02*
X15228381Y-12859976D01*
X15228381Y-12859976D02*
X15190286Y-12859976D01*
X15190286Y-12859976D02*
X15171238Y-12850452D01*
X15171238Y-12850452D02*
X15161714Y-12831405D01*
X15161714Y-12831405D02*
X15161714Y-12755214D01*
X15161714Y-12755214D02*
X15171238Y-12736167D01*
X15171238Y-12736167D02*
X15190286Y-12726643D01*
X15190286Y-12726643D02*
X15228381Y-12726643D01*
X15228381Y-12726643D02*
X15247429Y-12736167D01*
X15247429Y-12736167D02*
X15256953Y-12755214D01*
X15256953Y-12755214D02*
X15256953Y-12774262D01*
X15256953Y-12774262D02*
X15161714Y-12793309D01*
X15428381Y-12859976D02*
X15428381Y-12659976D01*
X15428381Y-12850452D02*
X15409334Y-12859976D01*
X15409334Y-12859976D02*
X15371238Y-12859976D01*
X15371238Y-12859976D02*
X15352191Y-12850452D01*
X15352191Y-12850452D02*
X15342667Y-12840928D01*
X15342667Y-12840928D02*
X15333143Y-12821881D01*
X15333143Y-12821881D02*
X15333143Y-12764738D01*
X15333143Y-12764738D02*
X15342667Y-12745690D01*
X15342667Y-12745690D02*
X15352191Y-12736167D01*
X15352191Y-12736167D02*
X15371238Y-12726643D01*
X15371238Y-12726643D02*
X15409334Y-12726643D01*
X15409334Y-12726643D02*
X15428381Y-12736167D01*
X15504572Y-12936167D02*
X15514095Y-12926643D01*
X15514095Y-12926643D02*
X15533143Y-12898071D01*
X15533143Y-12898071D02*
X15542667Y-12879024D01*
X15542667Y-12879024D02*
X15552191Y-12850452D01*
X15552191Y-12850452D02*
X15561714Y-12802833D01*
X15561714Y-12802833D02*
X15561714Y-12764738D01*
X15561714Y-12764738D02*
X15552191Y-12717119D01*
X15552191Y-12717119D02*
X15542667Y-12688548D01*
X15542667Y-12688548D02*
X15533143Y-12669500D01*
X15533143Y-12669500D02*
X15514095Y-12640928D01*
X15514095Y-12640928D02*
X15504572Y-12631405D01*
X8956000Y-13050500D02*
G75*
G03*
X8956000Y-13050500I-100000J0D01*
G01*
X9194095Y-12943024D02*
X9203619Y-12933500D01*
X9203619Y-12933500D02*
X9222667Y-12923976D01*
X9222667Y-12923976D02*
X9270286Y-12923976D01*
X9270286Y-12923976D02*
X9289333Y-12933500D01*
X9289333Y-12933500D02*
X9298857Y-12943024D01*
X9298857Y-12943024D02*
X9308381Y-12962071D01*
X9308381Y-12962071D02*
X9308381Y-12981119D01*
X9308381Y-12981119D02*
X9298857Y-13009690D01*
X9298857Y-13009690D02*
X9184571Y-13123976D01*
X9184571Y-13123976D02*
X9308381Y-13123976D01*
X9394095Y-13104928D02*
X9403619Y-13114452D01*
X9403619Y-13114452D02*
X9394095Y-13123976D01*
X9394095Y-13123976D02*
X9384571Y-13114452D01*
X9384571Y-13114452D02*
X9394095Y-13104928D01*
X9394095Y-13104928D02*
X9394095Y-13123976D01*
X9479810Y-12943024D02*
X9489333Y-12933500D01*
X9489333Y-12933500D02*
X9508381Y-12923976D01*
X9508381Y-12923976D02*
X9556000Y-12923976D01*
X9556000Y-12923976D02*
X9575048Y-12933500D01*
X9575048Y-12933500D02*
X9584571Y-12943024D01*
X9584571Y-12943024D02*
X9594095Y-12962071D01*
X9594095Y-12962071D02*
X9594095Y-12981119D01*
X9594095Y-12981119D02*
X9584571Y-13009690D01*
X9584571Y-13009690D02*
X9470286Y-13123976D01*
X9470286Y-13123976D02*
X9594095Y-13123976D01*
X9717905Y-12923976D02*
X9736952Y-12923976D01*
X9736952Y-12923976D02*
X9756000Y-12933500D01*
X9756000Y-12933500D02*
X9765524Y-12943024D01*
X9765524Y-12943024D02*
X9775048Y-12962071D01*
X9775048Y-12962071D02*
X9784571Y-13000167D01*
X9784571Y-13000167D02*
X9784571Y-13047786D01*
X9784571Y-13047786D02*
X9775048Y-13085881D01*
X9775048Y-13085881D02*
X9765524Y-13104928D01*
X9765524Y-13104928D02*
X9756000Y-13114452D01*
X9756000Y-13114452D02*
X9736952Y-13123976D01*
X9736952Y-13123976D02*
X9717905Y-13123976D01*
X9717905Y-13123976D02*
X9698857Y-13114452D01*
X9698857Y-13114452D02*
X9689333Y-13104928D01*
X9689333Y-13104928D02*
X9679810Y-13085881D01*
X9679810Y-13085881D02*
X9670286Y-13047786D01*
X9670286Y-13047786D02*
X9670286Y-13000167D01*
X9670286Y-13000167D02*
X9679810Y-12962071D01*
X9679810Y-12962071D02*
X9689333Y-12943024D01*
X9689333Y-12943024D02*
X9698857Y-12933500D01*
X9698857Y-12933500D02*
X9717905Y-12923976D01*
X9908381Y-12923976D02*
X9927429Y-12923976D01*
X9927429Y-12923976D02*
X9946476Y-12933500D01*
X9946476Y-12933500D02*
X9956000Y-12943024D01*
X9956000Y-12943024D02*
X9965524Y-12962071D01*
X9965524Y-12962071D02*
X9975048Y-13000167D01*
X9975048Y-13000167D02*
X9975048Y-13047786D01*
X9975048Y-13047786D02*
X9965524Y-13085881D01*
X9965524Y-13085881D02*
X9956000Y-13104928D01*
X9956000Y-13104928D02*
X9946476Y-13114452D01*
X9946476Y-13114452D02*
X9927429Y-13123976D01*
X9927429Y-13123976D02*
X9908381Y-13123976D01*
X9908381Y-13123976D02*
X9889333Y-13114452D01*
X9889333Y-13114452D02*
X9879810Y-13104928D01*
X9879810Y-13104928D02*
X9870286Y-13085881D01*
X9870286Y-13085881D02*
X9860762Y-13047786D01*
X9860762Y-13047786D02*
X9860762Y-13000167D01*
X9860762Y-13000167D02*
X9870286Y-12962071D01*
X9870286Y-12962071D02*
X9879810Y-12943024D01*
X9879810Y-12943024D02*
X9889333Y-12933500D01*
X9889333Y-12933500D02*
X9908381Y-12923976D01*
X10060762Y-13123976D02*
X10060762Y-12990643D01*
X10060762Y-13009690D02*
X10070286Y-13000167D01*
X10070286Y-13000167D02*
X10089333Y-12990643D01*
X10089333Y-12990643D02*
X10117905Y-12990643D01*
X10117905Y-12990643D02*
X10136952Y-13000167D01*
X10136952Y-13000167D02*
X10146476Y-13019214D01*
X10146476Y-13019214D02*
X10146476Y-13123976D01*
X10146476Y-13019214D02*
X10156000Y-13000167D01*
X10156000Y-13000167D02*
X10175048Y-12990643D01*
X10175048Y-12990643D02*
X10203619Y-12990643D01*
X10203619Y-12990643D02*
X10222667Y-13000167D01*
X10222667Y-13000167D02*
X10232191Y-13019214D01*
X10232191Y-13019214D02*
X10232191Y-13123976D01*
X10327429Y-13123976D02*
X10327429Y-12990643D01*
X10327429Y-13009690D02*
X10336952Y-13000167D01*
X10336952Y-13000167D02*
X10356000Y-12990643D01*
X10356000Y-12990643D02*
X10384572Y-12990643D01*
X10384572Y-12990643D02*
X10403619Y-13000167D01*
X10403619Y-13000167D02*
X10413143Y-13019214D01*
X10413143Y-13019214D02*
X10413143Y-13123976D01*
X10413143Y-13019214D02*
X10422667Y-13000167D01*
X10422667Y-13000167D02*
X10441714Y-12990643D01*
X10441714Y-12990643D02*
X10470286Y-12990643D01*
X10470286Y-12990643D02*
X10489333Y-13000167D01*
X10489333Y-13000167D02*
X10498857Y-13019214D01*
X10498857Y-13019214D02*
X10498857Y-13123976D01*
X10856952Y-12914452D02*
X10685524Y-13171595D01*
X11081714Y-12923976D02*
X11100762Y-12923976D01*
X11100762Y-12923976D02*
X11119810Y-12933500D01*
X11119810Y-12933500D02*
X11129333Y-12943024D01*
X11129333Y-12943024D02*
X11138857Y-12962071D01*
X11138857Y-12962071D02*
X11148381Y-13000167D01*
X11148381Y-13000167D02*
X11148381Y-13047786D01*
X11148381Y-13047786D02*
X11138857Y-13085881D01*
X11138857Y-13085881D02*
X11129333Y-13104928D01*
X11129333Y-13104928D02*
X11119810Y-13114452D01*
X11119810Y-13114452D02*
X11100762Y-13123976D01*
X11100762Y-13123976D02*
X11081714Y-13123976D01*
X11081714Y-13123976D02*
X11062667Y-13114452D01*
X11062667Y-13114452D02*
X11053143Y-13104928D01*
X11053143Y-13104928D02*
X11043619Y-13085881D01*
X11043619Y-13085881D02*
X11034095Y-13047786D01*
X11034095Y-13047786D02*
X11034095Y-13000167D01*
X11034095Y-13000167D02*
X11043619Y-12962071D01*
X11043619Y-12962071D02*
X11053143Y-12943024D01*
X11053143Y-12943024D02*
X11062667Y-12933500D01*
X11062667Y-12933500D02*
X11081714Y-12923976D01*
X11234095Y-13104928D02*
X11243619Y-13114452D01*
X11243619Y-13114452D02*
X11234095Y-13123976D01*
X11234095Y-13123976D02*
X11224571Y-13114452D01*
X11224571Y-13114452D02*
X11234095Y-13104928D01*
X11234095Y-13104928D02*
X11234095Y-13123976D01*
X11367429Y-12923976D02*
X11386476Y-12923976D01*
X11386476Y-12923976D02*
X11405524Y-12933500D01*
X11405524Y-12933500D02*
X11415048Y-12943024D01*
X11415048Y-12943024D02*
X11424571Y-12962071D01*
X11424571Y-12962071D02*
X11434095Y-13000167D01*
X11434095Y-13000167D02*
X11434095Y-13047786D01*
X11434095Y-13047786D02*
X11424571Y-13085881D01*
X11424571Y-13085881D02*
X11415048Y-13104928D01*
X11415048Y-13104928D02*
X11405524Y-13114452D01*
X11405524Y-13114452D02*
X11386476Y-13123976D01*
X11386476Y-13123976D02*
X11367429Y-13123976D01*
X11367429Y-13123976D02*
X11348381Y-13114452D01*
X11348381Y-13114452D02*
X11338857Y-13104928D01*
X11338857Y-13104928D02*
X11329333Y-13085881D01*
X11329333Y-13085881D02*
X11319810Y-13047786D01*
X11319810Y-13047786D02*
X11319810Y-13000167D01*
X11319810Y-13000167D02*
X11329333Y-12962071D01*
X11329333Y-12962071D02*
X11338857Y-12943024D01*
X11338857Y-12943024D02*
X11348381Y-12933500D01*
X11348381Y-12933500D02*
X11367429Y-12923976D01*
X11548381Y-13009690D02*
X11529333Y-13000167D01*
X11529333Y-13000167D02*
X11519810Y-12990643D01*
X11519810Y-12990643D02*
X11510286Y-12971595D01*
X11510286Y-12971595D02*
X11510286Y-12962071D01*
X11510286Y-12962071D02*
X11519810Y-12943024D01*
X11519810Y-12943024D02*
X11529333Y-12933500D01*
X11529333Y-12933500D02*
X11548381Y-12923976D01*
X11548381Y-12923976D02*
X11586476Y-12923976D01*
X11586476Y-12923976D02*
X11605524Y-12933500D01*
X11605524Y-12933500D02*
X11615048Y-12943024D01*
X11615048Y-12943024D02*
X11624571Y-12962071D01*
X11624571Y-12962071D02*
X11624571Y-12971595D01*
X11624571Y-12971595D02*
X11615048Y-12990643D01*
X11615048Y-12990643D02*
X11605524Y-13000167D01*
X11605524Y-13000167D02*
X11586476Y-13009690D01*
X11586476Y-13009690D02*
X11548381Y-13009690D01*
X11548381Y-13009690D02*
X11529333Y-13019214D01*
X11529333Y-13019214D02*
X11519810Y-13028738D01*
X11519810Y-13028738D02*
X11510286Y-13047786D01*
X11510286Y-13047786D02*
X11510286Y-13085881D01*
X11510286Y-13085881D02*
X11519810Y-13104928D01*
X11519810Y-13104928D02*
X11529333Y-13114452D01*
X11529333Y-13114452D02*
X11548381Y-13123976D01*
X11548381Y-13123976D02*
X11586476Y-13123976D01*
X11586476Y-13123976D02*
X11605524Y-13114452D01*
X11605524Y-13114452D02*
X11615048Y-13104928D01*
X11615048Y-13104928D02*
X11624571Y-13085881D01*
X11624571Y-13085881D02*
X11624571Y-13047786D01*
X11624571Y-13047786D02*
X11615048Y-13028738D01*
X11615048Y-13028738D02*
X11605524Y-13019214D01*
X11605524Y-13019214D02*
X11586476Y-13009690D01*
X11796000Y-12923976D02*
X11757905Y-12923976D01*
X11757905Y-12923976D02*
X11738857Y-12933500D01*
X11738857Y-12933500D02*
X11729333Y-12943024D01*
X11729333Y-12943024D02*
X11710286Y-12971595D01*
X11710286Y-12971595D02*
X11700762Y-13009690D01*
X11700762Y-13009690D02*
X11700762Y-13085881D01*
X11700762Y-13085881D02*
X11710286Y-13104928D01*
X11710286Y-13104928D02*
X11719810Y-13114452D01*
X11719810Y-13114452D02*
X11738857Y-13123976D01*
X11738857Y-13123976D02*
X11776952Y-13123976D01*
X11776952Y-13123976D02*
X11796000Y-13114452D01*
X11796000Y-13114452D02*
X11805524Y-13104928D01*
X11805524Y-13104928D02*
X11815048Y-13085881D01*
X11815048Y-13085881D02*
X11815048Y-13038262D01*
X11815048Y-13038262D02*
X11805524Y-13019214D01*
X11805524Y-13019214D02*
X11796000Y-13009690D01*
X11796000Y-13009690D02*
X11776952Y-13000167D01*
X11776952Y-13000167D02*
X11738857Y-13000167D01*
X11738857Y-13000167D02*
X11719810Y-13009690D01*
X11719810Y-13009690D02*
X11710286Y-13019214D01*
X11710286Y-13019214D02*
X11700762Y-13038262D01*
X11986476Y-12923976D02*
X11948381Y-12923976D01*
X11948381Y-12923976D02*
X11929333Y-12933500D01*
X11929333Y-12933500D02*
X11919810Y-12943024D01*
X11919810Y-12943024D02*
X11900762Y-12971595D01*
X11900762Y-12971595D02*
X11891238Y-13009690D01*
X11891238Y-13009690D02*
X11891238Y-13085881D01*
X11891238Y-13085881D02*
X11900762Y-13104928D01*
X11900762Y-13104928D02*
X11910286Y-13114452D01*
X11910286Y-13114452D02*
X11929333Y-13123976D01*
X11929333Y-13123976D02*
X11967429Y-13123976D01*
X11967429Y-13123976D02*
X11986476Y-13114452D01*
X11986476Y-13114452D02*
X11996000Y-13104928D01*
X11996000Y-13104928D02*
X12005524Y-13085881D01*
X12005524Y-13085881D02*
X12005524Y-13038262D01*
X12005524Y-13038262D02*
X11996000Y-13019214D01*
X11996000Y-13019214D02*
X11986476Y-13009690D01*
X11986476Y-13009690D02*
X11967429Y-13000167D01*
X11967429Y-13000167D02*
X11929333Y-13000167D01*
X11929333Y-13000167D02*
X11910286Y-13009690D01*
X11910286Y-13009690D02*
X11900762Y-13019214D01*
X11900762Y-13019214D02*
X11891238Y-13038262D01*
X12081714Y-12923976D02*
X12081714Y-12962071D01*
X12157905Y-12923976D02*
X12157905Y-12962071D01*
X12420762Y-13200167D02*
X12411238Y-13190643D01*
X12411238Y-13190643D02*
X12392191Y-13162071D01*
X12392191Y-13162071D02*
X12382667Y-13143024D01*
X12382667Y-13143024D02*
X12373143Y-13114452D01*
X12373143Y-13114452D02*
X12363619Y-13066833D01*
X12363619Y-13066833D02*
X12363619Y-13028738D01*
X12363619Y-13028738D02*
X12373143Y-12981119D01*
X12373143Y-12981119D02*
X12382667Y-12952548D01*
X12382667Y-12952548D02*
X12392191Y-12933500D01*
X12392191Y-12933500D02*
X12411238Y-12904928D01*
X12411238Y-12904928D02*
X12420762Y-12895405D01*
X12487429Y-12943024D02*
X12496952Y-12933500D01*
X12496952Y-12933500D02*
X12516000Y-12923976D01*
X12516000Y-12923976D02*
X12563619Y-12923976D01*
X12563619Y-12923976D02*
X12582667Y-12933500D01*
X12582667Y-12933500D02*
X12592191Y-12943024D01*
X12592191Y-12943024D02*
X12601714Y-12962071D01*
X12601714Y-12962071D02*
X12601714Y-12981119D01*
X12601714Y-12981119D02*
X12592191Y-13009690D01*
X12592191Y-13009690D02*
X12477905Y-13123976D01*
X12477905Y-13123976D02*
X12601714Y-13123976D01*
X12807429Y-13123976D02*
X12807429Y-12923976D01*
X12893143Y-13123976D02*
X12893143Y-13019214D01*
X12893143Y-13019214D02*
X12883619Y-13000167D01*
X12883619Y-13000167D02*
X12864572Y-12990643D01*
X12864572Y-12990643D02*
X12836000Y-12990643D01*
X12836000Y-12990643D02*
X12816952Y-13000167D01*
X12816952Y-13000167D02*
X12807429Y-13009690D01*
X13016952Y-13123976D02*
X12997905Y-13114452D01*
X12997905Y-13114452D02*
X12988381Y-13104928D01*
X12988381Y-13104928D02*
X12978857Y-13085881D01*
X12978857Y-13085881D02*
X12978857Y-13028738D01*
X12978857Y-13028738D02*
X12988381Y-13009690D01*
X12988381Y-13009690D02*
X12997905Y-13000167D01*
X12997905Y-13000167D02*
X13016952Y-12990643D01*
X13016952Y-12990643D02*
X13045524Y-12990643D01*
X13045524Y-12990643D02*
X13064572Y-13000167D01*
X13064572Y-13000167D02*
X13074095Y-13009690D01*
X13074095Y-13009690D02*
X13083619Y-13028738D01*
X13083619Y-13028738D02*
X13083619Y-13085881D01*
X13083619Y-13085881D02*
X13074095Y-13104928D01*
X13074095Y-13104928D02*
X13064572Y-13114452D01*
X13064572Y-13114452D02*
X13045524Y-13123976D01*
X13045524Y-13123976D02*
X13016952Y-13123976D01*
X13197905Y-13123976D02*
X13178857Y-13114452D01*
X13178857Y-13114452D02*
X13169333Y-13095405D01*
X13169333Y-13095405D02*
X13169333Y-12923976D01*
X13350286Y-13114452D02*
X13331238Y-13123976D01*
X13331238Y-13123976D02*
X13293143Y-13123976D01*
X13293143Y-13123976D02*
X13274095Y-13114452D01*
X13274095Y-13114452D02*
X13264572Y-13095405D01*
X13264572Y-13095405D02*
X13264572Y-13019214D01*
X13264572Y-13019214D02*
X13274095Y-13000167D01*
X13274095Y-13000167D02*
X13293143Y-12990643D01*
X13293143Y-12990643D02*
X13331238Y-12990643D01*
X13331238Y-12990643D02*
X13350286Y-13000167D01*
X13350286Y-13000167D02*
X13359810Y-13019214D01*
X13359810Y-13019214D02*
X13359810Y-13038262D01*
X13359810Y-13038262D02*
X13264572Y-13057309D01*
X13436000Y-13114452D02*
X13455048Y-13123976D01*
X13455048Y-13123976D02*
X13493143Y-13123976D01*
X13493143Y-13123976D02*
X13512191Y-13114452D01*
X13512191Y-13114452D02*
X13521714Y-13095405D01*
X13521714Y-13095405D02*
X13521714Y-13085881D01*
X13521714Y-13085881D02*
X13512191Y-13066833D01*
X13512191Y-13066833D02*
X13493143Y-13057309D01*
X13493143Y-13057309D02*
X13464572Y-13057309D01*
X13464572Y-13057309D02*
X13445524Y-13047786D01*
X13445524Y-13047786D02*
X13436000Y-13028738D01*
X13436000Y-13028738D02*
X13436000Y-13019214D01*
X13436000Y-13019214D02*
X13445524Y-13000167D01*
X13445524Y-13000167D02*
X13464572Y-12990643D01*
X13464572Y-12990643D02*
X13493143Y-12990643D01*
X13493143Y-12990643D02*
X13512191Y-13000167D01*
X13588381Y-13200167D02*
X13597905Y-13190643D01*
X13597905Y-13190643D02*
X13616953Y-13162071D01*
X13616953Y-13162071D02*
X13626476Y-13143024D01*
X13626476Y-13143024D02*
X13636000Y-13114452D01*
X13636000Y-13114452D02*
X13645524Y-13066833D01*
X13645524Y-13066833D02*
X13645524Y-13028738D01*
X13645524Y-13028738D02*
X13636000Y-12981119D01*
X13636000Y-12981119D02*
X13626476Y-12952548D01*
X13626476Y-12952548D02*
X13616953Y-12933500D01*
X13616953Y-12933500D02*
X13597905Y-12904928D01*
X13597905Y-12904928D02*
X13588381Y-12895405D01*
X13917905Y-13200167D02*
X13908381Y-13190643D01*
X13908381Y-13190643D02*
X13889333Y-13162071D01*
X13889333Y-13162071D02*
X13879810Y-13143024D01*
X13879810Y-13143024D02*
X13870286Y-13114452D01*
X13870286Y-13114452D02*
X13860762Y-13066833D01*
X13860762Y-13066833D02*
X13860762Y-13028738D01*
X13860762Y-13028738D02*
X13870286Y-12981119D01*
X13870286Y-12981119D02*
X13879810Y-12952548D01*
X13879810Y-12952548D02*
X13889333Y-12933500D01*
X13889333Y-12933500D02*
X13908381Y-12904928D01*
X13908381Y-12904928D02*
X13917905Y-12895405D01*
X13994095Y-12990643D02*
X13994095Y-13123976D01*
X13994095Y-13009690D02*
X14003619Y-13000167D01*
X14003619Y-13000167D02*
X14022667Y-12990643D01*
X14022667Y-12990643D02*
X14051238Y-12990643D01*
X14051238Y-12990643D02*
X14070286Y-13000167D01*
X14070286Y-13000167D02*
X14079810Y-13019214D01*
X14079810Y-13019214D02*
X14079810Y-13123976D01*
X14203619Y-13123976D02*
X14184572Y-13114452D01*
X14184572Y-13114452D02*
X14175048Y-13104928D01*
X14175048Y-13104928D02*
X14165524Y-13085881D01*
X14165524Y-13085881D02*
X14165524Y-13028738D01*
X14165524Y-13028738D02*
X14175048Y-13009690D01*
X14175048Y-13009690D02*
X14184572Y-13000167D01*
X14184572Y-13000167D02*
X14203619Y-12990643D01*
X14203619Y-12990643D02*
X14232191Y-12990643D01*
X14232191Y-12990643D02*
X14251238Y-13000167D01*
X14251238Y-13000167D02*
X14260762Y-13009690D01*
X14260762Y-13009690D02*
X14270286Y-13028738D01*
X14270286Y-13028738D02*
X14270286Y-13085881D01*
X14270286Y-13085881D02*
X14260762Y-13104928D01*
X14260762Y-13104928D02*
X14251238Y-13114452D01*
X14251238Y-13114452D02*
X14232191Y-13123976D01*
X14232191Y-13123976D02*
X14203619Y-13123976D01*
X14327429Y-12990643D02*
X14403619Y-12990643D01*
X14356000Y-12923976D02*
X14356000Y-13095405D01*
X14356000Y-13095405D02*
X14365524Y-13114452D01*
X14365524Y-13114452D02*
X14384572Y-13123976D01*
X14384572Y-13123976D02*
X14403619Y-13123976D01*
X14590286Y-12990643D02*
X14590286Y-13190643D01*
X14590286Y-13000167D02*
X14609333Y-12990643D01*
X14609333Y-12990643D02*
X14647429Y-12990643D01*
X14647429Y-12990643D02*
X14666476Y-13000167D01*
X14666476Y-13000167D02*
X14676000Y-13009690D01*
X14676000Y-13009690D02*
X14685524Y-13028738D01*
X14685524Y-13028738D02*
X14685524Y-13085881D01*
X14685524Y-13085881D02*
X14676000Y-13104928D01*
X14676000Y-13104928D02*
X14666476Y-13114452D01*
X14666476Y-13114452D02*
X14647429Y-13123976D01*
X14647429Y-13123976D02*
X14609333Y-13123976D01*
X14609333Y-13123976D02*
X14590286Y-13114452D01*
X14799810Y-13123976D02*
X14780762Y-13114452D01*
X14780762Y-13114452D02*
X14771238Y-13095405D01*
X14771238Y-13095405D02*
X14771238Y-12923976D01*
X14961714Y-13123976D02*
X14961714Y-13019214D01*
X14961714Y-13019214D02*
X14952191Y-13000167D01*
X14952191Y-13000167D02*
X14933143Y-12990643D01*
X14933143Y-12990643D02*
X14895048Y-12990643D01*
X14895048Y-12990643D02*
X14876000Y-13000167D01*
X14961714Y-13114452D02*
X14942667Y-13123976D01*
X14942667Y-13123976D02*
X14895048Y-13123976D01*
X14895048Y-13123976D02*
X14876000Y-13114452D01*
X14876000Y-13114452D02*
X14866476Y-13095405D01*
X14866476Y-13095405D02*
X14866476Y-13076357D01*
X14866476Y-13076357D02*
X14876000Y-13057309D01*
X14876000Y-13057309D02*
X14895048Y-13047786D01*
X14895048Y-13047786D02*
X14942667Y-13047786D01*
X14942667Y-13047786D02*
X14961714Y-13038262D01*
X15028381Y-12990643D02*
X15104572Y-12990643D01*
X15056953Y-12923976D02*
X15056953Y-13095405D01*
X15056953Y-13095405D02*
X15066476Y-13114452D01*
X15066476Y-13114452D02*
X15085524Y-13123976D01*
X15085524Y-13123976D02*
X15104572Y-13123976D01*
X15247429Y-13114452D02*
X15228381Y-13123976D01*
X15228381Y-13123976D02*
X15190286Y-13123976D01*
X15190286Y-13123976D02*
X15171238Y-13114452D01*
X15171238Y-13114452D02*
X15161714Y-13095405D01*
X15161714Y-13095405D02*
X15161714Y-13019214D01*
X15161714Y-13019214D02*
X15171238Y-13000167D01*
X15171238Y-13000167D02*
X15190286Y-12990643D01*
X15190286Y-12990643D02*
X15228381Y-12990643D01*
X15228381Y-12990643D02*
X15247429Y-13000167D01*
X15247429Y-13000167D02*
X15256953Y-13019214D01*
X15256953Y-13019214D02*
X15256953Y-13038262D01*
X15256953Y-13038262D02*
X15161714Y-13057309D01*
X15428381Y-13123976D02*
X15428381Y-12923976D01*
X15428381Y-13114452D02*
X15409334Y-13123976D01*
X15409334Y-13123976D02*
X15371238Y-13123976D01*
X15371238Y-13123976D02*
X15352191Y-13114452D01*
X15352191Y-13114452D02*
X15342667Y-13104928D01*
X15342667Y-13104928D02*
X15333143Y-13085881D01*
X15333143Y-13085881D02*
X15333143Y-13028738D01*
X15333143Y-13028738D02*
X15342667Y-13009690D01*
X15342667Y-13009690D02*
X15352191Y-13000167D01*
X15352191Y-13000167D02*
X15371238Y-12990643D01*
X15371238Y-12990643D02*
X15409334Y-12990643D01*
X15409334Y-12990643D02*
X15428381Y-13000167D01*
X15504572Y-13200167D02*
X15514095Y-13190643D01*
X15514095Y-13190643D02*
X15533143Y-13162071D01*
X15533143Y-13162071D02*
X15542667Y-13143024D01*
X15542667Y-13143024D02*
X15552191Y-13114452D01*
X15552191Y-13114452D02*
X15561714Y-13066833D01*
X15561714Y-13066833D02*
X15561714Y-13028738D01*
X15561714Y-13028738D02*
X15552191Y-12981119D01*
X15552191Y-12981119D02*
X15542667Y-12952548D01*
X15542667Y-12952548D02*
X15533143Y-12933500D01*
X15533143Y-12933500D02*
X15514095Y-12904928D01*
X15514095Y-12904928D02*
X15504572Y-12895405D01*
M02*
