M48
; DRILL file {KiCad (7.0.0)} date Sat Feb 25 12:05:10 2023
; FORMAT={-:-/ absolute / metric / decimal}
; #@! TF.CreationDate,2023-02-25T12:05:10-06:00
; #@! TF.GenerationSoftware,Kicad,Pcbnew,(7.0.0)
; #@! TF.FileFunction,Plated,1,2,PTH
FMAT,2
METRIC
; #@! TA.AperFunction,Plated,PTH,ViaDrill
T1C0.400
; #@! TA.AperFunction,Plated,PTH,ComponentDrill
T2C0.450
; #@! TA.AperFunction,Plated,PTH,ComponentDrill
T3C0.500
; #@! TA.AperFunction,Plated,PTH,ComponentDrill
T4C1.000
; #@! TA.AperFunction,Plated,PTH,ComponentDrill
T5C1.200
; #@! TA.AperFunction,Plated,PTH,ComponentDrill
T6C1.300
; #@! TA.AperFunction,Plated,PTH,ComponentDrill
T7C2.200
%
G90
G05
T1
X91.934Y-85.671
X92.137Y-80.438
X92.543Y-92.427
X95.032Y-85.569
X96.252Y-78.051
X111.238Y-90.649
X116.673Y-79.371
X117.334Y-86.89
X122.16Y-90.547
X122.515Y-86.534
X122.769Y-77.797
X123.176Y-82.419
X123.785Y-85.772
X124.954Y-90.293
X127.951Y-86.687
X130.237Y-79.219
X130.796Y-81.2
X132.015Y-83.588
X132.116Y-88.465
X132.275Y-74.68
X132.726Y-78.305
X132.929Y-91.36
X134.91Y-87.398
X135.063Y-80.845
X136.231Y-87.042
X136.993Y-74.456
X138.974Y-84.553
X140.143Y-79.371
X143.546Y-72.259
X151.776Y-92.325
X153.605Y-77.085
X155.942Y-81.099
X159.904Y-76.323
X161.276Y-80.54
X167.829Y-87.906
X172.604Y-77.746
X173.01Y-80.54
X174.077Y-92.427
X174.28Y-87.499
X175.957Y-89.43
X177.684Y-92.427
X178.243Y-85.213
X179.462Y-77.746
X180.681Y-81.302
X181.24Y-90.598
X184.542Y-87.855
X185.863Y-82.369
X189.927Y-86.483
X190.13Y-77.898
X195.464Y-80.946
X199.376Y-87.906
X202.932Y-77.746
X204.405Y-86.179
X204.862Y-80.743
X212.736Y-80.692
X214.463Y-88.515
T4
X107.678Y-93.54
X107.678Y-105.54
X125.805Y-70.615
X128.345Y-70.615
X130.885Y-70.615
X133.425Y-70.615
X135.965Y-70.615
X138.505Y-70.615
X138.56Y-93.54
X138.56Y-105.54
X143.585Y-75.06
X143.585Y-77.6
X143.585Y-80.14
X143.585Y-82.68
X148.03Y-86.49
X148.03Y-89.03
X150.57Y-86.49
X150.57Y-89.03
X153.11Y-86.49
X153.11Y-89.03
X169.442Y-93.54
X169.442Y-105.54
X200.323Y-93.54
X200.323Y-105.54
T5
X182.63Y-73.79
X186.13Y-73.79
T6
X95.96Y-107.445
X95.96Y-112.525
X95.96Y-117.605
X105.728Y-99.49
X109.077Y-115.365
X114.157Y-115.365
X119.237Y-115.365
X119.878Y-105.54
X136.61Y-99.49
X139.775Y-115.365
X144.855Y-115.365
X149.935Y-115.365
X150.76Y-105.54
X167.492Y-99.49
X170.467Y-115.365
X175.547Y-115.365
X180.627Y-115.365
X181.642Y-105.54
X198.373Y-99.49
X201.158Y-115.365
X206.238Y-115.365
X211.318Y-115.365
X212.523Y-105.54
T7
X92.594Y-71.07
X214.768Y-71.345
T2
X203.566Y-71.237G85X203.566Y-70.437
G05
X210.716Y-70.437G85X210.716Y-71.237
G05
T3
X190.361Y-71.083G85X190.361Y-69.933
G05
X190.361Y-75.763G85X190.361Y-74.613
G05
X201.521Y-71.093G85X201.521Y-69.943
G05
X201.521Y-75.763G85X201.521Y-74.613
G05
T0
M30
