G04 #@! TF.GenerationSoftware,KiCad,Pcbnew,(7.0.0)*
G04 #@! TF.CreationDate,2023-02-25T12:05:00-06:00*
G04 #@! TF.ProjectId,Autorelay,4175746f-7265-46c6-9179-2e6b69636164,1*
G04 #@! TF.SameCoordinates,Original*
G04 #@! TF.FileFunction,Legend,Top*
G04 #@! TF.FilePolarity,Positive*
%FSLAX46Y46*%
G04 Gerber Fmt 4.6, Leading zero omitted, Abs format (unit mm)*
G04 Created by KiCad (PCBNEW (7.0.0)) date 2023-02-25 12:05:00*
%MOMM*%
%LPD*%
G01*
G04 APERTURE LIST*
G04 Aperture macros list*
%AMRoundRect*
0 Rectangle with rounded corners*
0 $1 Rounding radius*
0 $2 $3 $4 $5 $6 $7 $8 $9 X,Y pos of 4 corners*
0 Add a 4 corners polygon primitive as box body*
4,1,4,$2,$3,$4,$5,$6,$7,$8,$9,$2,$3,0*
0 Add four circle primitives for the rounded corners*
1,1,$1+$1,$2,$3*
1,1,$1+$1,$4,$5*
1,1,$1+$1,$6,$7*
1,1,$1+$1,$8,$9*
0 Add four rect primitives between the rounded corners*
20,1,$1+$1,$2,$3,$4,$5,0*
20,1,$1+$1,$4,$5,$6,$7,0*
20,1,$1+$1,$6,$7,$8,$9,0*
20,1,$1+$1,$8,$9,$2,$3,0*%
G04 Aperture macros list end*
%ADD10C,0.150000*%
%ADD11C,0.125000*%
%ADD12C,0.250000*%
%ADD13C,0.220000*%
%ADD14C,0.100000*%
%ADD15C,0.120000*%
%ADD16C,0.020000*%
%ADD17R,2.600000X2.600000*%
%ADD18C,2.600000*%
%ADD19R,1.200000X1.200000*%
%ADD20R,1.500000X1.600000*%
%ADD21C,2.200000*%
%ADD22RoundRect,0.225000X-0.375000X0.225000X-0.375000X-0.225000X0.375000X-0.225000X0.375000X0.225000X0*%
%ADD23RoundRect,0.243750X0.456250X-0.243750X0.456250X0.243750X-0.456250X0.243750X-0.456250X-0.243750X0*%
%ADD24RoundRect,0.200000X-0.200000X-0.275000X0.200000X-0.275000X0.200000X0.275000X-0.200000X0.275000X0*%
%ADD25R,1.600000X0.550000*%
%ADD26R,0.550000X1.600000*%
%ADD27RoundRect,0.200000X0.200000X0.275000X-0.200000X0.275000X-0.200000X-0.275000X0.200000X-0.275000X0*%
%ADD28R,1.700000X1.700000*%
%ADD29O,1.700000X1.700000*%
%ADD30RoundRect,0.225000X-0.225000X-0.250000X0.225000X-0.250000X0.225000X0.250000X-0.225000X0.250000X0*%
%ADD31RoundRect,0.200000X-0.275000X0.200000X-0.275000X-0.200000X0.275000X-0.200000X0.275000X0.200000X0*%
%ADD32C,3.000000*%
%ADD33C,2.500000*%
%ADD34C,3.800000*%
%ADD35RoundRect,0.243750X0.243750X0.456250X-0.243750X0.456250X-0.243750X-0.456250X0.243750X-0.456250X0*%
%ADD36RoundRect,0.150000X0.512500X0.150000X-0.512500X0.150000X-0.512500X-0.150000X0.512500X-0.150000X0*%
%ADD37R,1.100000X1.500000*%
%ADD38C,0.670000*%
%ADD39R,0.250000X1.450000*%
%ADD40R,0.300000X1.450000*%
%ADD41RoundRect,0.500000X0.000000X0.600000X0.000000X0.600000X0.000000X-0.600000X0.000000X-0.600000X0*%
%ADD42RoundRect,0.250000X0.650000X-0.325000X0.650000X0.325000X-0.650000X0.325000X-0.650000X-0.325000X0*%
%ADD43RoundRect,0.250000X0.325000X0.650000X-0.325000X0.650000X-0.325000X-0.650000X0.325000X-0.650000X0*%
%ADD44R,0.400000X1.400000*%
%ADD45O,1.050000X1.900000*%
%ADD46R,1.150000X1.450000*%
%ADD47R,1.750000X1.900000*%
%ADD48R,1.900000X0.400000*%
%ADD49RoundRect,0.150000X-0.587500X-0.150000X0.587500X-0.150000X0.587500X0.150000X-0.587500X0.150000X0*%
%ADD50RoundRect,0.225000X0.225000X0.250000X-0.225000X0.250000X-0.225000X-0.250000X0.225000X-0.250000X0*%
%ADD51RoundRect,0.243750X-0.456250X0.243750X-0.456250X-0.243750X0.456250X-0.243750X0.456250X0.243750X0*%
%ADD52R,1.300000X1.550000*%
%ADD53R,1.000000X1.500000*%
%ADD54R,2.400000X2.400000*%
%ADD55C,2.400000*%
%ADD56RoundRect,0.225000X0.250000X-0.225000X0.250000X0.225000X-0.250000X0.225000X-0.250000X-0.225000X0*%
G04 APERTURE END LIST*
D10*
X89699000Y-106996800D02*
X91070600Y-106996800D01*
X91070600Y-106996800D02*
X91070600Y-108317600D01*
X91070600Y-108317600D02*
X89699000Y-108317600D01*
X89699000Y-108317600D02*
X89699000Y-106996800D01*
X90842000Y-102577200D02*
X91299200Y-103948800D01*
X199761051Y-120769400D02*
X200726251Y-120769400D01*
X139131251Y-120769400D02*
X138877251Y-120515400D01*
X200726251Y-120769400D02*
X200472251Y-121023400D01*
X169814451Y-120769400D02*
X169560451Y-120515400D01*
X108549651Y-120769400D02*
X108295651Y-120515400D01*
X200726251Y-120769400D02*
X200472251Y-120515400D01*
X108549651Y-120769400D02*
X108295651Y-121023400D01*
X91299200Y-103948800D02*
X91756400Y-102577200D01*
X91299200Y-103948800D02*
X90842000Y-102577200D01*
X169814451Y-120769400D02*
X169560451Y-121023400D01*
X107584451Y-120769400D02*
X108549651Y-120769400D01*
X138166051Y-120769400D02*
X139131251Y-120769400D01*
X168849251Y-120769400D02*
X169814451Y-120769400D01*
X91299200Y-99376800D02*
X91299200Y-103948800D01*
X139131251Y-120769400D02*
X138877251Y-121023400D01*
X150408755Y-120259800D02*
X150313517Y-120212180D01*
X150313517Y-120212180D02*
X150170660Y-120212180D01*
X150170660Y-120212180D02*
X150027803Y-120259800D01*
X150027803Y-120259800D02*
X149932565Y-120355038D01*
X149932565Y-120355038D02*
X149884946Y-120450276D01*
X149884946Y-120450276D02*
X149837327Y-120640752D01*
X149837327Y-120640752D02*
X149837327Y-120783609D01*
X149837327Y-120783609D02*
X149884946Y-120974085D01*
X149884946Y-120974085D02*
X149932565Y-121069323D01*
X149932565Y-121069323D02*
X150027803Y-121164561D01*
X150027803Y-121164561D02*
X150170660Y-121212180D01*
X150170660Y-121212180D02*
X150265898Y-121212180D01*
X150265898Y-121212180D02*
X150408755Y-121164561D01*
X150408755Y-121164561D02*
X150456374Y-121116942D01*
X150456374Y-121116942D02*
X150456374Y-120783609D01*
X150456374Y-120783609D02*
X150265898Y-120783609D01*
X206018946Y-121212180D02*
X206018946Y-120212180D01*
X206018946Y-120212180D02*
X206590374Y-121212180D01*
X206590374Y-121212180D02*
X206590374Y-120212180D01*
X113918546Y-121212180D02*
X113918546Y-120212180D01*
X113918546Y-120212180D02*
X114489974Y-121212180D01*
X114489974Y-121212180D02*
X114489974Y-120212180D01*
X182609523Y-77464000D02*
X182533333Y-77425904D01*
X182533333Y-77425904D02*
X182419047Y-77425904D01*
X182419047Y-77425904D02*
X182304761Y-77464000D01*
X182304761Y-77464000D02*
X182228571Y-77540190D01*
X182228571Y-77540190D02*
X182190476Y-77616380D01*
X182190476Y-77616380D02*
X182152380Y-77768761D01*
X182152380Y-77768761D02*
X182152380Y-77883047D01*
X182152380Y-77883047D02*
X182190476Y-78035428D01*
X182190476Y-78035428D02*
X182228571Y-78111619D01*
X182228571Y-78111619D02*
X182304761Y-78187809D01*
X182304761Y-78187809D02*
X182419047Y-78225904D01*
X182419047Y-78225904D02*
X182495238Y-78225904D01*
X182495238Y-78225904D02*
X182609523Y-78187809D01*
X182609523Y-78187809D02*
X182647619Y-78149714D01*
X182647619Y-78149714D02*
X182647619Y-77883047D01*
X182647619Y-77883047D02*
X182495238Y-77883047D01*
X182990476Y-78225904D02*
X182990476Y-77425904D01*
X182990476Y-77425904D02*
X183447619Y-78225904D01*
X183447619Y-78225904D02*
X183447619Y-77425904D01*
X183828571Y-78225904D02*
X183828571Y-77425904D01*
X183828571Y-77425904D02*
X184019047Y-77425904D01*
X184019047Y-77425904D02*
X184133333Y-77464000D01*
X184133333Y-77464000D02*
X184209523Y-77540190D01*
X184209523Y-77540190D02*
X184247618Y-77616380D01*
X184247618Y-77616380D02*
X184285714Y-77768761D01*
X184285714Y-77768761D02*
X184285714Y-77883047D01*
X184285714Y-77883047D02*
X184247618Y-78035428D01*
X184247618Y-78035428D02*
X184209523Y-78111619D01*
X184209523Y-78111619D02*
X184133333Y-78187809D01*
X184133333Y-78187809D02*
X184019047Y-78225904D01*
X184019047Y-78225904D02*
X183828571Y-78225904D01*
X132292190Y-72193504D02*
X132558857Y-72993504D01*
X132558857Y-72993504D02*
X132825523Y-72193504D01*
X133549333Y-72917314D02*
X133511237Y-72955409D01*
X133511237Y-72955409D02*
X133396952Y-72993504D01*
X133396952Y-72993504D02*
X133320761Y-72993504D01*
X133320761Y-72993504D02*
X133206475Y-72955409D01*
X133206475Y-72955409D02*
X133130285Y-72879219D01*
X133130285Y-72879219D02*
X133092190Y-72803028D01*
X133092190Y-72803028D02*
X133054094Y-72650647D01*
X133054094Y-72650647D02*
X133054094Y-72536361D01*
X133054094Y-72536361D02*
X133092190Y-72383980D01*
X133092190Y-72383980D02*
X133130285Y-72307790D01*
X133130285Y-72307790D02*
X133206475Y-72231600D01*
X133206475Y-72231600D02*
X133320761Y-72193504D01*
X133320761Y-72193504D02*
X133396952Y-72193504D01*
X133396952Y-72193504D02*
X133511237Y-72231600D01*
X133511237Y-72231600D02*
X133549333Y-72269695D01*
X134349333Y-72917314D02*
X134311237Y-72955409D01*
X134311237Y-72955409D02*
X134196952Y-72993504D01*
X134196952Y-72993504D02*
X134120761Y-72993504D01*
X134120761Y-72993504D02*
X134006475Y-72955409D01*
X134006475Y-72955409D02*
X133930285Y-72879219D01*
X133930285Y-72879219D02*
X133892190Y-72803028D01*
X133892190Y-72803028D02*
X133854094Y-72650647D01*
X133854094Y-72650647D02*
X133854094Y-72536361D01*
X133854094Y-72536361D02*
X133892190Y-72383980D01*
X133892190Y-72383980D02*
X133930285Y-72307790D01*
X133930285Y-72307790D02*
X134006475Y-72231600D01*
X134006475Y-72231600D02*
X134120761Y-72193504D01*
X134120761Y-72193504D02*
X134196952Y-72193504D01*
X134196952Y-72193504D02*
X134311237Y-72231600D01*
X134311237Y-72231600D02*
X134349333Y-72269695D01*
D11*
X102104306Y-87125904D02*
X101647163Y-87125904D01*
X101875735Y-87125904D02*
X101875735Y-86325904D01*
X101875735Y-86325904D02*
X101799544Y-86440190D01*
X101799544Y-86440190D02*
X101723354Y-86516380D01*
X101723354Y-86516380D02*
X101647163Y-86554476D01*
D10*
X90843600Y-118375904D02*
X90891219Y-118280666D01*
X90891219Y-118280666D02*
X90891219Y-118137809D01*
X90891219Y-118137809D02*
X90843600Y-117994952D01*
X90843600Y-117994952D02*
X90748361Y-117899714D01*
X90748361Y-117899714D02*
X90653123Y-117852095D01*
X90653123Y-117852095D02*
X90462647Y-117804476D01*
X90462647Y-117804476D02*
X90319790Y-117804476D01*
X90319790Y-117804476D02*
X90129314Y-117852095D01*
X90129314Y-117852095D02*
X90034076Y-117899714D01*
X90034076Y-117899714D02*
X89938838Y-117994952D01*
X89938838Y-117994952D02*
X89891219Y-118137809D01*
X89891219Y-118137809D02*
X89891219Y-118233047D01*
X89891219Y-118233047D02*
X89938838Y-118375904D01*
X89938838Y-118375904D02*
X89986457Y-118423523D01*
X89986457Y-118423523D02*
X90319790Y-118423523D01*
X90319790Y-118423523D02*
X90319790Y-118233047D01*
D12*
X98461904Y-94282380D02*
X97890476Y-94282380D01*
X98176190Y-94282380D02*
X98176190Y-93282380D01*
X98176190Y-93282380D02*
X98080952Y-93425238D01*
X98080952Y-93425238D02*
X97985714Y-93520476D01*
X97985714Y-93520476D02*
X97890476Y-93568095D01*
D10*
X89891219Y-107965085D02*
X89891219Y-107488895D01*
X89891219Y-107488895D02*
X90891219Y-107488895D01*
X137956323Y-72231600D02*
X137880133Y-72193504D01*
X137880133Y-72193504D02*
X137765847Y-72193504D01*
X137765847Y-72193504D02*
X137651561Y-72231600D01*
X137651561Y-72231600D02*
X137575371Y-72307790D01*
X137575371Y-72307790D02*
X137537276Y-72383980D01*
X137537276Y-72383980D02*
X137499180Y-72536361D01*
X137499180Y-72536361D02*
X137499180Y-72650647D01*
X137499180Y-72650647D02*
X137537276Y-72803028D01*
X137537276Y-72803028D02*
X137575371Y-72879219D01*
X137575371Y-72879219D02*
X137651561Y-72955409D01*
X137651561Y-72955409D02*
X137765847Y-72993504D01*
X137765847Y-72993504D02*
X137842038Y-72993504D01*
X137842038Y-72993504D02*
X137956323Y-72955409D01*
X137956323Y-72955409D02*
X137994419Y-72917314D01*
X137994419Y-72917314D02*
X137994419Y-72650647D01*
X137994419Y-72650647D02*
X137842038Y-72650647D01*
X138337276Y-72993504D02*
X138337276Y-72193504D01*
X138337276Y-72193504D02*
X138794419Y-72993504D01*
X138794419Y-72993504D02*
X138794419Y-72193504D01*
X139175371Y-72993504D02*
X139175371Y-72193504D01*
X139175371Y-72193504D02*
X139365847Y-72193504D01*
X139365847Y-72193504D02*
X139480133Y-72231600D01*
X139480133Y-72231600D02*
X139556323Y-72307790D01*
X139556323Y-72307790D02*
X139594418Y-72383980D01*
X139594418Y-72383980D02*
X139632514Y-72536361D01*
X139632514Y-72536361D02*
X139632514Y-72650647D01*
X139632514Y-72650647D02*
X139594418Y-72803028D01*
X139594418Y-72803028D02*
X139556323Y-72879219D01*
X139556323Y-72879219D02*
X139480133Y-72955409D01*
X139480133Y-72955409D02*
X139365847Y-72993504D01*
X139365847Y-72993504D02*
X139175371Y-72993504D01*
X145525523Y-82340800D02*
X145449333Y-82302704D01*
X145449333Y-82302704D02*
X145335047Y-82302704D01*
X145335047Y-82302704D02*
X145220761Y-82340800D01*
X145220761Y-82340800D02*
X145144571Y-82416990D01*
X145144571Y-82416990D02*
X145106476Y-82493180D01*
X145106476Y-82493180D02*
X145068380Y-82645561D01*
X145068380Y-82645561D02*
X145068380Y-82759847D01*
X145068380Y-82759847D02*
X145106476Y-82912228D01*
X145106476Y-82912228D02*
X145144571Y-82988419D01*
X145144571Y-82988419D02*
X145220761Y-83064609D01*
X145220761Y-83064609D02*
X145335047Y-83102704D01*
X145335047Y-83102704D02*
X145411238Y-83102704D01*
X145411238Y-83102704D02*
X145525523Y-83064609D01*
X145525523Y-83064609D02*
X145563619Y-83026514D01*
X145563619Y-83026514D02*
X145563619Y-82759847D01*
X145563619Y-82759847D02*
X145411238Y-82759847D01*
X145906476Y-83102704D02*
X145906476Y-82302704D01*
X145906476Y-82302704D02*
X146363619Y-83102704D01*
X146363619Y-83102704D02*
X146363619Y-82302704D01*
X146744571Y-83102704D02*
X146744571Y-82302704D01*
X146744571Y-82302704D02*
X146935047Y-82302704D01*
X146935047Y-82302704D02*
X147049333Y-82340800D01*
X147049333Y-82340800D02*
X147125523Y-82416990D01*
X147125523Y-82416990D02*
X147163618Y-82493180D01*
X147163618Y-82493180D02*
X147201714Y-82645561D01*
X147201714Y-82645561D02*
X147201714Y-82759847D01*
X147201714Y-82759847D02*
X147163618Y-82912228D01*
X147163618Y-82912228D02*
X147125523Y-82988419D01*
X147125523Y-82988419D02*
X147049333Y-83064609D01*
X147049333Y-83064609D02*
X146935047Y-83102704D01*
X146935047Y-83102704D02*
X146744571Y-83102704D01*
X89891219Y-112416495D02*
X90891219Y-112416495D01*
X90891219Y-112416495D02*
X89891219Y-112987923D01*
X89891219Y-112987923D02*
X90891219Y-112987923D01*
X159009771Y-70589480D02*
X159200247Y-70589480D01*
X159200247Y-70589480D02*
X159295485Y-70637100D01*
X159295485Y-70637100D02*
X159390723Y-70732338D01*
X159390723Y-70732338D02*
X159438342Y-70922814D01*
X159438342Y-70922814D02*
X159438342Y-71256147D01*
X159438342Y-71256147D02*
X159390723Y-71446623D01*
X159390723Y-71446623D02*
X159295485Y-71541861D01*
X159295485Y-71541861D02*
X159200247Y-71589480D01*
X159200247Y-71589480D02*
X159009771Y-71589480D01*
X159009771Y-71589480D02*
X158914533Y-71541861D01*
X158914533Y-71541861D02*
X158819295Y-71446623D01*
X158819295Y-71446623D02*
X158771676Y-71256147D01*
X158771676Y-71256147D02*
X158771676Y-70922814D01*
X158771676Y-70922814D02*
X158819295Y-70732338D01*
X158819295Y-70732338D02*
X158914533Y-70637100D01*
X158914533Y-70637100D02*
X159009771Y-70589480D01*
X160200247Y-71065671D02*
X159866914Y-71065671D01*
X159866914Y-71589480D02*
X159866914Y-70589480D01*
X159866914Y-70589480D02*
X160343104Y-70589480D01*
X161057390Y-71065671D02*
X160724057Y-71065671D01*
X160724057Y-71589480D02*
X160724057Y-70589480D01*
X160724057Y-70589480D02*
X161200247Y-70589480D01*
D11*
X106574285Y-86325904D02*
X107069523Y-86325904D01*
X107069523Y-86325904D02*
X106802857Y-86630666D01*
X106802857Y-86630666D02*
X106917142Y-86630666D01*
X106917142Y-86630666D02*
X106993333Y-86668761D01*
X106993333Y-86668761D02*
X107031428Y-86706857D01*
X107031428Y-86706857D02*
X107069523Y-86783047D01*
X107069523Y-86783047D02*
X107069523Y-86973523D01*
X107069523Y-86973523D02*
X107031428Y-87049714D01*
X107031428Y-87049714D02*
X106993333Y-87087809D01*
X106993333Y-87087809D02*
X106917142Y-87125904D01*
X106917142Y-87125904D02*
X106688571Y-87125904D01*
X106688571Y-87125904D02*
X106612380Y-87087809D01*
X106612380Y-87087809D02*
X106574285Y-87049714D01*
D10*
X114132736Y-109773571D02*
X113632736Y-109059285D01*
X113275593Y-109773571D02*
X113275593Y-108273571D01*
X113275593Y-108273571D02*
X113847022Y-108273571D01*
X113847022Y-108273571D02*
X113989879Y-108345000D01*
X113989879Y-108345000D02*
X114061308Y-108416428D01*
X114061308Y-108416428D02*
X114132736Y-108559285D01*
X114132736Y-108559285D02*
X114132736Y-108773571D01*
X114132736Y-108773571D02*
X114061308Y-108916428D01*
X114061308Y-108916428D02*
X113989879Y-108987857D01*
X113989879Y-108987857D02*
X113847022Y-109059285D01*
X113847022Y-109059285D02*
X113275593Y-109059285D01*
X115561308Y-109773571D02*
X114704165Y-109773571D01*
X115132736Y-109773571D02*
X115132736Y-108273571D01*
X115132736Y-108273571D02*
X114989879Y-108487857D01*
X114989879Y-108487857D02*
X114847022Y-108630714D01*
X114847022Y-108630714D02*
X114704165Y-108702142D01*
X108593988Y-86167980D02*
X108593988Y-85167980D01*
X108593988Y-85167980D02*
X108832083Y-85167980D01*
X108832083Y-85167980D02*
X108974940Y-85215600D01*
X108974940Y-85215600D02*
X109070178Y-85310838D01*
X109070178Y-85310838D02*
X109117797Y-85406076D01*
X109117797Y-85406076D02*
X109165416Y-85596552D01*
X109165416Y-85596552D02*
X109165416Y-85739409D01*
X109165416Y-85739409D02*
X109117797Y-85929885D01*
X109117797Y-85929885D02*
X109070178Y-86025123D01*
X109070178Y-86025123D02*
X108974940Y-86120361D01*
X108974940Y-86120361D02*
X108832083Y-86167980D01*
X108832083Y-86167980D02*
X108593988Y-86167980D01*
X110022559Y-85167980D02*
X109832083Y-85167980D01*
X109832083Y-85167980D02*
X109736845Y-85215600D01*
X109736845Y-85215600D02*
X109689226Y-85263219D01*
X109689226Y-85263219D02*
X109593988Y-85406076D01*
X109593988Y-85406076D02*
X109546369Y-85596552D01*
X109546369Y-85596552D02*
X109546369Y-85977504D01*
X109546369Y-85977504D02*
X109593988Y-86072742D01*
X109593988Y-86072742D02*
X109641607Y-86120361D01*
X109641607Y-86120361D02*
X109736845Y-86167980D01*
X109736845Y-86167980D02*
X109927321Y-86167980D01*
X109927321Y-86167980D02*
X110022559Y-86120361D01*
X110022559Y-86120361D02*
X110070178Y-86072742D01*
X110070178Y-86072742D02*
X110117797Y-85977504D01*
X110117797Y-85977504D02*
X110117797Y-85739409D01*
X110117797Y-85739409D02*
X110070178Y-85644171D01*
X110070178Y-85644171D02*
X110022559Y-85596552D01*
X110022559Y-85596552D02*
X109927321Y-85548933D01*
X109927321Y-85548933D02*
X109736845Y-85548933D01*
X109736845Y-85548933D02*
X109641607Y-85596552D01*
X109641607Y-85596552D02*
X109593988Y-85644171D01*
X109593988Y-85644171D02*
X109546369Y-85739409D01*
X109467136Y-121212180D02*
X108990946Y-121212180D01*
X108990946Y-121212180D02*
X108990946Y-120212180D01*
X144992190Y-79762704D02*
X145258857Y-80562704D01*
X145258857Y-80562704D02*
X145525523Y-79762704D01*
X146249333Y-80486514D02*
X146211237Y-80524609D01*
X146211237Y-80524609D02*
X146096952Y-80562704D01*
X146096952Y-80562704D02*
X146020761Y-80562704D01*
X146020761Y-80562704D02*
X145906475Y-80524609D01*
X145906475Y-80524609D02*
X145830285Y-80448419D01*
X145830285Y-80448419D02*
X145792190Y-80372228D01*
X145792190Y-80372228D02*
X145754094Y-80219847D01*
X145754094Y-80219847D02*
X145754094Y-80105561D01*
X145754094Y-80105561D02*
X145792190Y-79953180D01*
X145792190Y-79953180D02*
X145830285Y-79876990D01*
X145830285Y-79876990D02*
X145906475Y-79800800D01*
X145906475Y-79800800D02*
X146020761Y-79762704D01*
X146020761Y-79762704D02*
X146096952Y-79762704D01*
X146096952Y-79762704D02*
X146211237Y-79800800D01*
X146211237Y-79800800D02*
X146249333Y-79838895D01*
X147049333Y-80486514D02*
X147011237Y-80524609D01*
X147011237Y-80524609D02*
X146896952Y-80562704D01*
X146896952Y-80562704D02*
X146820761Y-80562704D01*
X146820761Y-80562704D02*
X146706475Y-80524609D01*
X146706475Y-80524609D02*
X146630285Y-80448419D01*
X146630285Y-80448419D02*
X146592190Y-80372228D01*
X146592190Y-80372228D02*
X146554094Y-80219847D01*
X146554094Y-80219847D02*
X146554094Y-80105561D01*
X146554094Y-80105561D02*
X146592190Y-79953180D01*
X146592190Y-79953180D02*
X146630285Y-79876990D01*
X146630285Y-79876990D02*
X146706475Y-79800800D01*
X146706475Y-79800800D02*
X146820761Y-79762704D01*
X146820761Y-79762704D02*
X146896952Y-79762704D01*
X146896952Y-79762704D02*
X147011237Y-79800800D01*
X147011237Y-79800800D02*
X147049333Y-79838895D01*
X170782736Y-121262980D02*
X170306546Y-121262980D01*
X170306546Y-121262980D02*
X170306546Y-120262980D01*
X130679219Y-72993504D02*
X130412552Y-72612552D01*
X130222076Y-72993504D02*
X130222076Y-72193504D01*
X130222076Y-72193504D02*
X130526838Y-72193504D01*
X130526838Y-72193504D02*
X130603028Y-72231600D01*
X130603028Y-72231600D02*
X130641123Y-72269695D01*
X130641123Y-72269695D02*
X130679219Y-72345885D01*
X130679219Y-72345885D02*
X130679219Y-72460171D01*
X130679219Y-72460171D02*
X130641123Y-72536361D01*
X130641123Y-72536361D02*
X130603028Y-72574457D01*
X130603028Y-72574457D02*
X130526838Y-72612552D01*
X130526838Y-72612552D02*
X130222076Y-72612552D01*
X130945885Y-72193504D02*
X131479219Y-72993504D01*
X131479219Y-72193504D02*
X130945885Y-72993504D01*
X201567536Y-121212180D02*
X201091346Y-121212180D01*
X201091346Y-121212180D02*
X201091346Y-120212180D01*
D12*
X127992076Y-93434819D02*
X128039695Y-93387200D01*
X128039695Y-93387200D02*
X128134933Y-93339580D01*
X128134933Y-93339580D02*
X128373028Y-93339580D01*
X128373028Y-93339580D02*
X128468266Y-93387200D01*
X128468266Y-93387200D02*
X128515885Y-93434819D01*
X128515885Y-93434819D02*
X128563504Y-93530057D01*
X128563504Y-93530057D02*
X128563504Y-93625295D01*
X128563504Y-93625295D02*
X128515885Y-93768152D01*
X128515885Y-93768152D02*
X127944457Y-94339580D01*
X127944457Y-94339580D02*
X128563504Y-94339580D01*
D10*
X116150419Y-75482704D02*
X115883752Y-75101752D01*
X115693276Y-75482704D02*
X115693276Y-74682704D01*
X115693276Y-74682704D02*
X115998038Y-74682704D01*
X115998038Y-74682704D02*
X116074228Y-74720800D01*
X116074228Y-74720800D02*
X116112323Y-74758895D01*
X116112323Y-74758895D02*
X116150419Y-74835085D01*
X116150419Y-74835085D02*
X116150419Y-74949371D01*
X116150419Y-74949371D02*
X116112323Y-75025561D01*
X116112323Y-75025561D02*
X116074228Y-75063657D01*
X116074228Y-75063657D02*
X115998038Y-75101752D01*
X115998038Y-75101752D02*
X115693276Y-75101752D01*
X116455180Y-75444609D02*
X116569466Y-75482704D01*
X116569466Y-75482704D02*
X116759942Y-75482704D01*
X116759942Y-75482704D02*
X116836133Y-75444609D01*
X116836133Y-75444609D02*
X116874228Y-75406514D01*
X116874228Y-75406514D02*
X116912323Y-75330323D01*
X116912323Y-75330323D02*
X116912323Y-75254133D01*
X116912323Y-75254133D02*
X116874228Y-75177942D01*
X116874228Y-75177942D02*
X116836133Y-75139847D01*
X116836133Y-75139847D02*
X116759942Y-75101752D01*
X116759942Y-75101752D02*
X116607561Y-75063657D01*
X116607561Y-75063657D02*
X116531371Y-75025561D01*
X116531371Y-75025561D02*
X116493276Y-74987466D01*
X116493276Y-74987466D02*
X116455180Y-74911276D01*
X116455180Y-74911276D02*
X116455180Y-74835085D01*
X116455180Y-74835085D02*
X116493276Y-74758895D01*
X116493276Y-74758895D02*
X116531371Y-74720800D01*
X116531371Y-74720800D02*
X116607561Y-74682704D01*
X116607561Y-74682704D02*
X116798038Y-74682704D01*
X116798038Y-74682704D02*
X116912323Y-74720800D01*
X117140895Y-74682704D02*
X117598038Y-74682704D01*
X117369466Y-75482704D02*
X117369466Y-74682704D01*
X155166019Y-89507104D02*
X154899352Y-89126152D01*
X154708876Y-89507104D02*
X154708876Y-88707104D01*
X154708876Y-88707104D02*
X155013638Y-88707104D01*
X155013638Y-88707104D02*
X155089828Y-88745200D01*
X155089828Y-88745200D02*
X155127923Y-88783295D01*
X155127923Y-88783295D02*
X155166019Y-88859485D01*
X155166019Y-88859485D02*
X155166019Y-88973771D01*
X155166019Y-88973771D02*
X155127923Y-89049961D01*
X155127923Y-89049961D02*
X155089828Y-89088057D01*
X155089828Y-89088057D02*
X155013638Y-89126152D01*
X155013638Y-89126152D02*
X154708876Y-89126152D01*
X155470780Y-89469009D02*
X155585066Y-89507104D01*
X155585066Y-89507104D02*
X155775542Y-89507104D01*
X155775542Y-89507104D02*
X155851733Y-89469009D01*
X155851733Y-89469009D02*
X155889828Y-89430914D01*
X155889828Y-89430914D02*
X155927923Y-89354723D01*
X155927923Y-89354723D02*
X155927923Y-89278533D01*
X155927923Y-89278533D02*
X155889828Y-89202342D01*
X155889828Y-89202342D02*
X155851733Y-89164247D01*
X155851733Y-89164247D02*
X155775542Y-89126152D01*
X155775542Y-89126152D02*
X155623161Y-89088057D01*
X155623161Y-89088057D02*
X155546971Y-89049961D01*
X155546971Y-89049961D02*
X155508876Y-89011866D01*
X155508876Y-89011866D02*
X155470780Y-88935676D01*
X155470780Y-88935676D02*
X155470780Y-88859485D01*
X155470780Y-88859485D02*
X155508876Y-88783295D01*
X155508876Y-88783295D02*
X155546971Y-88745200D01*
X155546971Y-88745200D02*
X155623161Y-88707104D01*
X155623161Y-88707104D02*
X155813638Y-88707104D01*
X155813638Y-88707104D02*
X155927923Y-88745200D01*
X156156495Y-88707104D02*
X156613638Y-88707104D01*
X156385066Y-89507104D02*
X156385066Y-88707104D01*
X145068380Y-77933809D02*
X145182666Y-77971904D01*
X145182666Y-77971904D02*
X145373142Y-77971904D01*
X145373142Y-77971904D02*
X145449333Y-77933809D01*
X145449333Y-77933809D02*
X145487428Y-77895714D01*
X145487428Y-77895714D02*
X145525523Y-77819523D01*
X145525523Y-77819523D02*
X145525523Y-77743333D01*
X145525523Y-77743333D02*
X145487428Y-77667142D01*
X145487428Y-77667142D02*
X145449333Y-77629047D01*
X145449333Y-77629047D02*
X145373142Y-77590952D01*
X145373142Y-77590952D02*
X145220761Y-77552857D01*
X145220761Y-77552857D02*
X145144571Y-77514761D01*
X145144571Y-77514761D02*
X145106476Y-77476666D01*
X145106476Y-77476666D02*
X145068380Y-77400476D01*
X145068380Y-77400476D02*
X145068380Y-77324285D01*
X145068380Y-77324285D02*
X145106476Y-77248095D01*
X145106476Y-77248095D02*
X145144571Y-77210000D01*
X145144571Y-77210000D02*
X145220761Y-77171904D01*
X145220761Y-77171904D02*
X145411238Y-77171904D01*
X145411238Y-77171904D02*
X145525523Y-77210000D01*
X146325524Y-77895714D02*
X146287428Y-77933809D01*
X146287428Y-77933809D02*
X146173143Y-77971904D01*
X146173143Y-77971904D02*
X146096952Y-77971904D01*
X146096952Y-77971904D02*
X145982666Y-77933809D01*
X145982666Y-77933809D02*
X145906476Y-77857619D01*
X145906476Y-77857619D02*
X145868381Y-77781428D01*
X145868381Y-77781428D02*
X145830285Y-77629047D01*
X145830285Y-77629047D02*
X145830285Y-77514761D01*
X145830285Y-77514761D02*
X145868381Y-77362380D01*
X145868381Y-77362380D02*
X145906476Y-77286190D01*
X145906476Y-77286190D02*
X145982666Y-77210000D01*
X145982666Y-77210000D02*
X146096952Y-77171904D01*
X146096952Y-77171904D02*
X146173143Y-77171904D01*
X146173143Y-77171904D02*
X146287428Y-77210000D01*
X146287428Y-77210000D02*
X146325524Y-77248095D01*
X147049333Y-77971904D02*
X146668381Y-77971904D01*
X146668381Y-77971904D02*
X146668381Y-77171904D01*
X139997936Y-121212180D02*
X139521746Y-121212180D01*
X139521746Y-121212180D02*
X139521746Y-120212180D01*
X181193555Y-120310600D02*
X181098317Y-120262980D01*
X181098317Y-120262980D02*
X180955460Y-120262980D01*
X180955460Y-120262980D02*
X180812603Y-120310600D01*
X180812603Y-120310600D02*
X180717365Y-120405838D01*
X180717365Y-120405838D02*
X180669746Y-120501076D01*
X180669746Y-120501076D02*
X180622127Y-120691552D01*
X180622127Y-120691552D02*
X180622127Y-120834409D01*
X180622127Y-120834409D02*
X180669746Y-121024885D01*
X180669746Y-121024885D02*
X180717365Y-121120123D01*
X180717365Y-121120123D02*
X180812603Y-121215361D01*
X180812603Y-121215361D02*
X180955460Y-121262980D01*
X180955460Y-121262980D02*
X181050698Y-121262980D01*
X181050698Y-121262980D02*
X181193555Y-121215361D01*
X181193555Y-121215361D02*
X181241174Y-121167742D01*
X181241174Y-121167742D02*
X181241174Y-120834409D01*
X181241174Y-120834409D02*
X181050698Y-120834409D01*
D12*
X191866666Y-93215714D02*
X191866666Y-93882380D01*
X191628571Y-92834761D02*
X191390476Y-93549047D01*
X191390476Y-93549047D02*
X192009523Y-93549047D01*
D10*
X185924228Y-77425904D02*
X185543276Y-77425904D01*
X185543276Y-77425904D02*
X185505180Y-77806857D01*
X185505180Y-77806857D02*
X185543276Y-77768761D01*
X185543276Y-77768761D02*
X185619466Y-77730666D01*
X185619466Y-77730666D02*
X185809942Y-77730666D01*
X185809942Y-77730666D02*
X185886133Y-77768761D01*
X185886133Y-77768761D02*
X185924228Y-77806857D01*
X185924228Y-77806857D02*
X185962323Y-77883047D01*
X185962323Y-77883047D02*
X185962323Y-78073523D01*
X185962323Y-78073523D02*
X185924228Y-78149714D01*
X185924228Y-78149714D02*
X185886133Y-78187809D01*
X185886133Y-78187809D02*
X185809942Y-78225904D01*
X185809942Y-78225904D02*
X185619466Y-78225904D01*
X185619466Y-78225904D02*
X185543276Y-78187809D01*
X185543276Y-78187809D02*
X185505180Y-78149714D01*
X186190895Y-77425904D02*
X186457562Y-78225904D01*
X186457562Y-78225904D02*
X186724228Y-77425904D01*
X175522617Y-109773571D02*
X175022617Y-109059285D01*
X174665474Y-109773571D02*
X174665474Y-108273571D01*
X174665474Y-108273571D02*
X175236903Y-108273571D01*
X175236903Y-108273571D02*
X175379760Y-108345000D01*
X175379760Y-108345000D02*
X175451189Y-108416428D01*
X175451189Y-108416428D02*
X175522617Y-108559285D01*
X175522617Y-108559285D02*
X175522617Y-108773571D01*
X175522617Y-108773571D02*
X175451189Y-108916428D01*
X175451189Y-108916428D02*
X175379760Y-108987857D01*
X175379760Y-108987857D02*
X175236903Y-109059285D01*
X175236903Y-109059285D02*
X174665474Y-109059285D01*
X176022617Y-108273571D02*
X176951189Y-108273571D01*
X176951189Y-108273571D02*
X176451189Y-108845000D01*
X176451189Y-108845000D02*
X176665474Y-108845000D01*
X176665474Y-108845000D02*
X176808332Y-108916428D01*
X176808332Y-108916428D02*
X176879760Y-108987857D01*
X176879760Y-108987857D02*
X176951189Y-109130714D01*
X176951189Y-109130714D02*
X176951189Y-109487857D01*
X176951189Y-109487857D02*
X176879760Y-109630714D01*
X176879760Y-109630714D02*
X176808332Y-109702142D01*
X176808332Y-109702142D02*
X176665474Y-109773571D01*
X176665474Y-109773571D02*
X176236903Y-109773571D01*
X176236903Y-109773571D02*
X176094046Y-109702142D01*
X176094046Y-109702142D02*
X176022617Y-109630714D01*
X175234146Y-121262980D02*
X175234146Y-120262980D01*
X175234146Y-120262980D02*
X175805574Y-121262980D01*
X175805574Y-121262980D02*
X175805574Y-120262980D01*
D13*
X95163714Y-71041000D02*
X95878000Y-71041000D01*
X95020857Y-71469571D02*
X95520857Y-69969571D01*
X95520857Y-69969571D02*
X96020857Y-71469571D01*
X96520856Y-69969571D02*
X96520856Y-71183857D01*
X96520856Y-71183857D02*
X96592285Y-71326714D01*
X96592285Y-71326714D02*
X96663714Y-71398142D01*
X96663714Y-71398142D02*
X96806571Y-71469571D01*
X96806571Y-71469571D02*
X97092285Y-71469571D01*
X97092285Y-71469571D02*
X97235142Y-71398142D01*
X97235142Y-71398142D02*
X97306571Y-71326714D01*
X97306571Y-71326714D02*
X97377999Y-71183857D01*
X97377999Y-71183857D02*
X97377999Y-69969571D01*
X97878000Y-69969571D02*
X98735143Y-69969571D01*
X98306571Y-71469571D02*
X98306571Y-69969571D01*
X99520857Y-69969571D02*
X99806571Y-69969571D01*
X99806571Y-69969571D02*
X99949428Y-70041000D01*
X99949428Y-70041000D02*
X100092285Y-70183857D01*
X100092285Y-70183857D02*
X100163714Y-70469571D01*
X100163714Y-70469571D02*
X100163714Y-70969571D01*
X100163714Y-70969571D02*
X100092285Y-71255285D01*
X100092285Y-71255285D02*
X99949428Y-71398142D01*
X99949428Y-71398142D02*
X99806571Y-71469571D01*
X99806571Y-71469571D02*
X99520857Y-71469571D01*
X99520857Y-71469571D02*
X99378000Y-71398142D01*
X99378000Y-71398142D02*
X99235142Y-71255285D01*
X99235142Y-71255285D02*
X99163714Y-70969571D01*
X99163714Y-70969571D02*
X99163714Y-70469571D01*
X99163714Y-70469571D02*
X99235142Y-70183857D01*
X99235142Y-70183857D02*
X99378000Y-70041000D01*
X99378000Y-70041000D02*
X99520857Y-69969571D01*
X100806571Y-71469571D02*
X100806571Y-69969571D01*
X100806571Y-69969571D02*
X101306571Y-71041000D01*
X101306571Y-71041000D02*
X101806571Y-69969571D01*
X101806571Y-69969571D02*
X101806571Y-71469571D01*
X102449429Y-71041000D02*
X103163715Y-71041000D01*
X102306572Y-71469571D02*
X102806572Y-69969571D01*
X102806572Y-69969571D02*
X103306572Y-71469571D01*
X103592286Y-69969571D02*
X104449429Y-69969571D01*
X104020857Y-71469571D02*
X104020857Y-69969571D01*
X104949428Y-70683857D02*
X105449428Y-70683857D01*
X105663714Y-71469571D02*
X104949428Y-71469571D01*
X104949428Y-71469571D02*
X104949428Y-69969571D01*
X104949428Y-69969571D02*
X105663714Y-69969571D01*
X106306571Y-71469571D02*
X106306571Y-69969571D01*
X106306571Y-69969571D02*
X106663714Y-69969571D01*
X106663714Y-69969571D02*
X106878000Y-70041000D01*
X106878000Y-70041000D02*
X107020857Y-70183857D01*
X107020857Y-70183857D02*
X107092286Y-70326714D01*
X107092286Y-70326714D02*
X107163714Y-70612428D01*
X107163714Y-70612428D02*
X107163714Y-70826714D01*
X107163714Y-70826714D02*
X107092286Y-71112428D01*
X107092286Y-71112428D02*
X107020857Y-71255285D01*
X107020857Y-71255285D02*
X106878000Y-71398142D01*
X106878000Y-71398142D02*
X106663714Y-71469571D01*
X106663714Y-71469571D02*
X106306571Y-71469571D01*
X109563714Y-71469571D02*
X109063714Y-70755285D01*
X108706571Y-71469571D02*
X108706571Y-69969571D01*
X108706571Y-69969571D02*
X109278000Y-69969571D01*
X109278000Y-69969571D02*
X109420857Y-70041000D01*
X109420857Y-70041000D02*
X109492286Y-70112428D01*
X109492286Y-70112428D02*
X109563714Y-70255285D01*
X109563714Y-70255285D02*
X109563714Y-70469571D01*
X109563714Y-70469571D02*
X109492286Y-70612428D01*
X109492286Y-70612428D02*
X109420857Y-70683857D01*
X109420857Y-70683857D02*
X109278000Y-70755285D01*
X109278000Y-70755285D02*
X108706571Y-70755285D01*
X110206571Y-70683857D02*
X110706571Y-70683857D01*
X110920857Y-71469571D02*
X110206571Y-71469571D01*
X110206571Y-71469571D02*
X110206571Y-69969571D01*
X110206571Y-69969571D02*
X110920857Y-69969571D01*
X112278000Y-71469571D02*
X111563714Y-71469571D01*
X111563714Y-71469571D02*
X111563714Y-69969571D01*
X112706572Y-71041000D02*
X113420858Y-71041000D01*
X112563715Y-71469571D02*
X113063715Y-69969571D01*
X113063715Y-69969571D02*
X113563715Y-71469571D01*
X114349429Y-70755285D02*
X114349429Y-71469571D01*
X113849429Y-69969571D02*
X114349429Y-70755285D01*
X114349429Y-70755285D02*
X114849429Y-69969571D01*
X117106571Y-71326714D02*
X117035143Y-71398142D01*
X117035143Y-71398142D02*
X116820857Y-71469571D01*
X116820857Y-71469571D02*
X116678000Y-71469571D01*
X116678000Y-71469571D02*
X116463714Y-71398142D01*
X116463714Y-71398142D02*
X116320857Y-71255285D01*
X116320857Y-71255285D02*
X116249428Y-71112428D01*
X116249428Y-71112428D02*
X116178000Y-70826714D01*
X116178000Y-70826714D02*
X116178000Y-70612428D01*
X116178000Y-70612428D02*
X116249428Y-70326714D01*
X116249428Y-70326714D02*
X116320857Y-70183857D01*
X116320857Y-70183857D02*
X116463714Y-70041000D01*
X116463714Y-70041000D02*
X116678000Y-69969571D01*
X116678000Y-69969571D02*
X116820857Y-69969571D01*
X116820857Y-69969571D02*
X117035143Y-70041000D01*
X117035143Y-70041000D02*
X117106571Y-70112428D01*
X118035143Y-70755285D02*
X118035143Y-71469571D01*
X117535143Y-69969571D02*
X118035143Y-70755285D01*
X118035143Y-70755285D02*
X118535143Y-69969571D01*
X119892285Y-71326714D02*
X119820857Y-71398142D01*
X119820857Y-71398142D02*
X119606571Y-71469571D01*
X119606571Y-71469571D02*
X119463714Y-71469571D01*
X119463714Y-71469571D02*
X119249428Y-71398142D01*
X119249428Y-71398142D02*
X119106571Y-71255285D01*
X119106571Y-71255285D02*
X119035142Y-71112428D01*
X119035142Y-71112428D02*
X118963714Y-70826714D01*
X118963714Y-70826714D02*
X118963714Y-70612428D01*
X118963714Y-70612428D02*
X119035142Y-70326714D01*
X119035142Y-70326714D02*
X119106571Y-70183857D01*
X119106571Y-70183857D02*
X119249428Y-70041000D01*
X119249428Y-70041000D02*
X119463714Y-69969571D01*
X119463714Y-69969571D02*
X119606571Y-69969571D01*
X119606571Y-69969571D02*
X119820857Y-70041000D01*
X119820857Y-70041000D02*
X119892285Y-70112428D01*
X121249428Y-71469571D02*
X120535142Y-71469571D01*
X120535142Y-71469571D02*
X120535142Y-69969571D01*
X121749428Y-70683857D02*
X122249428Y-70683857D01*
X122463714Y-71469571D02*
X121749428Y-71469571D01*
X121749428Y-71469571D02*
X121749428Y-69969571D01*
X121749428Y-69969571D02*
X122463714Y-69969571D01*
X123963714Y-71469571D02*
X123463714Y-70755285D01*
X123106571Y-71469571D02*
X123106571Y-69969571D01*
X123106571Y-69969571D02*
X123678000Y-69969571D01*
X123678000Y-69969571D02*
X123820857Y-70041000D01*
X123820857Y-70041000D02*
X123892286Y-70112428D01*
X123892286Y-70112428D02*
X123963714Y-70255285D01*
X123963714Y-70255285D02*
X123963714Y-70469571D01*
X123963714Y-70469571D02*
X123892286Y-70612428D01*
X123892286Y-70612428D02*
X123820857Y-70683857D01*
X123820857Y-70683857D02*
X123678000Y-70755285D01*
X123678000Y-70755285D02*
X123106571Y-70755285D01*
D10*
X147076190Y-84185904D02*
X147342857Y-84985904D01*
X147342857Y-84985904D02*
X147609523Y-84185904D01*
X148333333Y-84909714D02*
X148295237Y-84947809D01*
X148295237Y-84947809D02*
X148180952Y-84985904D01*
X148180952Y-84985904D02*
X148104761Y-84985904D01*
X148104761Y-84985904D02*
X147990475Y-84947809D01*
X147990475Y-84947809D02*
X147914285Y-84871619D01*
X147914285Y-84871619D02*
X147876190Y-84795428D01*
X147876190Y-84795428D02*
X147838094Y-84643047D01*
X147838094Y-84643047D02*
X147838094Y-84528761D01*
X147838094Y-84528761D02*
X147876190Y-84376380D01*
X147876190Y-84376380D02*
X147914285Y-84300190D01*
X147914285Y-84300190D02*
X147990475Y-84224000D01*
X147990475Y-84224000D02*
X148104761Y-84185904D01*
X148104761Y-84185904D02*
X148180952Y-84185904D01*
X148180952Y-84185904D02*
X148295237Y-84224000D01*
X148295237Y-84224000D02*
X148333333Y-84262095D01*
X149133333Y-84909714D02*
X149095237Y-84947809D01*
X149095237Y-84947809D02*
X148980952Y-84985904D01*
X148980952Y-84985904D02*
X148904761Y-84985904D01*
X148904761Y-84985904D02*
X148790475Y-84947809D01*
X148790475Y-84947809D02*
X148714285Y-84871619D01*
X148714285Y-84871619D02*
X148676190Y-84795428D01*
X148676190Y-84795428D02*
X148638094Y-84643047D01*
X148638094Y-84643047D02*
X148638094Y-84528761D01*
X148638094Y-84528761D02*
X148676190Y-84376380D01*
X148676190Y-84376380D02*
X148714285Y-84300190D01*
X148714285Y-84300190D02*
X148790475Y-84224000D01*
X148790475Y-84224000D02*
X148904761Y-84185904D01*
X148904761Y-84185904D02*
X148980952Y-84185904D01*
X148980952Y-84185904D02*
X149095237Y-84224000D01*
X149095237Y-84224000D02*
X149133333Y-84262095D01*
X127770990Y-72193504D02*
X128228133Y-72193504D01*
X127999561Y-72993504D02*
X127999561Y-72193504D01*
X128418609Y-72193504D02*
X128951943Y-72993504D01*
X128951943Y-72193504D02*
X128418609Y-72993504D01*
X100973988Y-86167980D02*
X100973988Y-85167980D01*
X100973988Y-85167980D02*
X101212083Y-85167980D01*
X101212083Y-85167980D02*
X101354940Y-85215600D01*
X101354940Y-85215600D02*
X101450178Y-85310838D01*
X101450178Y-85310838D02*
X101497797Y-85406076D01*
X101497797Y-85406076D02*
X101545416Y-85596552D01*
X101545416Y-85596552D02*
X101545416Y-85739409D01*
X101545416Y-85739409D02*
X101497797Y-85929885D01*
X101497797Y-85929885D02*
X101450178Y-86025123D01*
X101450178Y-86025123D02*
X101354940Y-86120361D01*
X101354940Y-86120361D02*
X101212083Y-86167980D01*
X101212083Y-86167980D02*
X100973988Y-86167980D01*
X102021607Y-86167980D02*
X102212083Y-86167980D01*
X102212083Y-86167980D02*
X102307321Y-86120361D01*
X102307321Y-86120361D02*
X102354940Y-86072742D01*
X102354940Y-86072742D02*
X102450178Y-85929885D01*
X102450178Y-85929885D02*
X102497797Y-85739409D01*
X102497797Y-85739409D02*
X102497797Y-85358457D01*
X102497797Y-85358457D02*
X102450178Y-85263219D01*
X102450178Y-85263219D02*
X102402559Y-85215600D01*
X102402559Y-85215600D02*
X102307321Y-85167980D01*
X102307321Y-85167980D02*
X102116845Y-85167980D01*
X102116845Y-85167980D02*
X102021607Y-85215600D01*
X102021607Y-85215600D02*
X101973988Y-85263219D01*
X101973988Y-85263219D02*
X101926369Y-85358457D01*
X101926369Y-85358457D02*
X101926369Y-85596552D01*
X101926369Y-85596552D02*
X101973988Y-85691790D01*
X101973988Y-85691790D02*
X102021607Y-85739409D01*
X102021607Y-85739409D02*
X102116845Y-85787028D01*
X102116845Y-85787028D02*
X102307321Y-85787028D01*
X102307321Y-85787028D02*
X102402559Y-85739409D01*
X102402559Y-85739409D02*
X102450178Y-85691790D01*
X102450178Y-85691790D02*
X102497797Y-85596552D01*
X119877955Y-120259800D02*
X119782717Y-120212180D01*
X119782717Y-120212180D02*
X119639860Y-120212180D01*
X119639860Y-120212180D02*
X119497003Y-120259800D01*
X119497003Y-120259800D02*
X119401765Y-120355038D01*
X119401765Y-120355038D02*
X119354146Y-120450276D01*
X119354146Y-120450276D02*
X119306527Y-120640752D01*
X119306527Y-120640752D02*
X119306527Y-120783609D01*
X119306527Y-120783609D02*
X119354146Y-120974085D01*
X119354146Y-120974085D02*
X119401765Y-121069323D01*
X119401765Y-121069323D02*
X119497003Y-121164561D01*
X119497003Y-121164561D02*
X119639860Y-121212180D01*
X119639860Y-121212180D02*
X119735098Y-121212180D01*
X119735098Y-121212180D02*
X119877955Y-121164561D01*
X119877955Y-121164561D02*
X119925574Y-121116942D01*
X119925574Y-121116942D02*
X119925574Y-120783609D01*
X119925574Y-120783609D02*
X119735098Y-120783609D01*
X91089000Y-93515714D02*
X91089000Y-94230000D01*
X90660428Y-93372857D02*
X92160428Y-93872857D01*
X92160428Y-93872857D02*
X90660428Y-94372857D01*
X90803285Y-95729999D02*
X90731857Y-95658571D01*
X90731857Y-95658571D02*
X90660428Y-95444285D01*
X90660428Y-95444285D02*
X90660428Y-95301428D01*
X90660428Y-95301428D02*
X90731857Y-95087142D01*
X90731857Y-95087142D02*
X90874714Y-94944285D01*
X90874714Y-94944285D02*
X91017571Y-94872856D01*
X91017571Y-94872856D02*
X91303285Y-94801428D01*
X91303285Y-94801428D02*
X91517571Y-94801428D01*
X91517571Y-94801428D02*
X91803285Y-94872856D01*
X91803285Y-94872856D02*
X91946142Y-94944285D01*
X91946142Y-94944285D02*
X92089000Y-95087142D01*
X92089000Y-95087142D02*
X92160428Y-95301428D01*
X92160428Y-95301428D02*
X92160428Y-95444285D01*
X92160428Y-95444285D02*
X92089000Y-95658571D01*
X92089000Y-95658571D02*
X92017571Y-95729999D01*
X90660428Y-97272856D02*
X92160428Y-97272856D01*
X90660428Y-97987142D02*
X92160428Y-97987142D01*
X92160428Y-97987142D02*
X90660428Y-98844285D01*
X90660428Y-98844285D02*
X92160428Y-98844285D01*
D12*
X159542057Y-93390380D02*
X160161104Y-93390380D01*
X160161104Y-93390380D02*
X159827771Y-93771333D01*
X159827771Y-93771333D02*
X159970628Y-93771333D01*
X159970628Y-93771333D02*
X160065866Y-93818952D01*
X160065866Y-93818952D02*
X160113485Y-93866571D01*
X160113485Y-93866571D02*
X160161104Y-93961809D01*
X160161104Y-93961809D02*
X160161104Y-94199904D01*
X160161104Y-94199904D02*
X160113485Y-94295142D01*
X160113485Y-94295142D02*
X160065866Y-94342761D01*
X160065866Y-94342761D02*
X159970628Y-94390380D01*
X159970628Y-94390380D02*
X159684914Y-94390380D01*
X159684914Y-94390380D02*
X159589676Y-94342761D01*
X159589676Y-94342761D02*
X159542057Y-94295142D01*
D10*
X135314723Y-72231600D02*
X135238533Y-72193504D01*
X135238533Y-72193504D02*
X135124247Y-72193504D01*
X135124247Y-72193504D02*
X135009961Y-72231600D01*
X135009961Y-72231600D02*
X134933771Y-72307790D01*
X134933771Y-72307790D02*
X134895676Y-72383980D01*
X134895676Y-72383980D02*
X134857580Y-72536361D01*
X134857580Y-72536361D02*
X134857580Y-72650647D01*
X134857580Y-72650647D02*
X134895676Y-72803028D01*
X134895676Y-72803028D02*
X134933771Y-72879219D01*
X134933771Y-72879219D02*
X135009961Y-72955409D01*
X135009961Y-72955409D02*
X135124247Y-72993504D01*
X135124247Y-72993504D02*
X135200438Y-72993504D01*
X135200438Y-72993504D02*
X135314723Y-72955409D01*
X135314723Y-72955409D02*
X135352819Y-72917314D01*
X135352819Y-72917314D02*
X135352819Y-72650647D01*
X135352819Y-72650647D02*
X135200438Y-72650647D01*
X135695676Y-72993504D02*
X135695676Y-72193504D01*
X135695676Y-72193504D02*
X136152819Y-72993504D01*
X136152819Y-72993504D02*
X136152819Y-72193504D01*
X136533771Y-72993504D02*
X136533771Y-72193504D01*
X136533771Y-72193504D02*
X136724247Y-72193504D01*
X136724247Y-72193504D02*
X136838533Y-72231600D01*
X136838533Y-72231600D02*
X136914723Y-72307790D01*
X136914723Y-72307790D02*
X136952818Y-72383980D01*
X136952818Y-72383980D02*
X136990914Y-72536361D01*
X136990914Y-72536361D02*
X136990914Y-72650647D01*
X136990914Y-72650647D02*
X136952818Y-72803028D01*
X136952818Y-72803028D02*
X136914723Y-72879219D01*
X136914723Y-72879219D02*
X136838533Y-72955409D01*
X136838533Y-72955409D02*
X136724247Y-72993504D01*
X136724247Y-72993504D02*
X136533771Y-72993504D01*
D11*
X109533333Y-86592571D02*
X109533333Y-87125904D01*
X109342857Y-86287809D02*
X109152380Y-86859238D01*
X109152380Y-86859238D02*
X109647619Y-86859238D01*
D10*
X145068380Y-75495409D02*
X145182666Y-75533504D01*
X145182666Y-75533504D02*
X145373142Y-75533504D01*
X145373142Y-75533504D02*
X145449333Y-75495409D01*
X145449333Y-75495409D02*
X145487428Y-75457314D01*
X145487428Y-75457314D02*
X145525523Y-75381123D01*
X145525523Y-75381123D02*
X145525523Y-75304933D01*
X145525523Y-75304933D02*
X145487428Y-75228742D01*
X145487428Y-75228742D02*
X145449333Y-75190647D01*
X145449333Y-75190647D02*
X145373142Y-75152552D01*
X145373142Y-75152552D02*
X145220761Y-75114457D01*
X145220761Y-75114457D02*
X145144571Y-75076361D01*
X145144571Y-75076361D02*
X145106476Y-75038266D01*
X145106476Y-75038266D02*
X145068380Y-74962076D01*
X145068380Y-74962076D02*
X145068380Y-74885885D01*
X145068380Y-74885885D02*
X145106476Y-74809695D01*
X145106476Y-74809695D02*
X145144571Y-74771600D01*
X145144571Y-74771600D02*
X145220761Y-74733504D01*
X145220761Y-74733504D02*
X145411238Y-74733504D01*
X145411238Y-74733504D02*
X145525523Y-74771600D01*
X145868381Y-75533504D02*
X145868381Y-74733504D01*
X145868381Y-74733504D02*
X146058857Y-74733504D01*
X146058857Y-74733504D02*
X146173143Y-74771600D01*
X146173143Y-74771600D02*
X146249333Y-74847790D01*
X146249333Y-74847790D02*
X146287428Y-74923980D01*
X146287428Y-74923980D02*
X146325524Y-75076361D01*
X146325524Y-75076361D02*
X146325524Y-75190647D01*
X146325524Y-75190647D02*
X146287428Y-75343028D01*
X146287428Y-75343028D02*
X146249333Y-75419219D01*
X146249333Y-75419219D02*
X146173143Y-75495409D01*
X146173143Y-75495409D02*
X146058857Y-75533504D01*
X146058857Y-75533504D02*
X145868381Y-75533504D01*
X146630285Y-75304933D02*
X147011238Y-75304933D01*
X146554095Y-75533504D02*
X146820762Y-74733504D01*
X146820762Y-74733504D02*
X147087428Y-75533504D01*
D11*
X104072380Y-86402095D02*
X104110476Y-86364000D01*
X104110476Y-86364000D02*
X104186666Y-86325904D01*
X104186666Y-86325904D02*
X104377142Y-86325904D01*
X104377142Y-86325904D02*
X104453333Y-86364000D01*
X104453333Y-86364000D02*
X104491428Y-86402095D01*
X104491428Y-86402095D02*
X104529523Y-86478285D01*
X104529523Y-86478285D02*
X104529523Y-86554476D01*
X104529523Y-86554476D02*
X104491428Y-86668761D01*
X104491428Y-86668761D02*
X104034285Y-87125904D01*
X104034285Y-87125904D02*
X104529523Y-87125904D01*
D10*
X145852571Y-70589480D02*
X146043047Y-70589480D01*
X146043047Y-70589480D02*
X146138285Y-70637100D01*
X146138285Y-70637100D02*
X146233523Y-70732338D01*
X146233523Y-70732338D02*
X146281142Y-70922814D01*
X146281142Y-70922814D02*
X146281142Y-71256147D01*
X146281142Y-71256147D02*
X146233523Y-71446623D01*
X146233523Y-71446623D02*
X146138285Y-71541861D01*
X146138285Y-71541861D02*
X146043047Y-71589480D01*
X146043047Y-71589480D02*
X145852571Y-71589480D01*
X145852571Y-71589480D02*
X145757333Y-71541861D01*
X145757333Y-71541861D02*
X145662095Y-71446623D01*
X145662095Y-71446623D02*
X145614476Y-71256147D01*
X145614476Y-71256147D02*
X145614476Y-70922814D01*
X145614476Y-70922814D02*
X145662095Y-70732338D01*
X145662095Y-70732338D02*
X145757333Y-70637100D01*
X145757333Y-70637100D02*
X145852571Y-70589480D01*
X146709714Y-71589480D02*
X146709714Y-70589480D01*
X146709714Y-70589480D02*
X147281142Y-71589480D01*
X147281142Y-71589480D02*
X147281142Y-70589480D01*
X155127923Y-86154400D02*
X155051733Y-86116304D01*
X155051733Y-86116304D02*
X154937447Y-86116304D01*
X154937447Y-86116304D02*
X154823161Y-86154400D01*
X154823161Y-86154400D02*
X154746971Y-86230590D01*
X154746971Y-86230590D02*
X154708876Y-86306780D01*
X154708876Y-86306780D02*
X154670780Y-86459161D01*
X154670780Y-86459161D02*
X154670780Y-86573447D01*
X154670780Y-86573447D02*
X154708876Y-86725828D01*
X154708876Y-86725828D02*
X154746971Y-86802019D01*
X154746971Y-86802019D02*
X154823161Y-86878209D01*
X154823161Y-86878209D02*
X154937447Y-86916304D01*
X154937447Y-86916304D02*
X155013638Y-86916304D01*
X155013638Y-86916304D02*
X155127923Y-86878209D01*
X155127923Y-86878209D02*
X155166019Y-86840114D01*
X155166019Y-86840114D02*
X155166019Y-86573447D01*
X155166019Y-86573447D02*
X155013638Y-86573447D01*
X155508876Y-86916304D02*
X155508876Y-86116304D01*
X155508876Y-86116304D02*
X155966019Y-86916304D01*
X155966019Y-86916304D02*
X155966019Y-86116304D01*
X156346971Y-86916304D02*
X156346971Y-86116304D01*
X156346971Y-86116304D02*
X156537447Y-86116304D01*
X156537447Y-86116304D02*
X156651733Y-86154400D01*
X156651733Y-86154400D02*
X156727923Y-86230590D01*
X156727923Y-86230590D02*
X156766018Y-86306780D01*
X156766018Y-86306780D02*
X156804114Y-86459161D01*
X156804114Y-86459161D02*
X156804114Y-86573447D01*
X156804114Y-86573447D02*
X156766018Y-86725828D01*
X156766018Y-86725828D02*
X156727923Y-86802019D01*
X156727923Y-86802019D02*
X156651733Y-86878209D01*
X156651733Y-86878209D02*
X156537447Y-86916304D01*
X156537447Y-86916304D02*
X156346971Y-86916304D01*
X206214285Y-109773571D02*
X205714285Y-109059285D01*
X205357142Y-109773571D02*
X205357142Y-108273571D01*
X205357142Y-108273571D02*
X205928571Y-108273571D01*
X205928571Y-108273571D02*
X206071428Y-108345000D01*
X206071428Y-108345000D02*
X206142857Y-108416428D01*
X206142857Y-108416428D02*
X206214285Y-108559285D01*
X206214285Y-108559285D02*
X206214285Y-108773571D01*
X206214285Y-108773571D02*
X206142857Y-108916428D01*
X206142857Y-108916428D02*
X206071428Y-108987857D01*
X206071428Y-108987857D02*
X205928571Y-109059285D01*
X205928571Y-109059285D02*
X205357142Y-109059285D01*
X207500000Y-108773571D02*
X207500000Y-109773571D01*
X207142857Y-108202142D02*
X206785714Y-109273571D01*
X206785714Y-109273571D02*
X207714285Y-109273571D01*
X144449346Y-121212180D02*
X144449346Y-120212180D01*
X144449346Y-120212180D02*
X145020774Y-121212180D01*
X145020774Y-121212180D02*
X145020774Y-120212180D01*
X106053988Y-86167980D02*
X106053988Y-85167980D01*
X106053988Y-85167980D02*
X106292083Y-85167980D01*
X106292083Y-85167980D02*
X106434940Y-85215600D01*
X106434940Y-85215600D02*
X106530178Y-85310838D01*
X106530178Y-85310838D02*
X106577797Y-85406076D01*
X106577797Y-85406076D02*
X106625416Y-85596552D01*
X106625416Y-85596552D02*
X106625416Y-85739409D01*
X106625416Y-85739409D02*
X106577797Y-85929885D01*
X106577797Y-85929885D02*
X106530178Y-86025123D01*
X106530178Y-86025123D02*
X106434940Y-86120361D01*
X106434940Y-86120361D02*
X106292083Y-86167980D01*
X106292083Y-86167980D02*
X106053988Y-86167980D01*
X106958750Y-85167980D02*
X107625416Y-85167980D01*
X107625416Y-85167980D02*
X107196845Y-86167980D01*
X144830951Y-109773571D02*
X144330951Y-109059285D01*
X143973808Y-109773571D02*
X143973808Y-108273571D01*
X143973808Y-108273571D02*
X144545237Y-108273571D01*
X144545237Y-108273571D02*
X144688094Y-108345000D01*
X144688094Y-108345000D02*
X144759523Y-108416428D01*
X144759523Y-108416428D02*
X144830951Y-108559285D01*
X144830951Y-108559285D02*
X144830951Y-108773571D01*
X144830951Y-108773571D02*
X144759523Y-108916428D01*
X144759523Y-108916428D02*
X144688094Y-108987857D01*
X144688094Y-108987857D02*
X144545237Y-109059285D01*
X144545237Y-109059285D02*
X143973808Y-109059285D01*
X145402380Y-108416428D02*
X145473808Y-108345000D01*
X145473808Y-108345000D02*
X145616666Y-108273571D01*
X145616666Y-108273571D02*
X145973808Y-108273571D01*
X145973808Y-108273571D02*
X146116666Y-108345000D01*
X146116666Y-108345000D02*
X146188094Y-108416428D01*
X146188094Y-108416428D02*
X146259523Y-108559285D01*
X146259523Y-108559285D02*
X146259523Y-108702142D01*
X146259523Y-108702142D02*
X146188094Y-108916428D01*
X146188094Y-108916428D02*
X145330951Y-109773571D01*
X145330951Y-109773571D02*
X146259523Y-109773571D01*
X211978355Y-120259800D02*
X211883117Y-120212180D01*
X211883117Y-120212180D02*
X211740260Y-120212180D01*
X211740260Y-120212180D02*
X211597403Y-120259800D01*
X211597403Y-120259800D02*
X211502165Y-120355038D01*
X211502165Y-120355038D02*
X211454546Y-120450276D01*
X211454546Y-120450276D02*
X211406927Y-120640752D01*
X211406927Y-120640752D02*
X211406927Y-120783609D01*
X211406927Y-120783609D02*
X211454546Y-120974085D01*
X211454546Y-120974085D02*
X211502165Y-121069323D01*
X211502165Y-121069323D02*
X211597403Y-121164561D01*
X211597403Y-121164561D02*
X211740260Y-121212180D01*
X211740260Y-121212180D02*
X211835498Y-121212180D01*
X211835498Y-121212180D02*
X211978355Y-121164561D01*
X211978355Y-121164561D02*
X212025974Y-121116942D01*
X212025974Y-121116942D02*
X212025974Y-120783609D01*
X212025974Y-120783609D02*
X211835498Y-120783609D01*
X103513988Y-86167980D02*
X103513988Y-85167980D01*
X103513988Y-85167980D02*
X103752083Y-85167980D01*
X103752083Y-85167980D02*
X103894940Y-85215600D01*
X103894940Y-85215600D02*
X103990178Y-85310838D01*
X103990178Y-85310838D02*
X104037797Y-85406076D01*
X104037797Y-85406076D02*
X104085416Y-85596552D01*
X104085416Y-85596552D02*
X104085416Y-85739409D01*
X104085416Y-85739409D02*
X104037797Y-85929885D01*
X104037797Y-85929885D02*
X103990178Y-86025123D01*
X103990178Y-86025123D02*
X103894940Y-86120361D01*
X103894940Y-86120361D02*
X103752083Y-86167980D01*
X103752083Y-86167980D02*
X103513988Y-86167980D01*
X104656845Y-85596552D02*
X104561607Y-85548933D01*
X104561607Y-85548933D02*
X104513988Y-85501314D01*
X104513988Y-85501314D02*
X104466369Y-85406076D01*
X104466369Y-85406076D02*
X104466369Y-85358457D01*
X104466369Y-85358457D02*
X104513988Y-85263219D01*
X104513988Y-85263219D02*
X104561607Y-85215600D01*
X104561607Y-85215600D02*
X104656845Y-85167980D01*
X104656845Y-85167980D02*
X104847321Y-85167980D01*
X104847321Y-85167980D02*
X104942559Y-85215600D01*
X104942559Y-85215600D02*
X104990178Y-85263219D01*
X104990178Y-85263219D02*
X105037797Y-85358457D01*
X105037797Y-85358457D02*
X105037797Y-85406076D01*
X105037797Y-85406076D02*
X104990178Y-85501314D01*
X104990178Y-85501314D02*
X104942559Y-85548933D01*
X104942559Y-85548933D02*
X104847321Y-85596552D01*
X104847321Y-85596552D02*
X104656845Y-85596552D01*
X104656845Y-85596552D02*
X104561607Y-85644171D01*
X104561607Y-85644171D02*
X104513988Y-85691790D01*
X104513988Y-85691790D02*
X104466369Y-85787028D01*
X104466369Y-85787028D02*
X104466369Y-85977504D01*
X104466369Y-85977504D02*
X104513988Y-86072742D01*
X104513988Y-86072742D02*
X104561607Y-86120361D01*
X104561607Y-86120361D02*
X104656845Y-86167980D01*
X104656845Y-86167980D02*
X104847321Y-86167980D01*
X104847321Y-86167980D02*
X104942559Y-86120361D01*
X104942559Y-86120361D02*
X104990178Y-86072742D01*
X104990178Y-86072742D02*
X105037797Y-85977504D01*
X105037797Y-85977504D02*
X105037797Y-85787028D01*
X105037797Y-85787028D02*
X104990178Y-85691790D01*
X104990178Y-85691790D02*
X104942559Y-85644171D01*
X104942559Y-85644171D02*
X104847321Y-85596552D01*
X124684876Y-72993504D02*
X124684876Y-72193504D01*
X124684876Y-72193504D02*
X124875352Y-72193504D01*
X124875352Y-72193504D02*
X124989638Y-72231600D01*
X124989638Y-72231600D02*
X125065828Y-72307790D01*
X125065828Y-72307790D02*
X125103923Y-72383980D01*
X125103923Y-72383980D02*
X125142019Y-72536361D01*
X125142019Y-72536361D02*
X125142019Y-72650647D01*
X125142019Y-72650647D02*
X125103923Y-72803028D01*
X125103923Y-72803028D02*
X125065828Y-72879219D01*
X125065828Y-72879219D02*
X124989638Y-72955409D01*
X124989638Y-72955409D02*
X124875352Y-72993504D01*
X124875352Y-72993504D02*
X124684876Y-72993504D01*
X125370590Y-72193504D02*
X125827733Y-72193504D01*
X125599161Y-72993504D02*
X125599161Y-72193504D01*
X126551543Y-72993504D02*
X126284876Y-72612552D01*
X126094400Y-72993504D02*
X126094400Y-72193504D01*
X126094400Y-72193504D02*
X126399162Y-72193504D01*
X126399162Y-72193504D02*
X126475352Y-72231600D01*
X126475352Y-72231600D02*
X126513447Y-72269695D01*
X126513447Y-72269695D02*
X126551543Y-72345885D01*
X126551543Y-72345885D02*
X126551543Y-72460171D01*
X126551543Y-72460171D02*
X126513447Y-72536361D01*
X126513447Y-72536361D02*
X126475352Y-72574457D01*
X126475352Y-72574457D02*
X126399162Y-72612552D01*
X126399162Y-72612552D02*
X126094400Y-72612552D01*
X101760266Y-119023180D02*
X101760266Y-119737466D01*
X101760266Y-119737466D02*
X101712647Y-119880323D01*
X101712647Y-119880323D02*
X101617409Y-119975561D01*
X101617409Y-119975561D02*
X101474552Y-120023180D01*
X101474552Y-120023180D02*
X101379314Y-120023180D01*
X102665028Y-119023180D02*
X102474552Y-119023180D01*
X102474552Y-119023180D02*
X102379314Y-119070800D01*
X102379314Y-119070800D02*
X102331695Y-119118419D01*
X102331695Y-119118419D02*
X102236457Y-119261276D01*
X102236457Y-119261276D02*
X102188838Y-119451752D01*
X102188838Y-119451752D02*
X102188838Y-119832704D01*
X102188838Y-119832704D02*
X102236457Y-119927942D01*
X102236457Y-119927942D02*
X102284076Y-119975561D01*
X102284076Y-119975561D02*
X102379314Y-120023180D01*
X102379314Y-120023180D02*
X102569790Y-120023180D01*
X102569790Y-120023180D02*
X102665028Y-119975561D01*
X102665028Y-119975561D02*
X102712647Y-119927942D01*
X102712647Y-119927942D02*
X102760266Y-119832704D01*
X102760266Y-119832704D02*
X102760266Y-119594609D01*
X102760266Y-119594609D02*
X102712647Y-119499371D01*
X102712647Y-119499371D02*
X102665028Y-119451752D01*
X102665028Y-119451752D02*
X102569790Y-119404133D01*
X102569790Y-119404133D02*
X102379314Y-119404133D01*
X102379314Y-119404133D02*
X102284076Y-119451752D01*
X102284076Y-119451752D02*
X102236457Y-119499371D01*
X102236457Y-119499371D02*
X102188838Y-119594609D01*
X153169866Y-118972380D02*
X153169866Y-119686666D01*
X153169866Y-119686666D02*
X153122247Y-119829523D01*
X153122247Y-119829523D02*
X153027009Y-119924761D01*
X153027009Y-119924761D02*
X152884152Y-119972380D01*
X152884152Y-119972380D02*
X152788914Y-119972380D01*
X153788914Y-119400952D02*
X153693676Y-119353333D01*
X153693676Y-119353333D02*
X153646057Y-119305714D01*
X153646057Y-119305714D02*
X153598438Y-119210476D01*
X153598438Y-119210476D02*
X153598438Y-119162857D01*
X153598438Y-119162857D02*
X153646057Y-119067619D01*
X153646057Y-119067619D02*
X153693676Y-119020000D01*
X153693676Y-119020000D02*
X153788914Y-118972380D01*
X153788914Y-118972380D02*
X153979390Y-118972380D01*
X153979390Y-118972380D02*
X154074628Y-119020000D01*
X154074628Y-119020000D02*
X154122247Y-119067619D01*
X154122247Y-119067619D02*
X154169866Y-119162857D01*
X154169866Y-119162857D02*
X154169866Y-119210476D01*
X154169866Y-119210476D02*
X154122247Y-119305714D01*
X154122247Y-119305714D02*
X154074628Y-119353333D01*
X154074628Y-119353333D02*
X153979390Y-119400952D01*
X153979390Y-119400952D02*
X153788914Y-119400952D01*
X153788914Y-119400952D02*
X153693676Y-119448571D01*
X153693676Y-119448571D02*
X153646057Y-119496190D01*
X153646057Y-119496190D02*
X153598438Y-119591428D01*
X153598438Y-119591428D02*
X153598438Y-119781904D01*
X153598438Y-119781904D02*
X153646057Y-119877142D01*
X153646057Y-119877142D02*
X153693676Y-119924761D01*
X153693676Y-119924761D02*
X153788914Y-119972380D01*
X153788914Y-119972380D02*
X153979390Y-119972380D01*
X153979390Y-119972380D02*
X154074628Y-119924761D01*
X154074628Y-119924761D02*
X154122247Y-119877142D01*
X154122247Y-119877142D02*
X154169866Y-119781904D01*
X154169866Y-119781904D02*
X154169866Y-119591428D01*
X154169866Y-119591428D02*
X154122247Y-119496190D01*
X154122247Y-119496190D02*
X154074628Y-119448571D01*
X154074628Y-119448571D02*
X153979390Y-119400952D01*
X155447961Y-74303180D02*
X155114628Y-73826990D01*
X154876533Y-74303180D02*
X154876533Y-73303180D01*
X154876533Y-73303180D02*
X155257485Y-73303180D01*
X155257485Y-73303180D02*
X155352723Y-73350800D01*
X155352723Y-73350800D02*
X155400342Y-73398419D01*
X155400342Y-73398419D02*
X155447961Y-73493657D01*
X155447961Y-73493657D02*
X155447961Y-73636514D01*
X155447961Y-73636514D02*
X155400342Y-73731752D01*
X155400342Y-73731752D02*
X155352723Y-73779371D01*
X155352723Y-73779371D02*
X155257485Y-73826990D01*
X155257485Y-73826990D02*
X154876533Y-73826990D01*
X155733676Y-73303180D02*
X156067009Y-74303180D01*
X156067009Y-74303180D02*
X156400342Y-73303180D01*
X156686057Y-73398419D02*
X156733676Y-73350800D01*
X156733676Y-73350800D02*
X156828914Y-73303180D01*
X156828914Y-73303180D02*
X157067009Y-73303180D01*
X157067009Y-73303180D02*
X157162247Y-73350800D01*
X157162247Y-73350800D02*
X157209866Y-73398419D01*
X157209866Y-73398419D02*
X157257485Y-73493657D01*
X157257485Y-73493657D02*
X157257485Y-73588895D01*
X157257485Y-73588895D02*
X157209866Y-73731752D01*
X157209866Y-73731752D02*
X156638438Y-74303180D01*
X156638438Y-74303180D02*
X157257485Y-74303180D01*
X196497380Y-96594285D02*
X195497380Y-96594285D01*
X195497380Y-96594285D02*
X195497380Y-96356190D01*
X195497380Y-96356190D02*
X195545000Y-96213333D01*
X195545000Y-96213333D02*
X195640238Y-96118095D01*
X195640238Y-96118095D02*
X195735476Y-96070476D01*
X195735476Y-96070476D02*
X195925952Y-96022857D01*
X195925952Y-96022857D02*
X196068809Y-96022857D01*
X196068809Y-96022857D02*
X196259285Y-96070476D01*
X196259285Y-96070476D02*
X196354523Y-96118095D01*
X196354523Y-96118095D02*
X196449761Y-96213333D01*
X196449761Y-96213333D02*
X196497380Y-96356190D01*
X196497380Y-96356190D02*
X196497380Y-96594285D01*
X196497380Y-95070476D02*
X196497380Y-95641904D01*
X196497380Y-95356190D02*
X195497380Y-95356190D01*
X195497380Y-95356190D02*
X195640238Y-95451428D01*
X195640238Y-95451428D02*
X195735476Y-95546666D01*
X195735476Y-95546666D02*
X195783095Y-95641904D01*
X195497380Y-94451428D02*
X195497380Y-94356190D01*
X195497380Y-94356190D02*
X195545000Y-94260952D01*
X195545000Y-94260952D02*
X195592619Y-94213333D01*
X195592619Y-94213333D02*
X195687857Y-94165714D01*
X195687857Y-94165714D02*
X195878333Y-94118095D01*
X195878333Y-94118095D02*
X196116428Y-94118095D01*
X196116428Y-94118095D02*
X196306904Y-94165714D01*
X196306904Y-94165714D02*
X196402142Y-94213333D01*
X196402142Y-94213333D02*
X196449761Y-94260952D01*
X196449761Y-94260952D02*
X196497380Y-94356190D01*
X196497380Y-94356190D02*
X196497380Y-94451428D01*
X196497380Y-94451428D02*
X196449761Y-94546666D01*
X196449761Y-94546666D02*
X196402142Y-94594285D01*
X196402142Y-94594285D02*
X196306904Y-94641904D01*
X196306904Y-94641904D02*
X196116428Y-94689523D01*
X196116428Y-94689523D02*
X195878333Y-94689523D01*
X195878333Y-94689523D02*
X195687857Y-94641904D01*
X195687857Y-94641904D02*
X195592619Y-94594285D01*
X195592619Y-94594285D02*
X195545000Y-94546666D01*
X195545000Y-94546666D02*
X195497380Y-94451428D01*
X103152380Y-96118094D02*
X102152380Y-96118094D01*
X102152380Y-96118094D02*
X102152380Y-95879999D01*
X102152380Y-95879999D02*
X102200000Y-95737142D01*
X102200000Y-95737142D02*
X102295238Y-95641904D01*
X102295238Y-95641904D02*
X102390476Y-95594285D01*
X102390476Y-95594285D02*
X102580952Y-95546666D01*
X102580952Y-95546666D02*
X102723809Y-95546666D01*
X102723809Y-95546666D02*
X102914285Y-95594285D01*
X102914285Y-95594285D02*
X103009523Y-95641904D01*
X103009523Y-95641904D02*
X103104761Y-95737142D01*
X103104761Y-95737142D02*
X103152380Y-95879999D01*
X103152380Y-95879999D02*
X103152380Y-96118094D01*
X102485714Y-94689523D02*
X103152380Y-94689523D01*
X102104761Y-94927618D02*
X102819047Y-95165713D01*
X102819047Y-95165713D02*
X102819047Y-94546666D01*
X158557380Y-96753094D02*
X157557380Y-96753094D01*
X157557380Y-96753094D02*
X157557380Y-96514999D01*
X157557380Y-96514999D02*
X157605000Y-96372142D01*
X157605000Y-96372142D02*
X157700238Y-96276904D01*
X157700238Y-96276904D02*
X157795476Y-96229285D01*
X157795476Y-96229285D02*
X157985952Y-96181666D01*
X157985952Y-96181666D02*
X158128809Y-96181666D01*
X158128809Y-96181666D02*
X158319285Y-96229285D01*
X158319285Y-96229285D02*
X158414523Y-96276904D01*
X158414523Y-96276904D02*
X158509761Y-96372142D01*
X158509761Y-96372142D02*
X158557380Y-96514999D01*
X158557380Y-96514999D02*
X158557380Y-96753094D01*
X157557380Y-95848332D02*
X157557380Y-95181666D01*
X157557380Y-95181666D02*
X158557380Y-95610237D01*
X190757142Y-89872380D02*
X190423809Y-89396190D01*
X190185714Y-89872380D02*
X190185714Y-88872380D01*
X190185714Y-88872380D02*
X190566666Y-88872380D01*
X190566666Y-88872380D02*
X190661904Y-88920000D01*
X190661904Y-88920000D02*
X190709523Y-88967619D01*
X190709523Y-88967619D02*
X190757142Y-89062857D01*
X190757142Y-89062857D02*
X190757142Y-89205714D01*
X190757142Y-89205714D02*
X190709523Y-89300952D01*
X190709523Y-89300952D02*
X190661904Y-89348571D01*
X190661904Y-89348571D02*
X190566666Y-89396190D01*
X190566666Y-89396190D02*
X190185714Y-89396190D01*
X191709523Y-89872380D02*
X191138095Y-89872380D01*
X191423809Y-89872380D02*
X191423809Y-88872380D01*
X191423809Y-88872380D02*
X191328571Y-89015238D01*
X191328571Y-89015238D02*
X191233333Y-89110476D01*
X191233333Y-89110476D02*
X191138095Y-89158095D01*
X192185714Y-89872380D02*
X192376190Y-89872380D01*
X192376190Y-89872380D02*
X192471428Y-89824761D01*
X192471428Y-89824761D02*
X192519047Y-89777142D01*
X192519047Y-89777142D02*
X192614285Y-89634285D01*
X192614285Y-89634285D02*
X192661904Y-89443809D01*
X192661904Y-89443809D02*
X192661904Y-89062857D01*
X192661904Y-89062857D02*
X192614285Y-88967619D01*
X192614285Y-88967619D02*
X192566666Y-88920000D01*
X192566666Y-88920000D02*
X192471428Y-88872380D01*
X192471428Y-88872380D02*
X192280952Y-88872380D01*
X192280952Y-88872380D02*
X192185714Y-88920000D01*
X192185714Y-88920000D02*
X192138095Y-88967619D01*
X192138095Y-88967619D02*
X192090476Y-89062857D01*
X192090476Y-89062857D02*
X192090476Y-89300952D01*
X192090476Y-89300952D02*
X192138095Y-89396190D01*
X192138095Y-89396190D02*
X192185714Y-89443809D01*
X192185714Y-89443809D02*
X192280952Y-89491428D01*
X192280952Y-89491428D02*
X192471428Y-89491428D01*
X192471428Y-89491428D02*
X192566666Y-89443809D01*
X192566666Y-89443809D02*
X192614285Y-89396190D01*
X192614285Y-89396190D02*
X192661904Y-89300952D01*
X127544495Y-76300380D02*
X127544495Y-77109904D01*
X127544495Y-77109904D02*
X127592114Y-77205142D01*
X127592114Y-77205142D02*
X127639733Y-77252761D01*
X127639733Y-77252761D02*
X127734971Y-77300380D01*
X127734971Y-77300380D02*
X127925447Y-77300380D01*
X127925447Y-77300380D02*
X128020685Y-77252761D01*
X128020685Y-77252761D02*
X128068304Y-77205142D01*
X128068304Y-77205142D02*
X128115923Y-77109904D01*
X128115923Y-77109904D02*
X128115923Y-76300380D01*
X128544495Y-76395619D02*
X128592114Y-76348000D01*
X128592114Y-76348000D02*
X128687352Y-76300380D01*
X128687352Y-76300380D02*
X128925447Y-76300380D01*
X128925447Y-76300380D02*
X129020685Y-76348000D01*
X129020685Y-76348000D02*
X129068304Y-76395619D01*
X129068304Y-76395619D02*
X129115923Y-76490857D01*
X129115923Y-76490857D02*
X129115923Y-76586095D01*
X129115923Y-76586095D02*
X129068304Y-76728952D01*
X129068304Y-76728952D02*
X128496876Y-77300380D01*
X128496876Y-77300380D02*
X129115923Y-77300380D01*
X171993333Y-70487380D02*
X171660000Y-70011190D01*
X171421905Y-70487380D02*
X171421905Y-69487380D01*
X171421905Y-69487380D02*
X171802857Y-69487380D01*
X171802857Y-69487380D02*
X171898095Y-69535000D01*
X171898095Y-69535000D02*
X171945714Y-69582619D01*
X171945714Y-69582619D02*
X171993333Y-69677857D01*
X171993333Y-69677857D02*
X171993333Y-69820714D01*
X171993333Y-69820714D02*
X171945714Y-69915952D01*
X171945714Y-69915952D02*
X171898095Y-69963571D01*
X171898095Y-69963571D02*
X171802857Y-70011190D01*
X171802857Y-70011190D02*
X171421905Y-70011190D01*
X172326667Y-69487380D02*
X172945714Y-69487380D01*
X172945714Y-69487380D02*
X172612381Y-69868333D01*
X172612381Y-69868333D02*
X172755238Y-69868333D01*
X172755238Y-69868333D02*
X172850476Y-69915952D01*
X172850476Y-69915952D02*
X172898095Y-69963571D01*
X172898095Y-69963571D02*
X172945714Y-70058809D01*
X172945714Y-70058809D02*
X172945714Y-70296904D01*
X172945714Y-70296904D02*
X172898095Y-70392142D01*
X172898095Y-70392142D02*
X172850476Y-70439761D01*
X172850476Y-70439761D02*
X172755238Y-70487380D01*
X172755238Y-70487380D02*
X172469524Y-70487380D01*
X172469524Y-70487380D02*
X172374286Y-70439761D01*
X172374286Y-70439761D02*
X172326667Y-70392142D01*
X126187142Y-103527380D02*
X125853809Y-103051190D01*
X125615714Y-103527380D02*
X125615714Y-102527380D01*
X125615714Y-102527380D02*
X125996666Y-102527380D01*
X125996666Y-102527380D02*
X126091904Y-102575000D01*
X126091904Y-102575000D02*
X126139523Y-102622619D01*
X126139523Y-102622619D02*
X126187142Y-102717857D01*
X126187142Y-102717857D02*
X126187142Y-102860714D01*
X126187142Y-102860714D02*
X126139523Y-102955952D01*
X126139523Y-102955952D02*
X126091904Y-103003571D01*
X126091904Y-103003571D02*
X125996666Y-103051190D01*
X125996666Y-103051190D02*
X125615714Y-103051190D01*
X127139523Y-103527380D02*
X126568095Y-103527380D01*
X126853809Y-103527380D02*
X126853809Y-102527380D01*
X126853809Y-102527380D02*
X126758571Y-102670238D01*
X126758571Y-102670238D02*
X126663333Y-102765476D01*
X126663333Y-102765476D02*
X126568095Y-102813095D01*
X128091904Y-103527380D02*
X127520476Y-103527380D01*
X127806190Y-103527380D02*
X127806190Y-102527380D01*
X127806190Y-102527380D02*
X127710952Y-102670238D01*
X127710952Y-102670238D02*
X127615714Y-102765476D01*
X127615714Y-102765476D02*
X127520476Y-102813095D01*
X145067380Y-88093333D02*
X145781666Y-88093333D01*
X145781666Y-88093333D02*
X145924523Y-88140952D01*
X145924523Y-88140952D02*
X146019761Y-88236190D01*
X146019761Y-88236190D02*
X146067380Y-88379047D01*
X146067380Y-88379047D02*
X146067380Y-88474285D01*
X145067380Y-87140952D02*
X145067380Y-87617142D01*
X145067380Y-87617142D02*
X145543571Y-87664761D01*
X145543571Y-87664761D02*
X145495952Y-87617142D01*
X145495952Y-87617142D02*
X145448333Y-87521904D01*
X145448333Y-87521904D02*
X145448333Y-87283809D01*
X145448333Y-87283809D02*
X145495952Y-87188571D01*
X145495952Y-87188571D02*
X145543571Y-87140952D01*
X145543571Y-87140952D02*
X145638809Y-87093333D01*
X145638809Y-87093333D02*
X145876904Y-87093333D01*
X145876904Y-87093333D02*
X145972142Y-87140952D01*
X145972142Y-87140952D02*
X146019761Y-87188571D01*
X146019761Y-87188571D02*
X146067380Y-87283809D01*
X146067380Y-87283809D02*
X146067380Y-87521904D01*
X146067380Y-87521904D02*
X146019761Y-87617142D01*
X146019761Y-87617142D02*
X145972142Y-87664761D01*
X98047142Y-91142380D02*
X97713809Y-90666190D01*
X97475714Y-91142380D02*
X97475714Y-90142380D01*
X97475714Y-90142380D02*
X97856666Y-90142380D01*
X97856666Y-90142380D02*
X97951904Y-90190000D01*
X97951904Y-90190000D02*
X97999523Y-90237619D01*
X97999523Y-90237619D02*
X98047142Y-90332857D01*
X98047142Y-90332857D02*
X98047142Y-90475714D01*
X98047142Y-90475714D02*
X97999523Y-90570952D01*
X97999523Y-90570952D02*
X97951904Y-90618571D01*
X97951904Y-90618571D02*
X97856666Y-90666190D01*
X97856666Y-90666190D02*
X97475714Y-90666190D01*
X98999523Y-91142380D02*
X98428095Y-91142380D01*
X98713809Y-91142380D02*
X98713809Y-90142380D01*
X98713809Y-90142380D02*
X98618571Y-90285238D01*
X98618571Y-90285238D02*
X98523333Y-90380476D01*
X98523333Y-90380476D02*
X98428095Y-90428095D01*
X99618571Y-90142380D02*
X99713809Y-90142380D01*
X99713809Y-90142380D02*
X99809047Y-90190000D01*
X99809047Y-90190000D02*
X99856666Y-90237619D01*
X99856666Y-90237619D02*
X99904285Y-90332857D01*
X99904285Y-90332857D02*
X99951904Y-90523333D01*
X99951904Y-90523333D02*
X99951904Y-90761428D01*
X99951904Y-90761428D02*
X99904285Y-90951904D01*
X99904285Y-90951904D02*
X99856666Y-91047142D01*
X99856666Y-91047142D02*
X99809047Y-91094761D01*
X99809047Y-91094761D02*
X99713809Y-91142380D01*
X99713809Y-91142380D02*
X99618571Y-91142380D01*
X99618571Y-91142380D02*
X99523333Y-91094761D01*
X99523333Y-91094761D02*
X99475714Y-91047142D01*
X99475714Y-91047142D02*
X99428095Y-90951904D01*
X99428095Y-90951904D02*
X99380476Y-90761428D01*
X99380476Y-90761428D02*
X99380476Y-90523333D01*
X99380476Y-90523333D02*
X99428095Y-90332857D01*
X99428095Y-90332857D02*
X99475714Y-90237619D01*
X99475714Y-90237619D02*
X99523333Y-90190000D01*
X99523333Y-90190000D02*
X99618571Y-90142380D01*
X127007380Y-96753094D02*
X126007380Y-96753094D01*
X126007380Y-96753094D02*
X126007380Y-96514999D01*
X126007380Y-96514999D02*
X126055000Y-96372142D01*
X126055000Y-96372142D02*
X126150238Y-96276904D01*
X126150238Y-96276904D02*
X126245476Y-96229285D01*
X126245476Y-96229285D02*
X126435952Y-96181666D01*
X126435952Y-96181666D02*
X126578809Y-96181666D01*
X126578809Y-96181666D02*
X126769285Y-96229285D01*
X126769285Y-96229285D02*
X126864523Y-96276904D01*
X126864523Y-96276904D02*
X126959761Y-96372142D01*
X126959761Y-96372142D02*
X127007380Y-96514999D01*
X127007380Y-96514999D02*
X127007380Y-96753094D01*
X126007380Y-95276904D02*
X126007380Y-95753094D01*
X126007380Y-95753094D02*
X126483571Y-95800713D01*
X126483571Y-95800713D02*
X126435952Y-95753094D01*
X126435952Y-95753094D02*
X126388333Y-95657856D01*
X126388333Y-95657856D02*
X126388333Y-95419761D01*
X126388333Y-95419761D02*
X126435952Y-95324523D01*
X126435952Y-95324523D02*
X126483571Y-95276904D01*
X126483571Y-95276904D02*
X126578809Y-95229285D01*
X126578809Y-95229285D02*
X126816904Y-95229285D01*
X126816904Y-95229285D02*
X126912142Y-95276904D01*
X126912142Y-95276904D02*
X126959761Y-95324523D01*
X126959761Y-95324523D02*
X127007380Y-95419761D01*
X127007380Y-95419761D02*
X127007380Y-95657856D01*
X127007380Y-95657856D02*
X126959761Y-95753094D01*
X126959761Y-95753094D02*
X126912142Y-95800713D01*
X139468333Y-80252142D02*
X139420714Y-80299761D01*
X139420714Y-80299761D02*
X139277857Y-80347380D01*
X139277857Y-80347380D02*
X139182619Y-80347380D01*
X139182619Y-80347380D02*
X139039762Y-80299761D01*
X139039762Y-80299761D02*
X138944524Y-80204523D01*
X138944524Y-80204523D02*
X138896905Y-80109285D01*
X138896905Y-80109285D02*
X138849286Y-79918809D01*
X138849286Y-79918809D02*
X138849286Y-79775952D01*
X138849286Y-79775952D02*
X138896905Y-79585476D01*
X138896905Y-79585476D02*
X138944524Y-79490238D01*
X138944524Y-79490238D02*
X139039762Y-79395000D01*
X139039762Y-79395000D02*
X139182619Y-79347380D01*
X139182619Y-79347380D02*
X139277857Y-79347380D01*
X139277857Y-79347380D02*
X139420714Y-79395000D01*
X139420714Y-79395000D02*
X139468333Y-79442619D01*
X140325476Y-79680714D02*
X140325476Y-80347380D01*
X140087381Y-79299761D02*
X139849286Y-80014047D01*
X139849286Y-80014047D02*
X140468333Y-80014047D01*
X188217142Y-98762380D02*
X187883809Y-98286190D01*
X187645714Y-98762380D02*
X187645714Y-97762380D01*
X187645714Y-97762380D02*
X188026666Y-97762380D01*
X188026666Y-97762380D02*
X188121904Y-97810000D01*
X188121904Y-97810000D02*
X188169523Y-97857619D01*
X188169523Y-97857619D02*
X188217142Y-97952857D01*
X188217142Y-97952857D02*
X188217142Y-98095714D01*
X188217142Y-98095714D02*
X188169523Y-98190952D01*
X188169523Y-98190952D02*
X188121904Y-98238571D01*
X188121904Y-98238571D02*
X188026666Y-98286190D01*
X188026666Y-98286190D02*
X187645714Y-98286190D01*
X189169523Y-98762380D02*
X188598095Y-98762380D01*
X188883809Y-98762380D02*
X188883809Y-97762380D01*
X188883809Y-97762380D02*
X188788571Y-97905238D01*
X188788571Y-97905238D02*
X188693333Y-98000476D01*
X188693333Y-98000476D02*
X188598095Y-98048095D01*
X189740952Y-98190952D02*
X189645714Y-98143333D01*
X189645714Y-98143333D02*
X189598095Y-98095714D01*
X189598095Y-98095714D02*
X189550476Y-98000476D01*
X189550476Y-98000476D02*
X189550476Y-97952857D01*
X189550476Y-97952857D02*
X189598095Y-97857619D01*
X189598095Y-97857619D02*
X189645714Y-97810000D01*
X189645714Y-97810000D02*
X189740952Y-97762380D01*
X189740952Y-97762380D02*
X189931428Y-97762380D01*
X189931428Y-97762380D02*
X190026666Y-97810000D01*
X190026666Y-97810000D02*
X190074285Y-97857619D01*
X190074285Y-97857619D02*
X190121904Y-97952857D01*
X190121904Y-97952857D02*
X190121904Y-98000476D01*
X190121904Y-98000476D02*
X190074285Y-98095714D01*
X190074285Y-98095714D02*
X190026666Y-98143333D01*
X190026666Y-98143333D02*
X189931428Y-98190952D01*
X189931428Y-98190952D02*
X189740952Y-98190952D01*
X189740952Y-98190952D02*
X189645714Y-98238571D01*
X189645714Y-98238571D02*
X189598095Y-98286190D01*
X189598095Y-98286190D02*
X189550476Y-98381428D01*
X189550476Y-98381428D02*
X189550476Y-98571904D01*
X189550476Y-98571904D02*
X189598095Y-98667142D01*
X189598095Y-98667142D02*
X189645714Y-98714761D01*
X189645714Y-98714761D02*
X189740952Y-98762380D01*
X189740952Y-98762380D02*
X189931428Y-98762380D01*
X189931428Y-98762380D02*
X190026666Y-98714761D01*
X190026666Y-98714761D02*
X190074285Y-98667142D01*
X190074285Y-98667142D02*
X190121904Y-98571904D01*
X190121904Y-98571904D02*
X190121904Y-98381428D01*
X190121904Y-98381428D02*
X190074285Y-98286190D01*
X190074285Y-98286190D02*
X190026666Y-98238571D01*
X190026666Y-98238571D02*
X189931428Y-98190952D01*
X140202380Y-70948333D02*
X140916666Y-70948333D01*
X140916666Y-70948333D02*
X141059523Y-70995952D01*
X141059523Y-70995952D02*
X141154761Y-71091190D01*
X141154761Y-71091190D02*
X141202380Y-71234047D01*
X141202380Y-71234047D02*
X141202380Y-71329285D01*
X140535714Y-70043571D02*
X141202380Y-70043571D01*
X140154761Y-70281666D02*
X140869047Y-70519761D01*
X140869047Y-70519761D02*
X140869047Y-69900714D01*
X122018980Y-74356466D02*
X121542790Y-74689799D01*
X122018980Y-74927894D02*
X121018980Y-74927894D01*
X121018980Y-74927894D02*
X121018980Y-74546942D01*
X121018980Y-74546942D02*
X121066600Y-74451704D01*
X121066600Y-74451704D02*
X121114219Y-74404085D01*
X121114219Y-74404085D02*
X121209457Y-74356466D01*
X121209457Y-74356466D02*
X121352314Y-74356466D01*
X121352314Y-74356466D02*
X121447552Y-74404085D01*
X121447552Y-74404085D02*
X121495171Y-74451704D01*
X121495171Y-74451704D02*
X121542790Y-74546942D01*
X121542790Y-74546942D02*
X121542790Y-74927894D01*
X121018980Y-73499323D02*
X121018980Y-73689799D01*
X121018980Y-73689799D02*
X121066600Y-73785037D01*
X121066600Y-73785037D02*
X121114219Y-73832656D01*
X121114219Y-73832656D02*
X121257076Y-73927894D01*
X121257076Y-73927894D02*
X121447552Y-73975513D01*
X121447552Y-73975513D02*
X121828504Y-73975513D01*
X121828504Y-73975513D02*
X121923742Y-73927894D01*
X121923742Y-73927894D02*
X121971361Y-73880275D01*
X121971361Y-73880275D02*
X122018980Y-73785037D01*
X122018980Y-73785037D02*
X122018980Y-73594561D01*
X122018980Y-73594561D02*
X121971361Y-73499323D01*
X121971361Y-73499323D02*
X121923742Y-73451704D01*
X121923742Y-73451704D02*
X121828504Y-73404085D01*
X121828504Y-73404085D02*
X121590409Y-73404085D01*
X121590409Y-73404085D02*
X121495171Y-73451704D01*
X121495171Y-73451704D02*
X121447552Y-73499323D01*
X121447552Y-73499323D02*
X121399933Y-73594561D01*
X121399933Y-73594561D02*
X121399933Y-73785037D01*
X121399933Y-73785037D02*
X121447552Y-73880275D01*
X121447552Y-73880275D02*
X121495171Y-73927894D01*
X121495171Y-73927894D02*
X121590409Y-73975513D01*
X104200305Y-90965580D02*
X104200305Y-89965580D01*
X104771733Y-90965580D02*
X104343162Y-90394152D01*
X104771733Y-89965580D02*
X104200305Y-90537009D01*
X105724114Y-90965580D02*
X105152686Y-90965580D01*
X105438400Y-90965580D02*
X105438400Y-89965580D01*
X105438400Y-89965580D02*
X105343162Y-90108438D01*
X105343162Y-90108438D02*
X105247924Y-90203676D01*
X105247924Y-90203676D02*
X105152686Y-90251295D01*
X190307380Y-96118094D02*
X189307380Y-96118094D01*
X189307380Y-96118094D02*
X189307380Y-95879999D01*
X189307380Y-95879999D02*
X189355000Y-95737142D01*
X189355000Y-95737142D02*
X189450238Y-95641904D01*
X189450238Y-95641904D02*
X189545476Y-95594285D01*
X189545476Y-95594285D02*
X189735952Y-95546666D01*
X189735952Y-95546666D02*
X189878809Y-95546666D01*
X189878809Y-95546666D02*
X190069285Y-95594285D01*
X190069285Y-95594285D02*
X190164523Y-95641904D01*
X190164523Y-95641904D02*
X190259761Y-95737142D01*
X190259761Y-95737142D02*
X190307380Y-95879999D01*
X190307380Y-95879999D02*
X190307380Y-96118094D01*
X190307380Y-95070475D02*
X190307380Y-94879999D01*
X190307380Y-94879999D02*
X190259761Y-94784761D01*
X190259761Y-94784761D02*
X190212142Y-94737142D01*
X190212142Y-94737142D02*
X190069285Y-94641904D01*
X190069285Y-94641904D02*
X189878809Y-94594285D01*
X189878809Y-94594285D02*
X189497857Y-94594285D01*
X189497857Y-94594285D02*
X189402619Y-94641904D01*
X189402619Y-94641904D02*
X189355000Y-94689523D01*
X189355000Y-94689523D02*
X189307380Y-94784761D01*
X189307380Y-94784761D02*
X189307380Y-94975237D01*
X189307380Y-94975237D02*
X189355000Y-95070475D01*
X189355000Y-95070475D02*
X189402619Y-95118094D01*
X189402619Y-95118094D02*
X189497857Y-95165713D01*
X189497857Y-95165713D02*
X189735952Y-95165713D01*
X189735952Y-95165713D02*
X189831190Y-95118094D01*
X189831190Y-95118094D02*
X189878809Y-95070475D01*
X189878809Y-95070475D02*
X189926428Y-94975237D01*
X189926428Y-94975237D02*
X189926428Y-94784761D01*
X189926428Y-94784761D02*
X189878809Y-94689523D01*
X189878809Y-94689523D02*
X189831190Y-94641904D01*
X189831190Y-94641904D02*
X189735952Y-94594285D01*
X164747380Y-96118094D02*
X163747380Y-96118094D01*
X163747380Y-96118094D02*
X163747380Y-95879999D01*
X163747380Y-95879999D02*
X163795000Y-95737142D01*
X163795000Y-95737142D02*
X163890238Y-95641904D01*
X163890238Y-95641904D02*
X163985476Y-95594285D01*
X163985476Y-95594285D02*
X164175952Y-95546666D01*
X164175952Y-95546666D02*
X164318809Y-95546666D01*
X164318809Y-95546666D02*
X164509285Y-95594285D01*
X164509285Y-95594285D02*
X164604523Y-95641904D01*
X164604523Y-95641904D02*
X164699761Y-95737142D01*
X164699761Y-95737142D02*
X164747380Y-95879999D01*
X164747380Y-95879999D02*
X164747380Y-96118094D01*
X164175952Y-94975237D02*
X164128333Y-95070475D01*
X164128333Y-95070475D02*
X164080714Y-95118094D01*
X164080714Y-95118094D02*
X163985476Y-95165713D01*
X163985476Y-95165713D02*
X163937857Y-95165713D01*
X163937857Y-95165713D02*
X163842619Y-95118094D01*
X163842619Y-95118094D02*
X163795000Y-95070475D01*
X163795000Y-95070475D02*
X163747380Y-94975237D01*
X163747380Y-94975237D02*
X163747380Y-94784761D01*
X163747380Y-94784761D02*
X163795000Y-94689523D01*
X163795000Y-94689523D02*
X163842619Y-94641904D01*
X163842619Y-94641904D02*
X163937857Y-94594285D01*
X163937857Y-94594285D02*
X163985476Y-94594285D01*
X163985476Y-94594285D02*
X164080714Y-94641904D01*
X164080714Y-94641904D02*
X164128333Y-94689523D01*
X164128333Y-94689523D02*
X164175952Y-94784761D01*
X164175952Y-94784761D02*
X164175952Y-94975237D01*
X164175952Y-94975237D02*
X164223571Y-95070475D01*
X164223571Y-95070475D02*
X164271190Y-95118094D01*
X164271190Y-95118094D02*
X164366428Y-95165713D01*
X164366428Y-95165713D02*
X164556904Y-95165713D01*
X164556904Y-95165713D02*
X164652142Y-95118094D01*
X164652142Y-95118094D02*
X164699761Y-95070475D01*
X164699761Y-95070475D02*
X164747380Y-94975237D01*
X164747380Y-94975237D02*
X164747380Y-94784761D01*
X164747380Y-94784761D02*
X164699761Y-94689523D01*
X164699761Y-94689523D02*
X164652142Y-94641904D01*
X164652142Y-94641904D02*
X164556904Y-94594285D01*
X164556904Y-94594285D02*
X164366428Y-94594285D01*
X164366428Y-94594285D02*
X164271190Y-94641904D01*
X164271190Y-94641904D02*
X164223571Y-94689523D01*
X164223571Y-94689523D02*
X164175952Y-94784761D01*
X135391505Y-91016380D02*
X135391505Y-90016380D01*
X135962933Y-91016380D02*
X135534362Y-90444952D01*
X135962933Y-90016380D02*
X135391505Y-90587809D01*
X136343886Y-90111619D02*
X136391505Y-90064000D01*
X136391505Y-90064000D02*
X136486743Y-90016380D01*
X136486743Y-90016380D02*
X136724838Y-90016380D01*
X136724838Y-90016380D02*
X136820076Y-90064000D01*
X136820076Y-90064000D02*
X136867695Y-90111619D01*
X136867695Y-90111619D02*
X136915314Y-90206857D01*
X136915314Y-90206857D02*
X136915314Y-90302095D01*
X136915314Y-90302095D02*
X136867695Y-90444952D01*
X136867695Y-90444952D02*
X136296267Y-91016380D01*
X136296267Y-91016380D02*
X136915314Y-91016380D01*
X188217142Y-103527380D02*
X187883809Y-103051190D01*
X187645714Y-103527380D02*
X187645714Y-102527380D01*
X187645714Y-102527380D02*
X188026666Y-102527380D01*
X188026666Y-102527380D02*
X188121904Y-102575000D01*
X188121904Y-102575000D02*
X188169523Y-102622619D01*
X188169523Y-102622619D02*
X188217142Y-102717857D01*
X188217142Y-102717857D02*
X188217142Y-102860714D01*
X188217142Y-102860714D02*
X188169523Y-102955952D01*
X188169523Y-102955952D02*
X188121904Y-103003571D01*
X188121904Y-103003571D02*
X188026666Y-103051190D01*
X188026666Y-103051190D02*
X187645714Y-103051190D01*
X189169523Y-103527380D02*
X188598095Y-103527380D01*
X188883809Y-103527380D02*
X188883809Y-102527380D01*
X188883809Y-102527380D02*
X188788571Y-102670238D01*
X188788571Y-102670238D02*
X188693333Y-102765476D01*
X188693333Y-102765476D02*
X188598095Y-102813095D01*
X189502857Y-102527380D02*
X190169523Y-102527380D01*
X190169523Y-102527380D02*
X189740952Y-103527380D01*
X126139542Y-98991980D02*
X125806209Y-98515790D01*
X125568114Y-98991980D02*
X125568114Y-97991980D01*
X125568114Y-97991980D02*
X125949066Y-97991980D01*
X125949066Y-97991980D02*
X126044304Y-98039600D01*
X126044304Y-98039600D02*
X126091923Y-98087219D01*
X126091923Y-98087219D02*
X126139542Y-98182457D01*
X126139542Y-98182457D02*
X126139542Y-98325314D01*
X126139542Y-98325314D02*
X126091923Y-98420552D01*
X126091923Y-98420552D02*
X126044304Y-98468171D01*
X126044304Y-98468171D02*
X125949066Y-98515790D01*
X125949066Y-98515790D02*
X125568114Y-98515790D01*
X127091923Y-98991980D02*
X126520495Y-98991980D01*
X126806209Y-98991980D02*
X126806209Y-97991980D01*
X126806209Y-97991980D02*
X126710971Y-98134838D01*
X126710971Y-98134838D02*
X126615733Y-98230076D01*
X126615733Y-98230076D02*
X126520495Y-98277695D01*
X127472876Y-98087219D02*
X127520495Y-98039600D01*
X127520495Y-98039600D02*
X127615733Y-97991980D01*
X127615733Y-97991980D02*
X127853828Y-97991980D01*
X127853828Y-97991980D02*
X127949066Y-98039600D01*
X127949066Y-98039600D02*
X127996685Y-98087219D01*
X127996685Y-98087219D02*
X128044304Y-98182457D01*
X128044304Y-98182457D02*
X128044304Y-98277695D01*
X128044304Y-98277695D02*
X127996685Y-98420552D01*
X127996685Y-98420552D02*
X127425257Y-98991980D01*
X127425257Y-98991980D02*
X128044304Y-98991980D01*
X142249505Y-88476380D02*
X142249505Y-87476380D01*
X142249505Y-87476380D02*
X142487600Y-87476380D01*
X142487600Y-87476380D02*
X142630457Y-87524000D01*
X142630457Y-87524000D02*
X142725695Y-87619238D01*
X142725695Y-87619238D02*
X142773314Y-87714476D01*
X142773314Y-87714476D02*
X142820933Y-87904952D01*
X142820933Y-87904952D02*
X142820933Y-88047809D01*
X142820933Y-88047809D02*
X142773314Y-88238285D01*
X142773314Y-88238285D02*
X142725695Y-88333523D01*
X142725695Y-88333523D02*
X142630457Y-88428761D01*
X142630457Y-88428761D02*
X142487600Y-88476380D01*
X142487600Y-88476380D02*
X142249505Y-88476380D01*
X143201886Y-87571619D02*
X143249505Y-87524000D01*
X143249505Y-87524000D02*
X143344743Y-87476380D01*
X143344743Y-87476380D02*
X143582838Y-87476380D01*
X143582838Y-87476380D02*
X143678076Y-87524000D01*
X143678076Y-87524000D02*
X143725695Y-87571619D01*
X143725695Y-87571619D02*
X143773314Y-87666857D01*
X143773314Y-87666857D02*
X143773314Y-87762095D01*
X143773314Y-87762095D02*
X143725695Y-87904952D01*
X143725695Y-87904952D02*
X143154267Y-88476380D01*
X143154267Y-88476380D02*
X143773314Y-88476380D01*
X149707561Y-74150780D02*
X149374228Y-73674590D01*
X149136133Y-74150780D02*
X149136133Y-73150780D01*
X149136133Y-73150780D02*
X149517085Y-73150780D01*
X149517085Y-73150780D02*
X149612323Y-73198400D01*
X149612323Y-73198400D02*
X149659942Y-73246019D01*
X149659942Y-73246019D02*
X149707561Y-73341257D01*
X149707561Y-73341257D02*
X149707561Y-73484114D01*
X149707561Y-73484114D02*
X149659942Y-73579352D01*
X149659942Y-73579352D02*
X149612323Y-73626971D01*
X149612323Y-73626971D02*
X149517085Y-73674590D01*
X149517085Y-73674590D02*
X149136133Y-73674590D01*
X149993276Y-73150780D02*
X150326609Y-74150780D01*
X150326609Y-74150780D02*
X150659942Y-73150780D01*
X151517085Y-74150780D02*
X150945657Y-74150780D01*
X151231371Y-74150780D02*
X151231371Y-73150780D01*
X151231371Y-73150780D02*
X151136133Y-73293638D01*
X151136133Y-73293638D02*
X151040895Y-73388876D01*
X151040895Y-73388876D02*
X150945657Y-73436495D01*
X214517276Y-118972380D02*
X214517276Y-119686666D01*
X214517276Y-119686666D02*
X214469657Y-119829523D01*
X214469657Y-119829523D02*
X214374419Y-119924761D01*
X214374419Y-119924761D02*
X214231562Y-119972380D01*
X214231562Y-119972380D02*
X214136324Y-119972380D01*
X215517276Y-119972380D02*
X214945848Y-119972380D01*
X215231562Y-119972380D02*
X215231562Y-118972380D01*
X215231562Y-118972380D02*
X215136324Y-119115238D01*
X215136324Y-119115238D02*
X215041086Y-119210476D01*
X215041086Y-119210476D02*
X214945848Y-119258095D01*
X216136324Y-118972380D02*
X216231562Y-118972380D01*
X216231562Y-118972380D02*
X216326800Y-119020000D01*
X216326800Y-119020000D02*
X216374419Y-119067619D01*
X216374419Y-119067619D02*
X216422038Y-119162857D01*
X216422038Y-119162857D02*
X216469657Y-119353333D01*
X216469657Y-119353333D02*
X216469657Y-119591428D01*
X216469657Y-119591428D02*
X216422038Y-119781904D01*
X216422038Y-119781904D02*
X216374419Y-119877142D01*
X216374419Y-119877142D02*
X216326800Y-119924761D01*
X216326800Y-119924761D02*
X216231562Y-119972380D01*
X216231562Y-119972380D02*
X216136324Y-119972380D01*
X216136324Y-119972380D02*
X216041086Y-119924761D01*
X216041086Y-119924761D02*
X215993467Y-119877142D01*
X215993467Y-119877142D02*
X215945848Y-119781904D01*
X215945848Y-119781904D02*
X215898229Y-119591428D01*
X215898229Y-119591428D02*
X215898229Y-119353333D01*
X215898229Y-119353333D02*
X215945848Y-119162857D01*
X215945848Y-119162857D02*
X215993467Y-119067619D01*
X215993467Y-119067619D02*
X216041086Y-119020000D01*
X216041086Y-119020000D02*
X216136324Y-118972380D01*
X137317380Y-74401666D02*
X136841190Y-74734999D01*
X137317380Y-74973094D02*
X136317380Y-74973094D01*
X136317380Y-74973094D02*
X136317380Y-74592142D01*
X136317380Y-74592142D02*
X136365000Y-74496904D01*
X136365000Y-74496904D02*
X136412619Y-74449285D01*
X136412619Y-74449285D02*
X136507857Y-74401666D01*
X136507857Y-74401666D02*
X136650714Y-74401666D01*
X136650714Y-74401666D02*
X136745952Y-74449285D01*
X136745952Y-74449285D02*
X136793571Y-74496904D01*
X136793571Y-74496904D02*
X136841190Y-74592142D01*
X136841190Y-74592142D02*
X136841190Y-74973094D01*
X136650714Y-73544523D02*
X137317380Y-73544523D01*
X136269761Y-73782618D02*
X136984047Y-74020713D01*
X136984047Y-74020713D02*
X136984047Y-73401666D01*
X175900595Y-76177380D02*
X175900595Y-76986904D01*
X175900595Y-76986904D02*
X175948214Y-77082142D01*
X175948214Y-77082142D02*
X175995833Y-77129761D01*
X175995833Y-77129761D02*
X176091071Y-77177380D01*
X176091071Y-77177380D02*
X176281547Y-77177380D01*
X176281547Y-77177380D02*
X176376785Y-77129761D01*
X176376785Y-77129761D02*
X176424404Y-77082142D01*
X176424404Y-77082142D02*
X176472023Y-76986904D01*
X176472023Y-76986904D02*
X176472023Y-76177380D01*
X177472023Y-77177380D02*
X176900595Y-77177380D01*
X177186309Y-77177380D02*
X177186309Y-76177380D01*
X177186309Y-76177380D02*
X177091071Y-76320238D01*
X177091071Y-76320238D02*
X176995833Y-76415476D01*
X176995833Y-76415476D02*
X176900595Y-76463095D01*
X139468333Y-82157142D02*
X139420714Y-82204761D01*
X139420714Y-82204761D02*
X139277857Y-82252380D01*
X139277857Y-82252380D02*
X139182619Y-82252380D01*
X139182619Y-82252380D02*
X139039762Y-82204761D01*
X139039762Y-82204761D02*
X138944524Y-82109523D01*
X138944524Y-82109523D02*
X138896905Y-82014285D01*
X138896905Y-82014285D02*
X138849286Y-81823809D01*
X138849286Y-81823809D02*
X138849286Y-81680952D01*
X138849286Y-81680952D02*
X138896905Y-81490476D01*
X138896905Y-81490476D02*
X138944524Y-81395238D01*
X138944524Y-81395238D02*
X139039762Y-81300000D01*
X139039762Y-81300000D02*
X139182619Y-81252380D01*
X139182619Y-81252380D02*
X139277857Y-81252380D01*
X139277857Y-81252380D02*
X139420714Y-81300000D01*
X139420714Y-81300000D02*
X139468333Y-81347619D01*
X139801667Y-81252380D02*
X140468333Y-81252380D01*
X140468333Y-81252380D02*
X140039762Y-82252380D01*
X99206961Y-80938332D02*
X99254580Y-80795475D01*
X99254580Y-80795475D02*
X99254580Y-80557380D01*
X99254580Y-80557380D02*
X99206961Y-80462142D01*
X99206961Y-80462142D02*
X99159342Y-80414523D01*
X99159342Y-80414523D02*
X99064104Y-80366904D01*
X99064104Y-80366904D02*
X98968866Y-80366904D01*
X98968866Y-80366904D02*
X98873628Y-80414523D01*
X98873628Y-80414523D02*
X98826009Y-80462142D01*
X98826009Y-80462142D02*
X98778390Y-80557380D01*
X98778390Y-80557380D02*
X98730771Y-80747856D01*
X98730771Y-80747856D02*
X98683152Y-80843094D01*
X98683152Y-80843094D02*
X98635533Y-80890713D01*
X98635533Y-80890713D02*
X98540295Y-80938332D01*
X98540295Y-80938332D02*
X98445057Y-80938332D01*
X98445057Y-80938332D02*
X98349819Y-80890713D01*
X98349819Y-80890713D02*
X98302200Y-80843094D01*
X98302200Y-80843094D02*
X98254580Y-80747856D01*
X98254580Y-80747856D02*
X98254580Y-80509761D01*
X98254580Y-80509761D02*
X98302200Y-80366904D01*
X98254580Y-80033570D02*
X99254580Y-79795475D01*
X99254580Y-79795475D02*
X98540295Y-79604999D01*
X98540295Y-79604999D02*
X99254580Y-79414523D01*
X99254580Y-79414523D02*
X98254580Y-79176428D01*
X98349819Y-78843094D02*
X98302200Y-78795475D01*
X98302200Y-78795475D02*
X98254580Y-78700237D01*
X98254580Y-78700237D02*
X98254580Y-78462142D01*
X98254580Y-78462142D02*
X98302200Y-78366904D01*
X98302200Y-78366904D02*
X98349819Y-78319285D01*
X98349819Y-78319285D02*
X98445057Y-78271666D01*
X98445057Y-78271666D02*
X98540295Y-78271666D01*
X98540295Y-78271666D02*
X98683152Y-78319285D01*
X98683152Y-78319285D02*
X99254580Y-78890713D01*
X99254580Y-78890713D02*
X99254580Y-78271666D01*
X157076742Y-98941180D02*
X156743409Y-98464990D01*
X156505314Y-98941180D02*
X156505314Y-97941180D01*
X156505314Y-97941180D02*
X156886266Y-97941180D01*
X156886266Y-97941180D02*
X156981504Y-97988800D01*
X156981504Y-97988800D02*
X157029123Y-98036419D01*
X157029123Y-98036419D02*
X157076742Y-98131657D01*
X157076742Y-98131657D02*
X157076742Y-98274514D01*
X157076742Y-98274514D02*
X157029123Y-98369752D01*
X157029123Y-98369752D02*
X156981504Y-98417371D01*
X156981504Y-98417371D02*
X156886266Y-98464990D01*
X156886266Y-98464990D02*
X156505314Y-98464990D01*
X158029123Y-98941180D02*
X157457695Y-98941180D01*
X157743409Y-98941180D02*
X157743409Y-97941180D01*
X157743409Y-97941180D02*
X157648171Y-98084038D01*
X157648171Y-98084038D02*
X157552933Y-98179276D01*
X157552933Y-98179276D02*
X157457695Y-98226895D01*
X158933885Y-97941180D02*
X158457695Y-97941180D01*
X158457695Y-97941180D02*
X158410076Y-98417371D01*
X158410076Y-98417371D02*
X158457695Y-98369752D01*
X158457695Y-98369752D02*
X158552933Y-98322133D01*
X158552933Y-98322133D02*
X158791028Y-98322133D01*
X158791028Y-98322133D02*
X158886266Y-98369752D01*
X158886266Y-98369752D02*
X158933885Y-98417371D01*
X158933885Y-98417371D02*
X158981504Y-98512609D01*
X158981504Y-98512609D02*
X158981504Y-98750704D01*
X158981504Y-98750704D02*
X158933885Y-98845942D01*
X158933885Y-98845942D02*
X158886266Y-98893561D01*
X158886266Y-98893561D02*
X158791028Y-98941180D01*
X158791028Y-98941180D02*
X158552933Y-98941180D01*
X158552933Y-98941180D02*
X158457695Y-98893561D01*
X158457695Y-98893561D02*
X158410076Y-98845942D01*
X159832142Y-90507380D02*
X159498809Y-90031190D01*
X159260714Y-90507380D02*
X159260714Y-89507380D01*
X159260714Y-89507380D02*
X159641666Y-89507380D01*
X159641666Y-89507380D02*
X159736904Y-89555000D01*
X159736904Y-89555000D02*
X159784523Y-89602619D01*
X159784523Y-89602619D02*
X159832142Y-89697857D01*
X159832142Y-89697857D02*
X159832142Y-89840714D01*
X159832142Y-89840714D02*
X159784523Y-89935952D01*
X159784523Y-89935952D02*
X159736904Y-89983571D01*
X159736904Y-89983571D02*
X159641666Y-90031190D01*
X159641666Y-90031190D02*
X159260714Y-90031190D01*
X160784523Y-90507380D02*
X160213095Y-90507380D01*
X160498809Y-90507380D02*
X160498809Y-89507380D01*
X160498809Y-89507380D02*
X160403571Y-89650238D01*
X160403571Y-89650238D02*
X160308333Y-89745476D01*
X160308333Y-89745476D02*
X160213095Y-89793095D01*
X161641666Y-89507380D02*
X161451190Y-89507380D01*
X161451190Y-89507380D02*
X161355952Y-89555000D01*
X161355952Y-89555000D02*
X161308333Y-89602619D01*
X161308333Y-89602619D02*
X161213095Y-89745476D01*
X161213095Y-89745476D02*
X161165476Y-89935952D01*
X161165476Y-89935952D02*
X161165476Y-90316904D01*
X161165476Y-90316904D02*
X161213095Y-90412142D01*
X161213095Y-90412142D02*
X161260714Y-90459761D01*
X161260714Y-90459761D02*
X161355952Y-90507380D01*
X161355952Y-90507380D02*
X161546428Y-90507380D01*
X161546428Y-90507380D02*
X161641666Y-90459761D01*
X161641666Y-90459761D02*
X161689285Y-90412142D01*
X161689285Y-90412142D02*
X161736904Y-90316904D01*
X161736904Y-90316904D02*
X161736904Y-90078809D01*
X161736904Y-90078809D02*
X161689285Y-89983571D01*
X161689285Y-89983571D02*
X161641666Y-89935952D01*
X161641666Y-89935952D02*
X161546428Y-89888333D01*
X161546428Y-89888333D02*
X161355952Y-89888333D01*
X161355952Y-89888333D02*
X161260714Y-89935952D01*
X161260714Y-89935952D02*
X161213095Y-89983571D01*
X161213095Y-89983571D02*
X161165476Y-90078809D01*
X198912380Y-80416666D02*
X198436190Y-80749999D01*
X198912380Y-80988094D02*
X197912380Y-80988094D01*
X197912380Y-80988094D02*
X197912380Y-80607142D01*
X197912380Y-80607142D02*
X197960000Y-80511904D01*
X197960000Y-80511904D02*
X198007619Y-80464285D01*
X198007619Y-80464285D02*
X198102857Y-80416666D01*
X198102857Y-80416666D02*
X198245714Y-80416666D01*
X198245714Y-80416666D02*
X198340952Y-80464285D01*
X198340952Y-80464285D02*
X198388571Y-80511904D01*
X198388571Y-80511904D02*
X198436190Y-80607142D01*
X198436190Y-80607142D02*
X198436190Y-80988094D01*
X198007619Y-80035713D02*
X197960000Y-79988094D01*
X197960000Y-79988094D02*
X197912380Y-79892856D01*
X197912380Y-79892856D02*
X197912380Y-79654761D01*
X197912380Y-79654761D02*
X197960000Y-79559523D01*
X197960000Y-79559523D02*
X198007619Y-79511904D01*
X198007619Y-79511904D02*
X198102857Y-79464285D01*
X198102857Y-79464285D02*
X198198095Y-79464285D01*
X198198095Y-79464285D02*
X198340952Y-79511904D01*
X198340952Y-79511904D02*
X198912380Y-80083332D01*
X198912380Y-80083332D02*
X198912380Y-79464285D01*
D14*
X195756133Y-77747704D02*
X195756133Y-78319133D01*
X195756133Y-78319133D02*
X195718038Y-78433419D01*
X195718038Y-78433419D02*
X195641847Y-78509609D01*
X195641847Y-78509609D02*
X195527562Y-78547704D01*
X195527562Y-78547704D02*
X195451371Y-78547704D01*
X196556133Y-78547704D02*
X196098990Y-78547704D01*
X196327562Y-78547704D02*
X196327562Y-77747704D01*
X196327562Y-77747704D02*
X196251371Y-77861990D01*
X196251371Y-77861990D02*
X196175181Y-77938180D01*
X196175181Y-77938180D02*
X196098990Y-77976276D01*
D10*
X165680933Y-70042342D02*
X165633314Y-70089961D01*
X165633314Y-70089961D02*
X165490457Y-70137580D01*
X165490457Y-70137580D02*
X165395219Y-70137580D01*
X165395219Y-70137580D02*
X165252362Y-70089961D01*
X165252362Y-70089961D02*
X165157124Y-69994723D01*
X165157124Y-69994723D02*
X165109505Y-69899485D01*
X165109505Y-69899485D02*
X165061886Y-69709009D01*
X165061886Y-69709009D02*
X165061886Y-69566152D01*
X165061886Y-69566152D02*
X165109505Y-69375676D01*
X165109505Y-69375676D02*
X165157124Y-69280438D01*
X165157124Y-69280438D02*
X165252362Y-69185200D01*
X165252362Y-69185200D02*
X165395219Y-69137580D01*
X165395219Y-69137580D02*
X165490457Y-69137580D01*
X165490457Y-69137580D02*
X165633314Y-69185200D01*
X165633314Y-69185200D02*
X165680933Y-69232819D01*
X166061886Y-69232819D02*
X166109505Y-69185200D01*
X166109505Y-69185200D02*
X166204743Y-69137580D01*
X166204743Y-69137580D02*
X166442838Y-69137580D01*
X166442838Y-69137580D02*
X166538076Y-69185200D01*
X166538076Y-69185200D02*
X166585695Y-69232819D01*
X166585695Y-69232819D02*
X166633314Y-69328057D01*
X166633314Y-69328057D02*
X166633314Y-69423295D01*
X166633314Y-69423295D02*
X166585695Y-69566152D01*
X166585695Y-69566152D02*
X166014267Y-70137580D01*
X166014267Y-70137580D02*
X166633314Y-70137580D01*
X139417333Y-85268380D02*
X139084000Y-84792190D01*
X138845905Y-85268380D02*
X138845905Y-84268380D01*
X138845905Y-84268380D02*
X139226857Y-84268380D01*
X139226857Y-84268380D02*
X139322095Y-84316000D01*
X139322095Y-84316000D02*
X139369714Y-84363619D01*
X139369714Y-84363619D02*
X139417333Y-84458857D01*
X139417333Y-84458857D02*
X139417333Y-84601714D01*
X139417333Y-84601714D02*
X139369714Y-84696952D01*
X139369714Y-84696952D02*
X139322095Y-84744571D01*
X139322095Y-84744571D02*
X139226857Y-84792190D01*
X139226857Y-84792190D02*
X138845905Y-84792190D01*
X139750667Y-84268380D02*
X140417333Y-84268380D01*
X140417333Y-84268380D02*
X139988762Y-85268380D01*
X128092142Y-90507380D02*
X127758809Y-90031190D01*
X127520714Y-90507380D02*
X127520714Y-89507380D01*
X127520714Y-89507380D02*
X127901666Y-89507380D01*
X127901666Y-89507380D02*
X127996904Y-89555000D01*
X127996904Y-89555000D02*
X128044523Y-89602619D01*
X128044523Y-89602619D02*
X128092142Y-89697857D01*
X128092142Y-89697857D02*
X128092142Y-89840714D01*
X128092142Y-89840714D02*
X128044523Y-89935952D01*
X128044523Y-89935952D02*
X127996904Y-89983571D01*
X127996904Y-89983571D02*
X127901666Y-90031190D01*
X127901666Y-90031190D02*
X127520714Y-90031190D01*
X129044523Y-90507380D02*
X128473095Y-90507380D01*
X128758809Y-90507380D02*
X128758809Y-89507380D01*
X128758809Y-89507380D02*
X128663571Y-89650238D01*
X128663571Y-89650238D02*
X128568333Y-89745476D01*
X128568333Y-89745476D02*
X128473095Y-89793095D01*
X129377857Y-89507380D02*
X129996904Y-89507380D01*
X129996904Y-89507380D02*
X129663571Y-89888333D01*
X129663571Y-89888333D02*
X129806428Y-89888333D01*
X129806428Y-89888333D02*
X129901666Y-89935952D01*
X129901666Y-89935952D02*
X129949285Y-89983571D01*
X129949285Y-89983571D02*
X129996904Y-90078809D01*
X129996904Y-90078809D02*
X129996904Y-90316904D01*
X129996904Y-90316904D02*
X129949285Y-90412142D01*
X129949285Y-90412142D02*
X129901666Y-90459761D01*
X129901666Y-90459761D02*
X129806428Y-90507380D01*
X129806428Y-90507380D02*
X129520714Y-90507380D01*
X129520714Y-90507380D02*
X129425476Y-90459761D01*
X129425476Y-90459761D02*
X129377857Y-90412142D01*
X179498533Y-70194742D02*
X179450914Y-70242361D01*
X179450914Y-70242361D02*
X179308057Y-70289980D01*
X179308057Y-70289980D02*
X179212819Y-70289980D01*
X179212819Y-70289980D02*
X179069962Y-70242361D01*
X179069962Y-70242361D02*
X178974724Y-70147123D01*
X178974724Y-70147123D02*
X178927105Y-70051885D01*
X178927105Y-70051885D02*
X178879486Y-69861409D01*
X178879486Y-69861409D02*
X178879486Y-69718552D01*
X178879486Y-69718552D02*
X178927105Y-69528076D01*
X178927105Y-69528076D02*
X178974724Y-69432838D01*
X178974724Y-69432838D02*
X179069962Y-69337600D01*
X179069962Y-69337600D02*
X179212819Y-69289980D01*
X179212819Y-69289980D02*
X179308057Y-69289980D01*
X179308057Y-69289980D02*
X179450914Y-69337600D01*
X179450914Y-69337600D02*
X179498533Y-69385219D01*
X180450914Y-70289980D02*
X179879486Y-70289980D01*
X180165200Y-70289980D02*
X180165200Y-69289980D01*
X180165200Y-69289980D02*
X180069962Y-69432838D01*
X180069962Y-69432838D02*
X179974724Y-69528076D01*
X179974724Y-69528076D02*
X179879486Y-69575695D01*
X206331076Y-74704380D02*
X206331076Y-75418666D01*
X206331076Y-75418666D02*
X206283457Y-75561523D01*
X206283457Y-75561523D02*
X206188219Y-75656761D01*
X206188219Y-75656761D02*
X206045362Y-75704380D01*
X206045362Y-75704380D02*
X205950124Y-75704380D01*
X207331076Y-75704380D02*
X206759648Y-75704380D01*
X207045362Y-75704380D02*
X207045362Y-74704380D01*
X207045362Y-74704380D02*
X206950124Y-74847238D01*
X206950124Y-74847238D02*
X206854886Y-74942476D01*
X206854886Y-74942476D02*
X206759648Y-74990095D01*
X208283457Y-75704380D02*
X207712029Y-75704380D01*
X207997743Y-75704380D02*
X207997743Y-74704380D01*
X207997743Y-74704380D02*
X207902505Y-74847238D01*
X207902505Y-74847238D02*
X207807267Y-74942476D01*
X207807267Y-74942476D02*
X207712029Y-74990095D01*
X123696190Y-85626190D02*
X124172380Y-85626190D01*
X123172380Y-85959523D02*
X123696190Y-85626190D01*
X123696190Y-85626190D02*
X123172380Y-85292857D01*
X124172380Y-84435714D02*
X124172380Y-85007142D01*
X124172380Y-84721428D02*
X123172380Y-84721428D01*
X123172380Y-84721428D02*
X123315238Y-84816666D01*
X123315238Y-84816666D02*
X123410476Y-84911904D01*
X123410476Y-84911904D02*
X123458095Y-85007142D01*
X100024761Y-103777619D02*
X99929523Y-103730000D01*
X99929523Y-103730000D02*
X99834285Y-103634761D01*
X99834285Y-103634761D02*
X99691428Y-103491904D01*
X99691428Y-103491904D02*
X99596190Y-103444285D01*
X99596190Y-103444285D02*
X99500952Y-103444285D01*
X99548571Y-103682380D02*
X99453333Y-103634761D01*
X99453333Y-103634761D02*
X99358095Y-103539523D01*
X99358095Y-103539523D02*
X99310476Y-103349047D01*
X99310476Y-103349047D02*
X99310476Y-103015714D01*
X99310476Y-103015714D02*
X99358095Y-102825238D01*
X99358095Y-102825238D02*
X99453333Y-102730000D01*
X99453333Y-102730000D02*
X99548571Y-102682380D01*
X99548571Y-102682380D02*
X99739047Y-102682380D01*
X99739047Y-102682380D02*
X99834285Y-102730000D01*
X99834285Y-102730000D02*
X99929523Y-102825238D01*
X99929523Y-102825238D02*
X99977142Y-103015714D01*
X99977142Y-103015714D02*
X99977142Y-103349047D01*
X99977142Y-103349047D02*
X99929523Y-103539523D01*
X99929523Y-103539523D02*
X99834285Y-103634761D01*
X99834285Y-103634761D02*
X99739047Y-103682380D01*
X99739047Y-103682380D02*
X99548571Y-103682380D01*
X100881904Y-102682380D02*
X100405714Y-102682380D01*
X100405714Y-102682380D02*
X100358095Y-103158571D01*
X100358095Y-103158571D02*
X100405714Y-103110952D01*
X100405714Y-103110952D02*
X100500952Y-103063333D01*
X100500952Y-103063333D02*
X100739047Y-103063333D01*
X100739047Y-103063333D02*
X100834285Y-103110952D01*
X100834285Y-103110952D02*
X100881904Y-103158571D01*
X100881904Y-103158571D02*
X100929523Y-103253809D01*
X100929523Y-103253809D02*
X100929523Y-103491904D01*
X100929523Y-103491904D02*
X100881904Y-103587142D01*
X100881904Y-103587142D02*
X100834285Y-103634761D01*
X100834285Y-103634761D02*
X100739047Y-103682380D01*
X100739047Y-103682380D02*
X100500952Y-103682380D01*
X100500952Y-103682380D02*
X100405714Y-103634761D01*
X100405714Y-103634761D02*
X100358095Y-103587142D01*
X125143333Y-82477142D02*
X125095714Y-82524761D01*
X125095714Y-82524761D02*
X124952857Y-82572380D01*
X124952857Y-82572380D02*
X124857619Y-82572380D01*
X124857619Y-82572380D02*
X124714762Y-82524761D01*
X124714762Y-82524761D02*
X124619524Y-82429523D01*
X124619524Y-82429523D02*
X124571905Y-82334285D01*
X124571905Y-82334285D02*
X124524286Y-82143809D01*
X124524286Y-82143809D02*
X124524286Y-82000952D01*
X124524286Y-82000952D02*
X124571905Y-81810476D01*
X124571905Y-81810476D02*
X124619524Y-81715238D01*
X124619524Y-81715238D02*
X124714762Y-81620000D01*
X124714762Y-81620000D02*
X124857619Y-81572380D01*
X124857619Y-81572380D02*
X124952857Y-81572380D01*
X124952857Y-81572380D02*
X125095714Y-81620000D01*
X125095714Y-81620000D02*
X125143333Y-81667619D01*
X126048095Y-81572380D02*
X125571905Y-81572380D01*
X125571905Y-81572380D02*
X125524286Y-82048571D01*
X125524286Y-82048571D02*
X125571905Y-82000952D01*
X125571905Y-82000952D02*
X125667143Y-81953333D01*
X125667143Y-81953333D02*
X125905238Y-81953333D01*
X125905238Y-81953333D02*
X126000476Y-82000952D01*
X126000476Y-82000952D02*
X126048095Y-82048571D01*
X126048095Y-82048571D02*
X126095714Y-82143809D01*
X126095714Y-82143809D02*
X126095714Y-82381904D01*
X126095714Y-82381904D02*
X126048095Y-82477142D01*
X126048095Y-82477142D02*
X126000476Y-82524761D01*
X126000476Y-82524761D02*
X125905238Y-82572380D01*
X125905238Y-82572380D02*
X125667143Y-82572380D01*
X125667143Y-82572380D02*
X125571905Y-82524761D01*
X125571905Y-82524761D02*
X125524286Y-82477142D01*
X125396533Y-76798742D02*
X125348914Y-76846361D01*
X125348914Y-76846361D02*
X125206057Y-76893980D01*
X125206057Y-76893980D02*
X125110819Y-76893980D01*
X125110819Y-76893980D02*
X124967962Y-76846361D01*
X124967962Y-76846361D02*
X124872724Y-76751123D01*
X124872724Y-76751123D02*
X124825105Y-76655885D01*
X124825105Y-76655885D02*
X124777486Y-76465409D01*
X124777486Y-76465409D02*
X124777486Y-76322552D01*
X124777486Y-76322552D02*
X124825105Y-76132076D01*
X124825105Y-76132076D02*
X124872724Y-76036838D01*
X124872724Y-76036838D02*
X124967962Y-75941600D01*
X124967962Y-75941600D02*
X125110819Y-75893980D01*
X125110819Y-75893980D02*
X125206057Y-75893980D01*
X125206057Y-75893980D02*
X125348914Y-75941600D01*
X125348914Y-75941600D02*
X125396533Y-75989219D01*
X126253676Y-75893980D02*
X126063200Y-75893980D01*
X126063200Y-75893980D02*
X125967962Y-75941600D01*
X125967962Y-75941600D02*
X125920343Y-75989219D01*
X125920343Y-75989219D02*
X125825105Y-76132076D01*
X125825105Y-76132076D02*
X125777486Y-76322552D01*
X125777486Y-76322552D02*
X125777486Y-76703504D01*
X125777486Y-76703504D02*
X125825105Y-76798742D01*
X125825105Y-76798742D02*
X125872724Y-76846361D01*
X125872724Y-76846361D02*
X125967962Y-76893980D01*
X125967962Y-76893980D02*
X126158438Y-76893980D01*
X126158438Y-76893980D02*
X126253676Y-76846361D01*
X126253676Y-76846361D02*
X126301295Y-76798742D01*
X126301295Y-76798742D02*
X126348914Y-76703504D01*
X126348914Y-76703504D02*
X126348914Y-76465409D01*
X126348914Y-76465409D02*
X126301295Y-76370171D01*
X126301295Y-76370171D02*
X126253676Y-76322552D01*
X126253676Y-76322552D02*
X126158438Y-76274933D01*
X126158438Y-76274933D02*
X125967962Y-76274933D01*
X125967962Y-76274933D02*
X125872724Y-76322552D01*
X125872724Y-76322552D02*
X125825105Y-76370171D01*
X125825105Y-76370171D02*
X125777486Y-76465409D01*
X195737380Y-80416666D02*
X195261190Y-80749999D01*
X195737380Y-80988094D02*
X194737380Y-80988094D01*
X194737380Y-80988094D02*
X194737380Y-80607142D01*
X194737380Y-80607142D02*
X194785000Y-80511904D01*
X194785000Y-80511904D02*
X194832619Y-80464285D01*
X194832619Y-80464285D02*
X194927857Y-80416666D01*
X194927857Y-80416666D02*
X195070714Y-80416666D01*
X195070714Y-80416666D02*
X195165952Y-80464285D01*
X195165952Y-80464285D02*
X195213571Y-80511904D01*
X195213571Y-80511904D02*
X195261190Y-80607142D01*
X195261190Y-80607142D02*
X195261190Y-80988094D01*
X195737380Y-79464285D02*
X195737380Y-80035713D01*
X195737380Y-79749999D02*
X194737380Y-79749999D01*
X194737380Y-79749999D02*
X194880238Y-79845237D01*
X194880238Y-79845237D02*
X194975476Y-79940475D01*
X194975476Y-79940475D02*
X195023095Y-80035713D01*
X132712380Y-74591666D02*
X132236190Y-74924999D01*
X132712380Y-75163094D02*
X131712380Y-75163094D01*
X131712380Y-75163094D02*
X131712380Y-74782142D01*
X131712380Y-74782142D02*
X131760000Y-74686904D01*
X131760000Y-74686904D02*
X131807619Y-74639285D01*
X131807619Y-74639285D02*
X131902857Y-74591666D01*
X131902857Y-74591666D02*
X132045714Y-74591666D01*
X132045714Y-74591666D02*
X132140952Y-74639285D01*
X132140952Y-74639285D02*
X132188571Y-74686904D01*
X132188571Y-74686904D02*
X132236190Y-74782142D01*
X132236190Y-74782142D02*
X132236190Y-75163094D01*
X131712380Y-73686904D02*
X131712380Y-74163094D01*
X131712380Y-74163094D02*
X132188571Y-74210713D01*
X132188571Y-74210713D02*
X132140952Y-74163094D01*
X132140952Y-74163094D02*
X132093333Y-74067856D01*
X132093333Y-74067856D02*
X132093333Y-73829761D01*
X132093333Y-73829761D02*
X132140952Y-73734523D01*
X132140952Y-73734523D02*
X132188571Y-73686904D01*
X132188571Y-73686904D02*
X132283809Y-73639285D01*
X132283809Y-73639285D02*
X132521904Y-73639285D01*
X132521904Y-73639285D02*
X132617142Y-73686904D01*
X132617142Y-73686904D02*
X132664761Y-73734523D01*
X132664761Y-73734523D02*
X132712380Y-73829761D01*
X132712380Y-73829761D02*
X132712380Y-74067856D01*
X132712380Y-74067856D02*
X132664761Y-74163094D01*
X132664761Y-74163094D02*
X132617142Y-74210713D01*
X173834980Y-75029494D02*
X172834980Y-75029494D01*
X172834980Y-75029494D02*
X172834980Y-74791399D01*
X172834980Y-74791399D02*
X172882600Y-74648542D01*
X172882600Y-74648542D02*
X172977838Y-74553304D01*
X172977838Y-74553304D02*
X173073076Y-74505685D01*
X173073076Y-74505685D02*
X173263552Y-74458066D01*
X173263552Y-74458066D02*
X173406409Y-74458066D01*
X173406409Y-74458066D02*
X173596885Y-74505685D01*
X173596885Y-74505685D02*
X173692123Y-74553304D01*
X173692123Y-74553304D02*
X173787361Y-74648542D01*
X173787361Y-74648542D02*
X173834980Y-74791399D01*
X173834980Y-74791399D02*
X173834980Y-75029494D01*
X173834980Y-73505685D02*
X173834980Y-74077113D01*
X173834980Y-73791399D02*
X172834980Y-73791399D01*
X172834980Y-73791399D02*
X172977838Y-73886637D01*
X172977838Y-73886637D02*
X173073076Y-73981875D01*
X173073076Y-73981875D02*
X173120695Y-74077113D01*
X165871505Y-90711580D02*
X165871505Y-89711580D01*
X166442933Y-90711580D02*
X166014362Y-90140152D01*
X166442933Y-89711580D02*
X165871505Y-90283009D01*
X166776267Y-89711580D02*
X167395314Y-89711580D01*
X167395314Y-89711580D02*
X167061981Y-90092533D01*
X167061981Y-90092533D02*
X167204838Y-90092533D01*
X167204838Y-90092533D02*
X167300076Y-90140152D01*
X167300076Y-90140152D02*
X167347695Y-90187771D01*
X167347695Y-90187771D02*
X167395314Y-90283009D01*
X167395314Y-90283009D02*
X167395314Y-90521104D01*
X167395314Y-90521104D02*
X167347695Y-90616342D01*
X167347695Y-90616342D02*
X167300076Y-90663961D01*
X167300076Y-90663961D02*
X167204838Y-90711580D01*
X167204838Y-90711580D02*
X166919124Y-90711580D01*
X166919124Y-90711580D02*
X166823886Y-90663961D01*
X166823886Y-90663961D02*
X166776267Y-90616342D01*
X183853066Y-118972380D02*
X183853066Y-119686666D01*
X183853066Y-119686666D02*
X183805447Y-119829523D01*
X183805447Y-119829523D02*
X183710209Y-119924761D01*
X183710209Y-119924761D02*
X183567352Y-119972380D01*
X183567352Y-119972380D02*
X183472114Y-119972380D01*
X184376876Y-119972380D02*
X184567352Y-119972380D01*
X184567352Y-119972380D02*
X184662590Y-119924761D01*
X184662590Y-119924761D02*
X184710209Y-119877142D01*
X184710209Y-119877142D02*
X184805447Y-119734285D01*
X184805447Y-119734285D02*
X184853066Y-119543809D01*
X184853066Y-119543809D02*
X184853066Y-119162857D01*
X184853066Y-119162857D02*
X184805447Y-119067619D01*
X184805447Y-119067619D02*
X184757828Y-119020000D01*
X184757828Y-119020000D02*
X184662590Y-118972380D01*
X184662590Y-118972380D02*
X184472114Y-118972380D01*
X184472114Y-118972380D02*
X184376876Y-119020000D01*
X184376876Y-119020000D02*
X184329257Y-119067619D01*
X184329257Y-119067619D02*
X184281638Y-119162857D01*
X184281638Y-119162857D02*
X184281638Y-119400952D01*
X184281638Y-119400952D02*
X184329257Y-119496190D01*
X184329257Y-119496190D02*
X184376876Y-119543809D01*
X184376876Y-119543809D02*
X184472114Y-119591428D01*
X184472114Y-119591428D02*
X184662590Y-119591428D01*
X184662590Y-119591428D02*
X184757828Y-119543809D01*
X184757828Y-119543809D02*
X184805447Y-119496190D01*
X184805447Y-119496190D02*
X184853066Y-119400952D01*
X161281961Y-103659219D02*
X161186723Y-103611600D01*
X161186723Y-103611600D02*
X161091485Y-103516361D01*
X161091485Y-103516361D02*
X160948628Y-103373504D01*
X160948628Y-103373504D02*
X160853390Y-103325885D01*
X160853390Y-103325885D02*
X160758152Y-103325885D01*
X160805771Y-103563980D02*
X160710533Y-103516361D01*
X160710533Y-103516361D02*
X160615295Y-103421123D01*
X160615295Y-103421123D02*
X160567676Y-103230647D01*
X160567676Y-103230647D02*
X160567676Y-102897314D01*
X160567676Y-102897314D02*
X160615295Y-102706838D01*
X160615295Y-102706838D02*
X160710533Y-102611600D01*
X160710533Y-102611600D02*
X160805771Y-102563980D01*
X160805771Y-102563980D02*
X160996247Y-102563980D01*
X160996247Y-102563980D02*
X161091485Y-102611600D01*
X161091485Y-102611600D02*
X161186723Y-102706838D01*
X161186723Y-102706838D02*
X161234342Y-102897314D01*
X161234342Y-102897314D02*
X161234342Y-103230647D01*
X161234342Y-103230647D02*
X161186723Y-103421123D01*
X161186723Y-103421123D02*
X161091485Y-103516361D01*
X161091485Y-103516361D02*
X160996247Y-103563980D01*
X160996247Y-103563980D02*
X160805771Y-103563980D01*
X161567676Y-102563980D02*
X162234342Y-102563980D01*
X162234342Y-102563980D02*
X161805771Y-103563980D01*
X96962380Y-97085594D02*
X95962380Y-97085594D01*
X95962380Y-97085594D02*
X95962380Y-96847499D01*
X95962380Y-96847499D02*
X96010000Y-96704642D01*
X96010000Y-96704642D02*
X96105238Y-96609404D01*
X96105238Y-96609404D02*
X96200476Y-96561785D01*
X96200476Y-96561785D02*
X96390952Y-96514166D01*
X96390952Y-96514166D02*
X96533809Y-96514166D01*
X96533809Y-96514166D02*
X96724285Y-96561785D01*
X96724285Y-96561785D02*
X96819523Y-96609404D01*
X96819523Y-96609404D02*
X96914761Y-96704642D01*
X96914761Y-96704642D02*
X96962380Y-96847499D01*
X96962380Y-96847499D02*
X96962380Y-97085594D01*
X95962380Y-96180832D02*
X95962380Y-95561785D01*
X95962380Y-95561785D02*
X96343333Y-95895118D01*
X96343333Y-95895118D02*
X96343333Y-95752261D01*
X96343333Y-95752261D02*
X96390952Y-95657023D01*
X96390952Y-95657023D02*
X96438571Y-95609404D01*
X96438571Y-95609404D02*
X96533809Y-95561785D01*
X96533809Y-95561785D02*
X96771904Y-95561785D01*
X96771904Y-95561785D02*
X96867142Y-95609404D01*
X96867142Y-95609404D02*
X96914761Y-95657023D01*
X96914761Y-95657023D02*
X96962380Y-95752261D01*
X96962380Y-95752261D02*
X96962380Y-96037975D01*
X96962380Y-96037975D02*
X96914761Y-96133213D01*
X96914761Y-96133213D02*
X96867142Y-96180832D01*
X130446361Y-103659219D02*
X130351123Y-103611600D01*
X130351123Y-103611600D02*
X130255885Y-103516361D01*
X130255885Y-103516361D02*
X130113028Y-103373504D01*
X130113028Y-103373504D02*
X130017790Y-103325885D01*
X130017790Y-103325885D02*
X129922552Y-103325885D01*
X129970171Y-103563980D02*
X129874933Y-103516361D01*
X129874933Y-103516361D02*
X129779695Y-103421123D01*
X129779695Y-103421123D02*
X129732076Y-103230647D01*
X129732076Y-103230647D02*
X129732076Y-102897314D01*
X129732076Y-102897314D02*
X129779695Y-102706838D01*
X129779695Y-102706838D02*
X129874933Y-102611600D01*
X129874933Y-102611600D02*
X129970171Y-102563980D01*
X129970171Y-102563980D02*
X130160647Y-102563980D01*
X130160647Y-102563980D02*
X130255885Y-102611600D01*
X130255885Y-102611600D02*
X130351123Y-102706838D01*
X130351123Y-102706838D02*
X130398742Y-102897314D01*
X130398742Y-102897314D02*
X130398742Y-103230647D01*
X130398742Y-103230647D02*
X130351123Y-103421123D01*
X130351123Y-103421123D02*
X130255885Y-103516361D01*
X130255885Y-103516361D02*
X130160647Y-103563980D01*
X130160647Y-103563980D02*
X129970171Y-103563980D01*
X131255885Y-102563980D02*
X131065409Y-102563980D01*
X131065409Y-102563980D02*
X130970171Y-102611600D01*
X130970171Y-102611600D02*
X130922552Y-102659219D01*
X130922552Y-102659219D02*
X130827314Y-102802076D01*
X130827314Y-102802076D02*
X130779695Y-102992552D01*
X130779695Y-102992552D02*
X130779695Y-103373504D01*
X130779695Y-103373504D02*
X130827314Y-103468742D01*
X130827314Y-103468742D02*
X130874933Y-103516361D01*
X130874933Y-103516361D02*
X130970171Y-103563980D01*
X130970171Y-103563980D02*
X131160647Y-103563980D01*
X131160647Y-103563980D02*
X131255885Y-103516361D01*
X131255885Y-103516361D02*
X131303504Y-103468742D01*
X131303504Y-103468742D02*
X131351123Y-103373504D01*
X131351123Y-103373504D02*
X131351123Y-103135409D01*
X131351123Y-103135409D02*
X131303504Y-103040171D01*
X131303504Y-103040171D02*
X131255885Y-102992552D01*
X131255885Y-102992552D02*
X131160647Y-102944933D01*
X131160647Y-102944933D02*
X130970171Y-102944933D01*
X130970171Y-102944933D02*
X130874933Y-102992552D01*
X130874933Y-102992552D02*
X130827314Y-103040171D01*
X130827314Y-103040171D02*
X130779695Y-103135409D01*
X115238267Y-83856761D02*
X115381124Y-83904380D01*
X115381124Y-83904380D02*
X115619219Y-83904380D01*
X115619219Y-83904380D02*
X115714457Y-83856761D01*
X115714457Y-83856761D02*
X115762076Y-83809142D01*
X115762076Y-83809142D02*
X115809695Y-83713904D01*
X115809695Y-83713904D02*
X115809695Y-83618666D01*
X115809695Y-83618666D02*
X115762076Y-83523428D01*
X115762076Y-83523428D02*
X115714457Y-83475809D01*
X115714457Y-83475809D02*
X115619219Y-83428190D01*
X115619219Y-83428190D02*
X115428743Y-83380571D01*
X115428743Y-83380571D02*
X115333505Y-83332952D01*
X115333505Y-83332952D02*
X115285886Y-83285333D01*
X115285886Y-83285333D02*
X115238267Y-83190095D01*
X115238267Y-83190095D02*
X115238267Y-83094857D01*
X115238267Y-83094857D02*
X115285886Y-82999619D01*
X115285886Y-82999619D02*
X115333505Y-82952000D01*
X115333505Y-82952000D02*
X115428743Y-82904380D01*
X115428743Y-82904380D02*
X115666838Y-82904380D01*
X115666838Y-82904380D02*
X115809695Y-82952000D01*
X116143029Y-82904380D02*
X116381124Y-83904380D01*
X116381124Y-83904380D02*
X116571600Y-83190095D01*
X116571600Y-83190095D02*
X116762076Y-83904380D01*
X116762076Y-83904380D02*
X117000172Y-82904380D01*
X117904933Y-83904380D02*
X117333505Y-83904380D01*
X117619219Y-83904380D02*
X117619219Y-82904380D01*
X117619219Y-82904380D02*
X117523981Y-83047238D01*
X117523981Y-83047238D02*
X117428743Y-83142476D01*
X117428743Y-83142476D02*
X117333505Y-83190095D01*
X122537466Y-118921580D02*
X122537466Y-119635866D01*
X122537466Y-119635866D02*
X122489847Y-119778723D01*
X122489847Y-119778723D02*
X122394609Y-119873961D01*
X122394609Y-119873961D02*
X122251752Y-119921580D01*
X122251752Y-119921580D02*
X122156514Y-119921580D01*
X122918419Y-118921580D02*
X123585085Y-118921580D01*
X123585085Y-118921580D02*
X123156514Y-119921580D01*
X133197380Y-96118094D02*
X132197380Y-96118094D01*
X132197380Y-96118094D02*
X132197380Y-95879999D01*
X132197380Y-95879999D02*
X132245000Y-95737142D01*
X132245000Y-95737142D02*
X132340238Y-95641904D01*
X132340238Y-95641904D02*
X132435476Y-95594285D01*
X132435476Y-95594285D02*
X132625952Y-95546666D01*
X132625952Y-95546666D02*
X132768809Y-95546666D01*
X132768809Y-95546666D02*
X132959285Y-95594285D01*
X132959285Y-95594285D02*
X133054523Y-95641904D01*
X133054523Y-95641904D02*
X133149761Y-95737142D01*
X133149761Y-95737142D02*
X133197380Y-95879999D01*
X133197380Y-95879999D02*
X133197380Y-96118094D01*
X132197380Y-94689523D02*
X132197380Y-94879999D01*
X132197380Y-94879999D02*
X132245000Y-94975237D01*
X132245000Y-94975237D02*
X132292619Y-95022856D01*
X132292619Y-95022856D02*
X132435476Y-95118094D01*
X132435476Y-95118094D02*
X132625952Y-95165713D01*
X132625952Y-95165713D02*
X133006904Y-95165713D01*
X133006904Y-95165713D02*
X133102142Y-95118094D01*
X133102142Y-95118094D02*
X133149761Y-95070475D01*
X133149761Y-95070475D02*
X133197380Y-94975237D01*
X133197380Y-94975237D02*
X133197380Y-94784761D01*
X133197380Y-94784761D02*
X133149761Y-94689523D01*
X133149761Y-94689523D02*
X133102142Y-94641904D01*
X133102142Y-94641904D02*
X133006904Y-94594285D01*
X133006904Y-94594285D02*
X132768809Y-94594285D01*
X132768809Y-94594285D02*
X132673571Y-94641904D01*
X132673571Y-94641904D02*
X132625952Y-94689523D01*
X132625952Y-94689523D02*
X132578333Y-94784761D01*
X132578333Y-94784761D02*
X132578333Y-94975237D01*
X132578333Y-94975237D02*
X132625952Y-95070475D01*
X132625952Y-95070475D02*
X132673571Y-95118094D01*
X132673571Y-95118094D02*
X132768809Y-95165713D01*
X196859505Y-91117980D02*
X196859505Y-90117980D01*
X197430933Y-91117980D02*
X197002362Y-90546552D01*
X197430933Y-90117980D02*
X196859505Y-90689409D01*
X198288076Y-90451314D02*
X198288076Y-91117980D01*
X198049981Y-90070361D02*
X197811886Y-90784647D01*
X197811886Y-90784647D02*
X198430933Y-90784647D01*
X167691666Y-76527380D02*
X167691666Y-77241666D01*
X167691666Y-77241666D02*
X167644047Y-77384523D01*
X167644047Y-77384523D02*
X167548809Y-77479761D01*
X167548809Y-77479761D02*
X167405952Y-77527380D01*
X167405952Y-77527380D02*
X167310714Y-77527380D01*
X168167857Y-77527380D02*
X168167857Y-76527380D01*
X168167857Y-76527380D02*
X168548809Y-76527380D01*
X168548809Y-76527380D02*
X168644047Y-76575000D01*
X168644047Y-76575000D02*
X168691666Y-76622619D01*
X168691666Y-76622619D02*
X168739285Y-76717857D01*
X168739285Y-76717857D02*
X168739285Y-76860714D01*
X168739285Y-76860714D02*
X168691666Y-76955952D01*
X168691666Y-76955952D02*
X168644047Y-77003571D01*
X168644047Y-77003571D02*
X168548809Y-77051190D01*
X168548809Y-77051190D02*
X168167857Y-77051190D01*
X169691666Y-77527380D02*
X169120238Y-77527380D01*
X169405952Y-77527380D02*
X169405952Y-76527380D01*
X169405952Y-76527380D02*
X169310714Y-76670238D01*
X169310714Y-76670238D02*
X169215476Y-76765476D01*
X169215476Y-76765476D02*
X169120238Y-76813095D01*
X188475866Y-70559980D02*
X188475866Y-71274266D01*
X188475866Y-71274266D02*
X188428247Y-71417123D01*
X188428247Y-71417123D02*
X188333009Y-71512361D01*
X188333009Y-71512361D02*
X188190152Y-71559980D01*
X188190152Y-71559980D02*
X188094914Y-71559980D01*
X188904438Y-70655219D02*
X188952057Y-70607600D01*
X188952057Y-70607600D02*
X189047295Y-70559980D01*
X189047295Y-70559980D02*
X189285390Y-70559980D01*
X189285390Y-70559980D02*
X189380628Y-70607600D01*
X189380628Y-70607600D02*
X189428247Y-70655219D01*
X189428247Y-70655219D02*
X189475866Y-70750457D01*
X189475866Y-70750457D02*
X189475866Y-70845695D01*
X189475866Y-70845695D02*
X189428247Y-70988552D01*
X189428247Y-70988552D02*
X188856819Y-71559980D01*
X188856819Y-71559980D02*
X189475866Y-71559980D01*
X157292142Y-103527380D02*
X156958809Y-103051190D01*
X156720714Y-103527380D02*
X156720714Y-102527380D01*
X156720714Y-102527380D02*
X157101666Y-102527380D01*
X157101666Y-102527380D02*
X157196904Y-102575000D01*
X157196904Y-102575000D02*
X157244523Y-102622619D01*
X157244523Y-102622619D02*
X157292142Y-102717857D01*
X157292142Y-102717857D02*
X157292142Y-102860714D01*
X157292142Y-102860714D02*
X157244523Y-102955952D01*
X157244523Y-102955952D02*
X157196904Y-103003571D01*
X157196904Y-103003571D02*
X157101666Y-103051190D01*
X157101666Y-103051190D02*
X156720714Y-103051190D01*
X158244523Y-103527380D02*
X157673095Y-103527380D01*
X157958809Y-103527380D02*
X157958809Y-102527380D01*
X157958809Y-102527380D02*
X157863571Y-102670238D01*
X157863571Y-102670238D02*
X157768333Y-102765476D01*
X157768333Y-102765476D02*
X157673095Y-102813095D01*
X159101666Y-102860714D02*
X159101666Y-103527380D01*
X158863571Y-102479761D02*
X158625476Y-103194047D01*
X158625476Y-103194047D02*
X159244523Y-103194047D01*
X192523961Y-103456019D02*
X192428723Y-103408400D01*
X192428723Y-103408400D02*
X192333485Y-103313161D01*
X192333485Y-103313161D02*
X192190628Y-103170304D01*
X192190628Y-103170304D02*
X192095390Y-103122685D01*
X192095390Y-103122685D02*
X192000152Y-103122685D01*
X192047771Y-103360780D02*
X191952533Y-103313161D01*
X191952533Y-103313161D02*
X191857295Y-103217923D01*
X191857295Y-103217923D02*
X191809676Y-103027447D01*
X191809676Y-103027447D02*
X191809676Y-102694114D01*
X191809676Y-102694114D02*
X191857295Y-102503638D01*
X191857295Y-102503638D02*
X191952533Y-102408400D01*
X191952533Y-102408400D02*
X192047771Y-102360780D01*
X192047771Y-102360780D02*
X192238247Y-102360780D01*
X192238247Y-102360780D02*
X192333485Y-102408400D01*
X192333485Y-102408400D02*
X192428723Y-102503638D01*
X192428723Y-102503638D02*
X192476342Y-102694114D01*
X192476342Y-102694114D02*
X192476342Y-103027447D01*
X192476342Y-103027447D02*
X192428723Y-103217923D01*
X192428723Y-103217923D02*
X192333485Y-103313161D01*
X192333485Y-103313161D02*
X192238247Y-103360780D01*
X192238247Y-103360780D02*
X192047771Y-103360780D01*
X193047771Y-102789352D02*
X192952533Y-102741733D01*
X192952533Y-102741733D02*
X192904914Y-102694114D01*
X192904914Y-102694114D02*
X192857295Y-102598876D01*
X192857295Y-102598876D02*
X192857295Y-102551257D01*
X192857295Y-102551257D02*
X192904914Y-102456019D01*
X192904914Y-102456019D02*
X192952533Y-102408400D01*
X192952533Y-102408400D02*
X193047771Y-102360780D01*
X193047771Y-102360780D02*
X193238247Y-102360780D01*
X193238247Y-102360780D02*
X193333485Y-102408400D01*
X193333485Y-102408400D02*
X193381104Y-102456019D01*
X193381104Y-102456019D02*
X193428723Y-102551257D01*
X193428723Y-102551257D02*
X193428723Y-102598876D01*
X193428723Y-102598876D02*
X193381104Y-102694114D01*
X193381104Y-102694114D02*
X193333485Y-102741733D01*
X193333485Y-102741733D02*
X193238247Y-102789352D01*
X193238247Y-102789352D02*
X193047771Y-102789352D01*
X193047771Y-102789352D02*
X192952533Y-102836971D01*
X192952533Y-102836971D02*
X192904914Y-102884590D01*
X192904914Y-102884590D02*
X192857295Y-102979828D01*
X192857295Y-102979828D02*
X192857295Y-103170304D01*
X192857295Y-103170304D02*
X192904914Y-103265542D01*
X192904914Y-103265542D02*
X192952533Y-103313161D01*
X192952533Y-103313161D02*
X193047771Y-103360780D01*
X193047771Y-103360780D02*
X193238247Y-103360780D01*
X193238247Y-103360780D02*
X193333485Y-103313161D01*
X193333485Y-103313161D02*
X193381104Y-103265542D01*
X193381104Y-103265542D02*
X193428723Y-103170304D01*
X193428723Y-103170304D02*
X193428723Y-102979828D01*
X193428723Y-102979828D02*
X193381104Y-102884590D01*
X193381104Y-102884590D02*
X193333485Y-102836971D01*
X193333485Y-102836971D02*
X193238247Y-102789352D01*
X96135733Y-99042780D02*
X95802400Y-98566590D01*
X95564305Y-99042780D02*
X95564305Y-98042780D01*
X95564305Y-98042780D02*
X95945257Y-98042780D01*
X95945257Y-98042780D02*
X96040495Y-98090400D01*
X96040495Y-98090400D02*
X96088114Y-98138019D01*
X96088114Y-98138019D02*
X96135733Y-98233257D01*
X96135733Y-98233257D02*
X96135733Y-98376114D01*
X96135733Y-98376114D02*
X96088114Y-98471352D01*
X96088114Y-98471352D02*
X96040495Y-98518971D01*
X96040495Y-98518971D02*
X95945257Y-98566590D01*
X95945257Y-98566590D02*
X95564305Y-98566590D01*
X96611924Y-99042780D02*
X96802400Y-99042780D01*
X96802400Y-99042780D02*
X96897638Y-98995161D01*
X96897638Y-98995161D02*
X96945257Y-98947542D01*
X96945257Y-98947542D02*
X97040495Y-98804685D01*
X97040495Y-98804685D02*
X97088114Y-98614209D01*
X97088114Y-98614209D02*
X97088114Y-98233257D01*
X97088114Y-98233257D02*
X97040495Y-98138019D01*
X97040495Y-98138019D02*
X96992876Y-98090400D01*
X96992876Y-98090400D02*
X96897638Y-98042780D01*
X96897638Y-98042780D02*
X96707162Y-98042780D01*
X96707162Y-98042780D02*
X96611924Y-98090400D01*
X96611924Y-98090400D02*
X96564305Y-98138019D01*
X96564305Y-98138019D02*
X96516686Y-98233257D01*
X96516686Y-98233257D02*
X96516686Y-98471352D01*
X96516686Y-98471352D02*
X96564305Y-98566590D01*
X96564305Y-98566590D02*
X96611924Y-98614209D01*
X96611924Y-98614209D02*
X96707162Y-98661828D01*
X96707162Y-98661828D02*
X96897638Y-98661828D01*
X96897638Y-98661828D02*
X96992876Y-98614209D01*
X96992876Y-98614209D02*
X97040495Y-98566590D01*
X97040495Y-98566590D02*
X97088114Y-98471352D01*
X164207142Y-71856666D02*
X164254761Y-71904285D01*
X164254761Y-71904285D02*
X164302380Y-72047142D01*
X164302380Y-72047142D02*
X164302380Y-72142380D01*
X164302380Y-72142380D02*
X164254761Y-72285237D01*
X164254761Y-72285237D02*
X164159523Y-72380475D01*
X164159523Y-72380475D02*
X164064285Y-72428094D01*
X164064285Y-72428094D02*
X163873809Y-72475713D01*
X163873809Y-72475713D02*
X163730952Y-72475713D01*
X163730952Y-72475713D02*
X163540476Y-72428094D01*
X163540476Y-72428094D02*
X163445238Y-72380475D01*
X163445238Y-72380475D02*
X163350000Y-72285237D01*
X163350000Y-72285237D02*
X163302380Y-72142380D01*
X163302380Y-72142380D02*
X163302380Y-72047142D01*
X163302380Y-72047142D02*
X163350000Y-71904285D01*
X163350000Y-71904285D02*
X163397619Y-71856666D01*
X163302380Y-71523332D02*
X163302380Y-70904285D01*
X163302380Y-70904285D02*
X163683333Y-71237618D01*
X163683333Y-71237618D02*
X163683333Y-71094761D01*
X163683333Y-71094761D02*
X163730952Y-70999523D01*
X163730952Y-70999523D02*
X163778571Y-70951904D01*
X163778571Y-70951904D02*
X163873809Y-70904285D01*
X163873809Y-70904285D02*
X164111904Y-70904285D01*
X164111904Y-70904285D02*
X164207142Y-70951904D01*
X164207142Y-70951904D02*
X164254761Y-70999523D01*
X164254761Y-70999523D02*
X164302380Y-71094761D01*
X164302380Y-71094761D02*
X164302380Y-71380475D01*
X164302380Y-71380475D02*
X164254761Y-71475713D01*
X164254761Y-71475713D02*
X164207142Y-71523332D01*
X96491333Y-103462380D02*
X96158000Y-102986190D01*
X95919905Y-103462380D02*
X95919905Y-102462380D01*
X95919905Y-102462380D02*
X96300857Y-102462380D01*
X96300857Y-102462380D02*
X96396095Y-102510000D01*
X96396095Y-102510000D02*
X96443714Y-102557619D01*
X96443714Y-102557619D02*
X96491333Y-102652857D01*
X96491333Y-102652857D02*
X96491333Y-102795714D01*
X96491333Y-102795714D02*
X96443714Y-102890952D01*
X96443714Y-102890952D02*
X96396095Y-102938571D01*
X96396095Y-102938571D02*
X96300857Y-102986190D01*
X96300857Y-102986190D02*
X95919905Y-102986190D01*
X97062762Y-102890952D02*
X96967524Y-102843333D01*
X96967524Y-102843333D02*
X96919905Y-102795714D01*
X96919905Y-102795714D02*
X96872286Y-102700476D01*
X96872286Y-102700476D02*
X96872286Y-102652857D01*
X96872286Y-102652857D02*
X96919905Y-102557619D01*
X96919905Y-102557619D02*
X96967524Y-102510000D01*
X96967524Y-102510000D02*
X97062762Y-102462380D01*
X97062762Y-102462380D02*
X97253238Y-102462380D01*
X97253238Y-102462380D02*
X97348476Y-102510000D01*
X97348476Y-102510000D02*
X97396095Y-102557619D01*
X97396095Y-102557619D02*
X97443714Y-102652857D01*
X97443714Y-102652857D02*
X97443714Y-102700476D01*
X97443714Y-102700476D02*
X97396095Y-102795714D01*
X97396095Y-102795714D02*
X97348476Y-102843333D01*
X97348476Y-102843333D02*
X97253238Y-102890952D01*
X97253238Y-102890952D02*
X97062762Y-102890952D01*
X97062762Y-102890952D02*
X96967524Y-102938571D01*
X96967524Y-102938571D02*
X96919905Y-102986190D01*
X96919905Y-102986190D02*
X96872286Y-103081428D01*
X96872286Y-103081428D02*
X96872286Y-103271904D01*
X96872286Y-103271904D02*
X96919905Y-103367142D01*
X96919905Y-103367142D02*
X96967524Y-103414761D01*
X96967524Y-103414761D02*
X97062762Y-103462380D01*
X97062762Y-103462380D02*
X97253238Y-103462380D01*
X97253238Y-103462380D02*
X97348476Y-103414761D01*
X97348476Y-103414761D02*
X97396095Y-103367142D01*
X97396095Y-103367142D02*
X97443714Y-103271904D01*
X97443714Y-103271904D02*
X97443714Y-103081428D01*
X97443714Y-103081428D02*
X97396095Y-102986190D01*
X97396095Y-102986190D02*
X97348476Y-102938571D01*
X97348476Y-102938571D02*
X97253238Y-102890952D01*
X143251666Y-72097380D02*
X143251666Y-72811666D01*
X143251666Y-72811666D02*
X143204047Y-72954523D01*
X143204047Y-72954523D02*
X143108809Y-73049761D01*
X143108809Y-73049761D02*
X142965952Y-73097380D01*
X142965952Y-73097380D02*
X142870714Y-73097380D01*
X143632619Y-72097380D02*
X144251666Y-72097380D01*
X144251666Y-72097380D02*
X143918333Y-72478333D01*
X143918333Y-72478333D02*
X144061190Y-72478333D01*
X144061190Y-72478333D02*
X144156428Y-72525952D01*
X144156428Y-72525952D02*
X144204047Y-72573571D01*
X144204047Y-72573571D02*
X144251666Y-72668809D01*
X144251666Y-72668809D02*
X144251666Y-72906904D01*
X144251666Y-72906904D02*
X144204047Y-73002142D01*
X144204047Y-73002142D02*
X144156428Y-73049761D01*
X144156428Y-73049761D02*
X144061190Y-73097380D01*
X144061190Y-73097380D02*
X143775476Y-73097380D01*
X143775476Y-73097380D02*
X143680238Y-73049761D01*
X143680238Y-73049761D02*
X143632619Y-73002142D01*
D15*
X91800000Y-104605000D02*
X91060000Y-104605000D01*
X91060000Y-104605000D02*
X91060000Y-105105000D01*
X101221000Y-104845000D02*
X91300000Y-104845000D01*
X101221000Y-104845000D02*
X101221000Y-120205000D01*
X98261000Y-104845000D02*
X98261000Y-120205000D01*
X93360000Y-104845000D02*
X93360000Y-120205000D01*
X91860000Y-104845000D02*
X91860000Y-120205000D01*
X91300000Y-104845000D02*
X91300000Y-120205000D01*
X94937000Y-111298000D02*
X94891000Y-111251000D01*
X94721000Y-111491000D02*
X94686000Y-111456000D01*
X97235000Y-113595000D02*
X97199000Y-113560000D01*
X97029000Y-113800000D02*
X96983000Y-113753000D01*
X94937000Y-116378000D02*
X94891000Y-116331000D01*
X94721000Y-116571000D02*
X94686000Y-116536000D01*
X97235000Y-118675000D02*
X97199000Y-118640000D01*
X97029000Y-118880000D02*
X96983000Y-118833000D01*
X101221000Y-120205000D02*
X91300000Y-120205000D01*
X96643999Y-105910001D02*
G75*
G03*
X95276958Y-105909574I-684000J-1534992D01*
G01*
X97494999Y-108128999D02*
G75*
G03*
X97495426Y-106761958I-1534992J684000D01*
G01*
X94425001Y-106761000D02*
G75*
G03*
X94279748Y-107473805I1535000J-683999D01*
G01*
X94280001Y-107445000D02*
G75*
G03*
X94425245Y-108128318I1679999J0D01*
G01*
X95276000Y-108980000D02*
G75*
G03*
X96643042Y-108980426I684000J1535000D01*
G01*
X97640000Y-112525000D02*
G75*
G03*
X97640000Y-112525000I-1680000J0D01*
G01*
X97640000Y-117605000D02*
G75*
G03*
X97640000Y-117605000I-1680000J0D01*
G01*
X136935000Y-119525000D02*
X136935000Y-120265000D01*
X136935000Y-120265000D02*
X137435000Y-120265000D01*
X137175000Y-110104000D02*
X137175000Y-120025000D01*
X137175000Y-110104000D02*
X152535000Y-110104000D01*
X137175000Y-113064000D02*
X152535000Y-113064000D01*
X137175000Y-117965000D02*
X152535000Y-117965000D01*
X137175000Y-119465000D02*
X152535000Y-119465000D01*
X137175000Y-120025000D02*
X152535000Y-120025000D01*
X143628000Y-116388000D02*
X143581000Y-116434000D01*
X143821000Y-116604000D02*
X143786000Y-116639000D01*
X145925000Y-114090000D02*
X145890000Y-114126000D01*
X146130000Y-114296000D02*
X146083000Y-114342000D01*
X148708000Y-116388000D02*
X148661000Y-116434000D01*
X148901000Y-116604000D02*
X148866000Y-116639000D01*
X151005000Y-114090000D02*
X150970000Y-114126000D01*
X151210000Y-114296000D02*
X151163000Y-114342000D01*
X152535000Y-110104000D02*
X152535000Y-120025000D01*
X138240001Y-114681001D02*
G75*
G03*
X138239574Y-116048042I1534992J-684000D01*
G01*
X140458999Y-113830001D02*
G75*
G03*
X139091958Y-113829574I-684000J-1534992D01*
G01*
X139091000Y-116899999D02*
G75*
G03*
X139803805Y-117045252I683999J1535000D01*
G01*
X139775000Y-117044999D02*
G75*
G03*
X140458318Y-116899755I0J1679999D01*
G01*
X141310000Y-116049000D02*
G75*
G03*
X141310426Y-114681958I-1535000J684000D01*
G01*
X146535000Y-115365000D02*
G75*
G03*
X146535000Y-115365000I-1680000J0D01*
G01*
X151615000Y-115365000D02*
G75*
G03*
X151615000Y-115365000I-1680000J0D01*
G01*
X158620000Y-72875000D02*
X158620000Y-72175000D01*
X158120000Y-71275000D02*
X158120000Y-70875000D01*
X157920000Y-72875000D02*
X158620000Y-72875000D01*
X157020000Y-72675000D02*
X154120000Y-72675000D01*
X157020000Y-69475000D02*
X154120000Y-69475000D01*
X154120000Y-72675000D02*
X154120000Y-72075000D01*
X154120000Y-69475000D02*
X154120000Y-70075000D01*
X195130000Y-93020000D02*
X193130000Y-93020000D01*
X195130000Y-93020000D02*
X195130000Y-97030000D01*
X193130000Y-93020000D02*
X193130000Y-97030000D01*
X101785000Y-93020000D02*
X99785000Y-93020000D01*
X101785000Y-93020000D02*
X101785000Y-97030000D01*
X99785000Y-93020000D02*
X99785000Y-97030000D01*
X158880000Y-97700000D02*
X160800000Y-97700000D01*
X160800000Y-97700000D02*
X160800000Y-95015000D01*
X158880000Y-95015000D02*
X158880000Y-97700000D01*
X191162742Y-90412500D02*
X191637258Y-90412500D01*
X191162742Y-91457500D02*
X191637258Y-91457500D01*
D10*
X128970000Y-77525000D02*
X128970000Y-77750000D01*
X128970000Y-77525000D02*
X129295000Y-77525000D01*
X128970000Y-77750000D02*
X127545000Y-77750000D01*
X128970000Y-84775000D02*
X128970000Y-84450000D01*
X128970000Y-84775000D02*
X129295000Y-84775000D01*
X136220000Y-77525000D02*
X135895000Y-77525000D01*
X136220000Y-77525000D02*
X136220000Y-77850000D01*
X136220000Y-84775000D02*
X135895000Y-84775000D01*
X136220000Y-84775000D02*
X136220000Y-84450000D01*
D15*
X171922742Y-71027500D02*
X172397258Y-71027500D01*
X171922742Y-72072500D02*
X172397258Y-72072500D01*
X127067258Y-102252500D02*
X126592742Y-102252500D01*
X127067258Y-101207500D02*
X126592742Y-101207500D01*
X146700000Y-90360000D02*
X146700000Y-89030000D01*
X148030000Y-90360000D02*
X146700000Y-90360000D01*
X149300000Y-90360000D02*
X154440000Y-90360000D01*
X149300000Y-90360000D02*
X149300000Y-87760000D01*
X154440000Y-90360000D02*
X154440000Y-85160000D01*
X146700000Y-87760000D02*
X146700000Y-85160000D01*
X149300000Y-87760000D02*
X146700000Y-87760000D01*
X146700000Y-85160000D02*
X154440000Y-85160000D01*
X98452742Y-91682500D02*
X98927258Y-91682500D01*
X98452742Y-92727500D02*
X98927258Y-92727500D01*
X127330000Y-97700000D02*
X129250000Y-97700000D01*
X129250000Y-97700000D02*
X129250000Y-95015000D01*
X127330000Y-95015000D02*
X127330000Y-97700000D01*
X139494420Y-80900000D02*
X139775580Y-80900000D01*
X139494420Y-81920000D02*
X139775580Y-81920000D01*
X188622742Y-99302500D02*
X189097258Y-99302500D01*
X188622742Y-100347500D02*
X189097258Y-100347500D01*
X139835000Y-69285000D02*
X139835000Y-70615000D01*
X138505000Y-69285000D02*
X139835000Y-69285000D01*
X137235000Y-69285000D02*
X124475000Y-69285000D01*
X137235000Y-69285000D02*
X137235000Y-71945000D01*
X124475000Y-69285000D02*
X124475000Y-71945000D01*
X137235000Y-71945000D02*
X124475000Y-71945000D01*
X123545700Y-74066342D02*
X123545700Y-74540858D01*
X122500700Y-74066342D02*
X122500700Y-74540858D01*
X104328334Y-91690000D02*
X104328334Y-98290000D01*
X104328334Y-91690000D02*
X124128334Y-91690000D01*
X104328334Y-100690000D02*
X104328334Y-107290000D01*
X108378334Y-99540000D02*
X107578334Y-99540000D01*
X108378334Y-99540000D02*
X108378334Y-103140000D01*
X109278334Y-105540000D02*
X111778334Y-105540000D01*
X109778334Y-97740000D02*
X113778334Y-97740000D01*
X109778334Y-101340000D02*
X109778334Y-97740000D01*
X111778334Y-93540000D02*
X109278334Y-93540000D01*
X111778334Y-93540000D02*
X111778334Y-97740000D01*
X111778334Y-101340000D02*
X111778334Y-105540000D01*
X113778334Y-97740000D02*
X113778334Y-101340000D01*
X113778334Y-101340000D02*
X109778334Y-97740000D01*
X113778334Y-101340000D02*
X109778334Y-101340000D01*
X115178334Y-99540000D02*
X115178334Y-103140000D01*
X115178334Y-99540000D02*
X116678334Y-99540000D01*
X115178334Y-103140000D02*
X108378334Y-103140000D01*
X116678334Y-99540000D02*
X121278334Y-97040000D01*
X119878334Y-100990000D02*
X119878334Y-103490000D01*
X124128334Y-91690000D02*
X124128334Y-107290000D01*
X124128334Y-107290000D02*
X104328334Y-107290000D01*
X190630000Y-97065000D02*
X192550000Y-97065000D01*
X192550000Y-97065000D02*
X192550000Y-94380000D01*
X190630000Y-94380000D02*
X190630000Y-97065000D01*
X163380000Y-93020000D02*
X161380000Y-93020000D01*
X163380000Y-93020000D02*
X163380000Y-97030000D01*
X161380000Y-93020000D02*
X161380000Y-97030000D01*
X135210000Y-91690000D02*
X135210000Y-98290000D01*
X135210000Y-91690000D02*
X155010000Y-91690000D01*
X135210000Y-100690000D02*
X135210000Y-107290000D01*
X139260000Y-99540000D02*
X138460000Y-99540000D01*
X139260000Y-99540000D02*
X139260000Y-103140000D01*
X140160000Y-105540000D02*
X142660000Y-105540000D01*
X140660000Y-97740000D02*
X144660000Y-97740000D01*
X140660000Y-101340000D02*
X140660000Y-97740000D01*
X142660000Y-93540000D02*
X140160000Y-93540000D01*
X142660000Y-93540000D02*
X142660000Y-97740000D01*
X142660000Y-101340000D02*
X142660000Y-105540000D01*
X144660000Y-97740000D02*
X144660000Y-101340000D01*
X144660000Y-101340000D02*
X140660000Y-97740000D01*
X144660000Y-101340000D02*
X140660000Y-101340000D01*
X146060000Y-99540000D02*
X146060000Y-103140000D01*
X146060000Y-99540000D02*
X147560000Y-99540000D01*
X146060000Y-103140000D02*
X139260000Y-103140000D01*
X147560000Y-99540000D02*
X152160000Y-97040000D01*
X150760000Y-100990000D02*
X150760000Y-103490000D01*
X155010000Y-91690000D02*
X155010000Y-107290000D01*
X155010000Y-107290000D02*
X135210000Y-107290000D01*
X189097258Y-102252500D02*
X188622742Y-102252500D01*
X189097258Y-101207500D02*
X188622742Y-101207500D01*
X126592742Y-99302500D02*
X127067258Y-99302500D01*
X126592742Y-100347500D02*
X127067258Y-100347500D01*
X144594100Y-87189400D02*
X144594100Y-85269400D01*
X144594100Y-85269400D02*
X141909100Y-85269400D01*
X141909100Y-87189400D02*
X144594100Y-87189400D01*
X152620000Y-72875000D02*
X152620000Y-72175000D01*
X152120000Y-71275000D02*
X152120000Y-70875000D01*
X151920000Y-72875000D02*
X152620000Y-72875000D01*
X151020000Y-72675000D02*
X148120000Y-72675000D01*
X151020000Y-69475000D02*
X148120000Y-69475000D01*
X148120000Y-72675000D02*
X148120000Y-72075000D01*
X148120000Y-69475000D02*
X148120000Y-70075000D01*
X198318334Y-119525000D02*
X198318334Y-120265000D01*
X198318334Y-120265000D02*
X198818334Y-120265000D01*
X198558334Y-110104000D02*
X198558334Y-120025000D01*
X198558334Y-110104000D02*
X213918334Y-110104000D01*
X198558334Y-113064000D02*
X213918334Y-113064000D01*
X198558334Y-117965000D02*
X213918334Y-117965000D01*
X198558334Y-119465000D02*
X213918334Y-119465000D01*
X198558334Y-120025000D02*
X213918334Y-120025000D01*
X205011334Y-116388000D02*
X204964334Y-116434000D01*
X205204334Y-116604000D02*
X205169334Y-116639000D01*
X207308334Y-114090000D02*
X207273334Y-114126000D01*
X207513334Y-114296000D02*
X207466334Y-114342000D01*
X210091334Y-116388000D02*
X210044334Y-116434000D01*
X210284334Y-116604000D02*
X210249334Y-116639000D01*
X212388334Y-114090000D02*
X212353334Y-114126000D01*
X212593334Y-114296000D02*
X212546334Y-114342000D01*
X213918334Y-110104000D02*
X213918334Y-120025000D01*
X199623335Y-114681001D02*
G75*
G03*
X199622908Y-116048042I1534992J-684000D01*
G01*
X201842333Y-113830001D02*
G75*
G03*
X200475292Y-113829574I-684000J-1534992D01*
G01*
X200474334Y-116899999D02*
G75*
G03*
X201187139Y-117045252I683999J1535000D01*
G01*
X201158334Y-117044999D02*
G75*
G03*
X201841652Y-116899755I0J1679999D01*
G01*
X202693334Y-116049000D02*
G75*
G03*
X202693760Y-114681958I-1535000J684000D01*
G01*
X207918334Y-115365000D02*
G75*
G03*
X207918334Y-115365000I-1680000J0D01*
G01*
X212998334Y-115365000D02*
G75*
G03*
X212998334Y-115365000I-1680000J0D01*
G01*
X136042500Y-73997742D02*
X136042500Y-74472258D01*
X134997500Y-73997742D02*
X134997500Y-74472258D01*
X176662500Y-75970000D02*
X178462500Y-75970000D01*
X176662500Y-75970000D02*
X175862500Y-75970000D01*
X176662500Y-72850000D02*
X177462500Y-72850000D01*
X176662500Y-72850000D02*
X175862500Y-72850000D01*
X139494420Y-82805000D02*
X139775580Y-82805000D01*
X139494420Y-83825000D02*
X139775580Y-83825000D01*
X100836200Y-84805000D02*
X100836200Y-82765000D01*
X99887200Y-82765000D02*
X100836200Y-82765000D01*
X99887200Y-82765000D02*
X99887200Y-76445000D01*
X109367200Y-82765000D02*
X111107200Y-82765000D01*
X111107200Y-82765000D02*
X111107200Y-76445000D01*
X99887200Y-76445000D02*
X101626200Y-76445000D01*
X109367200Y-76445000D02*
X111107200Y-76445000D01*
X157887742Y-99302500D02*
X158362258Y-99302500D01*
X157887742Y-100347500D02*
X158362258Y-100347500D01*
X160237742Y-91047500D02*
X160712258Y-91047500D01*
X160237742Y-92092500D02*
X160712258Y-92092500D01*
X197637500Y-80012742D02*
X197637500Y-80487258D01*
X196592500Y-80012742D02*
X196592500Y-80487258D01*
D14*
X200411200Y-76548200D02*
X200411200Y-68848200D01*
D16*
X195941200Y-75568200D02*
X195941200Y-69248200D01*
D14*
X191471200Y-76548200D02*
X200411200Y-76548200D01*
X191471200Y-76548200D02*
X191471200Y-68848200D01*
X191471200Y-68848200D02*
X200411200Y-68848200D01*
D15*
X166995000Y-72056252D02*
X166995000Y-70633748D01*
X168815000Y-72056252D02*
X168815000Y-70633748D01*
X139346742Y-85808500D02*
X139821258Y-85808500D01*
X139346742Y-86853500D02*
X139821258Y-86853500D01*
X128497742Y-91047500D02*
X128972258Y-91047500D01*
X128497742Y-92092500D02*
X128972258Y-92092500D01*
X177241252Y-71825000D02*
X175818748Y-71825000D01*
X177241252Y-70005000D02*
X175818748Y-70005000D01*
X210950600Y-73747000D02*
X210290600Y-73747000D01*
X210950600Y-72017000D02*
X210950600Y-73747000D01*
X210950600Y-69447000D02*
X210950600Y-69657000D01*
X208900600Y-74447000D02*
X208900600Y-74057000D01*
X208900600Y-74447000D02*
X208450600Y-74447000D01*
X203330600Y-73747000D02*
X203980600Y-73747000D01*
X203330600Y-72017000D02*
X203330600Y-73747000D01*
X203330600Y-69447000D02*
X203330600Y-69657000D01*
X124605000Y-87150000D02*
X126605000Y-87150000D01*
X126605000Y-87150000D02*
X127005000Y-87150000D01*
X124605000Y-86950000D02*
X124605000Y-85950000D01*
X126605000Y-86950000D02*
X124605000Y-86950000D01*
X126605000Y-86950000D02*
X127005000Y-86950000D01*
X127005000Y-85950000D02*
X127005000Y-86950000D01*
X127005000Y-85950000D02*
X127405000Y-85950000D01*
X124605000Y-84150000D02*
X124605000Y-83350000D01*
X124605000Y-83350000D02*
X126605000Y-83350000D01*
X126605000Y-83350000D02*
X127005000Y-83350000D01*
X127005000Y-83350000D02*
X127005000Y-84150000D01*
X100452500Y-99215000D02*
X98777500Y-99215000D01*
X100452500Y-99215000D02*
X101102500Y-99215000D01*
X100452500Y-102335000D02*
X99802500Y-102335000D01*
X100452500Y-102335000D02*
X101102500Y-102335000D01*
X125450580Y-81285000D02*
X125169420Y-81285000D01*
X125450580Y-80265000D02*
X125169420Y-80265000D01*
X125524420Y-74550000D02*
X125805580Y-74550000D01*
X125524420Y-75570000D02*
X125805580Y-75570000D01*
X194462500Y-80012742D02*
X194462500Y-80487258D01*
X193417500Y-80012742D02*
X193417500Y-80487258D01*
X134137500Y-73997742D02*
X134137500Y-74472258D01*
X133092500Y-73997742D02*
X133092500Y-74472258D01*
X172675000Y-73040000D02*
X170755000Y-73040000D01*
X170755000Y-73040000D02*
X170755000Y-75725000D01*
X172675000Y-75725000D02*
X172675000Y-73040000D01*
X166091666Y-91690000D02*
X166091666Y-98290000D01*
X166091666Y-91690000D02*
X185891666Y-91690000D01*
X166091666Y-100690000D02*
X166091666Y-107290000D01*
X170141666Y-99540000D02*
X169341666Y-99540000D01*
X170141666Y-99540000D02*
X170141666Y-103140000D01*
X171041666Y-105540000D02*
X173541666Y-105540000D01*
X171541666Y-97740000D02*
X175541666Y-97740000D01*
X171541666Y-101340000D02*
X171541666Y-97740000D01*
X173541666Y-93540000D02*
X171041666Y-93540000D01*
X173541666Y-93540000D02*
X173541666Y-97740000D01*
X173541666Y-101340000D02*
X173541666Y-105540000D01*
X175541666Y-97740000D02*
X175541666Y-101340000D01*
X175541666Y-101340000D02*
X171541666Y-97740000D01*
X175541666Y-101340000D02*
X171541666Y-101340000D01*
X176941666Y-99540000D02*
X176941666Y-103140000D01*
X176941666Y-99540000D02*
X178441666Y-99540000D01*
X176941666Y-103140000D02*
X170141666Y-103140000D01*
X178441666Y-99540000D02*
X183041666Y-97040000D01*
X181641666Y-100990000D02*
X181641666Y-103490000D01*
X185891666Y-91690000D02*
X185891666Y-107290000D01*
X185891666Y-107290000D02*
X166091666Y-107290000D01*
X167626666Y-119525000D02*
X167626666Y-120265000D01*
X167626666Y-120265000D02*
X168126666Y-120265000D01*
X167866666Y-110104000D02*
X167866666Y-120025000D01*
X167866666Y-110104000D02*
X183226666Y-110104000D01*
X167866666Y-113064000D02*
X183226666Y-113064000D01*
X167866666Y-117965000D02*
X183226666Y-117965000D01*
X167866666Y-119465000D02*
X183226666Y-119465000D01*
X167866666Y-120025000D02*
X183226666Y-120025000D01*
X174319666Y-116388000D02*
X174272666Y-116434000D01*
X174512666Y-116604000D02*
X174477666Y-116639000D01*
X176616666Y-114090000D02*
X176581666Y-114126000D01*
X176821666Y-114296000D02*
X176774666Y-114342000D01*
X179399666Y-116388000D02*
X179352666Y-116434000D01*
X179592666Y-116604000D02*
X179557666Y-116639000D01*
X181696666Y-114090000D02*
X181661666Y-114126000D01*
X181901666Y-114296000D02*
X181854666Y-114342000D01*
X183226666Y-110104000D02*
X183226666Y-120025000D01*
X168931667Y-114681001D02*
G75*
G03*
X168931240Y-116048042I1534992J-684000D01*
G01*
X171150665Y-113830001D02*
G75*
G03*
X169783624Y-113829574I-684000J-1534992D01*
G01*
X169782666Y-116899999D02*
G75*
G03*
X170495471Y-117045252I683999J1535000D01*
G01*
X170466666Y-117044999D02*
G75*
G03*
X171149984Y-116899755I0J1679999D01*
G01*
X172001666Y-116049000D02*
G75*
G03*
X172002092Y-114681958I-1535000J684000D01*
G01*
X177226666Y-115365000D02*
G75*
G03*
X177226666Y-115365000I-1680000J0D01*
G01*
X182306666Y-115365000D02*
G75*
G03*
X182306666Y-115365000I-1680000J0D01*
G01*
X161745000Y-98900000D02*
X160070000Y-98900000D01*
X161745000Y-98900000D02*
X162395000Y-98900000D01*
X161745000Y-102020000D02*
X161095000Y-102020000D01*
X161745000Y-102020000D02*
X162395000Y-102020000D01*
X97285000Y-98032500D02*
X99205000Y-98032500D01*
X99205000Y-98032500D02*
X99205000Y-95347500D01*
X97285000Y-95347500D02*
X97285000Y-98032500D01*
X130527500Y-98900000D02*
X128852500Y-98900000D01*
X130527500Y-98900000D02*
X131177500Y-98900000D01*
X130527500Y-102020000D02*
X129877500Y-102020000D01*
X130527500Y-102020000D02*
X131177500Y-102020000D01*
X113175000Y-82475000D02*
X113175000Y-76175000D01*
X113425000Y-82475000D02*
X113175000Y-82475000D01*
X117925000Y-82475000D02*
X115325000Y-82475000D01*
X120075000Y-82475000D02*
X119825000Y-82475000D01*
X113175000Y-76175000D02*
X113425000Y-76175000D01*
X115325000Y-76175000D02*
X117925000Y-76175000D01*
X119825000Y-76175000D02*
X120075000Y-76175000D01*
X120075000Y-76175000D02*
X120075000Y-82475000D01*
X106236785Y-119525000D02*
X106236785Y-120265000D01*
X106236785Y-120265000D02*
X106736785Y-120265000D01*
X106476785Y-110104000D02*
X106476785Y-120025000D01*
X106476785Y-110104000D02*
X121836785Y-110104000D01*
X106476785Y-113064000D02*
X121836785Y-113064000D01*
X106476785Y-117965000D02*
X121836785Y-117965000D01*
X106476785Y-119465000D02*
X121836785Y-119465000D01*
X106476785Y-120025000D02*
X121836785Y-120025000D01*
X112929785Y-116388000D02*
X112882785Y-116434000D01*
X113122785Y-116604000D02*
X113087785Y-116639000D01*
X115226785Y-114090000D02*
X115191785Y-114126000D01*
X115431785Y-114296000D02*
X115384785Y-114342000D01*
X118009785Y-116388000D02*
X117962785Y-116434000D01*
X118202785Y-116604000D02*
X118167785Y-116639000D01*
X120306785Y-114090000D02*
X120271785Y-114126000D01*
X120511785Y-114296000D02*
X120464785Y-114342000D01*
X121836785Y-110104000D02*
X121836785Y-120025000D01*
X107541786Y-114681001D02*
G75*
G03*
X107541359Y-116048042I1534992J-684000D01*
G01*
X109760784Y-113830001D02*
G75*
G03*
X108393743Y-113829574I-684000J-1534992D01*
G01*
X108392785Y-116899999D02*
G75*
G03*
X109105590Y-117045252I683999J1535000D01*
G01*
X109076785Y-117044999D02*
G75*
G03*
X109760103Y-116899755I0J1679999D01*
G01*
X110611785Y-116049000D02*
G75*
G03*
X110612211Y-114681958I-1535000J684000D01*
G01*
X115836785Y-115365000D02*
G75*
G03*
X115836785Y-115365000I-1680000J0D01*
G01*
X120916785Y-115365000D02*
G75*
G03*
X120916785Y-115365000I-1680000J0D01*
G01*
X131830000Y-93020000D02*
X129830000Y-93020000D01*
X131830000Y-93020000D02*
X131830000Y-97030000D01*
X129830000Y-93020000D02*
X129830000Y-97030000D01*
X196973334Y-91690000D02*
X196973334Y-98290000D01*
X196973334Y-91690000D02*
X216773334Y-91690000D01*
X196973334Y-100690000D02*
X196973334Y-107290000D01*
X201023334Y-99540000D02*
X200223334Y-99540000D01*
X201023334Y-99540000D02*
X201023334Y-103140000D01*
X201923334Y-105540000D02*
X204423334Y-105540000D01*
X202423334Y-97740000D02*
X206423334Y-97740000D01*
X202423334Y-101340000D02*
X202423334Y-97740000D01*
X204423334Y-93540000D02*
X201923334Y-93540000D01*
X204423334Y-93540000D02*
X204423334Y-97740000D01*
X204423334Y-101340000D02*
X204423334Y-105540000D01*
X206423334Y-97740000D02*
X206423334Y-101340000D01*
X206423334Y-101340000D02*
X202423334Y-97740000D01*
X206423334Y-101340000D02*
X202423334Y-101340000D01*
X207823334Y-99540000D02*
X207823334Y-103140000D01*
X207823334Y-99540000D02*
X209323334Y-99540000D01*
X207823334Y-103140000D02*
X201023334Y-103140000D01*
X209323334Y-99540000D02*
X213923334Y-97040000D01*
X212523334Y-100990000D02*
X212523334Y-103490000D01*
X216773334Y-91690000D02*
X216773334Y-107290000D01*
X216773334Y-107290000D02*
X196973334Y-107290000D01*
X169925000Y-76360000D02*
X167125000Y-76360000D01*
X169925000Y-74360000D02*
X169925000Y-76360000D01*
X167125000Y-76360000D02*
X167125000Y-74360000D01*
X167125000Y-74360000D02*
X169925000Y-74360000D01*
X188180000Y-69630000D02*
X188180000Y-68990000D01*
X188180000Y-68990000D02*
X187780000Y-68990000D01*
X187940000Y-76950000D02*
X187940000Y-69230000D01*
X187940000Y-76950000D02*
X180820000Y-76950000D01*
X187940000Y-70790000D02*
X180820000Y-70790000D01*
X187940000Y-69690000D02*
X180820000Y-69690000D01*
X187940000Y-69230000D02*
X180820000Y-69230000D01*
X183775000Y-72849000D02*
X183904000Y-72721000D01*
X183605000Y-72609000D02*
X183699000Y-72516000D01*
X181560000Y-75065000D02*
X181654000Y-74971000D01*
X181355000Y-74859000D02*
X181484000Y-74731000D01*
X180820000Y-76950000D02*
X180820000Y-69230000D01*
X187570000Y-74656000D02*
G75*
G03*
X187555358Y-72900106I-1439998J866000D01*
G01*
X185264000Y-75230000D02*
G75*
G03*
X187019894Y-75215358I866000J1439998D01*
G01*
X186996000Y-72350000D02*
G75*
G03*
X186101326Y-72109902I-866003J-1440014D01*
G01*
X186130000Y-72110001D02*
G75*
G03*
X185239736Y-72365280I-3J-1679989D01*
G01*
X184705001Y-72899001D02*
G75*
G03*
X184704497Y-74680192I1425002J-890999D01*
G01*
X184310000Y-73790000D02*
G75*
G03*
X184310000Y-73790000I-1680000J0D01*
G01*
X158172258Y-102252500D02*
X157697742Y-102252500D01*
X158172258Y-101207500D02*
X157697742Y-101207500D01*
X192557500Y-98900000D02*
X190882500Y-98900000D01*
X192557500Y-98900000D02*
X193207500Y-98900000D01*
X192557500Y-102020000D02*
X191907500Y-102020000D01*
X192557500Y-102020000D02*
X193207500Y-102020000D01*
X96517742Y-99302500D02*
X96992258Y-99302500D01*
X96517742Y-100347500D02*
X96992258Y-100347500D01*
X164855000Y-71830580D02*
X164855000Y-71549420D01*
X165875000Y-71830580D02*
X165875000Y-71549420D01*
X96958258Y-102144300D02*
X96483742Y-102144300D01*
X96958258Y-101099300D02*
X96483742Y-101099300D01*
X142255000Y-73730000D02*
X143585000Y-73730000D01*
X142255000Y-75060000D02*
X142255000Y-73730000D01*
X142255000Y-76330000D02*
X142255000Y-84010000D01*
X142255000Y-76330000D02*
X144915000Y-76330000D01*
X142255000Y-84010000D02*
X144915000Y-84010000D01*
X144915000Y-76330000D02*
X144915000Y-84010000D01*
%LPC*%
D17*
X95959999Y-107444999D03*
D18*
X95960000Y-112525000D03*
X95960000Y-117605000D03*
D17*
X139774999Y-115364999D03*
D18*
X144855000Y-115365000D03*
X149935000Y-115365000D03*
D19*
X157819999Y-72074999D03*
D20*
X154569999Y-71074999D03*
D19*
X157819999Y-70074999D03*
D21*
X190638000Y-113364800D03*
D22*
X194130000Y-93730000D03*
X194130000Y-97030000D03*
X100785000Y-93730000D03*
X100785000Y-97030000D03*
D23*
X159840000Y-96952500D03*
X159840000Y-95077500D03*
D24*
X190575000Y-90935000D03*
X192225000Y-90935000D03*
D25*
X128344999Y-78349999D03*
X128344999Y-79149999D03*
X128344999Y-79949999D03*
X128344999Y-80749999D03*
X128344999Y-81549999D03*
X128344999Y-82349999D03*
X128344999Y-83149999D03*
X128344999Y-83949999D03*
D26*
X129794999Y-85399999D03*
X130594999Y-85399999D03*
X131394999Y-85399999D03*
X132194999Y-85399999D03*
X132994999Y-85399999D03*
X133794999Y-85399999D03*
X134594999Y-85399999D03*
X135394999Y-85399999D03*
D25*
X136844999Y-83949999D03*
X136844999Y-83149999D03*
X136844999Y-82349999D03*
X136844999Y-81549999D03*
X136844999Y-80749999D03*
X136844999Y-79949999D03*
X136844999Y-79149999D03*
X136844999Y-78349999D03*
D26*
X135394999Y-76899999D03*
X134594999Y-76899999D03*
X133794999Y-76899999D03*
X132994999Y-76899999D03*
X132194999Y-76899999D03*
X131394999Y-76899999D03*
X130594999Y-76899999D03*
X129794999Y-76899999D03*
D24*
X171335000Y-71550000D03*
X172985000Y-71550000D03*
D27*
X127655000Y-101730000D03*
X126005000Y-101730000D03*
D28*
X148029999Y-89029999D03*
D29*
X148029999Y-86489999D03*
X150569999Y-89029999D03*
X150569999Y-86489999D03*
X153109999Y-89029999D03*
X153109999Y-86489999D03*
D24*
X97865000Y-92205000D03*
X99515000Y-92205000D03*
D23*
X128290000Y-96952500D03*
X128290000Y-95077500D03*
D30*
X138860000Y-81410000D03*
X140410000Y-81410000D03*
D24*
X188035000Y-99825000D03*
X189685000Y-99825000D03*
D28*
X138504999Y-70614999D03*
D29*
X135964999Y-70614999D03*
X133424999Y-70614999D03*
X130884999Y-70614999D03*
X128344999Y-70614999D03*
X125804999Y-70614999D03*
D31*
X123023200Y-73478600D03*
X123023200Y-75128600D03*
D32*
X105728334Y-99490000D03*
D33*
X107678334Y-105540000D03*
D32*
X119878334Y-105540000D03*
D33*
X107678334Y-93540000D03*
D23*
X191590000Y-96317500D03*
X191590000Y-94442500D03*
D22*
X162380000Y-93730000D03*
X162380000Y-97030000D03*
D32*
X136610000Y-99490000D03*
D33*
X138560000Y-105540000D03*
D32*
X150760000Y-105540000D03*
D33*
X138560000Y-93540000D03*
D34*
X92594000Y-71070000D03*
D27*
X189685000Y-101730000D03*
X188035000Y-101730000D03*
D24*
X126005000Y-99825000D03*
X127655000Y-99825000D03*
D35*
X143846600Y-86229400D03*
X141971600Y-86229400D03*
D19*
X151819999Y-72074999D03*
D20*
X148569999Y-71074999D03*
D19*
X151819999Y-70074999D03*
D17*
X201158333Y-115364999D03*
D18*
X206238334Y-115365000D03*
X211318334Y-115365000D03*
D31*
X135520000Y-73410000D03*
X135520000Y-75060000D03*
D36*
X177800000Y-75360000D03*
X177800000Y-74410000D03*
X177800000Y-73460000D03*
X175525000Y-73460000D03*
X175525000Y-75360000D03*
D30*
X138860000Y-83315000D03*
X140410000Y-83315000D03*
D37*
X101687199Y-84054999D03*
X104227199Y-84054999D03*
X106767199Y-84054999D03*
X109307199Y-84054999D03*
X109307199Y-75154999D03*
X106767199Y-75154999D03*
X104227199Y-75154999D03*
X101687199Y-75154999D03*
D24*
X157300000Y-99825000D03*
X158950000Y-99825000D03*
X159650000Y-91570000D03*
X161300000Y-91570000D03*
D31*
X197115000Y-79425000D03*
X197115000Y-81075000D03*
D38*
X199691200Y-75273200D03*
X192191200Y-75273200D03*
D39*
X199316199Y-76648199D03*
X198516199Y-76648199D03*
X197191199Y-76648199D03*
X196191199Y-76648199D03*
X195691199Y-76648199D03*
X194691199Y-76648199D03*
X193366199Y-76648199D03*
X192566199Y-76648199D03*
D40*
X192841199Y-76648199D03*
X193641199Y-76648199D03*
D39*
X194191199Y-76648199D03*
X195191199Y-76648199D03*
X196691199Y-76648199D03*
X197691199Y-76648199D03*
D40*
X198241199Y-76648199D03*
X199041199Y-76648199D03*
D41*
X201521200Y-75188200D03*
X201521200Y-70518200D03*
X190361200Y-75188200D03*
X190361200Y-70508200D03*
D42*
X167905000Y-72820000D03*
X167905000Y-69870000D03*
D24*
X138759000Y-86331000D03*
X140409000Y-86331000D03*
X127910000Y-91570000D03*
X129560000Y-91570000D03*
D43*
X178005000Y-70915000D03*
X175055000Y-70915000D03*
D44*
X208440599Y-73486999D03*
X207790599Y-73486999D03*
X207140599Y-73486999D03*
X206490599Y-73486999D03*
X205840599Y-73486999D03*
D45*
X210715599Y-70836999D03*
D46*
X209460599Y-73066999D03*
D47*
X208265599Y-70836999D03*
X206015599Y-70836999D03*
D46*
X204820599Y-73066999D03*
D45*
X203565599Y-70836999D03*
D48*
X125804999Y-86349999D03*
X125804999Y-85149999D03*
X125804999Y-83949999D03*
D49*
X99515000Y-99825000D03*
X99515000Y-101725000D03*
X101390000Y-100775000D03*
D50*
X126085000Y-80775000D03*
X124535000Y-80775000D03*
D30*
X124890000Y-75060000D03*
X126440000Y-75060000D03*
D31*
X193940000Y-79425000D03*
X193940000Y-81075000D03*
X133615000Y-73410000D03*
X133615000Y-75060000D03*
D51*
X171715000Y-73787500D03*
X171715000Y-75662500D03*
D32*
X167491666Y-99490000D03*
D33*
X169441666Y-105540000D03*
D32*
X181641666Y-105540000D03*
D33*
X169441666Y-93540000D03*
D17*
X170466665Y-115364999D03*
D18*
X175546666Y-115365000D03*
X180626666Y-115365000D03*
D34*
X214768000Y-71345000D03*
D49*
X160807500Y-99510000D03*
X160807500Y-101410000D03*
X162682500Y-100460000D03*
D23*
X98245000Y-97285000D03*
X98245000Y-95410000D03*
D49*
X129590000Y-99510000D03*
X129590000Y-101410000D03*
X131465000Y-100460000D03*
D52*
X114374999Y-83299999D03*
X114374999Y-75349999D03*
X118874999Y-83299999D03*
X118874999Y-75349999D03*
D17*
X109076784Y-115364999D03*
D18*
X114156785Y-115365000D03*
X119236785Y-115365000D03*
D22*
X130830000Y-93730000D03*
X130830000Y-97030000D03*
D32*
X198373334Y-99490000D03*
D33*
X200323334Y-105540000D03*
D32*
X212523334Y-105540000D03*
D33*
X200323334Y-93540000D03*
D53*
X169174999Y-75359999D03*
X167874999Y-75359999D03*
D54*
X186129999Y-73789999D03*
D55*
X182630000Y-73790000D03*
D27*
X158760000Y-101730000D03*
X157110000Y-101730000D03*
D49*
X191620000Y-99510000D03*
X191620000Y-101410000D03*
X193495000Y-100460000D03*
D21*
X129170000Y-113364800D03*
D24*
X95930000Y-99825000D03*
X97580000Y-99825000D03*
D56*
X165365000Y-72465000D03*
X165365000Y-70915000D03*
D27*
X97546000Y-101621800D03*
X95896000Y-101621800D03*
D28*
X143584999Y-75059999D03*
D29*
X143584999Y-77599999D03*
X143584999Y-80139999D03*
X143584999Y-82679999D03*
M02*
