G04 #@! TF.GenerationSoftware,KiCad,Pcbnew,(7.0.0)*
G04 #@! TF.CreationDate,2023-02-25T12:05:00-06:00*
G04 #@! TF.ProjectId,Autorelay,4175746f-7265-46c6-9179-2e6b69636164,1*
G04 #@! TF.SameCoordinates,Original*
G04 #@! TF.FileFunction,Soldermask,Bot*
G04 #@! TF.FilePolarity,Negative*
%FSLAX46Y46*%
G04 Gerber Fmt 4.6, Leading zero omitted, Abs format (unit mm)*
G04 Created by KiCad (PCBNEW (7.0.0)) date 2023-02-25 12:05:00*
%MOMM*%
%LPD*%
G01*
G04 APERTURE LIST*
G04 Aperture macros list*
%AMRoundRect*
0 Rectangle with rounded corners*
0 $1 Rounding radius*
0 $2 $3 $4 $5 $6 $7 $8 $9 X,Y pos of 4 corners*
0 Add a 4 corners polygon primitive as box body*
4,1,4,$2,$3,$4,$5,$6,$7,$8,$9,$2,$3,0*
0 Add four circle primitives for the rounded corners*
1,1,$1+$1,$2,$3*
1,1,$1+$1,$4,$5*
1,1,$1+$1,$6,$7*
1,1,$1+$1,$8,$9*
0 Add four rect primitives between the rounded corners*
20,1,$1+$1,$2,$3,$4,$5,0*
20,1,$1+$1,$4,$5,$6,$7,0*
20,1,$1+$1,$6,$7,$8,$9,0*
20,1,$1+$1,$8,$9,$2,$3,0*%
G04 Aperture macros list end*
%ADD10R,2.600000X2.600000*%
%ADD11C,2.600000*%
%ADD12C,2.200000*%
%ADD13R,1.700000X1.700000*%
%ADD14O,1.700000X1.700000*%
%ADD15C,3.000000*%
%ADD16C,2.500000*%
%ADD17C,3.800000*%
%ADD18C,0.670000*%
%ADD19RoundRect,0.500000X0.000000X0.600000X0.000000X0.600000X0.000000X-0.600000X0.000000X-0.600000X0*%
%ADD20O,1.050000X1.900000*%
%ADD21R,2.400000X2.400000*%
%ADD22C,2.400000*%
G04 APERTURE END LIST*
D10*
X95959999Y-107444999D03*
D11*
X95960000Y-112525000D03*
X95960000Y-117605000D03*
D10*
X139774999Y-115364999D03*
D11*
X144855000Y-115365000D03*
X149935000Y-115365000D03*
D12*
X190638000Y-113364800D03*
D13*
X148029999Y-89029999D03*
D14*
X148029999Y-86489999D03*
X150569999Y-89029999D03*
X150569999Y-86489999D03*
X153109999Y-89029999D03*
X153109999Y-86489999D03*
D13*
X138504999Y-70614999D03*
D14*
X135964999Y-70614999D03*
X133424999Y-70614999D03*
X130884999Y-70614999D03*
X128344999Y-70614999D03*
X125804999Y-70614999D03*
D15*
X105728334Y-99490000D03*
D16*
X107678334Y-105540000D03*
D15*
X119878334Y-105540000D03*
D16*
X107678334Y-93540000D03*
D15*
X136610000Y-99490000D03*
D16*
X138560000Y-105540000D03*
D15*
X150760000Y-105540000D03*
D16*
X138560000Y-93540000D03*
D17*
X92594000Y-71070000D03*
D10*
X201158333Y-115364999D03*
D11*
X206238334Y-115365000D03*
X211318334Y-115365000D03*
D18*
X199691200Y-75273200D03*
X192191200Y-75273200D03*
D19*
X201521200Y-75188200D03*
X201521200Y-70518200D03*
X190361200Y-75188200D03*
X190361200Y-70508200D03*
D20*
X210715599Y-70836999D03*
X203565599Y-70836999D03*
D15*
X167491666Y-99490000D03*
D16*
X169441666Y-105540000D03*
D15*
X181641666Y-105540000D03*
D16*
X169441666Y-93540000D03*
D10*
X170466665Y-115364999D03*
D11*
X175546666Y-115365000D03*
X180626666Y-115365000D03*
D17*
X214768000Y-71345000D03*
D10*
X109076784Y-115364999D03*
D11*
X114156785Y-115365000D03*
X119236785Y-115365000D03*
D15*
X198373334Y-99490000D03*
D16*
X200323334Y-105540000D03*
D15*
X212523334Y-105540000D03*
D16*
X200323334Y-93540000D03*
D21*
X186129999Y-73789999D03*
D22*
X182630000Y-73790000D03*
D12*
X129170000Y-113364800D03*
D13*
X143584999Y-75059999D03*
D14*
X143584999Y-77599999D03*
X143584999Y-80139999D03*
X143584999Y-82679999D03*
M02*
