G04 #@! TF.GenerationSoftware,KiCad,Pcbnew,(7.0.0)*
G04 #@! TF.CreationDate,2023-02-25T12:05:00-06:00*
G04 #@! TF.ProjectId,Autorelay,4175746f-7265-46c6-9179-2e6b69636164,1*
G04 #@! TF.SameCoordinates,Original*
G04 #@! TF.FileFunction,Copper,L2,Bot*
G04 #@! TF.FilePolarity,Positive*
%FSLAX46Y46*%
G04 Gerber Fmt 4.6, Leading zero omitted, Abs format (unit mm)*
G04 Created by KiCad (PCBNEW (7.0.0)) date 2023-02-25 12:05:00*
%MOMM*%
%LPD*%
G01*
G04 APERTURE LIST*
G04 Aperture macros list*
%AMRoundRect*
0 Rectangle with rounded corners*
0 $1 Rounding radius*
0 $2 $3 $4 $5 $6 $7 $8 $9 X,Y pos of 4 corners*
0 Add a 4 corners polygon primitive as box body*
4,1,4,$2,$3,$4,$5,$6,$7,$8,$9,$2,$3,0*
0 Add four circle primitives for the rounded corners*
1,1,$1+$1,$2,$3*
1,1,$1+$1,$4,$5*
1,1,$1+$1,$6,$7*
1,1,$1+$1,$8,$9*
0 Add four rect primitives between the rounded corners*
20,1,$1+$1,$2,$3,$4,$5,0*
20,1,$1+$1,$4,$5,$6,$7,0*
20,1,$1+$1,$6,$7,$8,$9,0*
20,1,$1+$1,$8,$9,$2,$3,0*%
G04 Aperture macros list end*
G04 #@! TA.AperFunction,ComponentPad*
%ADD10R,2.600000X2.600000*%
G04 #@! TD*
G04 #@! TA.AperFunction,ComponentPad*
%ADD11C,2.600000*%
G04 #@! TD*
G04 #@! TA.AperFunction,ComponentPad*
%ADD12R,1.700000X1.700000*%
G04 #@! TD*
G04 #@! TA.AperFunction,ComponentPad*
%ADD13O,1.700000X1.700000*%
G04 #@! TD*
G04 #@! TA.AperFunction,ComponentPad*
%ADD14C,3.000000*%
G04 #@! TD*
G04 #@! TA.AperFunction,ComponentPad*
%ADD15C,2.500000*%
G04 #@! TD*
G04 #@! TA.AperFunction,ComponentPad*
%ADD16C,3.800000*%
G04 #@! TD*
G04 #@! TA.AperFunction,ComponentPad*
%ADD17RoundRect,0.500000X0.000000X0.600000X0.000000X0.600000X0.000000X-0.600000X0.000000X-0.600000X0*%
G04 #@! TD*
G04 #@! TA.AperFunction,ComponentPad*
%ADD18O,1.050000X1.900000*%
G04 #@! TD*
G04 #@! TA.AperFunction,ComponentPad*
%ADD19R,2.400000X2.400000*%
G04 #@! TD*
G04 #@! TA.AperFunction,ComponentPad*
%ADD20C,2.400000*%
G04 #@! TD*
G04 #@! TA.AperFunction,ViaPad*
%ADD21C,0.800000*%
G04 #@! TD*
G04 #@! TA.AperFunction,Conductor*
%ADD22C,0.400000*%
G04 #@! TD*
G04 #@! TA.AperFunction,Conductor*
%ADD23C,0.600000*%
G04 #@! TD*
G04 #@! TA.AperFunction,Conductor*
%ADD24C,0.200000*%
G04 #@! TD*
G04 #@! TA.AperFunction,Conductor*
%ADD25C,3.200000*%
G04 #@! TD*
G04 APERTURE END LIST*
D10*
X95959999Y-107444999D03*
D11*
X95960000Y-112525000D03*
X95960000Y-117605000D03*
D10*
X139774999Y-115364999D03*
D11*
X144855000Y-115365000D03*
X149935000Y-115365000D03*
D12*
X148029999Y-89029999D03*
D13*
X148029999Y-86489999D03*
X150569999Y-89029999D03*
X150569999Y-86489999D03*
X153109999Y-89029999D03*
X153109999Y-86489999D03*
D12*
X138504999Y-70614999D03*
D13*
X135964999Y-70614999D03*
X133424999Y-70614999D03*
X130884999Y-70614999D03*
X128344999Y-70614999D03*
X125804999Y-70614999D03*
D14*
X105728334Y-99490000D03*
D15*
X107678334Y-105540000D03*
D14*
X119878334Y-105540000D03*
D15*
X107678334Y-93540000D03*
D14*
X136610000Y-99490000D03*
D15*
X138560000Y-105540000D03*
D14*
X150760000Y-105540000D03*
D15*
X138560000Y-93540000D03*
D16*
X92594000Y-71070000D03*
D10*
X201158333Y-115364999D03*
D11*
X206238334Y-115365000D03*
X211318334Y-115365000D03*
D17*
X201521200Y-75188200D03*
X201521200Y-70518200D03*
X190361200Y-75188200D03*
X190361200Y-70508200D03*
D18*
X210715599Y-70836999D03*
X203565599Y-70836999D03*
D14*
X167491666Y-99490000D03*
D15*
X169441666Y-105540000D03*
D14*
X181641666Y-105540000D03*
D15*
X169441666Y-93540000D03*
D10*
X170466665Y-115364999D03*
D11*
X175546666Y-115365000D03*
X180626666Y-115365000D03*
D16*
X214768000Y-71345000D03*
D10*
X109076784Y-115364999D03*
D11*
X114156785Y-115365000D03*
X119236785Y-115365000D03*
D14*
X198373334Y-99490000D03*
D15*
X200323334Y-105540000D03*
D14*
X212523334Y-105540000D03*
D15*
X200323334Y-93540000D03*
D19*
X186129999Y-73789999D03*
D20*
X182630000Y-73790000D03*
D12*
X143584999Y-75059999D03*
D13*
X143584999Y-77599999D03*
X143584999Y-80139999D03*
X143584999Y-82679999D03*
D21*
X172604000Y-77745800D03*
X91933600Y-85670600D03*
X214463200Y-88515400D03*
X159904000Y-76323400D03*
X199375600Y-87905800D03*
X181240000Y-90598200D03*
X189926800Y-86483400D03*
X155941600Y-81098600D03*
X175956800Y-89429800D03*
X116673200Y-79371400D03*
X185862800Y-82368600D03*
X117333600Y-86889800D03*
X184542000Y-87855000D03*
X174280400Y-87499400D03*
X111237600Y-90649000D03*
X179462000Y-77745800D03*
X127950800Y-86686600D03*
X95032400Y-85569000D03*
X190130000Y-77898200D03*
X174077200Y-92427000D03*
X195464000Y-80946200D03*
X177684000Y-92427000D03*
X180681200Y-81301800D03*
X122769200Y-77796600D03*
X161275600Y-80539800D03*
X122159600Y-90547400D03*
X204862000Y-80743000D03*
X123785200Y-85772200D03*
X123175600Y-82419400D03*
X212736000Y-80692200D03*
X151776000Y-92325400D03*
X204404800Y-86178600D03*
X173010400Y-80539800D03*
X202931600Y-77745800D03*
X130795600Y-81200200D03*
X96251600Y-78050600D03*
X178242800Y-85213400D03*
X92136800Y-80438200D03*
X92543200Y-92427000D03*
X135062800Y-80844600D03*
X153604800Y-77085400D03*
X143546400Y-72259400D03*
X138974400Y-84553000D03*
X167828800Y-87905800D03*
X140142800Y-79371400D03*
X132726000Y-78304600D03*
X136993200Y-74455500D03*
X136231200Y-87042200D03*
X134910400Y-87397800D03*
X132274972Y-74679928D03*
X124953600Y-90293400D03*
X122515200Y-86534200D03*
X132929200Y-91360200D03*
X130236800Y-79219000D03*
X132014800Y-83587800D03*
X132116400Y-88464600D03*
D22*
X143546400Y-72259400D02*
X135069400Y-72259400D01*
X169454400Y-89531400D02*
X169441666Y-89518666D01*
D23*
X107678334Y-93540000D02*
X138560000Y-93540000D01*
X169441666Y-93540000D02*
X200323334Y-93540000D01*
D22*
X141311200Y-83791000D02*
X140549200Y-84553000D01*
X143585000Y-80140000D02*
X141311200Y-82413800D01*
X148030000Y-84585000D02*
X143585000Y-80140000D01*
X135069400Y-72259400D02*
X133425000Y-70615000D01*
X163612400Y-83689400D02*
X169403600Y-89480600D01*
X148030000Y-86490000D02*
X148030000Y-84585000D01*
D23*
X138560000Y-93540000D02*
X169441666Y-93540000D01*
D22*
X141311200Y-82413800D02*
X141311200Y-83791000D01*
X140549200Y-84553000D02*
X138974400Y-84553000D01*
X150830600Y-83689400D02*
X163612400Y-83689400D01*
X169441666Y-89518666D02*
X169441666Y-93540000D01*
X169403600Y-89531400D02*
X169454400Y-89531400D01*
X148030000Y-86490000D02*
X150830600Y-83689400D01*
X169403600Y-89480600D02*
X169403600Y-89531400D01*
D24*
X140142800Y-79371400D02*
X133792800Y-79371400D01*
X133792800Y-79371400D02*
X132726000Y-78304600D01*
X143585000Y-75060000D02*
X138879400Y-75060000D01*
X138364800Y-74545400D02*
X137083100Y-74545400D01*
X137083100Y-74545400D02*
X136993200Y-74455500D01*
X138879400Y-75060000D02*
X138364800Y-74545400D01*
X148030000Y-89030000D02*
X138219000Y-89030000D01*
X138219000Y-89030000D02*
X136231200Y-87042200D01*
X149420000Y-87640000D02*
X149420000Y-89940000D01*
X137704400Y-90191800D02*
X134910400Y-87397800D01*
X149168200Y-90191800D02*
X137704400Y-90191800D01*
X149420000Y-89940000D02*
X149168200Y-90191800D01*
X150570000Y-86490000D02*
X149420000Y-87640000D01*
D25*
X114163334Y-115365000D02*
X114163334Y-117203477D01*
X178108189Y-119765000D02*
X204340874Y-119765000D01*
X144855000Y-117203477D02*
X147416523Y-119765000D01*
X116724857Y-119765000D02*
X144175000Y-119765000D01*
X104733334Y-119815000D02*
X113433334Y-119815000D01*
X175546666Y-117203477D02*
X178108189Y-119765000D01*
X144855000Y-119085000D02*
X144855000Y-115365000D01*
X173104400Y-119765000D02*
X175546666Y-117322734D01*
X144855000Y-115365000D02*
X144855000Y-117203477D01*
X175546666Y-115365000D02*
X175546666Y-117203477D01*
X114163334Y-117203477D02*
X116724857Y-119765000D01*
X204340874Y-119765000D02*
X206238334Y-117867540D01*
X97443334Y-112525000D02*
X104733334Y-119815000D01*
X206238334Y-117867540D02*
X206238334Y-115365000D01*
X175546666Y-117322734D02*
X175546666Y-115365000D01*
X114163334Y-119085000D02*
X114163334Y-115365000D01*
X95960000Y-112525000D02*
X97443334Y-112525000D01*
X147416523Y-119765000D02*
X173104400Y-119765000D01*
X144175000Y-119765000D02*
X144855000Y-119085000D01*
X113433334Y-119815000D02*
X114163334Y-119085000D01*
D24*
X136688400Y-75307400D02*
X132902444Y-75307400D01*
X143585000Y-77600000D02*
X138981000Y-77600000D01*
X138981000Y-77600000D02*
X136688400Y-75307400D01*
X132902444Y-75307400D02*
X132274972Y-74679928D01*
X124953600Y-88972600D02*
X124953600Y-90293400D01*
X122515200Y-86534200D02*
X124953600Y-88972600D01*
X132929200Y-80235000D02*
X132929200Y-91360200D01*
X131913200Y-79219000D02*
X132319600Y-79625400D01*
X130236800Y-79219000D02*
X131557600Y-79219000D01*
X131557600Y-79219000D02*
X131913200Y-79219000D01*
X132319600Y-79625400D02*
X132929200Y-80235000D01*
X132116400Y-83689400D02*
X132014800Y-83587800D01*
X132116400Y-88464600D02*
X132116400Y-83689400D01*
D25*
X97773334Y-107445000D02*
X105728334Y-99490000D01*
X95960000Y-107445000D02*
X97773334Y-107445000D01*
X105728334Y-99490000D02*
X198373334Y-99490000D01*
G04 #@! TA.AperFunction,Conductor*
G36*
X217817500Y-68727113D02*
G01*
X217862887Y-68772500D01*
X217879500Y-68834500D01*
X217879500Y-93473347D01*
X217862984Y-93535179D01*
X217817835Y-93580540D01*
X217756081Y-93597346D01*
X202002827Y-93671160D01*
X201940582Y-93654741D01*
X201894956Y-93609329D01*
X201878246Y-93547161D01*
X201878246Y-93544854D01*
X201878628Y-93540000D01*
X201859480Y-93296698D01*
X201802506Y-93059388D01*
X201709111Y-92833911D01*
X201581593Y-92625821D01*
X201423093Y-92440241D01*
X201419385Y-92437074D01*
X201241223Y-92284909D01*
X201241218Y-92284905D01*
X201237513Y-92281741D01*
X201233357Y-92279194D01*
X201233354Y-92279192D01*
X201141708Y-92223031D01*
X201029423Y-92154223D01*
X201024928Y-92152361D01*
X201024920Y-92152357D01*
X200808451Y-92062694D01*
X200808450Y-92062693D01*
X200803946Y-92060828D01*
X200799209Y-92059690D01*
X200799207Y-92059690D01*
X200571365Y-92004989D01*
X200571360Y-92004988D01*
X200566636Y-92003854D01*
X200561789Y-92003472D01*
X200561786Y-92003472D01*
X200328188Y-91985088D01*
X200323334Y-91984706D01*
X200318480Y-91985088D01*
X200084881Y-92003472D01*
X200084876Y-92003472D01*
X200080032Y-92003854D01*
X200075309Y-92004987D01*
X200075302Y-92004989D01*
X199847460Y-92059690D01*
X199847454Y-92059691D01*
X199842722Y-92060828D01*
X199838220Y-92062692D01*
X199838216Y-92062694D01*
X199621747Y-92152357D01*
X199621734Y-92152363D01*
X199617245Y-92154223D01*
X199613091Y-92156768D01*
X199613090Y-92156769D01*
X199413313Y-92279192D01*
X199413304Y-92279198D01*
X199409155Y-92281741D01*
X199405455Y-92284900D01*
X199405444Y-92284909D01*
X199227282Y-92437074D01*
X199227275Y-92437080D01*
X199223575Y-92440241D01*
X199220414Y-92443941D01*
X199220408Y-92443948D01*
X199068243Y-92622110D01*
X199068234Y-92622121D01*
X199065075Y-92625821D01*
X199062532Y-92629970D01*
X199062526Y-92629979D01*
X198940103Y-92829756D01*
X198937557Y-92833911D01*
X198935697Y-92838400D01*
X198935691Y-92838413D01*
X198925528Y-92862952D01*
X198898649Y-92903181D01*
X198858420Y-92930061D01*
X198810967Y-92939500D01*
X170954033Y-92939500D01*
X170906580Y-92930061D01*
X170866351Y-92903181D01*
X170839472Y-92862952D01*
X170829308Y-92838413D01*
X170829306Y-92838410D01*
X170827443Y-92833911D01*
X170699925Y-92625821D01*
X170541425Y-92440241D01*
X170537717Y-92437074D01*
X170359555Y-92284909D01*
X170359550Y-92284905D01*
X170355845Y-92281741D01*
X170351689Y-92279194D01*
X170351686Y-92279192D01*
X170260040Y-92223031D01*
X170147755Y-92154223D01*
X170143260Y-92152361D01*
X170143252Y-92152357D01*
X170018714Y-92100773D01*
X169978485Y-92073893D01*
X169951605Y-92033665D01*
X169942166Y-91986212D01*
X169942166Y-89664557D01*
X169947189Y-89629623D01*
X169947500Y-89628563D01*
X169954900Y-89603361D01*
X169954900Y-89594489D01*
X169956162Y-89585713D01*
X169956277Y-89585729D01*
X169956356Y-89584994D01*
X169956241Y-89584986D01*
X169956873Y-89576139D01*
X169958759Y-89567473D01*
X169955215Y-89517938D01*
X169954900Y-89509092D01*
X169954900Y-89468308D01*
X169954900Y-89459439D01*
X169952400Y-89450928D01*
X169951138Y-89442149D01*
X169951253Y-89442132D01*
X169951122Y-89441407D01*
X169951008Y-89441432D01*
X169949123Y-89432769D01*
X169948491Y-89423917D01*
X169938876Y-89398139D01*
X169931141Y-89377400D01*
X169928344Y-89368999D01*
X169923103Y-89351148D01*
X169914353Y-89321347D01*
X169909556Y-89313884D01*
X169905874Y-89305819D01*
X169905980Y-89305770D01*
X169905647Y-89305106D01*
X169905545Y-89305163D01*
X169901296Y-89297383D01*
X169898196Y-89289069D01*
X169869573Y-89250833D01*
X169869573Y-89250832D01*
X169871202Y-89249613D01*
X169867517Y-89246332D01*
X169867043Y-89245293D01*
X169861234Y-89238590D01*
X169856649Y-89231456D01*
X169856185Y-89230836D01*
X169836543Y-89200272D01*
X169829842Y-89194465D01*
X169829838Y-89194461D01*
X169809091Y-89176484D01*
X169796579Y-89163973D01*
X169778599Y-89143223D01*
X169772794Y-89136523D01*
X169765335Y-89131728D01*
X169764906Y-89131357D01*
X169752399Y-89118850D01*
X169752100Y-89118505D01*
X169734728Y-89098457D01*
X169727268Y-89093663D01*
X169720565Y-89087854D01*
X169720640Y-89087766D01*
X169710027Y-89079213D01*
X168564402Y-87933588D01*
X168540596Y-87900190D01*
X168528987Y-87860853D01*
X168524967Y-87827747D01*
X168513940Y-87736928D01*
X168453618Y-87577870D01*
X168383983Y-87476987D01*
X168361242Y-87444041D01*
X168361241Y-87444040D01*
X168356983Y-87437871D01*
X168229652Y-87325066D01*
X168204623Y-87311929D01*
X168085666Y-87249495D01*
X168085662Y-87249493D01*
X168079025Y-87246010D01*
X168071747Y-87244216D01*
X168071744Y-87244215D01*
X167921137Y-87207094D01*
X167921132Y-87207093D01*
X167913856Y-87205300D01*
X167906356Y-87205300D01*
X167887476Y-87205300D01*
X167840023Y-87195861D01*
X167799795Y-87168981D01*
X164013785Y-83382971D01*
X164005235Y-83372361D01*
X164005148Y-83372437D01*
X163999334Y-83365728D01*
X163994543Y-83358272D01*
X163987844Y-83352467D01*
X163987842Y-83352465D01*
X163957015Y-83325754D01*
X163950536Y-83319722D01*
X163944130Y-83313316D01*
X163944129Y-83313315D01*
X163940993Y-83310179D01*
X163930185Y-83302088D01*
X163923307Y-83296547D01*
X163885773Y-83264023D01*
X163877707Y-83260339D01*
X163870245Y-83255543D01*
X163870307Y-83255446D01*
X163869667Y-83255066D01*
X163869612Y-83255168D01*
X163861831Y-83250919D01*
X163854731Y-83245604D01*
X163846423Y-83242505D01*
X163846421Y-83242504D01*
X163808190Y-83228245D01*
X163800013Y-83224857D01*
X163762927Y-83207920D01*
X163762924Y-83207919D01*
X163754857Y-83204235D01*
X163746076Y-83202972D01*
X163737571Y-83200475D01*
X163737603Y-83200364D01*
X163736879Y-83200179D01*
X163736855Y-83200292D01*
X163728189Y-83198406D01*
X163719883Y-83195309D01*
X163711042Y-83194676D01*
X163711040Y-83194676D01*
X163670346Y-83191765D01*
X163661555Y-83190820D01*
X163648199Y-83188900D01*
X163643770Y-83188900D01*
X163634708Y-83188900D01*
X163625861Y-83188584D01*
X163585173Y-83185673D01*
X163585167Y-83185673D01*
X163576327Y-83185041D01*
X163567662Y-83186925D01*
X163558814Y-83187559D01*
X163558805Y-83187443D01*
X163545256Y-83188900D01*
X150897744Y-83188900D01*
X150884194Y-83187443D01*
X150884186Y-83187559D01*
X150875337Y-83186925D01*
X150866673Y-83185041D01*
X150857831Y-83185673D01*
X150857826Y-83185673D01*
X150817139Y-83188584D01*
X150808292Y-83188900D01*
X150794801Y-83188900D01*
X150790419Y-83189529D01*
X150790417Y-83189530D01*
X150781444Y-83190820D01*
X150772654Y-83191765D01*
X150731962Y-83194676D01*
X150731960Y-83194676D01*
X150723117Y-83195309D01*
X150714808Y-83198407D01*
X150706145Y-83200292D01*
X150706120Y-83200179D01*
X150705394Y-83200364D01*
X150705427Y-83200475D01*
X150696919Y-83202972D01*
X150688143Y-83204235D01*
X150680082Y-83207916D01*
X150680076Y-83207918D01*
X150642966Y-83224866D01*
X150634796Y-83228249D01*
X150622053Y-83233002D01*
X150596579Y-83242504D01*
X150596576Y-83242505D01*
X150588269Y-83245604D01*
X150581168Y-83250919D01*
X150573387Y-83255168D01*
X150573332Y-83255067D01*
X150572691Y-83255448D01*
X150572753Y-83255544D01*
X150565289Y-83260340D01*
X150557227Y-83264023D01*
X150550530Y-83269825D01*
X150550525Y-83269829D01*
X150519707Y-83296532D01*
X150512830Y-83302074D01*
X150505560Y-83307517D01*
X150505542Y-83307532D01*
X150502007Y-83310179D01*
X150498883Y-83313302D01*
X150498878Y-83313307D01*
X150492458Y-83319727D01*
X150485985Y-83325753D01*
X150455159Y-83352465D01*
X150448457Y-83358272D01*
X150443664Y-83365728D01*
X150437855Y-83372433D01*
X150437767Y-83372357D01*
X150429214Y-83382970D01*
X148742181Y-85070005D01*
X148692818Y-85100255D01*
X148635102Y-85104797D01*
X148581615Y-85082642D01*
X148544015Y-85038619D01*
X148530500Y-84982324D01*
X148530500Y-84652144D01*
X148531956Y-84638594D01*
X148531841Y-84638586D01*
X148532473Y-84629739D01*
X148534359Y-84621073D01*
X148530815Y-84571538D01*
X148530500Y-84562692D01*
X148530500Y-84553636D01*
X148530500Y-84549201D01*
X148528578Y-84535837D01*
X148527633Y-84527046D01*
X148524091Y-84477517D01*
X148520990Y-84469204D01*
X148519106Y-84460540D01*
X148519220Y-84460515D01*
X148519037Y-84459798D01*
X148518925Y-84459832D01*
X148516427Y-84451326D01*
X148515165Y-84442543D01*
X148494530Y-84397360D01*
X148491159Y-84389222D01*
X148473796Y-84342669D01*
X148468478Y-84335565D01*
X148464230Y-84327785D01*
X148464332Y-84327729D01*
X148463953Y-84327090D01*
X148463855Y-84327154D01*
X148459061Y-84319695D01*
X148455377Y-84311627D01*
X148422852Y-84274091D01*
X148417298Y-84267198D01*
X148411878Y-84259958D01*
X148409220Y-84256407D01*
X148399683Y-84246870D01*
X148393651Y-84240391D01*
X148380375Y-84225070D01*
X148361128Y-84202857D01*
X148353666Y-84198061D01*
X148346965Y-84192255D01*
X148347040Y-84192167D01*
X148336428Y-84183615D01*
X144724519Y-80571705D01*
X144692181Y-80515194D01*
X144692933Y-80450091D01*
X144720756Y-80352310D01*
X144740429Y-80140000D01*
X144720756Y-79927690D01*
X144662405Y-79722611D01*
X144567366Y-79531745D01*
X144438872Y-79361593D01*
X144281302Y-79217948D01*
X144276438Y-79214936D01*
X144276435Y-79214934D01*
X144104890Y-79108718D01*
X144104889Y-79108717D01*
X144100019Y-79105702D01*
X144094681Y-79103634D01*
X144094677Y-79103632D01*
X143906545Y-79030750D01*
X143906540Y-79030748D01*
X143901198Y-79028679D01*
X143704388Y-78991888D01*
X143643636Y-78961637D01*
X143607908Y-78903934D01*
X143607908Y-78836066D01*
X143643636Y-78778363D01*
X143704388Y-78748111D01*
X143901198Y-78711321D01*
X144100019Y-78634298D01*
X144281302Y-78522052D01*
X144438872Y-78378407D01*
X144567366Y-78208255D01*
X144662405Y-78017389D01*
X144720756Y-77812310D01*
X144740429Y-77600000D01*
X144720756Y-77387690D01*
X144662405Y-77182611D01*
X144567366Y-76991745D01*
X144438872Y-76821593D01*
X144281302Y-76677948D01*
X144276438Y-76674936D01*
X144276435Y-76674934D01*
X144104890Y-76568718D01*
X144104889Y-76568717D01*
X144100019Y-76565702D01*
X144094681Y-76563634D01*
X144094677Y-76563632D01*
X143906545Y-76490750D01*
X143906540Y-76490748D01*
X143901198Y-76488679D01*
X143895560Y-76487625D01*
X143728459Y-76456388D01*
X143673505Y-76431105D01*
X143637052Y-76382832D01*
X143627773Y-76323058D01*
X143647877Y-76266006D01*
X143692580Y-76225253D01*
X143751242Y-76210499D01*
X144479864Y-76210499D01*
X144504991Y-76207585D01*
X144607765Y-76162206D01*
X144687206Y-76082765D01*
X144732585Y-75979991D01*
X144735500Y-75954865D01*
X144735500Y-75841953D01*
X189661201Y-75841953D01*
X189661456Y-75847586D01*
X189667015Y-75908770D01*
X189669561Y-75921569D01*
X189715948Y-76070432D01*
X189722064Y-76084020D01*
X189802245Y-76216656D01*
X189811428Y-76228377D01*
X189921022Y-76337971D01*
X189932742Y-76347154D01*
X190047093Y-76416281D01*
X190058185Y-76419463D01*
X190061200Y-76408325D01*
X190661200Y-76408325D01*
X190664214Y-76419463D01*
X190675306Y-76416281D01*
X190789657Y-76347154D01*
X190801377Y-76337971D01*
X190910971Y-76228377D01*
X190920154Y-76216656D01*
X191000335Y-76084020D01*
X191006451Y-76070432D01*
X191052838Y-75921572D01*
X191055384Y-75908768D01*
X191060944Y-75847584D01*
X191061200Y-75841956D01*
X191061200Y-75504526D01*
X191057749Y-75491650D01*
X191044874Y-75488200D01*
X190677526Y-75488200D01*
X190664650Y-75491650D01*
X190661200Y-75504526D01*
X190661200Y-76408325D01*
X190061200Y-76408325D01*
X190061200Y-75504526D01*
X190057749Y-75491650D01*
X190044874Y-75488200D01*
X189677527Y-75488200D01*
X189664651Y-75491650D01*
X189661201Y-75504526D01*
X189661201Y-75841953D01*
X144735500Y-75841953D01*
X144735499Y-74971239D01*
X181876705Y-74971239D01*
X181885134Y-74978760D01*
X182061192Y-75074038D01*
X182070546Y-75078141D01*
X182280290Y-75150146D01*
X182290199Y-75152655D01*
X182508929Y-75189155D01*
X182519127Y-75190000D01*
X182740873Y-75190000D01*
X182751070Y-75189155D01*
X182969800Y-75152655D01*
X182979709Y-75150146D01*
X183189452Y-75078141D01*
X183198805Y-75074039D01*
X183277776Y-75031302D01*
X184629500Y-75031302D01*
X184629501Y-75034864D01*
X184629912Y-75038411D01*
X184629913Y-75038422D01*
X184630064Y-75039720D01*
X184632415Y-75059991D01*
X184677794Y-75162765D01*
X184757235Y-75242206D01*
X184809178Y-75265141D01*
X184851477Y-75283818D01*
X184851478Y-75283818D01*
X184860009Y-75287585D01*
X184885135Y-75290500D01*
X187374864Y-75290499D01*
X187399991Y-75287585D01*
X187432570Y-75273200D01*
X191610734Y-75273200D01*
X191611795Y-75281259D01*
X191629451Y-75415376D01*
X191629452Y-75415382D01*
X191630513Y-75423436D01*
X191633622Y-75430942D01*
X191633623Y-75430945D01*
X191671547Y-75522500D01*
X191688502Y-75563433D01*
X191693445Y-75569874D01*
X191693448Y-75569880D01*
X191771586Y-75671710D01*
X191780749Y-75683651D01*
X191797508Y-75696511D01*
X191894519Y-75770951D01*
X191894522Y-75770953D01*
X191900967Y-75775898D01*
X192040964Y-75833887D01*
X192153480Y-75848700D01*
X192224867Y-75848700D01*
X192228920Y-75848700D01*
X192341436Y-75833887D01*
X192481433Y-75775898D01*
X192601651Y-75683651D01*
X192693898Y-75563433D01*
X192751887Y-75423436D01*
X192771666Y-75273200D01*
X199110734Y-75273200D01*
X199111795Y-75281259D01*
X199129451Y-75415376D01*
X199129452Y-75415382D01*
X199130513Y-75423436D01*
X199133622Y-75430942D01*
X199133623Y-75430945D01*
X199171547Y-75522500D01*
X199188502Y-75563433D01*
X199193445Y-75569874D01*
X199193448Y-75569880D01*
X199271586Y-75671710D01*
X199280749Y-75683651D01*
X199297508Y-75696511D01*
X199394519Y-75770951D01*
X199394522Y-75770953D01*
X199400967Y-75775898D01*
X199540964Y-75833887D01*
X199653480Y-75848700D01*
X199724867Y-75848700D01*
X199728920Y-75848700D01*
X199780169Y-75841953D01*
X200821201Y-75841953D01*
X200821456Y-75847586D01*
X200827015Y-75908770D01*
X200829561Y-75921569D01*
X200875948Y-76070432D01*
X200882064Y-76084020D01*
X200962245Y-76216656D01*
X200971428Y-76228377D01*
X201081022Y-76337971D01*
X201092742Y-76347154D01*
X201207093Y-76416281D01*
X201218185Y-76419463D01*
X201221200Y-76408325D01*
X201821200Y-76408325D01*
X201824214Y-76419463D01*
X201835306Y-76416281D01*
X201949657Y-76347154D01*
X201961377Y-76337971D01*
X202070971Y-76228377D01*
X202080154Y-76216656D01*
X202160335Y-76084020D01*
X202166451Y-76070432D01*
X202212838Y-75921572D01*
X202215384Y-75908768D01*
X202220944Y-75847584D01*
X202221200Y-75841956D01*
X202221200Y-75504526D01*
X202217749Y-75491650D01*
X202204874Y-75488200D01*
X201837526Y-75488200D01*
X201824650Y-75491650D01*
X201821200Y-75504526D01*
X201821200Y-76408325D01*
X201221200Y-76408325D01*
X201221200Y-75504526D01*
X201217749Y-75491650D01*
X201204874Y-75488200D01*
X200837527Y-75488200D01*
X200824651Y-75491650D01*
X200821201Y-75504526D01*
X200821201Y-75841953D01*
X199780169Y-75841953D01*
X199841436Y-75833887D01*
X199981433Y-75775898D01*
X200101651Y-75683651D01*
X200193898Y-75563433D01*
X200251887Y-75423436D01*
X200271666Y-75273200D01*
X200251887Y-75122964D01*
X200193898Y-74982967D01*
X200188953Y-74976522D01*
X200188951Y-74976519D01*
X200108653Y-74871874D01*
X200821200Y-74871874D01*
X200824650Y-74884749D01*
X200837526Y-74888200D01*
X201204874Y-74888200D01*
X201217749Y-74884749D01*
X201221200Y-74871874D01*
X201821200Y-74871874D01*
X201824650Y-74884749D01*
X201837526Y-74888200D01*
X202204873Y-74888200D01*
X202217748Y-74884749D01*
X202221199Y-74871874D01*
X202221199Y-74534447D01*
X202220943Y-74528813D01*
X202215384Y-74467629D01*
X202212838Y-74454830D01*
X202166451Y-74305967D01*
X202160335Y-74292379D01*
X202080154Y-74159743D01*
X202070971Y-74148022D01*
X201961377Y-74038428D01*
X201949657Y-74029245D01*
X201835306Y-73960118D01*
X201824214Y-73956936D01*
X201821200Y-73968075D01*
X201821200Y-74871874D01*
X201221200Y-74871874D01*
X201221200Y-73968075D01*
X201218185Y-73956936D01*
X201207093Y-73960118D01*
X201092742Y-74029245D01*
X201081022Y-74038428D01*
X200971428Y-74148022D01*
X200962245Y-74159743D01*
X200882064Y-74292379D01*
X200875948Y-74305967D01*
X200829561Y-74454827D01*
X200827015Y-74467631D01*
X200821455Y-74528815D01*
X200821200Y-74534444D01*
X200821200Y-74871874D01*
X200108653Y-74871874D01*
X200106594Y-74869191D01*
X200101651Y-74862749D01*
X200089389Y-74853340D01*
X199987880Y-74775448D01*
X199987874Y-74775445D01*
X199981433Y-74770502D01*
X199973924Y-74767391D01*
X199973923Y-74767391D01*
X199848945Y-74715623D01*
X199848942Y-74715622D01*
X199841436Y-74712513D01*
X199833382Y-74711452D01*
X199833376Y-74711451D01*
X199732939Y-74698229D01*
X199732937Y-74698228D01*
X199728920Y-74697700D01*
X199653480Y-74697700D01*
X199649463Y-74698228D01*
X199649460Y-74698229D01*
X199549023Y-74711451D01*
X199549015Y-74711452D01*
X199540964Y-74712513D01*
X199533459Y-74715621D01*
X199533454Y-74715623D01*
X199408476Y-74767391D01*
X199408472Y-74767393D01*
X199400967Y-74770502D01*
X199394528Y-74775442D01*
X199394519Y-74775448D01*
X199287191Y-74857805D01*
X199287187Y-74857808D01*
X199280749Y-74862749D01*
X199275808Y-74869187D01*
X199275805Y-74869191D01*
X199193448Y-74976519D01*
X199193442Y-74976528D01*
X199188502Y-74982967D01*
X199185393Y-74990472D01*
X199185391Y-74990476D01*
X199133623Y-75115454D01*
X199133621Y-75115459D01*
X199130513Y-75122964D01*
X199129452Y-75131015D01*
X199129451Y-75131023D01*
X199114097Y-75247655D01*
X199110734Y-75273200D01*
X192771666Y-75273200D01*
X192751887Y-75122964D01*
X192693898Y-74982967D01*
X192688953Y-74976522D01*
X192688951Y-74976519D01*
X192606594Y-74869191D01*
X192601651Y-74862749D01*
X192589389Y-74853340D01*
X192487880Y-74775448D01*
X192487874Y-74775445D01*
X192481433Y-74770502D01*
X192473924Y-74767391D01*
X192473923Y-74767391D01*
X192348945Y-74715623D01*
X192348942Y-74715622D01*
X192341436Y-74712513D01*
X192333382Y-74711452D01*
X192333376Y-74711451D01*
X192232939Y-74698229D01*
X192232937Y-74698228D01*
X192228920Y-74697700D01*
X192153480Y-74697700D01*
X192149463Y-74698228D01*
X192149460Y-74698229D01*
X192049023Y-74711451D01*
X192049015Y-74711452D01*
X192040964Y-74712513D01*
X192033459Y-74715621D01*
X192033454Y-74715623D01*
X191908476Y-74767391D01*
X191908472Y-74767393D01*
X191900967Y-74770502D01*
X191894528Y-74775442D01*
X191894519Y-74775448D01*
X191787191Y-74857805D01*
X191787187Y-74857808D01*
X191780749Y-74862749D01*
X191775808Y-74869187D01*
X191775805Y-74869191D01*
X191693448Y-74976519D01*
X191693442Y-74976528D01*
X191688502Y-74982967D01*
X191685393Y-74990472D01*
X191685391Y-74990476D01*
X191633623Y-75115454D01*
X191633621Y-75115459D01*
X191630513Y-75122964D01*
X191629452Y-75131015D01*
X191629451Y-75131023D01*
X191614097Y-75247655D01*
X191610734Y-75273200D01*
X187432570Y-75273200D01*
X187502765Y-75242206D01*
X187582206Y-75162765D01*
X187627585Y-75059991D01*
X187630500Y-75034865D01*
X187630500Y-74871874D01*
X189661200Y-74871874D01*
X189664650Y-74884749D01*
X189677526Y-74888200D01*
X190044874Y-74888200D01*
X190057749Y-74884749D01*
X190061200Y-74871874D01*
X190661200Y-74871874D01*
X190664650Y-74884749D01*
X190677526Y-74888200D01*
X191044873Y-74888200D01*
X191057748Y-74884749D01*
X191061199Y-74871874D01*
X191061199Y-74534447D01*
X191060943Y-74528813D01*
X191055384Y-74467629D01*
X191052838Y-74454830D01*
X191006451Y-74305967D01*
X191000335Y-74292379D01*
X190920154Y-74159743D01*
X190910971Y-74148022D01*
X190801377Y-74038428D01*
X190789657Y-74029245D01*
X190675306Y-73960118D01*
X190664214Y-73956936D01*
X190661200Y-73968075D01*
X190661200Y-74871874D01*
X190061200Y-74871874D01*
X190061200Y-73968075D01*
X190058185Y-73956936D01*
X190047093Y-73960118D01*
X189932742Y-74029245D01*
X189921022Y-74038428D01*
X189811428Y-74148022D01*
X189802245Y-74159743D01*
X189722064Y-74292379D01*
X189715948Y-74305967D01*
X189669561Y-74454827D01*
X189667015Y-74467631D01*
X189661455Y-74528815D01*
X189661200Y-74534444D01*
X189661200Y-74871874D01*
X187630500Y-74871874D01*
X187630499Y-73027784D01*
X213514828Y-73027784D01*
X213522691Y-73039058D01*
X213550851Y-73061968D01*
X213557766Y-73066850D01*
X213795987Y-73211715D01*
X213803489Y-73215602D01*
X214059228Y-73326686D01*
X214067181Y-73329512D01*
X214335664Y-73404738D01*
X214343942Y-73406458D01*
X214620158Y-73444423D01*
X214628593Y-73445000D01*
X214907407Y-73445000D01*
X214915841Y-73444423D01*
X215192057Y-73406458D01*
X215200335Y-73404738D01*
X215468818Y-73329512D01*
X215476771Y-73326686D01*
X215732510Y-73215602D01*
X215740012Y-73211715D01*
X215978235Y-73066848D01*
X215985147Y-73061969D01*
X216013310Y-73039056D01*
X216021170Y-73027785D01*
X216014502Y-73015767D01*
X214779542Y-71780806D01*
X214768000Y-71774142D01*
X214756457Y-71780806D01*
X213521495Y-73015768D01*
X213514828Y-73027784D01*
X187630499Y-73027784D01*
X187630499Y-72545136D01*
X187627585Y-72520009D01*
X187582206Y-72417235D01*
X187502765Y-72337794D01*
X187455789Y-72317052D01*
X187408522Y-72296181D01*
X187408517Y-72296179D01*
X187399991Y-72292415D01*
X187390726Y-72291340D01*
X187378414Y-72289911D01*
X187378401Y-72289910D01*
X187374865Y-72289500D01*
X187371290Y-72289500D01*
X184888714Y-72289500D01*
X184888696Y-72289500D01*
X184885136Y-72289501D01*
X184881589Y-72289912D01*
X184881577Y-72289913D01*
X184869277Y-72291340D01*
X184869275Y-72291340D01*
X184860009Y-72292415D01*
X184851479Y-72296180D01*
X184851476Y-72296182D01*
X184767745Y-72333153D01*
X184767743Y-72333154D01*
X184757235Y-72337794D01*
X184749112Y-72345916D01*
X184749109Y-72345919D01*
X184685919Y-72409109D01*
X184685916Y-72409112D01*
X184677794Y-72417235D01*
X184673154Y-72427743D01*
X184673153Y-72427745D01*
X184636181Y-72511477D01*
X184636179Y-72511484D01*
X184632415Y-72520009D01*
X184631340Y-72529271D01*
X184631340Y-72529273D01*
X184629911Y-72541585D01*
X184629910Y-72541599D01*
X184629500Y-72545135D01*
X184629500Y-72548708D01*
X184629500Y-72548709D01*
X184629500Y-75031285D01*
X184629500Y-75031302D01*
X183277776Y-75031302D01*
X183374866Y-74978759D01*
X183383293Y-74971239D01*
X183377361Y-74961625D01*
X182641542Y-74225806D01*
X182630000Y-74219142D01*
X182618457Y-74225806D01*
X181882637Y-74961625D01*
X181876705Y-74971239D01*
X144735499Y-74971239D01*
X144735499Y-74165136D01*
X144732585Y-74140009D01*
X144687206Y-74037235D01*
X144607765Y-73957794D01*
X144592833Y-73951201D01*
X144513522Y-73916181D01*
X144513517Y-73916179D01*
X144504991Y-73912415D01*
X144495726Y-73911340D01*
X144483414Y-73909911D01*
X144483401Y-73909910D01*
X144479865Y-73909500D01*
X144476290Y-73909500D01*
X142693714Y-73909500D01*
X142693696Y-73909500D01*
X142690136Y-73909501D01*
X142686589Y-73909912D01*
X142686577Y-73909913D01*
X142674277Y-73911340D01*
X142674275Y-73911340D01*
X142665009Y-73912415D01*
X142656479Y-73916180D01*
X142656476Y-73916182D01*
X142572745Y-73953153D01*
X142572743Y-73953154D01*
X142562235Y-73957794D01*
X142554112Y-73965916D01*
X142554109Y-73965919D01*
X142490919Y-74029109D01*
X142490916Y-74029112D01*
X142482794Y-74037235D01*
X142478154Y-74047743D01*
X142478153Y-74047745D01*
X142441181Y-74131477D01*
X142441179Y-74131484D01*
X142437415Y-74140009D01*
X142436340Y-74149271D01*
X142436340Y-74149273D01*
X142434911Y-74161585D01*
X142434910Y-74161599D01*
X142434500Y-74165135D01*
X142434500Y-74168710D01*
X142434500Y-74535500D01*
X142417887Y-74597500D01*
X142372500Y-74642887D01*
X142310500Y-74659500D01*
X139096654Y-74659500D01*
X139049201Y-74650061D01*
X139008973Y-74623181D01*
X138833847Y-74448055D01*
X138625709Y-74239916D01*
X138625705Y-74239913D01*
X138603142Y-74217350D01*
X138594449Y-74212920D01*
X138594447Y-74212919D01*
X138583398Y-74207289D01*
X138566815Y-74197126D01*
X138556787Y-74189840D01*
X138556780Y-74189836D01*
X138548890Y-74184104D01*
X138527819Y-74177257D01*
X138509844Y-74169812D01*
X138498799Y-74164184D01*
X138498796Y-74164183D01*
X138490104Y-74159754D01*
X138480467Y-74158227D01*
X138480466Y-74158227D01*
X138468218Y-74156287D01*
X138449306Y-74151746D01*
X138437517Y-74147916D01*
X138437514Y-74147915D01*
X138428233Y-74144900D01*
X138418473Y-74144900D01*
X137695060Y-74144900D01*
X137637434Y-74130697D01*
X137593010Y-74091340D01*
X137525642Y-73993741D01*
X137525641Y-73993740D01*
X137521383Y-73987571D01*
X137394052Y-73874766D01*
X137369023Y-73861629D01*
X137250066Y-73799195D01*
X137250062Y-73799193D01*
X137243425Y-73795710D01*
X137241019Y-73795117D01*
X181225626Y-73795117D01*
X181243937Y-74016102D01*
X181245621Y-74026196D01*
X181300059Y-74241166D01*
X181303378Y-74250833D01*
X181392456Y-74453913D01*
X181397321Y-74462903D01*
X181443303Y-74533282D01*
X181451270Y-74541007D01*
X181460650Y-74535084D01*
X182194193Y-73801542D01*
X182200857Y-73790000D01*
X183059142Y-73790000D01*
X183065806Y-73801542D01*
X183799347Y-74535083D01*
X183808728Y-74541007D01*
X183816696Y-74533282D01*
X183862675Y-74462906D01*
X183867543Y-74453911D01*
X183956621Y-74250833D01*
X183959940Y-74241166D01*
X184014378Y-74026196D01*
X184016062Y-74016102D01*
X184034374Y-73795117D01*
X184034374Y-73784883D01*
X184016062Y-73563897D01*
X184014378Y-73553803D01*
X183959940Y-73338833D01*
X183956621Y-73329166D01*
X183867542Y-73126084D01*
X183862680Y-73117101D01*
X183816693Y-73046711D01*
X183808729Y-73038991D01*
X183799347Y-73044915D01*
X183065806Y-73778457D01*
X183059142Y-73790000D01*
X182200857Y-73790000D01*
X182194193Y-73778457D01*
X181460650Y-73044914D01*
X181451270Y-73038991D01*
X181443303Y-73046715D01*
X181397322Y-73117096D01*
X181392456Y-73126086D01*
X181303378Y-73329166D01*
X181300059Y-73338833D01*
X181245621Y-73553803D01*
X181243937Y-73563897D01*
X181225626Y-73784883D01*
X181225626Y-73795117D01*
X137241019Y-73795117D01*
X137236147Y-73793916D01*
X137236144Y-73793915D01*
X137085537Y-73756794D01*
X137085532Y-73756793D01*
X137078256Y-73755000D01*
X136908144Y-73755000D01*
X136900868Y-73756793D01*
X136900862Y-73756794D01*
X136750255Y-73793915D01*
X136750250Y-73793916D01*
X136742975Y-73795710D01*
X136736340Y-73799192D01*
X136736333Y-73799195D01*
X136598991Y-73871279D01*
X136598988Y-73871280D01*
X136592348Y-73874766D01*
X136586737Y-73879736D01*
X136586731Y-73879741D01*
X136470630Y-73982598D01*
X136465017Y-73987571D01*
X136460762Y-73993735D01*
X136460757Y-73993741D01*
X136372645Y-74121393D01*
X136372642Y-74121397D01*
X136368382Y-74127570D01*
X136365723Y-74134581D01*
X136365720Y-74134587D01*
X136310720Y-74279611D01*
X136310717Y-74279619D01*
X136308060Y-74286628D01*
X136307156Y-74294070D01*
X136307155Y-74294076D01*
X136288556Y-74447255D01*
X136287555Y-74455500D01*
X136288459Y-74462945D01*
X136307155Y-74616923D01*
X136307156Y-74616927D01*
X136308060Y-74624372D01*
X136310719Y-74631384D01*
X136310721Y-74631391D01*
X136351505Y-74738930D01*
X136358659Y-74797847D01*
X136337613Y-74853340D01*
X136293189Y-74892697D01*
X136235563Y-74906900D01*
X133119699Y-74906900D01*
X133072246Y-74897461D01*
X133032018Y-74870581D01*
X133008231Y-74846794D01*
X132978694Y-74799561D01*
X132972816Y-74744168D01*
X132980617Y-74679928D01*
X132960112Y-74511056D01*
X132899790Y-74351998D01*
X132811611Y-74224250D01*
X132807414Y-74218169D01*
X132807413Y-74218168D01*
X132803155Y-74211999D01*
X132675824Y-74099194D01*
X132650795Y-74086057D01*
X132531838Y-74023623D01*
X132531834Y-74023621D01*
X132525197Y-74020138D01*
X132517919Y-74018344D01*
X132517916Y-74018343D01*
X132367309Y-73981222D01*
X132367304Y-73981221D01*
X132360028Y-73979428D01*
X132189916Y-73979428D01*
X132182640Y-73981221D01*
X132182634Y-73981222D01*
X132032027Y-74018343D01*
X132032022Y-74018344D01*
X132024747Y-74020138D01*
X132018112Y-74023620D01*
X132018105Y-74023623D01*
X131880763Y-74095707D01*
X131880760Y-74095708D01*
X131874120Y-74099194D01*
X131868509Y-74104164D01*
X131868503Y-74104169D01*
X131752402Y-74207026D01*
X131746789Y-74211999D01*
X131742534Y-74218163D01*
X131742529Y-74218169D01*
X131654417Y-74345821D01*
X131654414Y-74345825D01*
X131650154Y-74351998D01*
X131647495Y-74359009D01*
X131647492Y-74359015D01*
X131592492Y-74504039D01*
X131592489Y-74504047D01*
X131589832Y-74511056D01*
X131588928Y-74518498D01*
X131588927Y-74518504D01*
X131571807Y-74659500D01*
X131569327Y-74679928D01*
X131570231Y-74687370D01*
X131570231Y-74687373D01*
X131588927Y-74841351D01*
X131588928Y-74841355D01*
X131589832Y-74848800D01*
X131592490Y-74855810D01*
X131592492Y-74855816D01*
X131647492Y-75000840D01*
X131650154Y-75007858D01*
X131654416Y-75014033D01*
X131654417Y-75014034D01*
X131724422Y-75115454D01*
X131746789Y-75147857D01*
X131874120Y-75260662D01*
X132024747Y-75339718D01*
X132189916Y-75380428D01*
X132197416Y-75380428D01*
X132357718Y-75380428D01*
X132405171Y-75389867D01*
X132445398Y-75416746D01*
X132574394Y-75545742D01*
X132664102Y-75635450D01*
X132683841Y-75645507D01*
X132700434Y-75655675D01*
X132718354Y-75668696D01*
X132739427Y-75675542D01*
X132757390Y-75682983D01*
X132777140Y-75693046D01*
X132799023Y-75696511D01*
X132817939Y-75701052D01*
X132839011Y-75707899D01*
X132870913Y-75707899D01*
X132870921Y-75707899D01*
X132870925Y-75707900D01*
X136471145Y-75707900D01*
X136518598Y-75717339D01*
X136558826Y-75744219D01*
X138720091Y-77905484D01*
X138720094Y-77905486D01*
X138742658Y-77928050D01*
X138762396Y-77938107D01*
X138778984Y-77948273D01*
X138789010Y-77955557D01*
X138789012Y-77955558D01*
X138796910Y-77961296D01*
X138817981Y-77968142D01*
X138835954Y-77975586D01*
X138855696Y-77985646D01*
X138877581Y-77989112D01*
X138896489Y-77993651D01*
X138917567Y-78000500D01*
X138949481Y-78000500D01*
X139044433Y-78000500D01*
X142422408Y-78000500D01*
X142487686Y-78019073D01*
X142533407Y-78069228D01*
X142602634Y-78208255D01*
X142731128Y-78378407D01*
X142735360Y-78382265D01*
X142827237Y-78466023D01*
X142888698Y-78522052D01*
X143069981Y-78634298D01*
X143268802Y-78711321D01*
X143454842Y-78746098D01*
X143465610Y-78748111D01*
X143526363Y-78778363D01*
X143562091Y-78836066D01*
X143562091Y-78903934D01*
X143526363Y-78961637D01*
X143465610Y-78991889D01*
X143274439Y-79027625D01*
X143274436Y-79027625D01*
X143268802Y-79028679D01*
X143263461Y-79030747D01*
X143263454Y-79030750D01*
X143075322Y-79103632D01*
X143075313Y-79103636D01*
X143069981Y-79105702D01*
X143065114Y-79108715D01*
X143065109Y-79108718D01*
X142893564Y-79214934D01*
X142893555Y-79214940D01*
X142888698Y-79217948D01*
X142884475Y-79221797D01*
X142884468Y-79221803D01*
X142735360Y-79357734D01*
X142735354Y-79357739D01*
X142731128Y-79361593D01*
X142727681Y-79366156D01*
X142727675Y-79366164D01*
X142606086Y-79527173D01*
X142606083Y-79527177D01*
X142602634Y-79531745D01*
X142600082Y-79536870D01*
X142600079Y-79536875D01*
X142516922Y-79703879D01*
X142507595Y-79722611D01*
X142506027Y-79728119D01*
X142506024Y-79728129D01*
X142450814Y-79922168D01*
X142450811Y-79922179D01*
X142449244Y-79927690D01*
X142448714Y-79933400D01*
X142448714Y-79933405D01*
X142434208Y-80089960D01*
X142429571Y-80140000D01*
X142449244Y-80352310D01*
X142477065Y-80450089D01*
X142477817Y-80515193D01*
X142445480Y-80571704D01*
X141004770Y-82012414D01*
X140994157Y-82020967D01*
X140994233Y-82021055D01*
X140987528Y-82026864D01*
X140980072Y-82031657D01*
X140974267Y-82038355D01*
X140974266Y-82038357D01*
X140947553Y-82069185D01*
X140941527Y-82075658D01*
X140935107Y-82082078D01*
X140935102Y-82082083D01*
X140931979Y-82085207D01*
X140929332Y-82088742D01*
X140929317Y-82088760D01*
X140923874Y-82096030D01*
X140918332Y-82102907D01*
X140891629Y-82133725D01*
X140891625Y-82133730D01*
X140885823Y-82140427D01*
X140882140Y-82148489D01*
X140877344Y-82155953D01*
X140877248Y-82155891D01*
X140876867Y-82156532D01*
X140876968Y-82156587D01*
X140872719Y-82164368D01*
X140867404Y-82171469D01*
X140864305Y-82179776D01*
X140864304Y-82179779D01*
X140850052Y-82217991D01*
X140846666Y-82226166D01*
X140829718Y-82263276D01*
X140829716Y-82263282D01*
X140826035Y-82271343D01*
X140824772Y-82280119D01*
X140822275Y-82288627D01*
X140822164Y-82288594D01*
X140821979Y-82289320D01*
X140822092Y-82289345D01*
X140820207Y-82298008D01*
X140817109Y-82306317D01*
X140816476Y-82315160D01*
X140816476Y-82315162D01*
X140813565Y-82355854D01*
X140812620Y-82364643D01*
X140810700Y-82378001D01*
X140810700Y-82382430D01*
X140810700Y-82391492D01*
X140810384Y-82400339D01*
X140807473Y-82441026D01*
X140807473Y-82441031D01*
X140806841Y-82449873D01*
X140808725Y-82458537D01*
X140809359Y-82467386D01*
X140809243Y-82467394D01*
X140810700Y-82480944D01*
X140810700Y-83532324D01*
X140801261Y-83579777D01*
X140774381Y-83620005D01*
X140378205Y-84016181D01*
X140337977Y-84043061D01*
X140290524Y-84052500D01*
X139512845Y-84052500D01*
X139468874Y-84044442D01*
X139430618Y-84021315D01*
X139380872Y-83977244D01*
X139380867Y-83977240D01*
X139375252Y-83972266D01*
X139368611Y-83968780D01*
X139368606Y-83968777D01*
X139231266Y-83896695D01*
X139231262Y-83896693D01*
X139224625Y-83893210D01*
X139217347Y-83891416D01*
X139217344Y-83891415D01*
X139066737Y-83854294D01*
X139066732Y-83854293D01*
X139059456Y-83852500D01*
X138889344Y-83852500D01*
X138882068Y-83854293D01*
X138882062Y-83854294D01*
X138731455Y-83891415D01*
X138731450Y-83891416D01*
X138724175Y-83893210D01*
X138717540Y-83896692D01*
X138717533Y-83896695D01*
X138580191Y-83968779D01*
X138580188Y-83968780D01*
X138573548Y-83972266D01*
X138567937Y-83977236D01*
X138567931Y-83977241D01*
X138451830Y-84080098D01*
X138446217Y-84085071D01*
X138441962Y-84091235D01*
X138441957Y-84091241D01*
X138353845Y-84218893D01*
X138353842Y-84218897D01*
X138349582Y-84225070D01*
X138346923Y-84232081D01*
X138346920Y-84232087D01*
X138291920Y-84377111D01*
X138291917Y-84377119D01*
X138289260Y-84384128D01*
X138288356Y-84391570D01*
X138288355Y-84391576D01*
X138277920Y-84477517D01*
X138268755Y-84553000D01*
X138269659Y-84560445D01*
X138288355Y-84714423D01*
X138288356Y-84714427D01*
X138289260Y-84721872D01*
X138291918Y-84728882D01*
X138291920Y-84728888D01*
X138346920Y-84873912D01*
X138349582Y-84880930D01*
X138353844Y-84887105D01*
X138353845Y-84887106D01*
X138441533Y-85014144D01*
X138446217Y-85020929D01*
X138573548Y-85133734D01*
X138724175Y-85212790D01*
X138889344Y-85253500D01*
X139051956Y-85253500D01*
X139059456Y-85253500D01*
X139224625Y-85212790D01*
X139375252Y-85133734D01*
X139389298Y-85121289D01*
X139430618Y-85084685D01*
X139468874Y-85061558D01*
X139512845Y-85053500D01*
X140482056Y-85053500D01*
X140495605Y-85054956D01*
X140495614Y-85054841D01*
X140504460Y-85055473D01*
X140513127Y-85057359D01*
X140562661Y-85053815D01*
X140571508Y-85053500D01*
X140580565Y-85053500D01*
X140584999Y-85053500D01*
X140598362Y-85051578D01*
X140607149Y-85050633D01*
X140656683Y-85047091D01*
X140664993Y-85043990D01*
X140673660Y-85042106D01*
X140673684Y-85042220D01*
X140674402Y-85042037D01*
X140674369Y-85041925D01*
X140682875Y-85039427D01*
X140691657Y-85038165D01*
X140736847Y-85017526D01*
X140744987Y-85014155D01*
X140791531Y-84996796D01*
X140798633Y-84991478D01*
X140806419Y-84987228D01*
X140806474Y-84987330D01*
X140807108Y-84986954D01*
X140807045Y-84986855D01*
X140814501Y-84982062D01*
X140822573Y-84978377D01*
X140860103Y-84945855D01*
X140866975Y-84940318D01*
X140877793Y-84932221D01*
X140887342Y-84922670D01*
X140893804Y-84916653D01*
X140931343Y-84884128D01*
X140936137Y-84876667D01*
X140941949Y-84869961D01*
X140942036Y-84870036D01*
X140950582Y-84859430D01*
X141617630Y-84192382D01*
X141628236Y-84183836D01*
X141628161Y-84183749D01*
X141634867Y-84177937D01*
X141642328Y-84173143D01*
X141674853Y-84135604D01*
X141680874Y-84129139D01*
X141690421Y-84119593D01*
X141698518Y-84108775D01*
X141704055Y-84101903D01*
X141736577Y-84064373D01*
X141740262Y-84056301D01*
X141745055Y-84048845D01*
X141745154Y-84048908D01*
X141745530Y-84048274D01*
X141745428Y-84048219D01*
X141749678Y-84040433D01*
X141754996Y-84033331D01*
X141772355Y-83986787D01*
X141775726Y-83978647D01*
X141796365Y-83933457D01*
X141797627Y-83924675D01*
X141800125Y-83916169D01*
X141800237Y-83916202D01*
X141800420Y-83915484D01*
X141800306Y-83915460D01*
X141802190Y-83906793D01*
X141805291Y-83898483D01*
X141808833Y-83848949D01*
X141809778Y-83840162D01*
X141811700Y-83826799D01*
X141811700Y-83813308D01*
X141812016Y-83804461D01*
X141814926Y-83763773D01*
X141815559Y-83754927D01*
X141813673Y-83746260D01*
X141813041Y-83737414D01*
X141813156Y-83737405D01*
X141811700Y-83723856D01*
X141811700Y-82982612D01*
X142582278Y-82982612D01*
X142582971Y-82993896D01*
X142608464Y-83077934D01*
X142613103Y-83089134D01*
X142704857Y-83260795D01*
X142711599Y-83270884D01*
X142835082Y-83421348D01*
X142843651Y-83429917D01*
X142994115Y-83553400D01*
X143004204Y-83560142D01*
X143175865Y-83651896D01*
X143187065Y-83656535D01*
X143271103Y-83682028D01*
X143282387Y-83682721D01*
X143285000Y-83671720D01*
X143885000Y-83671720D01*
X143887612Y-83682721D01*
X143898896Y-83682028D01*
X143982934Y-83656535D01*
X143994134Y-83651896D01*
X144165795Y-83560142D01*
X144175884Y-83553400D01*
X144326348Y-83429917D01*
X144334917Y-83421348D01*
X144458400Y-83270884D01*
X144465142Y-83260795D01*
X144556896Y-83089134D01*
X144561535Y-83077934D01*
X144587028Y-82993896D01*
X144587721Y-82982612D01*
X144576720Y-82980000D01*
X143901326Y-82980000D01*
X143888450Y-82983450D01*
X143885000Y-82996326D01*
X143885000Y-83671720D01*
X143285000Y-83671720D01*
X143285000Y-82996326D01*
X143281549Y-82983450D01*
X143268674Y-82980000D01*
X142593280Y-82980000D01*
X142582278Y-82982612D01*
X141811700Y-82982612D01*
X141811700Y-82672476D01*
X141821139Y-82625023D01*
X141848019Y-82584795D01*
X142036893Y-82395921D01*
X142055427Y-82377387D01*
X142582278Y-82377387D01*
X142593280Y-82380000D01*
X143268674Y-82380000D01*
X143281549Y-82376549D01*
X143285000Y-82363674D01*
X143885000Y-82363674D01*
X143888450Y-82376549D01*
X143901326Y-82380000D01*
X144576720Y-82380000D01*
X144587721Y-82377387D01*
X144587028Y-82366103D01*
X144561535Y-82282065D01*
X144556896Y-82270865D01*
X144465142Y-82099204D01*
X144458400Y-82089115D01*
X144375920Y-81988613D01*
X144349776Y-81932146D01*
X144351123Y-81913875D01*
X144332853Y-81915223D01*
X144276386Y-81889079D01*
X144175884Y-81806599D01*
X144165795Y-81799857D01*
X143994134Y-81708103D01*
X143982934Y-81703464D01*
X143898896Y-81677971D01*
X143887612Y-81677278D01*
X143885000Y-81688280D01*
X143885000Y-82363674D01*
X143285000Y-82363674D01*
X143285000Y-81688280D01*
X143282387Y-81677278D01*
X143271103Y-81677971D01*
X143187065Y-81703464D01*
X143175865Y-81708103D01*
X143004204Y-81799857D01*
X142994116Y-81806598D01*
X142893613Y-81889079D01*
X142837147Y-81915222D01*
X142818872Y-81913873D01*
X142820221Y-81932147D01*
X142794078Y-81988614D01*
X142711598Y-82089116D01*
X142704857Y-82099204D01*
X142613103Y-82270865D01*
X142608464Y-82282065D01*
X142582971Y-82366103D01*
X142582278Y-82377387D01*
X142055427Y-82377387D01*
X142610546Y-81822266D01*
X142664175Y-81790716D01*
X142694959Y-81789960D01*
X142695715Y-81759176D01*
X142727266Y-81705547D01*
X143149734Y-81283078D01*
X143206249Y-81250741D01*
X143268774Y-81251467D01*
X143268802Y-81251321D01*
X143478390Y-81290500D01*
X143685881Y-81290500D01*
X143691610Y-81290500D01*
X143901198Y-81251321D01*
X143901225Y-81251468D01*
X143963748Y-81250741D01*
X144020267Y-81283080D01*
X144442732Y-81705545D01*
X144474285Y-81759177D01*
X144475040Y-81789958D01*
X144505822Y-81790714D01*
X144559454Y-81822267D01*
X147493181Y-84755994D01*
X147520061Y-84796222D01*
X147529500Y-84843675D01*
X147529500Y-85377644D01*
X147513829Y-85437983D01*
X147470778Y-85483071D01*
X147338564Y-85564934D01*
X147338555Y-85564940D01*
X147333698Y-85567948D01*
X147329475Y-85571797D01*
X147329468Y-85571803D01*
X147180360Y-85707734D01*
X147180354Y-85707739D01*
X147176128Y-85711593D01*
X147172681Y-85716156D01*
X147172675Y-85716164D01*
X147051086Y-85877173D01*
X147051083Y-85877177D01*
X147047634Y-85881745D01*
X147045082Y-85886870D01*
X147045079Y-85886875D01*
X147009444Y-85958441D01*
X146952595Y-86072611D01*
X146951027Y-86078119D01*
X146951024Y-86078129D01*
X146895814Y-86272168D01*
X146895811Y-86272179D01*
X146894244Y-86277690D01*
X146893714Y-86283400D01*
X146893714Y-86283405D01*
X146877538Y-86457979D01*
X146874571Y-86490000D01*
X146875100Y-86495709D01*
X146879356Y-86541645D01*
X146894244Y-86702310D01*
X146895812Y-86707821D01*
X146895814Y-86707831D01*
X146951024Y-86901870D01*
X146951026Y-86901876D01*
X146952595Y-86907389D01*
X147047634Y-87098255D01*
X147051086Y-87102826D01*
X147169315Y-87259386D01*
X147176128Y-87268407D01*
X147180360Y-87272265D01*
X147238279Y-87325066D01*
X147333698Y-87412052D01*
X147514981Y-87524298D01*
X147713802Y-87601321D01*
X147886541Y-87633611D01*
X147941493Y-87658894D01*
X147977947Y-87707166D01*
X147987226Y-87766941D01*
X147967122Y-87823993D01*
X147922419Y-87864745D01*
X147863755Y-87879500D01*
X147138714Y-87879500D01*
X147138696Y-87879500D01*
X147135136Y-87879501D01*
X147131589Y-87879912D01*
X147131577Y-87879913D01*
X147119277Y-87881340D01*
X147119275Y-87881340D01*
X147110009Y-87882415D01*
X147101479Y-87886180D01*
X147101476Y-87886182D01*
X147017745Y-87923153D01*
X147017743Y-87923154D01*
X147007235Y-87927794D01*
X146999112Y-87935916D01*
X146999109Y-87935919D01*
X146935919Y-87999109D01*
X146935916Y-87999112D01*
X146927794Y-88007235D01*
X146923154Y-88017743D01*
X146923153Y-88017745D01*
X146887585Y-88098300D01*
X146882415Y-88110009D01*
X146881340Y-88119271D01*
X146881340Y-88119273D01*
X146879911Y-88131585D01*
X146879910Y-88131599D01*
X146879500Y-88135135D01*
X146879500Y-88138710D01*
X146879500Y-88505500D01*
X146862887Y-88567500D01*
X146817500Y-88612887D01*
X146755500Y-88629500D01*
X138436255Y-88629500D01*
X138388802Y-88620061D01*
X138348574Y-88593181D01*
X136964459Y-87209066D01*
X136934922Y-87161833D01*
X136929044Y-87106440D01*
X136936845Y-87042200D01*
X136916340Y-86873328D01*
X136893680Y-86813579D01*
X136865021Y-86738010D01*
X136856018Y-86714270D01*
X136759383Y-86574271D01*
X136632052Y-86461466D01*
X136607023Y-86448329D01*
X136488066Y-86385895D01*
X136488062Y-86385893D01*
X136481425Y-86382410D01*
X136474147Y-86380616D01*
X136474144Y-86380615D01*
X136323537Y-86343494D01*
X136323532Y-86343493D01*
X136316256Y-86341700D01*
X136146144Y-86341700D01*
X136138868Y-86343493D01*
X136138862Y-86343494D01*
X135988255Y-86380615D01*
X135988250Y-86380616D01*
X135980975Y-86382410D01*
X135974340Y-86385892D01*
X135974333Y-86385895D01*
X135836991Y-86457979D01*
X135836988Y-86457980D01*
X135830348Y-86461466D01*
X135824737Y-86466436D01*
X135824731Y-86466441D01*
X135739844Y-86541645D01*
X135703017Y-86574271D01*
X135698762Y-86580435D01*
X135698757Y-86580441D01*
X135610645Y-86708093D01*
X135610642Y-86708097D01*
X135606382Y-86714270D01*
X135603723Y-86721281D01*
X135603720Y-86721287D01*
X135566682Y-86818950D01*
X135532967Y-86867794D01*
X135480416Y-86895376D01*
X135421066Y-86895376D01*
X135368514Y-86867795D01*
X135316868Y-86822041D01*
X135316866Y-86822039D01*
X135311252Y-86817066D01*
X135259683Y-86790000D01*
X135167266Y-86741495D01*
X135167262Y-86741493D01*
X135160625Y-86738010D01*
X135153347Y-86736216D01*
X135153344Y-86736215D01*
X135002737Y-86699094D01*
X135002732Y-86699093D01*
X134995456Y-86697300D01*
X134825344Y-86697300D01*
X134818068Y-86699093D01*
X134818062Y-86699094D01*
X134667455Y-86736215D01*
X134667450Y-86736216D01*
X134660175Y-86738010D01*
X134653540Y-86741492D01*
X134653533Y-86741495D01*
X134516191Y-86813579D01*
X134516188Y-86813580D01*
X134509548Y-86817066D01*
X134503937Y-86822036D01*
X134503931Y-86822041D01*
X134387830Y-86924898D01*
X134382217Y-86929871D01*
X134377962Y-86936035D01*
X134377957Y-86936041D01*
X134289845Y-87063693D01*
X134289842Y-87063697D01*
X134285582Y-87069870D01*
X134282923Y-87076881D01*
X134282920Y-87076887D01*
X134227920Y-87221911D01*
X134227917Y-87221919D01*
X134225260Y-87228928D01*
X134224356Y-87236370D01*
X134224355Y-87236376D01*
X134208932Y-87363400D01*
X134204755Y-87397800D01*
X134205659Y-87405245D01*
X134224355Y-87559223D01*
X134224356Y-87559227D01*
X134225260Y-87566672D01*
X134227918Y-87573682D01*
X134227920Y-87573688D01*
X134282920Y-87718712D01*
X134285582Y-87725730D01*
X134289844Y-87731905D01*
X134289845Y-87731906D01*
X134376367Y-87857255D01*
X134382217Y-87865729D01*
X134509548Y-87978534D01*
X134660175Y-88057590D01*
X134825344Y-88098300D01*
X134832844Y-88098300D01*
X134993145Y-88098300D01*
X135040598Y-88107739D01*
X135080826Y-88134619D01*
X137443491Y-90497284D01*
X137443494Y-90497286D01*
X137466058Y-90519850D01*
X137474753Y-90524280D01*
X137474754Y-90524281D01*
X137485796Y-90529907D01*
X137502380Y-90540069D01*
X137520311Y-90553096D01*
X137541382Y-90559942D01*
X137559351Y-90567385D01*
X137579096Y-90577446D01*
X137600976Y-90580911D01*
X137619901Y-90585455D01*
X137640967Y-90592300D01*
X137672881Y-90592300D01*
X137767833Y-90592300D01*
X149104767Y-90592300D01*
X149199719Y-90592300D01*
X149221877Y-90592300D01*
X149231633Y-90592300D01*
X149252695Y-90585456D01*
X149271623Y-90580911D01*
X149293504Y-90577446D01*
X149313245Y-90567386D01*
X149331214Y-90559943D01*
X149352290Y-90553096D01*
X149370216Y-90540071D01*
X149386802Y-90529907D01*
X149406542Y-90519850D01*
X149429105Y-90497286D01*
X149429109Y-90497284D01*
X149725484Y-90200909D01*
X149725486Y-90200905D01*
X149748050Y-90178342D01*
X149758107Y-90158602D01*
X149768271Y-90142016D01*
X149781296Y-90124090D01*
X149788143Y-90103014D01*
X149795584Y-90085049D01*
X149804653Y-90067250D01*
X149850511Y-90017724D01*
X149915519Y-89999554D01*
X149980412Y-90018127D01*
X150050101Y-90061277D01*
X150050105Y-90061279D01*
X150054981Y-90064298D01*
X150253802Y-90141321D01*
X150463390Y-90180500D01*
X150670881Y-90180500D01*
X150676610Y-90180500D01*
X150886198Y-90141321D01*
X151085019Y-90064298D01*
X151266302Y-89952052D01*
X151423872Y-89808407D01*
X151552366Y-89638255D01*
X151647405Y-89447389D01*
X151705756Y-89242310D01*
X151716529Y-89126047D01*
X151736633Y-89068996D01*
X151779410Y-89029999D01*
X151900589Y-89029999D01*
X151943367Y-89068996D01*
X151963471Y-89126048D01*
X151970348Y-89200272D01*
X151974244Y-89242310D01*
X151975812Y-89247821D01*
X151975814Y-89247831D01*
X152031024Y-89441870D01*
X152031026Y-89441876D01*
X152032595Y-89447389D01*
X152127634Y-89638255D01*
X152131086Y-89642826D01*
X152232668Y-89777342D01*
X152256128Y-89808407D01*
X152413698Y-89952052D01*
X152418563Y-89955064D01*
X152418564Y-89955065D01*
X152435369Y-89965470D01*
X152594981Y-90064298D01*
X152793802Y-90141321D01*
X153003390Y-90180500D01*
X153210881Y-90180500D01*
X153216610Y-90180500D01*
X153426198Y-90141321D01*
X153625019Y-90064298D01*
X153806302Y-89952052D01*
X153963872Y-89808407D01*
X154092366Y-89638255D01*
X154187405Y-89447389D01*
X154245756Y-89242310D01*
X154265429Y-89030000D01*
X154245756Y-88817690D01*
X154243445Y-88809569D01*
X154188975Y-88618129D01*
X154187405Y-88612611D01*
X154092366Y-88421745D01*
X153963872Y-88251593D01*
X153936579Y-88226712D01*
X153810531Y-88111803D01*
X153810529Y-88111801D01*
X153806302Y-88107948D01*
X153801438Y-88104936D01*
X153801435Y-88104934D01*
X153629890Y-87998718D01*
X153629889Y-87998717D01*
X153625019Y-87995702D01*
X153619681Y-87993634D01*
X153619677Y-87993632D01*
X153431545Y-87920750D01*
X153431540Y-87920748D01*
X153426198Y-87918679D01*
X153420560Y-87917625D01*
X153222239Y-87880552D01*
X153222236Y-87880551D01*
X153216610Y-87879500D01*
X153003390Y-87879500D01*
X152997764Y-87880551D01*
X152997760Y-87880552D01*
X152799439Y-87917625D01*
X152799436Y-87917625D01*
X152793802Y-87918679D01*
X152788461Y-87920747D01*
X152788454Y-87920750D01*
X152600322Y-87993632D01*
X152600313Y-87993636D01*
X152594981Y-87995702D01*
X152590114Y-87998715D01*
X152590109Y-87998718D01*
X152418564Y-88104934D01*
X152418555Y-88104940D01*
X152413698Y-88107948D01*
X152409475Y-88111797D01*
X152409468Y-88111803D01*
X152260360Y-88247734D01*
X152260354Y-88247739D01*
X152256128Y-88251593D01*
X152252681Y-88256156D01*
X152252675Y-88256164D01*
X152131086Y-88417173D01*
X152131083Y-88417177D01*
X152127634Y-88421745D01*
X152125082Y-88426870D01*
X152125079Y-88426875D01*
X152036631Y-88604505D01*
X152032595Y-88612611D01*
X152031027Y-88618119D01*
X152031024Y-88618129D01*
X151975814Y-88812168D01*
X151975811Y-88812179D01*
X151974244Y-88817690D01*
X151973714Y-88823400D01*
X151973714Y-88823405D01*
X151963471Y-88933951D01*
X151943367Y-88991003D01*
X151900589Y-89029999D01*
X151779410Y-89029999D01*
X151736633Y-88991003D01*
X151716529Y-88933951D01*
X151714232Y-88909167D01*
X151705756Y-88817690D01*
X151703445Y-88809569D01*
X151648975Y-88618129D01*
X151647405Y-88612611D01*
X151552366Y-88421745D01*
X151423872Y-88251593D01*
X151396579Y-88226712D01*
X151270531Y-88111803D01*
X151270529Y-88111801D01*
X151266302Y-88107948D01*
X151261438Y-88104936D01*
X151261435Y-88104934D01*
X151089890Y-87998718D01*
X151089889Y-87998717D01*
X151085019Y-87995702D01*
X151079681Y-87993634D01*
X151079677Y-87993632D01*
X150891545Y-87920750D01*
X150891540Y-87920748D01*
X150886198Y-87918679D01*
X150847296Y-87911407D01*
X150787291Y-87900190D01*
X150689388Y-87881888D01*
X150628636Y-87851637D01*
X150592908Y-87793934D01*
X150592908Y-87726066D01*
X150628636Y-87668363D01*
X150689388Y-87638111D01*
X150886198Y-87601321D01*
X151085019Y-87524298D01*
X151266302Y-87412052D01*
X151423872Y-87268407D01*
X151552366Y-87098255D01*
X151647405Y-86907389D01*
X151680062Y-86792612D01*
X152107278Y-86792612D01*
X152107971Y-86803896D01*
X152133464Y-86887934D01*
X152138103Y-86899134D01*
X152229857Y-87070795D01*
X152236599Y-87080884D01*
X152360082Y-87231348D01*
X152368651Y-87239917D01*
X152519115Y-87363400D01*
X152529204Y-87370142D01*
X152700865Y-87461896D01*
X152712065Y-87466535D01*
X152796103Y-87492028D01*
X152807387Y-87492721D01*
X152810000Y-87481720D01*
X153410000Y-87481720D01*
X153412612Y-87492721D01*
X153423896Y-87492028D01*
X153507934Y-87466535D01*
X153519134Y-87461896D01*
X153690795Y-87370142D01*
X153700884Y-87363400D01*
X153851348Y-87239917D01*
X153859917Y-87231348D01*
X153983400Y-87080884D01*
X153990142Y-87070795D01*
X154081896Y-86899134D01*
X154086535Y-86887934D01*
X154112028Y-86803896D01*
X154112721Y-86792612D01*
X154101720Y-86790000D01*
X153426326Y-86790000D01*
X153413450Y-86793450D01*
X153410000Y-86806326D01*
X153410000Y-87481720D01*
X152810000Y-87481720D01*
X152810000Y-86806326D01*
X152806549Y-86793450D01*
X152793674Y-86790000D01*
X152118280Y-86790000D01*
X152107278Y-86792612D01*
X151680062Y-86792612D01*
X151705756Y-86702310D01*
X151725429Y-86490000D01*
X151705756Y-86277690D01*
X151687431Y-86213287D01*
X151680062Y-86187387D01*
X152107278Y-86187387D01*
X152118280Y-86190000D01*
X152793674Y-86190000D01*
X152806549Y-86186549D01*
X152810000Y-86173674D01*
X153410000Y-86173674D01*
X153413450Y-86186549D01*
X153426326Y-86190000D01*
X154101720Y-86190000D01*
X154112721Y-86187387D01*
X154112028Y-86176103D01*
X154086535Y-86092065D01*
X154081896Y-86080865D01*
X153990142Y-85909204D01*
X153983400Y-85899115D01*
X153859917Y-85748651D01*
X153851348Y-85740082D01*
X153700884Y-85616599D01*
X153690795Y-85609857D01*
X153519134Y-85518103D01*
X153507934Y-85513464D01*
X153423896Y-85487971D01*
X153412612Y-85487278D01*
X153410000Y-85498280D01*
X153410000Y-86173674D01*
X152810000Y-86173674D01*
X152810000Y-85498280D01*
X152807387Y-85487278D01*
X152796103Y-85487971D01*
X152712065Y-85513464D01*
X152700865Y-85518103D01*
X152529204Y-85609857D01*
X152519115Y-85616599D01*
X152368651Y-85740082D01*
X152360082Y-85748651D01*
X152236599Y-85899115D01*
X152229857Y-85909204D01*
X152138103Y-86080865D01*
X152133464Y-86092065D01*
X152107971Y-86176103D01*
X152107278Y-86187387D01*
X151680062Y-86187387D01*
X151652940Y-86092065D01*
X151647405Y-86072611D01*
X151552366Y-85881745D01*
X151423872Y-85711593D01*
X151266302Y-85567948D01*
X151261438Y-85564936D01*
X151261435Y-85564934D01*
X151089890Y-85458718D01*
X151089889Y-85458717D01*
X151085019Y-85455702D01*
X151079681Y-85453634D01*
X151079677Y-85453632D01*
X150891545Y-85380750D01*
X150891540Y-85380748D01*
X150886198Y-85378679D01*
X150880560Y-85377625D01*
X150682239Y-85340552D01*
X150682236Y-85340551D01*
X150676610Y-85339500D01*
X150463390Y-85339500D01*
X150457764Y-85340551D01*
X150457760Y-85340552D01*
X150259439Y-85377625D01*
X150259436Y-85377625D01*
X150253802Y-85378679D01*
X150248463Y-85380747D01*
X150248450Y-85380751D01*
X150141355Y-85422240D01*
X150074904Y-85428707D01*
X150014731Y-85399778D01*
X149978282Y-85343839D01*
X149976123Y-85277109D01*
X150008881Y-85218932D01*
X150090592Y-85137222D01*
X151001594Y-84226219D01*
X151041823Y-84199339D01*
X151089276Y-84189900D01*
X163353724Y-84189900D01*
X163401177Y-84199339D01*
X163441405Y-84226219D01*
X167093196Y-87878010D01*
X167117002Y-87911407D01*
X167128611Y-87950743D01*
X167142755Y-88067224D01*
X167142756Y-88067228D01*
X167143660Y-88074672D01*
X167146318Y-88081682D01*
X167146320Y-88081688D01*
X167201320Y-88226712D01*
X167203982Y-88233730D01*
X167300617Y-88373729D01*
X167354816Y-88421745D01*
X167403189Y-88464600D01*
X167427948Y-88486534D01*
X167578575Y-88565590D01*
X167743744Y-88606300D01*
X167770124Y-88606300D01*
X167817577Y-88615739D01*
X167857805Y-88642619D01*
X168904847Y-89689661D01*
X168931727Y-89729889D01*
X168941166Y-89777342D01*
X168941166Y-91986212D01*
X168931727Y-92033665D01*
X168904847Y-92073893D01*
X168864618Y-92100773D01*
X168740079Y-92152357D01*
X168740066Y-92152363D01*
X168735577Y-92154223D01*
X168731423Y-92156768D01*
X168731422Y-92156769D01*
X168531645Y-92279192D01*
X168531636Y-92279198D01*
X168527487Y-92281741D01*
X168523787Y-92284900D01*
X168523776Y-92284909D01*
X168345614Y-92437074D01*
X168345607Y-92437080D01*
X168341907Y-92440241D01*
X168338746Y-92443941D01*
X168338740Y-92443948D01*
X168186575Y-92622110D01*
X168186566Y-92622121D01*
X168183407Y-92625821D01*
X168180864Y-92629970D01*
X168180858Y-92629979D01*
X168058435Y-92829756D01*
X168055889Y-92833911D01*
X168054029Y-92838400D01*
X168054023Y-92838413D01*
X168043860Y-92862952D01*
X168016981Y-92903181D01*
X167976752Y-92930061D01*
X167929299Y-92939500D01*
X140072367Y-92939500D01*
X140024914Y-92930061D01*
X139984685Y-92903181D01*
X139957806Y-92862952D01*
X139947642Y-92838413D01*
X139947640Y-92838410D01*
X139945777Y-92833911D01*
X139818259Y-92625821D01*
X139659759Y-92440241D01*
X139656051Y-92437074D01*
X139477889Y-92284909D01*
X139477884Y-92284905D01*
X139474179Y-92281741D01*
X139470023Y-92279194D01*
X139470020Y-92279192D01*
X139378374Y-92223031D01*
X139266089Y-92154223D01*
X139261594Y-92152361D01*
X139261586Y-92152357D01*
X139045117Y-92062694D01*
X139045116Y-92062693D01*
X139040612Y-92060828D01*
X139035875Y-92059690D01*
X139035873Y-92059690D01*
X138808031Y-92004989D01*
X138808026Y-92004988D01*
X138803302Y-92003854D01*
X138798455Y-92003472D01*
X138798452Y-92003472D01*
X138564854Y-91985088D01*
X138560000Y-91984706D01*
X138555146Y-91985088D01*
X138321547Y-92003472D01*
X138321542Y-92003472D01*
X138316698Y-92003854D01*
X138311975Y-92004987D01*
X138311968Y-92004989D01*
X138084126Y-92059690D01*
X138084120Y-92059691D01*
X138079388Y-92060828D01*
X138074886Y-92062692D01*
X138074882Y-92062694D01*
X137858413Y-92152357D01*
X137858400Y-92152363D01*
X137853911Y-92154223D01*
X137849757Y-92156768D01*
X137849756Y-92156769D01*
X137649979Y-92279192D01*
X137649970Y-92279198D01*
X137645821Y-92281741D01*
X137642121Y-92284900D01*
X137642110Y-92284909D01*
X137463948Y-92437074D01*
X137463941Y-92437080D01*
X137460241Y-92440241D01*
X137457080Y-92443941D01*
X137457074Y-92443948D01*
X137304909Y-92622110D01*
X137304900Y-92622121D01*
X137301741Y-92625821D01*
X137299198Y-92629970D01*
X137299192Y-92629979D01*
X137176769Y-92829756D01*
X137174223Y-92833911D01*
X137172363Y-92838400D01*
X137172357Y-92838413D01*
X137162194Y-92862952D01*
X137135315Y-92903181D01*
X137095086Y-92930061D01*
X137047633Y-92939500D01*
X109190701Y-92939500D01*
X109143248Y-92930061D01*
X109103019Y-92903181D01*
X109076140Y-92862952D01*
X109065976Y-92838413D01*
X109065974Y-92838410D01*
X109064111Y-92833911D01*
X108936593Y-92625821D01*
X108778093Y-92440241D01*
X108774385Y-92437074D01*
X108596223Y-92284909D01*
X108596218Y-92284905D01*
X108592513Y-92281741D01*
X108588357Y-92279194D01*
X108588354Y-92279192D01*
X108496708Y-92223031D01*
X108384423Y-92154223D01*
X108379928Y-92152361D01*
X108379920Y-92152357D01*
X108163451Y-92062694D01*
X108163450Y-92062693D01*
X108158946Y-92060828D01*
X108154209Y-92059690D01*
X108154207Y-92059690D01*
X107926365Y-92004989D01*
X107926360Y-92004988D01*
X107921636Y-92003854D01*
X107916789Y-92003472D01*
X107916786Y-92003472D01*
X107683188Y-91985088D01*
X107678334Y-91984706D01*
X107673480Y-91985088D01*
X107439881Y-92003472D01*
X107439876Y-92003472D01*
X107435032Y-92003854D01*
X107430309Y-92004987D01*
X107430302Y-92004989D01*
X107202460Y-92059690D01*
X107202454Y-92059691D01*
X107197722Y-92060828D01*
X107193220Y-92062692D01*
X107193216Y-92062694D01*
X106976747Y-92152357D01*
X106976734Y-92152363D01*
X106972245Y-92154223D01*
X106968091Y-92156768D01*
X106968090Y-92156769D01*
X106768313Y-92279192D01*
X106768304Y-92279198D01*
X106764155Y-92281741D01*
X106760455Y-92284900D01*
X106760444Y-92284909D01*
X106582282Y-92437074D01*
X106582275Y-92437080D01*
X106578575Y-92440241D01*
X106575414Y-92443941D01*
X106575408Y-92443948D01*
X106423243Y-92622110D01*
X106423234Y-92622121D01*
X106420075Y-92625821D01*
X106417532Y-92629970D01*
X106417526Y-92629979D01*
X106295103Y-92829756D01*
X106292557Y-92833911D01*
X106290697Y-92838400D01*
X106290691Y-92838413D01*
X106201028Y-93054882D01*
X106199162Y-93059388D01*
X106198025Y-93064120D01*
X106198024Y-93064126D01*
X106143323Y-93291968D01*
X106143321Y-93291975D01*
X106142188Y-93296698D01*
X106123040Y-93540000D01*
X106123422Y-93544854D01*
X106126230Y-93580540D01*
X106142188Y-93783302D01*
X106143322Y-93788026D01*
X106143323Y-93788031D01*
X106186468Y-93967739D01*
X106187044Y-94023119D01*
X106163453Y-94073226D01*
X106120401Y-94108065D01*
X106066475Y-94120686D01*
X90721712Y-94192587D01*
X89735080Y-94197210D01*
X89672836Y-94180792D01*
X89627210Y-94135380D01*
X89610500Y-94073212D01*
X89610500Y-86534200D01*
X121809555Y-86534200D01*
X121810459Y-86541642D01*
X121810459Y-86541645D01*
X121829155Y-86695623D01*
X121829156Y-86695627D01*
X121830060Y-86703072D01*
X121832718Y-86710082D01*
X121832720Y-86710088D01*
X121874006Y-86818950D01*
X121890382Y-86862130D01*
X121894644Y-86868305D01*
X121894645Y-86868306D01*
X121937140Y-86929871D01*
X121987017Y-87002129D01*
X122050973Y-87058789D01*
X122089729Y-87093124D01*
X122114348Y-87114934D01*
X122264975Y-87193990D01*
X122430144Y-87234700D01*
X122437644Y-87234700D01*
X122597945Y-87234700D01*
X122645398Y-87244139D01*
X122685626Y-87271019D01*
X124516781Y-89102173D01*
X124543661Y-89142401D01*
X124553100Y-89189854D01*
X124553100Y-89656547D01*
X124542175Y-89707438D01*
X124511329Y-89749359D01*
X124425417Y-89825471D01*
X124421162Y-89831635D01*
X124421157Y-89831641D01*
X124333045Y-89959293D01*
X124333042Y-89959297D01*
X124328782Y-89965470D01*
X124326123Y-89972481D01*
X124326120Y-89972487D01*
X124271120Y-90117511D01*
X124271117Y-90117519D01*
X124268460Y-90124528D01*
X124267556Y-90131970D01*
X124267555Y-90131976D01*
X124259185Y-90200911D01*
X124247955Y-90293400D01*
X124248859Y-90300845D01*
X124267555Y-90454823D01*
X124267556Y-90454827D01*
X124268460Y-90462272D01*
X124271118Y-90469282D01*
X124271120Y-90469288D01*
X124326120Y-90614312D01*
X124328782Y-90621330D01*
X124333044Y-90627505D01*
X124333045Y-90627506D01*
X124399199Y-90723347D01*
X124425417Y-90761329D01*
X124552748Y-90874134D01*
X124703375Y-90953190D01*
X124868544Y-90993900D01*
X125031156Y-90993900D01*
X125038656Y-90993900D01*
X125203825Y-90953190D01*
X125354452Y-90874134D01*
X125481783Y-90761329D01*
X125578418Y-90621330D01*
X125638740Y-90462272D01*
X125659245Y-90293400D01*
X125638740Y-90124528D01*
X125578418Y-89965470D01*
X125481783Y-89825471D01*
X125395870Y-89749359D01*
X125365025Y-89707438D01*
X125354100Y-89656547D01*
X125354100Y-88941093D01*
X125354099Y-88941069D01*
X125354099Y-88918927D01*
X125354099Y-88909167D01*
X125347252Y-88888095D01*
X125342711Y-88869178D01*
X125339246Y-88847296D01*
X125329183Y-88827546D01*
X125321742Y-88809583D01*
X125314896Y-88788510D01*
X125301875Y-88770589D01*
X125291705Y-88753994D01*
X125281650Y-88734258D01*
X125191942Y-88644550D01*
X124249382Y-87701990D01*
X123248459Y-86701066D01*
X123218922Y-86653833D01*
X123213044Y-86598440D01*
X123220845Y-86534200D01*
X123200340Y-86365328D01*
X123140018Y-86206270D01*
X123043383Y-86066271D01*
X122916052Y-85953466D01*
X122825578Y-85905981D01*
X122772066Y-85877895D01*
X122772062Y-85877893D01*
X122765425Y-85874410D01*
X122758147Y-85872616D01*
X122758144Y-85872615D01*
X122607537Y-85835494D01*
X122607532Y-85835493D01*
X122600256Y-85833700D01*
X122430144Y-85833700D01*
X122422868Y-85835493D01*
X122422862Y-85835494D01*
X122272255Y-85872615D01*
X122272250Y-85872616D01*
X122264975Y-85874410D01*
X122258340Y-85877892D01*
X122258333Y-85877895D01*
X122120991Y-85949979D01*
X122120988Y-85949980D01*
X122114348Y-85953466D01*
X122108737Y-85958436D01*
X122108731Y-85958441D01*
X121996022Y-86058293D01*
X121987017Y-86066271D01*
X121982762Y-86072435D01*
X121982757Y-86072441D01*
X121894645Y-86200093D01*
X121894642Y-86200097D01*
X121890382Y-86206270D01*
X121887723Y-86213281D01*
X121887720Y-86213287D01*
X121832720Y-86358311D01*
X121832717Y-86358319D01*
X121830060Y-86365328D01*
X121829156Y-86372770D01*
X121829155Y-86372776D01*
X121815615Y-86484291D01*
X121809555Y-86534200D01*
X89610500Y-86534200D01*
X89610500Y-79219000D01*
X129531155Y-79219000D01*
X129532059Y-79226445D01*
X129550755Y-79380423D01*
X129550756Y-79380427D01*
X129551660Y-79387872D01*
X129554318Y-79394882D01*
X129554320Y-79394888D01*
X129609320Y-79539912D01*
X129611982Y-79546930D01*
X129616244Y-79553105D01*
X129616245Y-79553106D01*
X129701684Y-79676886D01*
X129708617Y-79686929D01*
X129835948Y-79799734D01*
X129986575Y-79878790D01*
X130151744Y-79919500D01*
X130314356Y-79919500D01*
X130321856Y-79919500D01*
X130487025Y-79878790D01*
X130637652Y-79799734D01*
X130764983Y-79686929D01*
X130774556Y-79673059D01*
X130818980Y-79633704D01*
X130876606Y-79619500D01*
X131526081Y-79619500D01*
X131589119Y-79619500D01*
X131695945Y-79619500D01*
X131743398Y-79628939D01*
X131783626Y-79655819D01*
X132014113Y-79886305D01*
X132014116Y-79886309D01*
X132492381Y-80364574D01*
X132519261Y-80404802D01*
X132528700Y-80452255D01*
X132528700Y-82861277D01*
X132512706Y-82922193D01*
X132468850Y-82967394D01*
X132408445Y-82985220D01*
X132347074Y-82971073D01*
X132271666Y-82931495D01*
X132271662Y-82931493D01*
X132265025Y-82928010D01*
X132257747Y-82926216D01*
X132257744Y-82926215D01*
X132107137Y-82889094D01*
X132107132Y-82889093D01*
X132099856Y-82887300D01*
X131929744Y-82887300D01*
X131922468Y-82889093D01*
X131922462Y-82889094D01*
X131771855Y-82926215D01*
X131771850Y-82926216D01*
X131764575Y-82928010D01*
X131757940Y-82931492D01*
X131757933Y-82931495D01*
X131620591Y-83003579D01*
X131620588Y-83003580D01*
X131613948Y-83007066D01*
X131608337Y-83012036D01*
X131608331Y-83012041D01*
X131500900Y-83107217D01*
X131486617Y-83119871D01*
X131482362Y-83126035D01*
X131482357Y-83126041D01*
X131394245Y-83253693D01*
X131394242Y-83253697D01*
X131389982Y-83259870D01*
X131387323Y-83266881D01*
X131387320Y-83266887D01*
X131332320Y-83411911D01*
X131332317Y-83411919D01*
X131329660Y-83418928D01*
X131328756Y-83426370D01*
X131328755Y-83426376D01*
X131315891Y-83532324D01*
X131309155Y-83587800D01*
X131310059Y-83595245D01*
X131328755Y-83749223D01*
X131328756Y-83749227D01*
X131329660Y-83756672D01*
X131332318Y-83763682D01*
X131332320Y-83763688D01*
X131381441Y-83893210D01*
X131389982Y-83915730D01*
X131394244Y-83921905D01*
X131394245Y-83921906D01*
X131481908Y-84048908D01*
X131486617Y-84055729D01*
X131613948Y-84168534D01*
X131642682Y-84183615D01*
X131649526Y-84187207D01*
X131698017Y-84232853D01*
X131715900Y-84297003D01*
X131715900Y-87827747D01*
X131704975Y-87878638D01*
X131674129Y-87920559D01*
X131588217Y-87996671D01*
X131583962Y-88002835D01*
X131583957Y-88002841D01*
X131495845Y-88130493D01*
X131495842Y-88130497D01*
X131491582Y-88136670D01*
X131488923Y-88143681D01*
X131488920Y-88143687D01*
X131433920Y-88288711D01*
X131433917Y-88288719D01*
X131431260Y-88295728D01*
X131430356Y-88303170D01*
X131430355Y-88303176D01*
X131415336Y-88426875D01*
X131410755Y-88464600D01*
X131411659Y-88472045D01*
X131430355Y-88626023D01*
X131430356Y-88626027D01*
X131431260Y-88633472D01*
X131433918Y-88640482D01*
X131433920Y-88640488D01*
X131488920Y-88785512D01*
X131491582Y-88792530D01*
X131495844Y-88798705D01*
X131495845Y-88798706D01*
X131544488Y-88869178D01*
X131588217Y-88932529D01*
X131654221Y-88991003D01*
X131704683Y-89035709D01*
X131715548Y-89045334D01*
X131866175Y-89124390D01*
X132031344Y-89165100D01*
X132193956Y-89165100D01*
X132201456Y-89165100D01*
X132366625Y-89124390D01*
X132366757Y-89124927D01*
X132419644Y-89118505D01*
X132475138Y-89139550D01*
X132514496Y-89183974D01*
X132528700Y-89241601D01*
X132528700Y-90723347D01*
X132517775Y-90774238D01*
X132486929Y-90816159D01*
X132401017Y-90892271D01*
X132396762Y-90898435D01*
X132396757Y-90898441D01*
X132308645Y-91026093D01*
X132308642Y-91026097D01*
X132304382Y-91032270D01*
X132301723Y-91039281D01*
X132301720Y-91039287D01*
X132246720Y-91184311D01*
X132246717Y-91184319D01*
X132244060Y-91191328D01*
X132243156Y-91198770D01*
X132243155Y-91198776D01*
X132224556Y-91351955D01*
X132223555Y-91360200D01*
X132224459Y-91367645D01*
X132243155Y-91521623D01*
X132243156Y-91521627D01*
X132244060Y-91529072D01*
X132246718Y-91536082D01*
X132246720Y-91536088D01*
X132301720Y-91681112D01*
X132304382Y-91688130D01*
X132401017Y-91828129D01*
X132528348Y-91940934D01*
X132678975Y-92019990D01*
X132844144Y-92060700D01*
X133006756Y-92060700D01*
X133014256Y-92060700D01*
X133179425Y-92019990D01*
X133330052Y-91940934D01*
X133457383Y-91828129D01*
X133554018Y-91688130D01*
X133614340Y-91529072D01*
X133634845Y-91360200D01*
X133614340Y-91191328D01*
X133554018Y-91032270D01*
X133457383Y-90892271D01*
X133371470Y-90816159D01*
X133340625Y-90774238D01*
X133329700Y-90723347D01*
X133329700Y-80181324D01*
X133329700Y-80171567D01*
X133322851Y-80150489D01*
X133318312Y-80131585D01*
X133314846Y-80109696D01*
X133304785Y-80089950D01*
X133297346Y-80071991D01*
X133290497Y-80050911D01*
X133277471Y-80032982D01*
X133267308Y-80016398D01*
X133257250Y-79996658D01*
X133234686Y-79974094D01*
X133234684Y-79974091D01*
X132580509Y-79319916D01*
X132580505Y-79319913D01*
X132457473Y-79196881D01*
X132425511Y-79141776D01*
X132425127Y-79078073D01*
X132456422Y-79022585D01*
X132511138Y-78989959D01*
X132574828Y-78988804D01*
X132640944Y-79005100D01*
X132648444Y-79005100D01*
X132808745Y-79005100D01*
X132856198Y-79014539D01*
X132896426Y-79041419D01*
X133531891Y-79676884D01*
X133531894Y-79676886D01*
X133554458Y-79699450D01*
X133574196Y-79709507D01*
X133590784Y-79719673D01*
X133600810Y-79726957D01*
X133600812Y-79726958D01*
X133608710Y-79732696D01*
X133629781Y-79739542D01*
X133647754Y-79746986D01*
X133667496Y-79757046D01*
X133689381Y-79760512D01*
X133708289Y-79765051D01*
X133729367Y-79771900D01*
X133761281Y-79771900D01*
X133856233Y-79771900D01*
X139502994Y-79771900D01*
X139560620Y-79786104D01*
X139605043Y-79825459D01*
X139614617Y-79839329D01*
X139741948Y-79952134D01*
X139892575Y-80031190D01*
X140057744Y-80071900D01*
X140220356Y-80071900D01*
X140227856Y-80071900D01*
X140393025Y-80031190D01*
X140543652Y-79952134D01*
X140670983Y-79839329D01*
X140767618Y-79699330D01*
X140827940Y-79540272D01*
X140848445Y-79371400D01*
X140827940Y-79202528D01*
X140767618Y-79043470D01*
X140670983Y-78903471D01*
X140543652Y-78790666D01*
X140467123Y-78750500D01*
X140399666Y-78715095D01*
X140399662Y-78715093D01*
X140393025Y-78711610D01*
X140385747Y-78709816D01*
X140385744Y-78709815D01*
X140235137Y-78672694D01*
X140235132Y-78672693D01*
X140227856Y-78670900D01*
X140057744Y-78670900D01*
X140050468Y-78672693D01*
X140050462Y-78672694D01*
X139899855Y-78709815D01*
X139899850Y-78709816D01*
X139892575Y-78711610D01*
X139885940Y-78715092D01*
X139885933Y-78715095D01*
X139748591Y-78787179D01*
X139748588Y-78787180D01*
X139741948Y-78790666D01*
X139736337Y-78795636D01*
X139736331Y-78795641D01*
X139620694Y-78898087D01*
X139614617Y-78903471D01*
X139610358Y-78909640D01*
X139610358Y-78909641D01*
X139605044Y-78917340D01*
X139560620Y-78956696D01*
X139502994Y-78970900D01*
X134010055Y-78970900D01*
X133962602Y-78961461D01*
X133922374Y-78934581D01*
X133459259Y-78471466D01*
X133429722Y-78424233D01*
X133423844Y-78368840D01*
X133431645Y-78304600D01*
X133411140Y-78135728D01*
X133350818Y-77976670D01*
X133254183Y-77836671D01*
X133126852Y-77723866D01*
X133101823Y-77710729D01*
X132982866Y-77648295D01*
X132982862Y-77648293D01*
X132976225Y-77644810D01*
X132968947Y-77643016D01*
X132968944Y-77643015D01*
X132818337Y-77605894D01*
X132818332Y-77605893D01*
X132811056Y-77604100D01*
X132640944Y-77604100D01*
X132633668Y-77605893D01*
X132633662Y-77605894D01*
X132483055Y-77643015D01*
X132483050Y-77643016D01*
X132475775Y-77644810D01*
X132469140Y-77648292D01*
X132469133Y-77648295D01*
X132331791Y-77720379D01*
X132331788Y-77720380D01*
X132325148Y-77723866D01*
X132319537Y-77728836D01*
X132319531Y-77728841D01*
X132219083Y-77817831D01*
X132197817Y-77836671D01*
X132193562Y-77842835D01*
X132193557Y-77842841D01*
X132105445Y-77970493D01*
X132105442Y-77970497D01*
X132101182Y-77976670D01*
X132098523Y-77983681D01*
X132098520Y-77983687D01*
X132043520Y-78128711D01*
X132043517Y-78128719D01*
X132040860Y-78135728D01*
X132039956Y-78143170D01*
X132039955Y-78143176D01*
X132021356Y-78296355D01*
X132020355Y-78304600D01*
X132021259Y-78312042D01*
X132021259Y-78312045D01*
X132039955Y-78466023D01*
X132039956Y-78466027D01*
X132040860Y-78473472D01*
X132043518Y-78480482D01*
X132043520Y-78480488D01*
X132074697Y-78562695D01*
X132101182Y-78632530D01*
X132105443Y-78638703D01*
X132106120Y-78639993D01*
X132120024Y-78706226D01*
X132097081Y-78769895D01*
X132044124Y-78812034D01*
X131980291Y-78819688D01*
X131976633Y-78818500D01*
X131966876Y-78818500D01*
X130876606Y-78818500D01*
X130818980Y-78804296D01*
X130774556Y-78764940D01*
X130764983Y-78751071D01*
X130637652Y-78638266D01*
X130612623Y-78625129D01*
X130493666Y-78562695D01*
X130493662Y-78562693D01*
X130487025Y-78559210D01*
X130479747Y-78557416D01*
X130479744Y-78557415D01*
X130329137Y-78520294D01*
X130329132Y-78520293D01*
X130321856Y-78518500D01*
X130151744Y-78518500D01*
X130144468Y-78520293D01*
X130144462Y-78520294D01*
X129993855Y-78557415D01*
X129993850Y-78557416D01*
X129986575Y-78559210D01*
X129979940Y-78562692D01*
X129979933Y-78562695D01*
X129842591Y-78634779D01*
X129842588Y-78634780D01*
X129835948Y-78638266D01*
X129830337Y-78643236D01*
X129830331Y-78643241D01*
X129714230Y-78746098D01*
X129708617Y-78751071D01*
X129704362Y-78757235D01*
X129704357Y-78757241D01*
X129616245Y-78884893D01*
X129616242Y-78884897D01*
X129611982Y-78891070D01*
X129609323Y-78898081D01*
X129609320Y-78898087D01*
X129554320Y-79043111D01*
X129554317Y-79043119D01*
X129551660Y-79050128D01*
X129550756Y-79057570D01*
X129550755Y-79057576D01*
X129540532Y-79141776D01*
X129531155Y-79219000D01*
X89610500Y-79219000D01*
X89610500Y-72752784D01*
X91340828Y-72752784D01*
X91348691Y-72764058D01*
X91376851Y-72786968D01*
X91383766Y-72791850D01*
X91621987Y-72936715D01*
X91629489Y-72940602D01*
X91885228Y-73051686D01*
X91893181Y-73054512D01*
X92161664Y-73129738D01*
X92169942Y-73131458D01*
X92446158Y-73169423D01*
X92454593Y-73170000D01*
X92733407Y-73170000D01*
X92741841Y-73169423D01*
X93018057Y-73131458D01*
X93026335Y-73129738D01*
X93294818Y-73054512D01*
X93302771Y-73051686D01*
X93558510Y-72940602D01*
X93566012Y-72936715D01*
X93804235Y-72791848D01*
X93811147Y-72786969D01*
X93839310Y-72764056D01*
X93847170Y-72752785D01*
X93840502Y-72740767D01*
X92605542Y-71505806D01*
X92594000Y-71499142D01*
X92582457Y-71505806D01*
X91347495Y-72740768D01*
X91340828Y-72752784D01*
X89610500Y-72752784D01*
X89610500Y-71074225D01*
X90489382Y-71074225D01*
X90508408Y-71352385D01*
X90509561Y-71360774D01*
X90566285Y-71633740D01*
X90568570Y-71641897D01*
X90661935Y-71904600D01*
X90665305Y-71912359D01*
X90793577Y-72159913D01*
X90797973Y-72167141D01*
X90903791Y-72317052D01*
X90911923Y-72324454D01*
X90921189Y-72318544D01*
X92158192Y-71081542D01*
X92164856Y-71070000D01*
X93023142Y-71070000D01*
X93029806Y-71081542D01*
X94266809Y-72318544D01*
X94276076Y-72324454D01*
X94284204Y-72317056D01*
X94390028Y-72167138D01*
X94394422Y-72159913D01*
X94522694Y-71912359D01*
X94526064Y-71904600D01*
X94619429Y-71641897D01*
X94621714Y-71633740D01*
X94678438Y-71360774D01*
X94679591Y-71352385D01*
X94698618Y-71074225D01*
X94698618Y-71065775D01*
X94679591Y-70787614D01*
X94678438Y-70779225D01*
X94644311Y-70615000D01*
X124649571Y-70615000D01*
X124650100Y-70620709D01*
X124665565Y-70787614D01*
X124669244Y-70827310D01*
X124670812Y-70832821D01*
X124670814Y-70832831D01*
X124726024Y-71026870D01*
X124726026Y-71026876D01*
X124727595Y-71032389D01*
X124822634Y-71223255D01*
X124844016Y-71251569D01*
X124928050Y-71362848D01*
X124951128Y-71393407D01*
X125108698Y-71537052D01*
X125289981Y-71649298D01*
X125488802Y-71726321D01*
X125698390Y-71765500D01*
X125905881Y-71765500D01*
X125911610Y-71765500D01*
X126121198Y-71726321D01*
X126320019Y-71649298D01*
X126501302Y-71537052D01*
X126658872Y-71393407D01*
X126787366Y-71223255D01*
X126882405Y-71032389D01*
X126940756Y-70827310D01*
X126951529Y-70711047D01*
X126971633Y-70653996D01*
X127014410Y-70614999D01*
X127135589Y-70614999D01*
X127178367Y-70653996D01*
X127198471Y-70711048D01*
X127205565Y-70787614D01*
X127209244Y-70827310D01*
X127210812Y-70832821D01*
X127210814Y-70832831D01*
X127266024Y-71026870D01*
X127266026Y-71026876D01*
X127267595Y-71032389D01*
X127362634Y-71223255D01*
X127384016Y-71251569D01*
X127468050Y-71362848D01*
X127491128Y-71393407D01*
X127648698Y-71537052D01*
X127829981Y-71649298D01*
X128028802Y-71726321D01*
X128238390Y-71765500D01*
X128445881Y-71765500D01*
X128451610Y-71765500D01*
X128661198Y-71726321D01*
X128860019Y-71649298D01*
X129041302Y-71537052D01*
X129198872Y-71393407D01*
X129327366Y-71223255D01*
X129422405Y-71032389D01*
X129480756Y-70827310D01*
X129491529Y-70711047D01*
X129511633Y-70653996D01*
X129554410Y-70614999D01*
X129675589Y-70614999D01*
X129718367Y-70653996D01*
X129738471Y-70711048D01*
X129745565Y-70787614D01*
X129749244Y-70827310D01*
X129750812Y-70832821D01*
X129750814Y-70832831D01*
X129806024Y-71026870D01*
X129806026Y-71026876D01*
X129807595Y-71032389D01*
X129902634Y-71223255D01*
X129924016Y-71251569D01*
X130008050Y-71362848D01*
X130031128Y-71393407D01*
X130188698Y-71537052D01*
X130369981Y-71649298D01*
X130568802Y-71726321D01*
X130778390Y-71765500D01*
X130985881Y-71765500D01*
X130991610Y-71765500D01*
X131201198Y-71726321D01*
X131400019Y-71649298D01*
X131581302Y-71537052D01*
X131738872Y-71393407D01*
X131867366Y-71223255D01*
X131962405Y-71032389D01*
X132020756Y-70827310D01*
X132031529Y-70711047D01*
X132051633Y-70653996D01*
X132094410Y-70614999D01*
X132215589Y-70614999D01*
X132258367Y-70653996D01*
X132278471Y-70711048D01*
X132285565Y-70787614D01*
X132289244Y-70827310D01*
X132290812Y-70832821D01*
X132290814Y-70832831D01*
X132346024Y-71026870D01*
X132346026Y-71026876D01*
X132347595Y-71032389D01*
X132442634Y-71223255D01*
X132464016Y-71251569D01*
X132548050Y-71362848D01*
X132571128Y-71393407D01*
X132728698Y-71537052D01*
X132909981Y-71649298D01*
X133108802Y-71726321D01*
X133318390Y-71765500D01*
X133525881Y-71765500D01*
X133531610Y-71765500D01*
X133741198Y-71726321D01*
X133741225Y-71726466D01*
X133803755Y-71725743D01*
X133860267Y-71758081D01*
X134668013Y-72565827D01*
X134676564Y-72576438D01*
X134676652Y-72576363D01*
X134682463Y-72583068D01*
X134687257Y-72590528D01*
X134724800Y-72623058D01*
X134731262Y-72629076D01*
X134740807Y-72638621D01*
X134748790Y-72644597D01*
X134751607Y-72646706D01*
X134758499Y-72652260D01*
X134789319Y-72678966D01*
X134789325Y-72678970D01*
X134796027Y-72684777D01*
X134804094Y-72688461D01*
X134811554Y-72693255D01*
X134811490Y-72693353D01*
X134812129Y-72693732D01*
X134812185Y-72693630D01*
X134819965Y-72697878D01*
X134827069Y-72703196D01*
X134873622Y-72720559D01*
X134881760Y-72723930D01*
X134926943Y-72744565D01*
X134935726Y-72745827D01*
X134944232Y-72748325D01*
X134944198Y-72748437D01*
X134944915Y-72748620D01*
X134944940Y-72748506D01*
X134953604Y-72750390D01*
X134961917Y-72753491D01*
X135011452Y-72757033D01*
X135020237Y-72757978D01*
X135033601Y-72759900D01*
X135047092Y-72759900D01*
X135055938Y-72760215D01*
X135105473Y-72763759D01*
X135114139Y-72761873D01*
X135122986Y-72761241D01*
X135122994Y-72761356D01*
X135136544Y-72759900D01*
X143007955Y-72759900D01*
X143051926Y-72767958D01*
X143090182Y-72791085D01*
X143139927Y-72835155D01*
X143139930Y-72835157D01*
X143145548Y-72840134D01*
X143152190Y-72843620D01*
X143152193Y-72843622D01*
X143289533Y-72915704D01*
X143296175Y-72919190D01*
X143461344Y-72959900D01*
X143623956Y-72959900D01*
X143631456Y-72959900D01*
X143796625Y-72919190D01*
X143947252Y-72840134D01*
X144074583Y-72727329D01*
X144156426Y-72608760D01*
X181876705Y-72608760D01*
X181882636Y-72618372D01*
X182618457Y-73354193D01*
X182630000Y-73360857D01*
X182641542Y-73354193D01*
X183377362Y-72618372D01*
X183383293Y-72608760D01*
X183374864Y-72601238D01*
X183198807Y-72505961D01*
X183189453Y-72501858D01*
X182979709Y-72429853D01*
X182969800Y-72427344D01*
X182751070Y-72390844D01*
X182740873Y-72390000D01*
X182519127Y-72390000D01*
X182508929Y-72390844D01*
X182290199Y-72427344D01*
X182280290Y-72429853D01*
X182070546Y-72501858D01*
X182061192Y-72505961D01*
X181885134Y-72601238D01*
X181876705Y-72608760D01*
X144156426Y-72608760D01*
X144171218Y-72587330D01*
X144231540Y-72428272D01*
X144252045Y-72259400D01*
X144231540Y-72090528D01*
X144171218Y-71931470D01*
X144074583Y-71791471D01*
X143973524Y-71701941D01*
X143952868Y-71683641D01*
X143952866Y-71683639D01*
X143947252Y-71678666D01*
X143922223Y-71665529D01*
X143803266Y-71603095D01*
X143803262Y-71603093D01*
X143796625Y-71599610D01*
X143789347Y-71597816D01*
X143789344Y-71597815D01*
X143638737Y-71560694D01*
X143638732Y-71560693D01*
X143631456Y-71558900D01*
X143461344Y-71558900D01*
X143454068Y-71560693D01*
X143454062Y-71560694D01*
X143303455Y-71597815D01*
X143303450Y-71597816D01*
X143296175Y-71599610D01*
X143289540Y-71603092D01*
X143289533Y-71603095D01*
X143152193Y-71675177D01*
X143152184Y-71675182D01*
X143145548Y-71678666D01*
X143139935Y-71683637D01*
X143139927Y-71683644D01*
X143090182Y-71727715D01*
X143051926Y-71750842D01*
X143007955Y-71758900D01*
X139631148Y-71758900D01*
X139567399Y-71741258D01*
X139521790Y-71693353D01*
X139507297Y-71628816D01*
X139528046Y-71566010D01*
X139536610Y-71553192D01*
X139545778Y-71531057D01*
X139553810Y-71490678D01*
X139555000Y-71478602D01*
X139555000Y-71161953D01*
X189661201Y-71161953D01*
X189661456Y-71167586D01*
X189667015Y-71228770D01*
X189669561Y-71241569D01*
X189715948Y-71390432D01*
X189722064Y-71404020D01*
X189802245Y-71536656D01*
X189811428Y-71548377D01*
X189921022Y-71657971D01*
X189932742Y-71667154D01*
X190047093Y-71736281D01*
X190058185Y-71739463D01*
X190061200Y-71728325D01*
X190661200Y-71728325D01*
X190664214Y-71739463D01*
X190675306Y-71736281D01*
X190789657Y-71667154D01*
X190801377Y-71657971D01*
X190910971Y-71548377D01*
X190920154Y-71536656D01*
X191000335Y-71404020D01*
X191006451Y-71390432D01*
X191052838Y-71241572D01*
X191055384Y-71228768D01*
X191060547Y-71171953D01*
X200821201Y-71171953D01*
X200821456Y-71177586D01*
X200827015Y-71238770D01*
X200829561Y-71251569D01*
X200875948Y-71400432D01*
X200882064Y-71414020D01*
X200962245Y-71546656D01*
X200971428Y-71558377D01*
X201081022Y-71667971D01*
X201092742Y-71677154D01*
X201207093Y-71746281D01*
X201218185Y-71749463D01*
X201221200Y-71738325D01*
X201821200Y-71738325D01*
X201824214Y-71749463D01*
X201835306Y-71746281D01*
X201949657Y-71677154D01*
X201961377Y-71667971D01*
X202070971Y-71558377D01*
X202080154Y-71546656D01*
X202160335Y-71414020D01*
X202166451Y-71400432D01*
X202197550Y-71300631D01*
X202840600Y-71300631D01*
X202841017Y-71307798D01*
X202854501Y-71423164D01*
X202857809Y-71437121D01*
X202910833Y-71582804D01*
X202917275Y-71595632D01*
X203002470Y-71725162D01*
X203011689Y-71736149D01*
X203124459Y-71842543D01*
X203135967Y-71851110D01*
X203251459Y-71917789D01*
X203262612Y-71920777D01*
X203265600Y-71909627D01*
X203265600Y-71906758D01*
X203865600Y-71906758D01*
X203868410Y-71917893D01*
X203879750Y-71916063D01*
X203923933Y-71897004D01*
X203936363Y-71889828D01*
X204060720Y-71797247D01*
X204071153Y-71787404D01*
X204170811Y-71668637D01*
X204178692Y-71656655D01*
X204248275Y-71518103D01*
X204253179Y-71504628D01*
X204288934Y-71353767D01*
X204290600Y-71339516D01*
X204290600Y-71300631D01*
X209990600Y-71300631D01*
X209991017Y-71307798D01*
X210004501Y-71423164D01*
X210007809Y-71437121D01*
X210060833Y-71582804D01*
X210067275Y-71595632D01*
X210152470Y-71725162D01*
X210161689Y-71736149D01*
X210274459Y-71842543D01*
X210285967Y-71851110D01*
X210401459Y-71917789D01*
X210412612Y-71920777D01*
X210415600Y-71909627D01*
X210415600Y-71906758D01*
X211015600Y-71906758D01*
X211018410Y-71917893D01*
X211029750Y-71916063D01*
X211073933Y-71897004D01*
X211086363Y-71889828D01*
X211210720Y-71797247D01*
X211221153Y-71787404D01*
X211320811Y-71668637D01*
X211328692Y-71656655D01*
X211398275Y-71518103D01*
X211403179Y-71504628D01*
X211438934Y-71353767D01*
X211439465Y-71349225D01*
X212663382Y-71349225D01*
X212682408Y-71627385D01*
X212683561Y-71635774D01*
X212740285Y-71908740D01*
X212742570Y-71916897D01*
X212835935Y-72179600D01*
X212839305Y-72187359D01*
X212967577Y-72434913D01*
X212971973Y-72442141D01*
X213077791Y-72592052D01*
X213085923Y-72599454D01*
X213095189Y-72593544D01*
X214332192Y-71356542D01*
X214338856Y-71345000D01*
X214338855Y-71344999D01*
X215197142Y-71344999D01*
X215203806Y-71356541D01*
X216440809Y-72593544D01*
X216450076Y-72599454D01*
X216458204Y-72592056D01*
X216564028Y-72442138D01*
X216568422Y-72434913D01*
X216696694Y-72187359D01*
X216700064Y-72179600D01*
X216793429Y-71916897D01*
X216795714Y-71908740D01*
X216852438Y-71635774D01*
X216853591Y-71627385D01*
X216872618Y-71349225D01*
X216872618Y-71340775D01*
X216853591Y-71062614D01*
X216852438Y-71054225D01*
X216795714Y-70781259D01*
X216793429Y-70773102D01*
X216700064Y-70510399D01*
X216696694Y-70502640D01*
X216568422Y-70255086D01*
X216564026Y-70247858D01*
X216458207Y-70097946D01*
X216450075Y-70090544D01*
X216440809Y-70096454D01*
X215203806Y-71333456D01*
X215197142Y-71344999D01*
X214338855Y-71344999D01*
X214332192Y-71333457D01*
X213095189Y-70096454D01*
X213085922Y-70090544D01*
X213077793Y-70097944D01*
X212971967Y-70247866D01*
X212967578Y-70255083D01*
X212839305Y-70502640D01*
X212835935Y-70510399D01*
X212742570Y-70773102D01*
X212740285Y-70781259D01*
X212683561Y-71054225D01*
X212682408Y-71062614D01*
X212663382Y-71340775D01*
X212663382Y-71349225D01*
X211439465Y-71349225D01*
X211440600Y-71339516D01*
X211440600Y-71153326D01*
X211437149Y-71140450D01*
X211424274Y-71137000D01*
X211031926Y-71137000D01*
X211019050Y-71140450D01*
X211015600Y-71153326D01*
X211015600Y-71906758D01*
X210415600Y-71906758D01*
X210415600Y-71153326D01*
X210412149Y-71140450D01*
X210399274Y-71137000D01*
X210006926Y-71137000D01*
X209994050Y-71140450D01*
X209990600Y-71153326D01*
X209990600Y-71300631D01*
X204290600Y-71300631D01*
X204290600Y-71153326D01*
X204287149Y-71140450D01*
X204274274Y-71137000D01*
X203881926Y-71137000D01*
X203869050Y-71140450D01*
X203865600Y-71153326D01*
X203865600Y-71906758D01*
X203265600Y-71906758D01*
X203265600Y-71153326D01*
X203262149Y-71140450D01*
X203249274Y-71137000D01*
X202856926Y-71137000D01*
X202844050Y-71140450D01*
X202840600Y-71153326D01*
X202840600Y-71300631D01*
X202197550Y-71300631D01*
X202212838Y-71251572D01*
X202215384Y-71238768D01*
X202220944Y-71177584D01*
X202221200Y-71171956D01*
X202221200Y-70834526D01*
X202217749Y-70821650D01*
X202204874Y-70818200D01*
X201837526Y-70818200D01*
X201824650Y-70821650D01*
X201821200Y-70834526D01*
X201821200Y-71738325D01*
X201221200Y-71738325D01*
X201221200Y-70834526D01*
X201217749Y-70821650D01*
X201204874Y-70818200D01*
X200837527Y-70818200D01*
X200824651Y-70821650D01*
X200821201Y-70834526D01*
X200821201Y-71171953D01*
X191060547Y-71171953D01*
X191060944Y-71167584D01*
X191061200Y-71161956D01*
X191061200Y-70824526D01*
X191057749Y-70811650D01*
X191044874Y-70808200D01*
X190677526Y-70808200D01*
X190664650Y-70811650D01*
X190661200Y-70824526D01*
X190661200Y-71728325D01*
X190061200Y-71728325D01*
X190061200Y-70824526D01*
X190057749Y-70811650D01*
X190044874Y-70808200D01*
X189677527Y-70808200D01*
X189664651Y-70811650D01*
X189661201Y-70824526D01*
X189661201Y-71161953D01*
X139555000Y-71161953D01*
X139555000Y-70931326D01*
X139551549Y-70918450D01*
X139538674Y-70915000D01*
X137471326Y-70915000D01*
X137458450Y-70918450D01*
X137455000Y-70931326D01*
X137455000Y-71478602D01*
X137456189Y-71490678D01*
X137464221Y-71531057D01*
X137473389Y-71553192D01*
X137481954Y-71566010D01*
X137502703Y-71628816D01*
X137488210Y-71693353D01*
X137442601Y-71741258D01*
X137378852Y-71758900D01*
X136547374Y-71758900D01*
X136484673Y-71741879D01*
X136439185Y-71695489D01*
X136423398Y-71632466D01*
X136441647Y-71570110D01*
X136488921Y-71525542D01*
X136545794Y-71495142D01*
X136555884Y-71488400D01*
X136706348Y-71364917D01*
X136714917Y-71356348D01*
X136838400Y-71205884D01*
X136845142Y-71195795D01*
X136936896Y-71024134D01*
X136941535Y-71012934D01*
X136967028Y-70928896D01*
X136967721Y-70917612D01*
X136956720Y-70915000D01*
X134973280Y-70915000D01*
X134962278Y-70917612D01*
X134962971Y-70928896D01*
X134988464Y-71012934D01*
X134993103Y-71024134D01*
X135084857Y-71195795D01*
X135091599Y-71205884D01*
X135174075Y-71306381D01*
X135200219Y-71362848D01*
X135198870Y-71381128D01*
X135217151Y-71379780D01*
X135273618Y-71405924D01*
X135374115Y-71488400D01*
X135384205Y-71495142D01*
X135441079Y-71525542D01*
X135488353Y-71570110D01*
X135506602Y-71632466D01*
X135490815Y-71695489D01*
X135445327Y-71741879D01*
X135382626Y-71758900D01*
X135328076Y-71758900D01*
X135280623Y-71749461D01*
X135240395Y-71722581D01*
X135107272Y-71589458D01*
X135075719Y-71535826D01*
X135074963Y-71505035D01*
X135044173Y-71504280D01*
X134990541Y-71472727D01*
X134564519Y-71046705D01*
X134532181Y-70990194D01*
X134532933Y-70925091D01*
X134560756Y-70827310D01*
X134580429Y-70615000D01*
X134571689Y-70520674D01*
X202840600Y-70520674D01*
X202844050Y-70533549D01*
X202856926Y-70537000D01*
X203249274Y-70537000D01*
X203262149Y-70533549D01*
X203265600Y-70520674D01*
X203865600Y-70520674D01*
X203869050Y-70533549D01*
X203881926Y-70537000D01*
X204274274Y-70537000D01*
X204287149Y-70533549D01*
X204290600Y-70520674D01*
X209990600Y-70520674D01*
X209994050Y-70533549D01*
X210006926Y-70537000D01*
X210399274Y-70537000D01*
X210412149Y-70533549D01*
X210415600Y-70520674D01*
X211015600Y-70520674D01*
X211019050Y-70533549D01*
X211031926Y-70537000D01*
X211424274Y-70537000D01*
X211437149Y-70533549D01*
X211440600Y-70520674D01*
X211440600Y-70373369D01*
X211440182Y-70366201D01*
X211426698Y-70250835D01*
X211423390Y-70236878D01*
X211370366Y-70091195D01*
X211363924Y-70078367D01*
X211278729Y-69948837D01*
X211269510Y-69937850D01*
X211156740Y-69831456D01*
X211145232Y-69822889D01*
X211029740Y-69756210D01*
X211018587Y-69753222D01*
X211015600Y-69764373D01*
X211015600Y-70520674D01*
X210415600Y-70520674D01*
X210415600Y-69767242D01*
X210412789Y-69756106D01*
X210401449Y-69757936D01*
X210357266Y-69776995D01*
X210344836Y-69784171D01*
X210220479Y-69876752D01*
X210210046Y-69886595D01*
X210110388Y-70005362D01*
X210102507Y-70017344D01*
X210032924Y-70155896D01*
X210028020Y-70169371D01*
X209992265Y-70320232D01*
X209990600Y-70334484D01*
X209990600Y-70520674D01*
X204290600Y-70520674D01*
X204290600Y-70373369D01*
X204290182Y-70366201D01*
X204276698Y-70250835D01*
X204273390Y-70236878D01*
X204220366Y-70091195D01*
X204213924Y-70078367D01*
X204128729Y-69948837D01*
X204119510Y-69937850D01*
X204006740Y-69831456D01*
X203995232Y-69822889D01*
X203879740Y-69756210D01*
X203868587Y-69753222D01*
X203865600Y-69764373D01*
X203865600Y-70520674D01*
X203265600Y-70520674D01*
X203265600Y-69767242D01*
X203262789Y-69756106D01*
X203251449Y-69757936D01*
X203207266Y-69776995D01*
X203194836Y-69784171D01*
X203070479Y-69876752D01*
X203060046Y-69886595D01*
X202960388Y-70005362D01*
X202952507Y-70017344D01*
X202882924Y-70155896D01*
X202878020Y-70169371D01*
X202842265Y-70320232D01*
X202840600Y-70334484D01*
X202840600Y-70520674D01*
X134571689Y-70520674D01*
X134560756Y-70402690D01*
X134535062Y-70312387D01*
X134962278Y-70312387D01*
X134973280Y-70315000D01*
X135648674Y-70315000D01*
X135661549Y-70311549D01*
X135665000Y-70298674D01*
X136265000Y-70298674D01*
X136268450Y-70311549D01*
X136281326Y-70315000D01*
X136956720Y-70315000D01*
X136967721Y-70312387D01*
X136967028Y-70301103D01*
X136966291Y-70298674D01*
X137455000Y-70298674D01*
X137458450Y-70311549D01*
X137471326Y-70315000D01*
X138188674Y-70315000D01*
X138201549Y-70311549D01*
X138205000Y-70298674D01*
X138805000Y-70298674D01*
X138808450Y-70311549D01*
X138821326Y-70315000D01*
X139538674Y-70315000D01*
X139551549Y-70311549D01*
X139555000Y-70298674D01*
X139555000Y-70191874D01*
X189661200Y-70191874D01*
X189664650Y-70204749D01*
X189677526Y-70208200D01*
X190044874Y-70208200D01*
X190057749Y-70204749D01*
X190061200Y-70191874D01*
X190661200Y-70191874D01*
X190664650Y-70204749D01*
X190677526Y-70208200D01*
X191044873Y-70208200D01*
X191057748Y-70204749D01*
X191058519Y-70201874D01*
X200821200Y-70201874D01*
X200824650Y-70214749D01*
X200837526Y-70218200D01*
X201204874Y-70218200D01*
X201217749Y-70214749D01*
X201221200Y-70201874D01*
X201821200Y-70201874D01*
X201824650Y-70214749D01*
X201837526Y-70218200D01*
X202204873Y-70218200D01*
X202217748Y-70214749D01*
X202221199Y-70201874D01*
X202221199Y-69864447D01*
X202220943Y-69858813D01*
X202215384Y-69797629D01*
X202212838Y-69784830D01*
X202174630Y-69662214D01*
X213514829Y-69662214D01*
X213521495Y-69674230D01*
X214756457Y-70909192D01*
X214768000Y-70915856D01*
X214779542Y-70909192D01*
X216014503Y-69674230D01*
X216021170Y-69662213D01*
X216013310Y-69650943D01*
X215985136Y-69628021D01*
X215978241Y-69623154D01*
X215740012Y-69478284D01*
X215732510Y-69474397D01*
X215476771Y-69363313D01*
X215468818Y-69360487D01*
X215200335Y-69285261D01*
X215192057Y-69283541D01*
X214915841Y-69245576D01*
X214907407Y-69245000D01*
X214628593Y-69245000D01*
X214620158Y-69245576D01*
X214343942Y-69283541D01*
X214335664Y-69285261D01*
X214067181Y-69360487D01*
X214059228Y-69363313D01*
X213803489Y-69474397D01*
X213795987Y-69478284D01*
X213557768Y-69623148D01*
X213550849Y-69628032D01*
X213522691Y-69650940D01*
X213514829Y-69662214D01*
X202174630Y-69662214D01*
X202166451Y-69635967D01*
X202160335Y-69622379D01*
X202080154Y-69489743D01*
X202070971Y-69478022D01*
X201961377Y-69368428D01*
X201949657Y-69359245D01*
X201835306Y-69290118D01*
X201824214Y-69286936D01*
X201821200Y-69298075D01*
X201821200Y-70201874D01*
X201221200Y-70201874D01*
X201221200Y-69298075D01*
X201218185Y-69286936D01*
X201207093Y-69290118D01*
X201092742Y-69359245D01*
X201081022Y-69368428D01*
X200971428Y-69478022D01*
X200962245Y-69489743D01*
X200882064Y-69622379D01*
X200875948Y-69635967D01*
X200829561Y-69784827D01*
X200827015Y-69797631D01*
X200821455Y-69858815D01*
X200821200Y-69864444D01*
X200821200Y-70201874D01*
X191058519Y-70201874D01*
X191061199Y-70191874D01*
X191061199Y-69854447D01*
X191060943Y-69848813D01*
X191055384Y-69787629D01*
X191052838Y-69774830D01*
X191006451Y-69625967D01*
X191000335Y-69612379D01*
X190920154Y-69479743D01*
X190910971Y-69468022D01*
X190801377Y-69358428D01*
X190789657Y-69349245D01*
X190675306Y-69280118D01*
X190664214Y-69276936D01*
X190661200Y-69288075D01*
X190661200Y-70191874D01*
X190061200Y-70191874D01*
X190061200Y-69288075D01*
X190058185Y-69276936D01*
X190047093Y-69280118D01*
X189932742Y-69349245D01*
X189921022Y-69358428D01*
X189811428Y-69468022D01*
X189802245Y-69479743D01*
X189722064Y-69612379D01*
X189715948Y-69625967D01*
X189669561Y-69774827D01*
X189667015Y-69787631D01*
X189661455Y-69848815D01*
X189661200Y-69854444D01*
X189661200Y-70191874D01*
X139555000Y-70191874D01*
X139555000Y-69751398D01*
X139553810Y-69739321D01*
X139545778Y-69698942D01*
X139536611Y-69676809D01*
X139505976Y-69630961D01*
X139489038Y-69614023D01*
X139443190Y-69583388D01*
X139421057Y-69574221D01*
X139380678Y-69566189D01*
X139368602Y-69565000D01*
X138821326Y-69565000D01*
X138808450Y-69568450D01*
X138805000Y-69581326D01*
X138805000Y-70298674D01*
X138205000Y-70298674D01*
X138205000Y-69581326D01*
X138201549Y-69568450D01*
X138188674Y-69565000D01*
X137641398Y-69565000D01*
X137629321Y-69566189D01*
X137588942Y-69574221D01*
X137566809Y-69583388D01*
X137520961Y-69614023D01*
X137504023Y-69630961D01*
X137473388Y-69676809D01*
X137464221Y-69698942D01*
X137456189Y-69739321D01*
X137455000Y-69751398D01*
X137455000Y-70298674D01*
X136966291Y-70298674D01*
X136941535Y-70217065D01*
X136936896Y-70205865D01*
X136845142Y-70034204D01*
X136838400Y-70024115D01*
X136714917Y-69873651D01*
X136706348Y-69865082D01*
X136555884Y-69741599D01*
X136545795Y-69734857D01*
X136374134Y-69643103D01*
X136362934Y-69638464D01*
X136278896Y-69612971D01*
X136267612Y-69612278D01*
X136265000Y-69623280D01*
X136265000Y-70298674D01*
X135665000Y-70298674D01*
X135665000Y-69623280D01*
X135662387Y-69612278D01*
X135651103Y-69612971D01*
X135567065Y-69638464D01*
X135555865Y-69643103D01*
X135384204Y-69734857D01*
X135374115Y-69741599D01*
X135223651Y-69865082D01*
X135215082Y-69873651D01*
X135091599Y-70024115D01*
X135084857Y-70034204D01*
X134993103Y-70205865D01*
X134988464Y-70217065D01*
X134962971Y-70301103D01*
X134962278Y-70312387D01*
X134535062Y-70312387D01*
X134502405Y-70197611D01*
X134407366Y-70006745D01*
X134278872Y-69836593D01*
X134263840Y-69822889D01*
X134125531Y-69696803D01*
X134125529Y-69696801D01*
X134121302Y-69692948D01*
X134116438Y-69689936D01*
X134116435Y-69689934D01*
X133944890Y-69583718D01*
X133944889Y-69583717D01*
X133940019Y-69580702D01*
X133934681Y-69578634D01*
X133934677Y-69578632D01*
X133746545Y-69505750D01*
X133746540Y-69505748D01*
X133741198Y-69503679D01*
X133735560Y-69502625D01*
X133537239Y-69465552D01*
X133537236Y-69465551D01*
X133531610Y-69464500D01*
X133318390Y-69464500D01*
X133312764Y-69465551D01*
X133312760Y-69465552D01*
X133114439Y-69502625D01*
X133114436Y-69502625D01*
X133108802Y-69503679D01*
X133103461Y-69505747D01*
X133103454Y-69505750D01*
X132915322Y-69578632D01*
X132915313Y-69578636D01*
X132909981Y-69580702D01*
X132905114Y-69583715D01*
X132905109Y-69583718D01*
X132733564Y-69689934D01*
X132733555Y-69689940D01*
X132728698Y-69692948D01*
X132724475Y-69696797D01*
X132724468Y-69696803D01*
X132575360Y-69832734D01*
X132575354Y-69832739D01*
X132571128Y-69836593D01*
X132567681Y-69841156D01*
X132567675Y-69841164D01*
X132446086Y-70002173D01*
X132446083Y-70002177D01*
X132442634Y-70006745D01*
X132440082Y-70011870D01*
X132440079Y-70011875D01*
X132350153Y-70192473D01*
X132347595Y-70197611D01*
X132346027Y-70203119D01*
X132346024Y-70203129D01*
X132290814Y-70397168D01*
X132290811Y-70397179D01*
X132289244Y-70402690D01*
X132288714Y-70408400D01*
X132288714Y-70408405D01*
X132278471Y-70518951D01*
X132258367Y-70576003D01*
X132215589Y-70614999D01*
X132094410Y-70614999D01*
X132051633Y-70576003D01*
X132031529Y-70518951D01*
X132029597Y-70498102D01*
X132020756Y-70402690D01*
X131962405Y-70197611D01*
X131867366Y-70006745D01*
X131738872Y-69836593D01*
X131723840Y-69822889D01*
X131585531Y-69696803D01*
X131585529Y-69696801D01*
X131581302Y-69692948D01*
X131576438Y-69689936D01*
X131576435Y-69689934D01*
X131404890Y-69583718D01*
X131404889Y-69583717D01*
X131400019Y-69580702D01*
X131394681Y-69578634D01*
X131394677Y-69578632D01*
X131206545Y-69505750D01*
X131206540Y-69505748D01*
X131201198Y-69503679D01*
X131195560Y-69502625D01*
X130997239Y-69465552D01*
X130997236Y-69465551D01*
X130991610Y-69464500D01*
X130778390Y-69464500D01*
X130772764Y-69465551D01*
X130772760Y-69465552D01*
X130574439Y-69502625D01*
X130574436Y-69502625D01*
X130568802Y-69503679D01*
X130563461Y-69505747D01*
X130563454Y-69505750D01*
X130375322Y-69578632D01*
X130375313Y-69578636D01*
X130369981Y-69580702D01*
X130365114Y-69583715D01*
X130365109Y-69583718D01*
X130193564Y-69689934D01*
X130193555Y-69689940D01*
X130188698Y-69692948D01*
X130184475Y-69696797D01*
X130184468Y-69696803D01*
X130035360Y-69832734D01*
X130035354Y-69832739D01*
X130031128Y-69836593D01*
X130027681Y-69841156D01*
X130027675Y-69841164D01*
X129906086Y-70002173D01*
X129906083Y-70002177D01*
X129902634Y-70006745D01*
X129900082Y-70011870D01*
X129900079Y-70011875D01*
X129810153Y-70192473D01*
X129807595Y-70197611D01*
X129806027Y-70203119D01*
X129806024Y-70203129D01*
X129750814Y-70397168D01*
X129750811Y-70397179D01*
X129749244Y-70402690D01*
X129748714Y-70408400D01*
X129748714Y-70408405D01*
X129738471Y-70518951D01*
X129718367Y-70576003D01*
X129675589Y-70614999D01*
X129554410Y-70614999D01*
X129511633Y-70576003D01*
X129491529Y-70518951D01*
X129489597Y-70498102D01*
X129480756Y-70402690D01*
X129422405Y-70197611D01*
X129327366Y-70006745D01*
X129198872Y-69836593D01*
X129183840Y-69822889D01*
X129045531Y-69696803D01*
X129045529Y-69696801D01*
X129041302Y-69692948D01*
X129036438Y-69689936D01*
X129036435Y-69689934D01*
X128864890Y-69583718D01*
X128864889Y-69583717D01*
X128860019Y-69580702D01*
X128854681Y-69578634D01*
X128854677Y-69578632D01*
X128666545Y-69505750D01*
X128666540Y-69505748D01*
X128661198Y-69503679D01*
X128655560Y-69502625D01*
X128457239Y-69465552D01*
X128457236Y-69465551D01*
X128451610Y-69464500D01*
X128238390Y-69464500D01*
X128232764Y-69465551D01*
X128232760Y-69465552D01*
X128034439Y-69502625D01*
X128034436Y-69502625D01*
X128028802Y-69503679D01*
X128023461Y-69505747D01*
X128023454Y-69505750D01*
X127835322Y-69578632D01*
X127835313Y-69578636D01*
X127829981Y-69580702D01*
X127825114Y-69583715D01*
X127825109Y-69583718D01*
X127653564Y-69689934D01*
X127653555Y-69689940D01*
X127648698Y-69692948D01*
X127644475Y-69696797D01*
X127644468Y-69696803D01*
X127495360Y-69832734D01*
X127495354Y-69832739D01*
X127491128Y-69836593D01*
X127487681Y-69841156D01*
X127487675Y-69841164D01*
X127366086Y-70002173D01*
X127366083Y-70002177D01*
X127362634Y-70006745D01*
X127360082Y-70011870D01*
X127360079Y-70011875D01*
X127270153Y-70192473D01*
X127267595Y-70197611D01*
X127266027Y-70203119D01*
X127266024Y-70203129D01*
X127210814Y-70397168D01*
X127210811Y-70397179D01*
X127209244Y-70402690D01*
X127208714Y-70408400D01*
X127208714Y-70408405D01*
X127198471Y-70518951D01*
X127178367Y-70576003D01*
X127135589Y-70614999D01*
X127014410Y-70614999D01*
X126971633Y-70576003D01*
X126951529Y-70518951D01*
X126949597Y-70498102D01*
X126940756Y-70402690D01*
X126882405Y-70197611D01*
X126787366Y-70006745D01*
X126658872Y-69836593D01*
X126643840Y-69822889D01*
X126505531Y-69696803D01*
X126505529Y-69696801D01*
X126501302Y-69692948D01*
X126496438Y-69689936D01*
X126496435Y-69689934D01*
X126324890Y-69583718D01*
X126324889Y-69583717D01*
X126320019Y-69580702D01*
X126314681Y-69578634D01*
X126314677Y-69578632D01*
X126126545Y-69505750D01*
X126126540Y-69505748D01*
X126121198Y-69503679D01*
X126115560Y-69502625D01*
X125917239Y-69465552D01*
X125917236Y-69465551D01*
X125911610Y-69464500D01*
X125698390Y-69464500D01*
X125692764Y-69465551D01*
X125692760Y-69465552D01*
X125494439Y-69502625D01*
X125494436Y-69502625D01*
X125488802Y-69503679D01*
X125483461Y-69505747D01*
X125483454Y-69505750D01*
X125295322Y-69578632D01*
X125295313Y-69578636D01*
X125289981Y-69580702D01*
X125285114Y-69583715D01*
X125285109Y-69583718D01*
X125113564Y-69689934D01*
X125113555Y-69689940D01*
X125108698Y-69692948D01*
X125104475Y-69696797D01*
X125104468Y-69696803D01*
X124955360Y-69832734D01*
X124955354Y-69832739D01*
X124951128Y-69836593D01*
X124947681Y-69841156D01*
X124947675Y-69841164D01*
X124826086Y-70002173D01*
X124826083Y-70002177D01*
X124822634Y-70006745D01*
X124820082Y-70011870D01*
X124820079Y-70011875D01*
X124730153Y-70192473D01*
X124727595Y-70197611D01*
X124726027Y-70203119D01*
X124726024Y-70203129D01*
X124670814Y-70397168D01*
X124670811Y-70397179D01*
X124669244Y-70402690D01*
X124668714Y-70408400D01*
X124668714Y-70408405D01*
X124650100Y-70609291D01*
X124649571Y-70615000D01*
X94644311Y-70615000D01*
X94621714Y-70506259D01*
X94619429Y-70498102D01*
X94526064Y-70235399D01*
X94522694Y-70227640D01*
X94394422Y-69980086D01*
X94390026Y-69972858D01*
X94284207Y-69822946D01*
X94276075Y-69815544D01*
X94266809Y-69821454D01*
X93029806Y-71058457D01*
X93023142Y-71070000D01*
X92164856Y-71070000D01*
X92158192Y-71058457D01*
X90921189Y-69821454D01*
X90911922Y-69815544D01*
X90903793Y-69822944D01*
X90797967Y-69972866D01*
X90793578Y-69980083D01*
X90665305Y-70227640D01*
X90661935Y-70235399D01*
X90568570Y-70498102D01*
X90566285Y-70506259D01*
X90509561Y-70779225D01*
X90508408Y-70787614D01*
X90489382Y-71065775D01*
X90489382Y-71074225D01*
X89610500Y-71074225D01*
X89610500Y-69387214D01*
X91340829Y-69387214D01*
X91347497Y-69399232D01*
X92582456Y-70634192D01*
X92593999Y-70640856D01*
X92605541Y-70634192D01*
X93840503Y-69399230D01*
X93847170Y-69387213D01*
X93839310Y-69375943D01*
X93811136Y-69353021D01*
X93804241Y-69348154D01*
X93566012Y-69203284D01*
X93558510Y-69199397D01*
X93302771Y-69088313D01*
X93294818Y-69085487D01*
X93026335Y-69010261D01*
X93018057Y-69008541D01*
X92741841Y-68970576D01*
X92733407Y-68970000D01*
X92454593Y-68970000D01*
X92446158Y-68970576D01*
X92169942Y-69008541D01*
X92161664Y-69010261D01*
X91893181Y-69085487D01*
X91885228Y-69088313D01*
X91629489Y-69199397D01*
X91621987Y-69203284D01*
X91383768Y-69348148D01*
X91376849Y-69353032D01*
X91348691Y-69375940D01*
X91340829Y-69387214D01*
X89610500Y-69387214D01*
X89610500Y-68834500D01*
X89627113Y-68772500D01*
X89672500Y-68727113D01*
X89734500Y-68710500D01*
X217755500Y-68710500D01*
X217817500Y-68727113D01*
G37*
G04 #@! TD.AperFunction*
M02*
