G04 #@! TF.GenerationSoftware,KiCad,Pcbnew,(7.0.0)*
G04 #@! TF.CreationDate,2023-02-25T12:05:00-06:00*
G04 #@! TF.ProjectId,Autorelay,4175746f-7265-46c6-9179-2e6b69636164,1*
G04 #@! TF.SameCoordinates,Original*
G04 #@! TF.FileFunction,Legend,Bot*
G04 #@! TF.FilePolarity,Positive*
%FSLAX46Y46*%
G04 Gerber Fmt 4.6, Leading zero omitted, Abs format (unit mm)*
G04 Created by KiCad (PCBNEW (7.0.0)) date 2023-02-25 12:05:00*
%MOMM*%
%LPD*%
G01*
G04 APERTURE LIST*
G04 Aperture macros list*
%AMRoundRect*
0 Rectangle with rounded corners*
0 $1 Rounding radius*
0 $2 $3 $4 $5 $6 $7 $8 $9 X,Y pos of 4 corners*
0 Add a 4 corners polygon primitive as box body*
4,1,4,$2,$3,$4,$5,$6,$7,$8,$9,$2,$3,0*
0 Add four circle primitives for the rounded corners*
1,1,$1+$1,$2,$3*
1,1,$1+$1,$4,$5*
1,1,$1+$1,$6,$7*
1,1,$1+$1,$8,$9*
0 Add four rect primitives between the rounded corners*
20,1,$1+$1,$2,$3,$4,$5,0*
20,1,$1+$1,$4,$5,$6,$7,0*
20,1,$1+$1,$6,$7,$8,$9,0*
20,1,$1+$1,$8,$9,$2,$3,0*%
G04 Aperture macros list end*
%ADD10C,0.150000*%
%ADD11R,2.600000X2.600000*%
%ADD12C,2.600000*%
%ADD13C,2.200000*%
%ADD14R,1.700000X1.700000*%
%ADD15O,1.700000X1.700000*%
%ADD16C,3.000000*%
%ADD17C,2.500000*%
%ADD18C,3.800000*%
%ADD19C,0.670000*%
%ADD20RoundRect,0.500000X0.000000X0.600000X0.000000X0.600000X0.000000X-0.600000X0.000000X-0.600000X0*%
%ADD21O,1.050000X1.900000*%
%ADD22R,2.400000X2.400000*%
%ADD23C,2.400000*%
G04 APERTURE END LIST*
D10*
X108253123Y-78106066D02*
X107776933Y-78106066D01*
X108348361Y-78391780D02*
X108015028Y-77391780D01*
X108015028Y-77391780D02*
X107681695Y-78391780D01*
X106776933Y-78391780D02*
X107110266Y-77915590D01*
X107348361Y-78391780D02*
X107348361Y-77391780D01*
X107348361Y-77391780D02*
X106967409Y-77391780D01*
X106967409Y-77391780D02*
X106872171Y-77439400D01*
X106872171Y-77439400D02*
X106824552Y-77487019D01*
X106824552Y-77487019D02*
X106776933Y-77582257D01*
X106776933Y-77582257D02*
X106776933Y-77725114D01*
X106776933Y-77725114D02*
X106824552Y-77820352D01*
X106824552Y-77820352D02*
X106872171Y-77867971D01*
X106872171Y-77867971D02*
X106967409Y-77915590D01*
X106967409Y-77915590D02*
X107348361Y-77915590D01*
X106348361Y-78391780D02*
X106348361Y-77391780D01*
X106348361Y-77391780D02*
X106110266Y-77391780D01*
X106110266Y-77391780D02*
X105967409Y-77439400D01*
X105967409Y-77439400D02*
X105872171Y-77534638D01*
X105872171Y-77534638D02*
X105824552Y-77629876D01*
X105824552Y-77629876D02*
X105776933Y-77820352D01*
X105776933Y-77820352D02*
X105776933Y-77963209D01*
X105776933Y-77963209D02*
X105824552Y-78153685D01*
X105824552Y-78153685D02*
X105872171Y-78248923D01*
X105872171Y-78248923D02*
X105967409Y-78344161D01*
X105967409Y-78344161D02*
X106110266Y-78391780D01*
X106110266Y-78391780D02*
X106348361Y-78391780D01*
X105348361Y-77391780D02*
X105348361Y-78201304D01*
X105348361Y-78201304D02*
X105300742Y-78296542D01*
X105300742Y-78296542D02*
X105253123Y-78344161D01*
X105253123Y-78344161D02*
X105157885Y-78391780D01*
X105157885Y-78391780D02*
X104967409Y-78391780D01*
X104967409Y-78391780D02*
X104872171Y-78344161D01*
X104872171Y-78344161D02*
X104824552Y-78296542D01*
X104824552Y-78296542D02*
X104776933Y-78201304D01*
X104776933Y-78201304D02*
X104776933Y-77391780D01*
X104300742Y-78391780D02*
X104300742Y-77391780D01*
X103824552Y-78391780D02*
X103824552Y-77391780D01*
X103824552Y-77391780D02*
X103253124Y-78391780D01*
X103253124Y-78391780D02*
X103253124Y-77391780D01*
X102586457Y-77391780D02*
X102395981Y-77391780D01*
X102395981Y-77391780D02*
X102300743Y-77439400D01*
X102300743Y-77439400D02*
X102205505Y-77534638D01*
X102205505Y-77534638D02*
X102157886Y-77725114D01*
X102157886Y-77725114D02*
X102157886Y-78058447D01*
X102157886Y-78058447D02*
X102205505Y-78248923D01*
X102205505Y-78248923D02*
X102300743Y-78344161D01*
X102300743Y-78344161D02*
X102395981Y-78391780D01*
X102395981Y-78391780D02*
X102586457Y-78391780D01*
X102586457Y-78391780D02*
X102681695Y-78344161D01*
X102681695Y-78344161D02*
X102776933Y-78248923D01*
X102776933Y-78248923D02*
X102824552Y-78058447D01*
X102824552Y-78058447D02*
X102824552Y-77725114D01*
X102824552Y-77725114D02*
X102776933Y-77534638D01*
X102776933Y-77534638D02*
X102681695Y-77439400D01*
X102681695Y-77439400D02*
X102586457Y-77391780D01*
X101129314Y-78391780D02*
X101129314Y-77391780D01*
X101129314Y-77391780D02*
X100748362Y-77391780D01*
X100748362Y-77391780D02*
X100653124Y-77439400D01*
X100653124Y-77439400D02*
X100605505Y-77487019D01*
X100605505Y-77487019D02*
X100557886Y-77582257D01*
X100557886Y-77582257D02*
X100557886Y-77725114D01*
X100557886Y-77725114D02*
X100605505Y-77820352D01*
X100605505Y-77820352D02*
X100653124Y-77867971D01*
X100653124Y-77867971D02*
X100748362Y-77915590D01*
X100748362Y-77915590D02*
X101129314Y-77915590D01*
X99557886Y-78391780D02*
X99891219Y-77915590D01*
X100129314Y-78391780D02*
X100129314Y-77391780D01*
X100129314Y-77391780D02*
X99748362Y-77391780D01*
X99748362Y-77391780D02*
X99653124Y-77439400D01*
X99653124Y-77439400D02*
X99605505Y-77487019D01*
X99605505Y-77487019D02*
X99557886Y-77582257D01*
X99557886Y-77582257D02*
X99557886Y-77725114D01*
X99557886Y-77725114D02*
X99605505Y-77820352D01*
X99605505Y-77820352D02*
X99653124Y-77867971D01*
X99653124Y-77867971D02*
X99748362Y-77915590D01*
X99748362Y-77915590D02*
X100129314Y-77915590D01*
X98938838Y-77391780D02*
X98748362Y-77391780D01*
X98748362Y-77391780D02*
X98653124Y-77439400D01*
X98653124Y-77439400D02*
X98557886Y-77534638D01*
X98557886Y-77534638D02*
X98510267Y-77725114D01*
X98510267Y-77725114D02*
X98510267Y-78058447D01*
X98510267Y-78058447D02*
X98557886Y-78248923D01*
X98557886Y-78248923D02*
X98653124Y-78344161D01*
X98653124Y-78344161D02*
X98748362Y-78391780D01*
X98748362Y-78391780D02*
X98938838Y-78391780D01*
X98938838Y-78391780D02*
X99034076Y-78344161D01*
X99034076Y-78344161D02*
X99129314Y-78248923D01*
X99129314Y-78248923D02*
X99176933Y-78058447D01*
X99176933Y-78058447D02*
X99176933Y-77725114D01*
X99176933Y-77725114D02*
X99129314Y-77534638D01*
X99129314Y-77534638D02*
X99034076Y-77439400D01*
X99034076Y-77439400D02*
X98938838Y-77391780D01*
X97481695Y-78391780D02*
X97481695Y-77391780D01*
X97481695Y-77391780D02*
X97148362Y-78106066D01*
X97148362Y-78106066D02*
X96815029Y-77391780D01*
X96815029Y-77391780D02*
X96815029Y-78391780D01*
X96338838Y-78391780D02*
X96338838Y-77391780D01*
X95862648Y-78391780D02*
X95862648Y-77391780D01*
X95862648Y-77391780D02*
X95291220Y-78391780D01*
X95291220Y-78391780D02*
X95291220Y-77391780D01*
X94815029Y-78391780D02*
X94815029Y-77391780D01*
X108253123Y-70132219D02*
X108205504Y-70084600D01*
X108205504Y-70084600D02*
X108110266Y-70036980D01*
X108110266Y-70036980D02*
X107872171Y-70036980D01*
X107872171Y-70036980D02*
X107776933Y-70084600D01*
X107776933Y-70084600D02*
X107729314Y-70132219D01*
X107729314Y-70132219D02*
X107681695Y-70227457D01*
X107681695Y-70227457D02*
X107681695Y-70322695D01*
X107681695Y-70322695D02*
X107729314Y-70465552D01*
X107729314Y-70465552D02*
X108300742Y-71036980D01*
X108300742Y-71036980D02*
X107681695Y-71036980D01*
X107348361Y-70036980D02*
X106681695Y-70036980D01*
X106681695Y-70036980D02*
X107110266Y-71036980D01*
X106395980Y-70036980D02*
X105729314Y-70036980D01*
X105729314Y-70036980D02*
X106157885Y-71036980D01*
X105491218Y-70036980D02*
X105157885Y-71036980D01*
X105157885Y-71036980D02*
X104824552Y-70036980D01*
X104538837Y-70751266D02*
X104062647Y-70751266D01*
X104634075Y-71036980D02*
X104300742Y-70036980D01*
X104300742Y-70036980D02*
X103967409Y-71036980D01*
X103062647Y-70941742D02*
X103110266Y-70989361D01*
X103110266Y-70989361D02*
X103253123Y-71036980D01*
X103253123Y-71036980D02*
X103348361Y-71036980D01*
X103348361Y-71036980D02*
X103491218Y-70989361D01*
X103491218Y-70989361D02*
X103586456Y-70894123D01*
X103586456Y-70894123D02*
X103634075Y-70798885D01*
X103634075Y-70798885D02*
X103681694Y-70608409D01*
X103681694Y-70608409D02*
X103681694Y-70465552D01*
X103681694Y-70465552D02*
X103634075Y-70275076D01*
X103634075Y-70275076D02*
X103586456Y-70179838D01*
X103586456Y-70179838D02*
X103491218Y-70084600D01*
X103491218Y-70084600D02*
X103348361Y-70036980D01*
X103348361Y-70036980D02*
X103253123Y-70036980D01*
X103253123Y-70036980D02*
X103110266Y-70084600D01*
X103110266Y-70084600D02*
X103062647Y-70132219D01*
X101919790Y-69989361D02*
X102776932Y-71275076D01*
X101062647Y-71036980D02*
X101634075Y-71036980D01*
X101348361Y-71036980D02*
X101348361Y-70036980D01*
X101348361Y-70036980D02*
X101443599Y-70179838D01*
X101443599Y-70179838D02*
X101538837Y-70275076D01*
X101538837Y-70275076D02*
X101634075Y-70322695D01*
X100443599Y-70036980D02*
X100348361Y-70036980D01*
X100348361Y-70036980D02*
X100253123Y-70084600D01*
X100253123Y-70084600D02*
X100205504Y-70132219D01*
X100205504Y-70132219D02*
X100157885Y-70227457D01*
X100157885Y-70227457D02*
X100110266Y-70417933D01*
X100110266Y-70417933D02*
X100110266Y-70656028D01*
X100110266Y-70656028D02*
X100157885Y-70846504D01*
X100157885Y-70846504D02*
X100205504Y-70941742D01*
X100205504Y-70941742D02*
X100253123Y-70989361D01*
X100253123Y-70989361D02*
X100348361Y-71036980D01*
X100348361Y-71036980D02*
X100443599Y-71036980D01*
X100443599Y-71036980D02*
X100538837Y-70989361D01*
X100538837Y-70989361D02*
X100586456Y-70941742D01*
X100586456Y-70941742D02*
X100634075Y-70846504D01*
X100634075Y-70846504D02*
X100681694Y-70656028D01*
X100681694Y-70656028D02*
X100681694Y-70417933D01*
X100681694Y-70417933D02*
X100634075Y-70227457D01*
X100634075Y-70227457D02*
X100586456Y-70132219D01*
X100586456Y-70132219D02*
X100538837Y-70084600D01*
X100538837Y-70084600D02*
X100443599Y-70036980D01*
X99729313Y-70751266D02*
X99253123Y-70751266D01*
X99824551Y-71036980D02*
X99491218Y-70036980D01*
X99491218Y-70036980D02*
X99157885Y-71036980D01*
X98224551Y-71036980D02*
X98224551Y-70036980D01*
X98224551Y-70036980D02*
X97891218Y-70751266D01*
X97891218Y-70751266D02*
X97557885Y-70036980D01*
X97557885Y-70036980D02*
X97557885Y-71036980D01*
X97129313Y-70751266D02*
X96653123Y-70751266D01*
X97224551Y-71036980D02*
X96891218Y-70036980D01*
X96891218Y-70036980D02*
X96557885Y-71036980D01*
X96319789Y-70036980D02*
X95653123Y-71036980D01*
X95653123Y-70036980D02*
X96319789Y-71036980D01*
X107681695Y-72656980D02*
X108253123Y-72656980D01*
X107967409Y-72656980D02*
X107967409Y-71656980D01*
X107967409Y-71656980D02*
X108062647Y-71799838D01*
X108062647Y-71799838D02*
X108157885Y-71895076D01*
X108157885Y-71895076D02*
X108253123Y-71942695D01*
X107300742Y-71752219D02*
X107253123Y-71704600D01*
X107253123Y-71704600D02*
X107157885Y-71656980D01*
X107157885Y-71656980D02*
X106919790Y-71656980D01*
X106919790Y-71656980D02*
X106824552Y-71704600D01*
X106824552Y-71704600D02*
X106776933Y-71752219D01*
X106776933Y-71752219D02*
X106729314Y-71847457D01*
X106729314Y-71847457D02*
X106729314Y-71942695D01*
X106729314Y-71942695D02*
X106776933Y-72085552D01*
X106776933Y-72085552D02*
X107348361Y-72656980D01*
X107348361Y-72656980D02*
X106729314Y-72656980D01*
X106110266Y-71656980D02*
X106015028Y-71656980D01*
X106015028Y-71656980D02*
X105919790Y-71704600D01*
X105919790Y-71704600D02*
X105872171Y-71752219D01*
X105872171Y-71752219D02*
X105824552Y-71847457D01*
X105824552Y-71847457D02*
X105776933Y-72037933D01*
X105776933Y-72037933D02*
X105776933Y-72276028D01*
X105776933Y-72276028D02*
X105824552Y-72466504D01*
X105824552Y-72466504D02*
X105872171Y-72561742D01*
X105872171Y-72561742D02*
X105919790Y-72609361D01*
X105919790Y-72609361D02*
X106015028Y-72656980D01*
X106015028Y-72656980D02*
X106110266Y-72656980D01*
X106110266Y-72656980D02*
X106205504Y-72609361D01*
X106205504Y-72609361D02*
X106253123Y-72561742D01*
X106253123Y-72561742D02*
X106300742Y-72466504D01*
X106300742Y-72466504D02*
X106348361Y-72276028D01*
X106348361Y-72276028D02*
X106348361Y-72037933D01*
X106348361Y-72037933D02*
X106300742Y-71847457D01*
X106300742Y-71847457D02*
X106253123Y-71752219D01*
X106253123Y-71752219D02*
X106205504Y-71704600D01*
X106205504Y-71704600D02*
X106110266Y-71656980D01*
X105491218Y-71656980D02*
X105157885Y-72656980D01*
X105157885Y-72656980D02*
X104824552Y-71656980D01*
X104538837Y-72371266D02*
X104062647Y-72371266D01*
X104634075Y-72656980D02*
X104300742Y-71656980D01*
X104300742Y-71656980D02*
X103967409Y-72656980D01*
X103062647Y-72561742D02*
X103110266Y-72609361D01*
X103110266Y-72609361D02*
X103253123Y-72656980D01*
X103253123Y-72656980D02*
X103348361Y-72656980D01*
X103348361Y-72656980D02*
X103491218Y-72609361D01*
X103491218Y-72609361D02*
X103586456Y-72514123D01*
X103586456Y-72514123D02*
X103634075Y-72418885D01*
X103634075Y-72418885D02*
X103681694Y-72228409D01*
X103681694Y-72228409D02*
X103681694Y-72085552D01*
X103681694Y-72085552D02*
X103634075Y-71895076D01*
X103634075Y-71895076D02*
X103586456Y-71799838D01*
X103586456Y-71799838D02*
X103491218Y-71704600D01*
X103491218Y-71704600D02*
X103348361Y-71656980D01*
X103348361Y-71656980D02*
X103253123Y-71656980D01*
X103253123Y-71656980D02*
X103110266Y-71704600D01*
X103110266Y-71704600D02*
X103062647Y-71752219D01*
X101919790Y-71609361D02*
X102776932Y-72895076D01*
X101062647Y-72656980D02*
X101634075Y-72656980D01*
X101348361Y-72656980D02*
X101348361Y-71656980D01*
X101348361Y-71656980D02*
X101443599Y-71799838D01*
X101443599Y-71799838D02*
X101538837Y-71895076D01*
X101538837Y-71895076D02*
X101634075Y-71942695D01*
X100157885Y-71656980D02*
X100634075Y-71656980D01*
X100634075Y-71656980D02*
X100681694Y-72133171D01*
X100681694Y-72133171D02*
X100634075Y-72085552D01*
X100634075Y-72085552D02*
X100538837Y-72037933D01*
X100538837Y-72037933D02*
X100300742Y-72037933D01*
X100300742Y-72037933D02*
X100205504Y-72085552D01*
X100205504Y-72085552D02*
X100157885Y-72133171D01*
X100157885Y-72133171D02*
X100110266Y-72228409D01*
X100110266Y-72228409D02*
X100110266Y-72466504D01*
X100110266Y-72466504D02*
X100157885Y-72561742D01*
X100157885Y-72561742D02*
X100205504Y-72609361D01*
X100205504Y-72609361D02*
X100300742Y-72656980D01*
X100300742Y-72656980D02*
X100538837Y-72656980D01*
X100538837Y-72656980D02*
X100634075Y-72609361D01*
X100634075Y-72609361D02*
X100681694Y-72561742D01*
X99729313Y-72371266D02*
X99253123Y-72371266D01*
X99824551Y-72656980D02*
X99491218Y-71656980D01*
X99491218Y-71656980D02*
X99157885Y-72656980D01*
X98224551Y-72656980D02*
X98224551Y-71656980D01*
X98224551Y-71656980D02*
X97891218Y-72371266D01*
X97891218Y-72371266D02*
X97557885Y-71656980D01*
X97557885Y-71656980D02*
X97557885Y-72656980D01*
X97129313Y-72371266D02*
X96653123Y-72371266D01*
X97224551Y-72656980D02*
X96891218Y-71656980D01*
X96891218Y-71656980D02*
X96557885Y-72656980D01*
X96319789Y-71656980D02*
X95653123Y-72656980D01*
X95653123Y-71656980D02*
X96319789Y-72656980D01*
X108253123Y-74229361D02*
X108110266Y-74276980D01*
X108110266Y-74276980D02*
X107872171Y-74276980D01*
X107872171Y-74276980D02*
X107776933Y-74229361D01*
X107776933Y-74229361D02*
X107729314Y-74181742D01*
X107729314Y-74181742D02*
X107681695Y-74086504D01*
X107681695Y-74086504D02*
X107681695Y-73991266D01*
X107681695Y-73991266D02*
X107729314Y-73896028D01*
X107729314Y-73896028D02*
X107776933Y-73848409D01*
X107776933Y-73848409D02*
X107872171Y-73800790D01*
X107872171Y-73800790D02*
X108062647Y-73753171D01*
X108062647Y-73753171D02*
X108157885Y-73705552D01*
X108157885Y-73705552D02*
X108205504Y-73657933D01*
X108205504Y-73657933D02*
X108253123Y-73562695D01*
X108253123Y-73562695D02*
X108253123Y-73467457D01*
X108253123Y-73467457D02*
X108205504Y-73372219D01*
X108205504Y-73372219D02*
X108157885Y-73324600D01*
X108157885Y-73324600D02*
X108062647Y-73276980D01*
X108062647Y-73276980D02*
X107824552Y-73276980D01*
X107824552Y-73276980D02*
X107681695Y-73324600D01*
X107348361Y-73276980D02*
X107110266Y-74276980D01*
X107110266Y-74276980D02*
X106919790Y-73562695D01*
X106919790Y-73562695D02*
X106729314Y-74276980D01*
X106729314Y-74276980D02*
X106491219Y-73276980D01*
X106110266Y-74276980D02*
X106110266Y-73276980D01*
X105776933Y-73276980D02*
X105205505Y-73276980D01*
X105491219Y-74276980D02*
X105491219Y-73276980D01*
X104300743Y-74181742D02*
X104348362Y-74229361D01*
X104348362Y-74229361D02*
X104491219Y-74276980D01*
X104491219Y-74276980D02*
X104586457Y-74276980D01*
X104586457Y-74276980D02*
X104729314Y-74229361D01*
X104729314Y-74229361D02*
X104824552Y-74134123D01*
X104824552Y-74134123D02*
X104872171Y-74038885D01*
X104872171Y-74038885D02*
X104919790Y-73848409D01*
X104919790Y-73848409D02*
X104919790Y-73705552D01*
X104919790Y-73705552D02*
X104872171Y-73515076D01*
X104872171Y-73515076D02*
X104824552Y-73419838D01*
X104824552Y-73419838D02*
X104729314Y-73324600D01*
X104729314Y-73324600D02*
X104586457Y-73276980D01*
X104586457Y-73276980D02*
X104491219Y-73276980D01*
X104491219Y-73276980D02*
X104348362Y-73324600D01*
X104348362Y-73324600D02*
X104300743Y-73372219D01*
X103872171Y-74276980D02*
X103872171Y-73276980D01*
X103872171Y-73753171D02*
X103300743Y-73753171D01*
X103300743Y-74276980D02*
X103300743Y-73276980D01*
X102824552Y-73753171D02*
X102491219Y-73753171D01*
X102348362Y-74276980D02*
X102824552Y-74276980D01*
X102824552Y-74276980D02*
X102824552Y-73276980D01*
X102824552Y-73276980D02*
X102348362Y-73276980D01*
X101919790Y-74276980D02*
X101919790Y-73276980D01*
X101919790Y-73276980D02*
X101681695Y-73276980D01*
X101681695Y-73276980D02*
X101538838Y-73324600D01*
X101538838Y-73324600D02*
X101443600Y-73419838D01*
X101443600Y-73419838D02*
X101395981Y-73515076D01*
X101395981Y-73515076D02*
X101348362Y-73705552D01*
X101348362Y-73705552D02*
X101348362Y-73848409D01*
X101348362Y-73848409D02*
X101395981Y-74038885D01*
X101395981Y-74038885D02*
X101443600Y-74134123D01*
X101443600Y-74134123D02*
X101538838Y-74229361D01*
X101538838Y-74229361D02*
X101681695Y-74276980D01*
X101681695Y-74276980D02*
X101919790Y-74276980D01*
X99843600Y-74276980D02*
X100319790Y-74276980D01*
X100319790Y-74276980D02*
X100319790Y-73276980D01*
X99510266Y-74276980D02*
X99510266Y-73276980D01*
X99034076Y-74276980D02*
X99034076Y-73276980D01*
X99034076Y-73276980D02*
X98462648Y-74276980D01*
X98462648Y-74276980D02*
X98462648Y-73276980D01*
X97986457Y-73753171D02*
X97653124Y-73753171D01*
X97510267Y-74276980D02*
X97986457Y-74276980D01*
X97986457Y-74276980D02*
X97986457Y-73276980D01*
X97986457Y-73276980D02*
X97510267Y-73276980D01*
%LPC*%
D11*
X95959999Y-107444999D03*
D12*
X95960000Y-112525000D03*
X95960000Y-117605000D03*
D11*
X139774999Y-115364999D03*
D12*
X144855000Y-115365000D03*
X149935000Y-115365000D03*
D13*
X190638000Y-113364800D03*
D14*
X148029999Y-89029999D03*
D15*
X148029999Y-86489999D03*
X150569999Y-89029999D03*
X150569999Y-86489999D03*
X153109999Y-89029999D03*
X153109999Y-86489999D03*
D14*
X138504999Y-70614999D03*
D15*
X135964999Y-70614999D03*
X133424999Y-70614999D03*
X130884999Y-70614999D03*
X128344999Y-70614999D03*
X125804999Y-70614999D03*
D16*
X105728334Y-99490000D03*
D17*
X107678334Y-105540000D03*
D16*
X119878334Y-105540000D03*
D17*
X107678334Y-93540000D03*
D16*
X136610000Y-99490000D03*
D17*
X138560000Y-105540000D03*
D16*
X150760000Y-105540000D03*
D17*
X138560000Y-93540000D03*
D18*
X92594000Y-71070000D03*
D11*
X201158333Y-115364999D03*
D12*
X206238334Y-115365000D03*
X211318334Y-115365000D03*
D19*
X199691200Y-75273200D03*
X192191200Y-75273200D03*
D20*
X201521200Y-75188200D03*
X201521200Y-70518200D03*
X190361200Y-75188200D03*
X190361200Y-70508200D03*
D21*
X210715599Y-70836999D03*
X203565599Y-70836999D03*
D16*
X167491666Y-99490000D03*
D17*
X169441666Y-105540000D03*
D16*
X181641666Y-105540000D03*
D17*
X169441666Y-93540000D03*
D11*
X170466665Y-115364999D03*
D12*
X175546666Y-115365000D03*
X180626666Y-115365000D03*
D18*
X214768000Y-71345000D03*
D11*
X109076784Y-115364999D03*
D12*
X114156785Y-115365000D03*
X119236785Y-115365000D03*
D16*
X198373334Y-99490000D03*
D17*
X200323334Y-105540000D03*
D16*
X212523334Y-105540000D03*
D17*
X200323334Y-93540000D03*
D22*
X186129999Y-73789999D03*
D23*
X182630000Y-73790000D03*
D13*
X129170000Y-113364800D03*
D14*
X143584999Y-75059999D03*
D15*
X143584999Y-77599999D03*
X143584999Y-80139999D03*
X143584999Y-82679999D03*
M02*
