G04 #@! TF.GenerationSoftware,KiCad,Pcbnew,(7.0.0)*
G04 #@! TF.CreationDate,2023-02-25T12:05:00-06:00*
G04 #@! TF.ProjectId,Autorelay,4175746f-7265-46c6-9179-2e6b69636164,1*
G04 #@! TF.SameCoordinates,Original*
G04 #@! TF.FileFunction,Soldermask,Top*
G04 #@! TF.FilePolarity,Negative*
%FSLAX46Y46*%
G04 Gerber Fmt 4.6, Leading zero omitted, Abs format (unit mm)*
G04 Created by KiCad (PCBNEW (7.0.0)) date 2023-02-25 12:05:00*
%MOMM*%
%LPD*%
G01*
G04 APERTURE LIST*
G04 Aperture macros list*
%AMRoundRect*
0 Rectangle with rounded corners*
0 $1 Rounding radius*
0 $2 $3 $4 $5 $6 $7 $8 $9 X,Y pos of 4 corners*
0 Add a 4 corners polygon primitive as box body*
4,1,4,$2,$3,$4,$5,$6,$7,$8,$9,$2,$3,0*
0 Add four circle primitives for the rounded corners*
1,1,$1+$1,$2,$3*
1,1,$1+$1,$4,$5*
1,1,$1+$1,$6,$7*
1,1,$1+$1,$8,$9*
0 Add four rect primitives between the rounded corners*
20,1,$1+$1,$2,$3,$4,$5,0*
20,1,$1+$1,$4,$5,$6,$7,0*
20,1,$1+$1,$6,$7,$8,$9,0*
20,1,$1+$1,$8,$9,$2,$3,0*%
G04 Aperture macros list end*
%ADD10R,2.600000X2.600000*%
%ADD11C,2.600000*%
%ADD12R,1.200000X1.200000*%
%ADD13R,1.500000X1.600000*%
%ADD14C,2.200000*%
%ADD15RoundRect,0.225000X-0.375000X0.225000X-0.375000X-0.225000X0.375000X-0.225000X0.375000X0.225000X0*%
%ADD16RoundRect,0.243750X0.456250X-0.243750X0.456250X0.243750X-0.456250X0.243750X-0.456250X-0.243750X0*%
%ADD17RoundRect,0.200000X-0.200000X-0.275000X0.200000X-0.275000X0.200000X0.275000X-0.200000X0.275000X0*%
%ADD18R,1.600000X0.550000*%
%ADD19R,0.550000X1.600000*%
%ADD20RoundRect,0.200000X0.200000X0.275000X-0.200000X0.275000X-0.200000X-0.275000X0.200000X-0.275000X0*%
%ADD21R,1.700000X1.700000*%
%ADD22O,1.700000X1.700000*%
%ADD23RoundRect,0.225000X-0.225000X-0.250000X0.225000X-0.250000X0.225000X0.250000X-0.225000X0.250000X0*%
%ADD24RoundRect,0.200000X-0.275000X0.200000X-0.275000X-0.200000X0.275000X-0.200000X0.275000X0.200000X0*%
%ADD25C,3.000000*%
%ADD26C,2.500000*%
%ADD27C,3.800000*%
%ADD28RoundRect,0.243750X0.243750X0.456250X-0.243750X0.456250X-0.243750X-0.456250X0.243750X-0.456250X0*%
%ADD29RoundRect,0.150000X0.512500X0.150000X-0.512500X0.150000X-0.512500X-0.150000X0.512500X-0.150000X0*%
%ADD30R,1.100000X1.500000*%
%ADD31C,0.670000*%
%ADD32R,0.250000X1.450000*%
%ADD33R,0.300000X1.450000*%
%ADD34RoundRect,0.500000X0.000000X0.600000X0.000000X0.600000X0.000000X-0.600000X0.000000X-0.600000X0*%
%ADD35RoundRect,0.250000X0.650000X-0.325000X0.650000X0.325000X-0.650000X0.325000X-0.650000X-0.325000X0*%
%ADD36RoundRect,0.250000X0.325000X0.650000X-0.325000X0.650000X-0.325000X-0.650000X0.325000X-0.650000X0*%
%ADD37R,0.400000X1.400000*%
%ADD38O,1.050000X1.900000*%
%ADD39R,1.150000X1.450000*%
%ADD40R,1.750000X1.900000*%
%ADD41R,1.900000X0.400000*%
%ADD42RoundRect,0.150000X-0.587500X-0.150000X0.587500X-0.150000X0.587500X0.150000X-0.587500X0.150000X0*%
%ADD43RoundRect,0.225000X0.225000X0.250000X-0.225000X0.250000X-0.225000X-0.250000X0.225000X-0.250000X0*%
%ADD44RoundRect,0.243750X-0.456250X0.243750X-0.456250X-0.243750X0.456250X-0.243750X0.456250X0.243750X0*%
%ADD45R,1.300000X1.550000*%
%ADD46R,1.000000X1.500000*%
%ADD47R,2.400000X2.400000*%
%ADD48C,2.400000*%
%ADD49RoundRect,0.225000X0.250000X-0.225000X0.250000X0.225000X-0.250000X0.225000X-0.250000X-0.225000X0*%
G04 APERTURE END LIST*
D10*
X95959999Y-107444999D03*
D11*
X95960000Y-112525000D03*
X95960000Y-117605000D03*
D10*
X139774999Y-115364999D03*
D11*
X144855000Y-115365000D03*
X149935000Y-115365000D03*
D12*
X157819999Y-72074999D03*
D13*
X154569999Y-71074999D03*
D12*
X157819999Y-70074999D03*
D14*
X190638000Y-113364800D03*
D15*
X194130000Y-93730000D03*
X194130000Y-97030000D03*
X100785000Y-93730000D03*
X100785000Y-97030000D03*
D16*
X159840000Y-96952500D03*
X159840000Y-95077500D03*
D17*
X190575000Y-90935000D03*
X192225000Y-90935000D03*
D18*
X128344999Y-78349999D03*
X128344999Y-79149999D03*
X128344999Y-79949999D03*
X128344999Y-80749999D03*
X128344999Y-81549999D03*
X128344999Y-82349999D03*
X128344999Y-83149999D03*
X128344999Y-83949999D03*
D19*
X129794999Y-85399999D03*
X130594999Y-85399999D03*
X131394999Y-85399999D03*
X132194999Y-85399999D03*
X132994999Y-85399999D03*
X133794999Y-85399999D03*
X134594999Y-85399999D03*
X135394999Y-85399999D03*
D18*
X136844999Y-83949999D03*
X136844999Y-83149999D03*
X136844999Y-82349999D03*
X136844999Y-81549999D03*
X136844999Y-80749999D03*
X136844999Y-79949999D03*
X136844999Y-79149999D03*
X136844999Y-78349999D03*
D19*
X135394999Y-76899999D03*
X134594999Y-76899999D03*
X133794999Y-76899999D03*
X132994999Y-76899999D03*
X132194999Y-76899999D03*
X131394999Y-76899999D03*
X130594999Y-76899999D03*
X129794999Y-76899999D03*
D17*
X171335000Y-71550000D03*
X172985000Y-71550000D03*
D20*
X127655000Y-101730000D03*
X126005000Y-101730000D03*
D21*
X148029999Y-89029999D03*
D22*
X148029999Y-86489999D03*
X150569999Y-89029999D03*
X150569999Y-86489999D03*
X153109999Y-89029999D03*
X153109999Y-86489999D03*
D17*
X97865000Y-92205000D03*
X99515000Y-92205000D03*
D16*
X128290000Y-96952500D03*
X128290000Y-95077500D03*
D23*
X138860000Y-81410000D03*
X140410000Y-81410000D03*
D17*
X188035000Y-99825000D03*
X189685000Y-99825000D03*
D21*
X138504999Y-70614999D03*
D22*
X135964999Y-70614999D03*
X133424999Y-70614999D03*
X130884999Y-70614999D03*
X128344999Y-70614999D03*
X125804999Y-70614999D03*
D24*
X123023200Y-73478600D03*
X123023200Y-75128600D03*
D25*
X105728334Y-99490000D03*
D26*
X107678334Y-105540000D03*
D25*
X119878334Y-105540000D03*
D26*
X107678334Y-93540000D03*
D16*
X191590000Y-96317500D03*
X191590000Y-94442500D03*
D15*
X162380000Y-93730000D03*
X162380000Y-97030000D03*
D25*
X136610000Y-99490000D03*
D26*
X138560000Y-105540000D03*
D25*
X150760000Y-105540000D03*
D26*
X138560000Y-93540000D03*
D27*
X92594000Y-71070000D03*
D20*
X189685000Y-101730000D03*
X188035000Y-101730000D03*
D17*
X126005000Y-99825000D03*
X127655000Y-99825000D03*
D28*
X143846600Y-86229400D03*
X141971600Y-86229400D03*
D12*
X151819999Y-72074999D03*
D13*
X148569999Y-71074999D03*
D12*
X151819999Y-70074999D03*
D10*
X201158333Y-115364999D03*
D11*
X206238334Y-115365000D03*
X211318334Y-115365000D03*
D24*
X135520000Y-73410000D03*
X135520000Y-75060000D03*
D29*
X177800000Y-75360000D03*
X177800000Y-74410000D03*
X177800000Y-73460000D03*
X175525000Y-73460000D03*
X175525000Y-75360000D03*
D23*
X138860000Y-83315000D03*
X140410000Y-83315000D03*
D30*
X101687199Y-84054999D03*
X104227199Y-84054999D03*
X106767199Y-84054999D03*
X109307199Y-84054999D03*
X109307199Y-75154999D03*
X106767199Y-75154999D03*
X104227199Y-75154999D03*
X101687199Y-75154999D03*
D17*
X157300000Y-99825000D03*
X158950000Y-99825000D03*
X159650000Y-91570000D03*
X161300000Y-91570000D03*
D24*
X197115000Y-79425000D03*
X197115000Y-81075000D03*
D31*
X199691200Y-75273200D03*
X192191200Y-75273200D03*
D32*
X199316199Y-76648199D03*
X198516199Y-76648199D03*
X197191199Y-76648199D03*
X196191199Y-76648199D03*
X195691199Y-76648199D03*
X194691199Y-76648199D03*
X193366199Y-76648199D03*
X192566199Y-76648199D03*
D33*
X192841199Y-76648199D03*
X193641199Y-76648199D03*
D32*
X194191199Y-76648199D03*
X195191199Y-76648199D03*
X196691199Y-76648199D03*
X197691199Y-76648199D03*
D33*
X198241199Y-76648199D03*
X199041199Y-76648199D03*
D34*
X201521200Y-75188200D03*
X201521200Y-70518200D03*
X190361200Y-75188200D03*
X190361200Y-70508200D03*
D35*
X167905000Y-72820000D03*
X167905000Y-69870000D03*
D17*
X138759000Y-86331000D03*
X140409000Y-86331000D03*
X127910000Y-91570000D03*
X129560000Y-91570000D03*
D36*
X178005000Y-70915000D03*
X175055000Y-70915000D03*
D37*
X208440599Y-73486999D03*
X207790599Y-73486999D03*
X207140599Y-73486999D03*
X206490599Y-73486999D03*
X205840599Y-73486999D03*
D38*
X210715599Y-70836999D03*
D39*
X209460599Y-73066999D03*
D40*
X208265599Y-70836999D03*
X206015599Y-70836999D03*
D39*
X204820599Y-73066999D03*
D38*
X203565599Y-70836999D03*
D41*
X125804999Y-86349999D03*
X125804999Y-85149999D03*
X125804999Y-83949999D03*
D42*
X99515000Y-99825000D03*
X99515000Y-101725000D03*
X101390000Y-100775000D03*
D43*
X126085000Y-80775000D03*
X124535000Y-80775000D03*
D23*
X124890000Y-75060000D03*
X126440000Y-75060000D03*
D24*
X193940000Y-79425000D03*
X193940000Y-81075000D03*
X133615000Y-73410000D03*
X133615000Y-75060000D03*
D44*
X171715000Y-73787500D03*
X171715000Y-75662500D03*
D25*
X167491666Y-99490000D03*
D26*
X169441666Y-105540000D03*
D25*
X181641666Y-105540000D03*
D26*
X169441666Y-93540000D03*
D10*
X170466665Y-115364999D03*
D11*
X175546666Y-115365000D03*
X180626666Y-115365000D03*
D27*
X214768000Y-71345000D03*
D42*
X160807500Y-99510000D03*
X160807500Y-101410000D03*
X162682500Y-100460000D03*
D16*
X98245000Y-97285000D03*
X98245000Y-95410000D03*
D42*
X129590000Y-99510000D03*
X129590000Y-101410000D03*
X131465000Y-100460000D03*
D45*
X114374999Y-83299999D03*
X114374999Y-75349999D03*
X118874999Y-83299999D03*
X118874999Y-75349999D03*
D10*
X109076784Y-115364999D03*
D11*
X114156785Y-115365000D03*
X119236785Y-115365000D03*
D15*
X130830000Y-93730000D03*
X130830000Y-97030000D03*
D25*
X198373334Y-99490000D03*
D26*
X200323334Y-105540000D03*
D25*
X212523334Y-105540000D03*
D26*
X200323334Y-93540000D03*
D46*
X169174999Y-75359999D03*
X167874999Y-75359999D03*
D47*
X186129999Y-73789999D03*
D48*
X182630000Y-73790000D03*
D20*
X158760000Y-101730000D03*
X157110000Y-101730000D03*
D42*
X191620000Y-99510000D03*
X191620000Y-101410000D03*
X193495000Y-100460000D03*
D14*
X129170000Y-113364800D03*
D17*
X95930000Y-99825000D03*
X97580000Y-99825000D03*
D49*
X165365000Y-72465000D03*
X165365000Y-70915000D03*
D20*
X97546000Y-101621800D03*
X95896000Y-101621800D03*
D21*
X143584999Y-75059999D03*
D22*
X143584999Y-77599999D03*
X143584999Y-80139999D03*
X143584999Y-82679999D03*
M02*
